  0
SECTION
  2
HEADER
  9
$ACADVER
  1
AC1009
  9
$INSBASE
 10
0.0
 20
0.0
 30
0.0
  9
$EXTMIN
 10
1.958075
 20
2.02544
 30
0.0
  9
$EXTMAX
 10
4.915568
 20
3.989161
 30
0.0
  9
$LIMMIN
 10
0.0
 20
0.0
  9
$LIMMAX
 10
0.0
 20
0.0
  9
$ORTHOMODE
 70
     0
  9
$REGENMODE
 70
     1
  9
$FILLMODE
 70
     1
  9
$QTEXTMODE
 70
     0
  9
$MIRRTEXT
 70
     1
  9
$DRAGMODE
 70
     2
  9
$LTSCALE
 40
1.0
  9
$OSMODE
 70
     0
  9
$ATTMODE
 70
     1
  9
$TEXTSIZE
 40
0.2
  9
$TRACEWID
 40
0.05
  9
$TEXTSTYLE
  7
STANDARD
  9
$CLAYER
  8
0
  9
$CELTYPE
  6
CONTINUOUS
  9
$CECOLOR
 62
   256
  9
$DIMSCALE
 40
1.0
  9
$DIMASZ
 40
0.18
  9
$DIMEXO
 40
0.0625
  9
$DIMDLI
 40
0.38
  9
$DIMRND
 40
0.0
  9
$DIMDLE
 40
0.0
  9
$DIMEXE
 40
0.18
  9
$DIMTP
 40
0.0
  9
$DIMTM
 40
0.0
  9
$DIMTXT
 40
0.18
  9
$DIMCEN
 40
0.09
  9
$DIMTSZ
 40
0.0
  9
$DIMTOL
 70
     0
  9
$DIMLIM
 70
     0
  9
$DIMTIH
 70
     1
  9
$DIMTOH
 70
     1
  9
$DIMSE1
 70
     0
  9
$DIMSE2
 70
     0
  9
$DIMTAD
 70
     0
  9
$DIMZIN
 70
     0
  9
$DIMBLK
  1

  9
$DIMASO
 70
     1
  9
$DIMSHO
 70
     1
  9
$DIMPOST
  1

  9
$DIMAPOST
  1

  9
$DIMALT
 70
     0
  9
$DIMALTD
 70
     2
  9
$DIMALTF
 40
25.4
  9
$DIMLFAC
 40
1.0
  9
$DIMTOFL
 70
     0
  9
$DIMTVP
 40
0.0
  9
$DIMTIX
 70
     0
  9
$DIMSOXD
 70
     0
  9
$DIMSAH
 70
     0
  9
$DIMBLK1
  1

  9
$DIMBLK2
  1

  9
$DIMSTYLE
  2
STANDARD
  9
$DIMCLRD
 70
     0
  9
$DIMCLRE
 70
     0
  9
$DIMCLRT
 70
     0
  9
$DIMTFAC
 40
1.0
  9
$DIMGAP
 40
0.09
  9
$LUNITS
 70
     2
  9
$LUPREC
 70
     4
  9
$AXISMODE
 70
     0
  9
$AXISUNIT
 10
0.0
 20
0.0
  9
$SKETCHINC
 40
0.1
  9
$FILLETRAD
 40
0.0
  9
$AUNITS
 70
     0
  9
$AUPREC
 70
     0
  9
$MENU
  1
acad
  9
$ELEVATION
 40
0.0
  9
$PELEVATION
 40
0.0
  9
$THICKNESS
 40
0.0
  9
$LIMCHECK
 70
     0
  9
$BLIPMODE
 70
     1
  9
$CHAMFERA
 40
0.0
  9
$CHAMFERB
 40
0.0
  9
$SKPOLY
 70
     0
  9
$TDCREATE
 40
0.000000000
  9
$TDUPDATE
 40
0.000000000
  9
$TDINDWG
 40
0.0000000000
  9
$TDUSRTIMER
 40
0.0000000000
  9
$USRTIMER
 70
     1
  9
$ANGBASE
 50
0.0
  9
$ANGDIR
 70
     0
  9
$PDMODE
 70
     0
  9
$PDSIZE
 40
0.0
  9
$PLINEWID
 40
0.0
  9
$COORDS
 70
     0
  9
$SPLFRAME
 70
     0
  9
$SPLINETYPE
 70
     6
  9
$SPLINESEGS
 70
     8
  9
$ATTDIA
 70
     0
  9
$ATTREQ
 70
     1
  9
$HANDLING
 70
     1
  9
$HANDSEED
  5
3CA
  9
$SURFTAB1
 70
     6
  9
$SURFTAB2
 70
     6
  9
$SURFTYPE
 70
     6
  9
$SURFU
 70
     6
  9
$SURFV
 70
     6
  9
$UCSNAME
  2

  9
$UCSORG
 10
0.0
 20
0.0
 30
0.0
  9
$UCSXDIR
 10
1.0
 20
0.0
 30
0.0
  9
$UCSYDIR
 10
0.0
 20
1.0
 30
0.0
  9
$PUCSNAME
  2

  9
$PUCSORG
 10
0.0
 20
0.0
 30
0.0
  9
$PUCSXDIR
 10
1.0
 20
0.0
 30
0.0
  9
$PUCSYDIR
 10
0.0
 20
1.0
 30
0.0
  9
$USERI1
 70
     0
  9
$USERI2
 70
     0
  9
$USERI3
 70
     0
  9
$USERI4
 70
     0
  9
$USERI5
 70
     0
  9
$USERR1
 40
0.0
  9
$USERR2
 40
0.0
  9
$USERR3
 40
0.0
  9
$USERR4
 40
0.0
  9
$USERR5
 40
0.0
  9
$WORLDVIEW
 70
     1
  9
$SHADEDGE
 70
     3
  9
$SHADEDIF
 70
    70
  9
$TILEMODE
 70
     1
  9
$MAXACTVP
 70
    16
  9
$PINSBASE
 10
0.0
 20
0.0
 30
0.0
  9
$PLIMCHECK
 70
     0
  9
$PEXTMIN
 10
1.000000E+20
 20
1.000000E+20
 30
1.000000E+20
  9
$PEXTMAX
 10
-1.000000E+20
 20
-1.000000E+20
 30
-1.000000E+20
  9
$PLIMMIN
 10
0.0
 20
0.0
  9
$PLIMMAX
 10
12.0
 20
9.0
  9
$UNITMODE
 70
     0
  9
$VISRETAIN
 70
     0
  9
$PLINEGEN
 70
     1
  9
$PSLTSCALE
 70
     0
  9
$TREEDEPTH
 70
  3020
  9
$DWGCODEPAGE
  3
dos850
  0
ENDSEC
  0
SECTION
  2
TABLES
  0
TABLE
  2
VPORT
 70
     1
  0
VPORT
  2
*ACTIVE
 70
     0
 10
0.0
 20
0.0
 11
1.0
 21
1.0
 12
6.591288
 22
4.579184
 13
0.0
 23
0.0
 14
1.0
 24
1.0
 15
0.0
 25
0.0
 16
0.0
 26
0.0
 36
1.0
 17
0.0
 27
0.0
 37
0.0
 40
9.158369
 41
0.688564
 42
50.0
 43
0.0
 44
0.0
 50
0.0
 51
0.0
 71
     0
 72
   100
 73
     1
 74
     1
 75
     0
 76
     0
 77
     0
 78
     0
  0
ENDTAB
  0
TABLE
  2
LTYPE
 70
     1
  0
LTYPE
  2
CONTINUOUS
 70
    64
  3
Solid line
 72
    65
 73
     0
 40
0.0
  0
ENDTAB
  0
TABLE
  2
LAYER
 70
    12
  0
LAYER
  2
0
 70
     0
 62
     7
  6
CONTINUOUS
  0
LAYER
  2
TOPLAYER
 70
     0
 62
     1
  6
CONTINUOUS
  0
LAYER
  2
BOTTOMLAYER
 70
     0
 62
     5
  6
CONTINUOUS
  0
LAYER
  2
TOPOVERLAY
 70
     0
 62
     2
  6
CONTINUOUS
  0
LAYER
  2
TOPPASTE
 70
     0
 62
     8
  6
CONTINUOUS
  0
LAYER
  2
BOTTOMPASTE
 70
     0
 62
    16
  6
CONTINUOUS
  0
LAYER
  2
TOPSOLDER
 70
     0
 62
   216
  6
CONTINUOUS
  0
LAYER
  2
BOTTOMSOLDER
 70
     0
 62
     6
  6
CONTINUOUS
  0
LAYER
  2
MECHANICAL1
 70
     0
 62
     6
  6
CONTINUOUS
  0
LAYER
  2
MULTILAYER
 70
     0
 62
     9
  6
CONTINUOUS
  0
LAYER
  2
PADHOLE
 70
     0
 62
   156
  6
CONTINUOUS
  0
LAYER
  2
VIAHOLE
 70
     0
 62
    16
  6
CONTINUOUS
  0
ENDTAB
  0
TABLE
  2
STYLE
 70
     1
  0
STYLE
  2
STANDARD
 70
     0
 40
0.0
 41
1.0
 50
0.0
 71
     0
 42
0.0
  3
txt
  4

  0
ENDTAB
  0
TABLE
  2
VIEW
 70
     0
  0
ENDTAB
  0
TABLE
  2
UCS
 70
     0
  0
ENDTAB
  0
TABLE
  2
APPID
 70
     1
  0
APPID
  2
ACAD
 70
     0
  0
ENDTAB
  0
TABLE
  2
DIMSTYLE
 70
     1
  0
DIMSTYLE
  2
STANDARD
 70
     0
  3

  4

  5

  6

  7

 40
1.0
 41
0.18
 42
0.0625
 43
0.38
 44
0.18
 45
0.0
 46
0.0
 47
0.0
 48
0.0
 71
     0
 72
     0
 73
     1
 74
     1
 75
     0
 76
     0
 77
     0
 78
     0
140
0.18
141
0.09
142
0.0
143
25.4
144
1.0
145
0.0
146
1.0
147
0.09
170
     0
171
     2
172
     0
173
     0
174
     0
175
     0
176
     0
177
     0
178
     0
  0
ENDTAB
  0
ENDSEC
  0
SECTION
  2
BLOCKS
  0
ENDSEC
  0
SECTION
  2
ENTITIES
  0
POLYLINE
  8
MECHANICAL1
  5
28
 66
     1
 10
0.0
 20
0.0
 30
0.0
 40
0.01
 41
0.01
 75
     8
  0
VERTEX
  8
MECHANICAL1
  5
29
 10
2.373575
 20
3.663661
 30
0.0
  0
VERTEX
  8
MECHANICAL1
  5
2A
 10
2.468575
 20
3.663661
 30
0.0
  0
SEQEND
  8
0
  5
2B
  0
POLYLINE
  8
MECHANICAL1
  5
2C
 66
     1
 10
0.0
 20
0.0
 30
0.0
 40
0.01
 41
0.01
 75
     8
  0
VERTEX
  8
MECHANICAL1
  5
2D
 10
2.233575
 20
2.666661
 30
0.0
  0
VERTEX
  8
MECHANICAL1
  5
2E
 10
2.483575
 20
2.666661
 30
0.0
  0
SEQEND
  8
0
  5
2F
  0
POLYLINE
  8
MECHANICAL1
  5
30
 66
     1
 10
0.0
 20
0.0
 30
0.0
 40
0.01
 41
0.01
 75
     8
  0
VERTEX
  8
MECHANICAL1
  5
31
 10
2.233575
 20
3.163661
 30
0.0
  0
VERTEX
  8
MECHANICAL1
  5
32
 10
2.483575
 20
3.163661
 30
0.0
  0
SEQEND
  8
0
  5
33
  0
POLYLINE
  8
MECHANICAL1
  5
34
 66
     1
 10
0.0
 20
0.0
 30
0.0
 40
0.01
 41
0.01
 75
     8
  0
VERTEX
  8
MECHANICAL1
  5
35
 10
2.233575
 20
2.666661
 30
0.0
  0
VERTEX
  8
MECHANICAL1
  5
36
 10
2.233575
 20
3.163661
 30
0.0
  0
SEQEND
  8
0
  5
37
  0
POLYLINE
  8
MECHANICAL1
  5
38
 66
     1
 10
0.0
 20
0.0
 30
0.0
 40
0.01
 41
0.01
 75
     8
  0
VERTEX
  8
MECHANICAL1
  5
39
 10
3.98
 20
3.963661
 30
0.0
  0
VERTEX
  8
MECHANICAL1
  5
3A
 10
4.04
 20
3.983661
 30
0.0
  0
SEQEND
  8
0
  5
3B
  0
POLYLINE
  8
MECHANICAL1
  5
3C
 66
     1
 10
0.0
 20
0.0
 30
0.0
 40
0.01
 41
0.01
 75
     8
  0
VERTEX
  8
MECHANICAL1
  5
3D
 10
3.98
 20
3.963661
 30
0.0
  0
VERTEX
  8
MECHANICAL1
  5
3E
 10
4.04
 20
3.943661
 30
0.0
  0
SEQEND
  8
0
  5
3F
  0
POLYLINE
  8
MECHANICAL1
  5
40
 66
     1
 10
0.0
 20
0.0
 30
0.0
 40
0.01
 41
0.01
 75
     8
  0
VERTEX
  8
MECHANICAL1
  5
41
 10
4.423575
 20
3.943661
 30
0.0
  0
VERTEX
  8
MECHANICAL1
  5
42
 10
4.483575
 20
3.963661
 30
0.0
  0
SEQEND
  8
0
  5
43
  0
POLYLINE
  8
MECHANICAL1
  5
44
 66
     1
 10
0.0
 20
0.0
 30
0.0
 40
0.01
 41
0.01
 75
     8
  0
VERTEX
  8
MECHANICAL1
  5
45
 10
4.423575
 20
3.983661
 30
0.0
  0
VERTEX
  8
MECHANICAL1
  5
46
 10
4.483575
 20
3.963661
 30
0.0
  0
SEQEND
  8
0
  5
47
  0
POLYLINE
  8
MECHANICAL1
  5
48
 66
     1
 10
0.0
 20
0.0
 30
0.0
 40
0.01
 41
0.01
 75
     8
  0
VERTEX
  8
MECHANICAL1
  5
49
 10
3.98
 20
3.963661
 30
0.0
  0
VERTEX
  8
MECHANICAL1
  5
4A
 10
4.089823
 20
3.963661
 30
0.0
  0
SEQEND
  8
0
  5
4B
  0
POLYLINE
  8
MECHANICAL1
  5
4C
 66
     1
 10
0.0
 20
0.0
 30
0.0
 40
0.01
 41
0.01
 75
     8
  0
VERTEX
  8
MECHANICAL1
  5
4D
 10
4.341752
 20
3.963661
 30
0.0
  0
VERTEX
  8
MECHANICAL1
  5
4E
 10
4.483575
 20
3.963661
 30
0.0
  0
SEQEND
  8
0
  5
4F
  0
POLYLINE
  8
MECHANICAL1
  5
50
 66
     1
 10
0.0
 20
0.0
 30
0.0
 40
0.01
 41
0.01
 75
     8
  0
VERTEX
  8
MECHANICAL1
  5
51
 10
3.98
 20
3.426559
 30
0.0
  0
VERTEX
  8
MECHANICAL1
  5
52
 10
3.98
 20
3.973661
 30
0.0
  0
SEQEND
  8
0
  5
53
  0
POLYLINE
  8
MECHANICAL1
  5
54
 66
     1
 10
0.0
 20
0.0
 30
0.0
 40
0.01
 41
0.01
 75
     8
  0
VERTEX
  8
MECHANICAL1
  5
55
 10
4.483575
 20
3.678661
 30
0.0
  0
VERTEX
  8
MECHANICAL1
  5
56
 10
4.483575
 20
3.973661
 30
0.0
  0
SEQEND
  8
0
  5
57
  0
POLYLINE
  8
MECHANICAL1
  5
58
 66
     1
 10
0.0
 20
0.0
 30
0.0
 40
0.01
 41
0.01
 75
     8
  0
VERTEX
  8
MECHANICAL1
  5
59
 10
4.483575
 20
3.764661
 30
0.0
  0
VERTEX
  8
MECHANICAL1
  5
5A
 10
4.543575
 20
3.784661
 30
0.0
  0
SEQEND
  8
0
  5
5B
  0
POLYLINE
  8
MECHANICAL1
  5
5C
 66
     1
 10
0.0
 20
0.0
 30
0.0
 40
0.01
 41
0.01
 75
     8
  0
VERTEX
  8
MECHANICAL1
  5
5D
 10
4.483575
 20
3.764661
 30
0.0
  0
VERTEX
  8
MECHANICAL1
  5
5E
 10
4.543575
 20
3.744661
 30
0.0
  0
SEQEND
  8
0
  5
5F
  0
POLYLINE
  8
MECHANICAL1
  5
60
 66
     1
 10
0.0
 20
0.0
 30
0.0
 40
0.01
 41
0.01
 75
     8
  0
VERTEX
  8
MECHANICAL1
  5
61
 10
4.146882
 20
3.744661
 30
0.0
  0
VERTEX
  8
MECHANICAL1
  5
62
 10
4.206882
 20
3.764661
 30
0.0
  0
SEQEND
  8
0
  5
63
  0
POLYLINE
  8
MECHANICAL1
  5
64
 66
     1
 10
0.0
 20
0.0
 30
0.0
 40
0.01
 41
0.01
 75
     8
  0
VERTEX
  8
MECHANICAL1
  5
65
 10
4.146882
 20
3.784661
 30
0.0
  0
VERTEX
  8
MECHANICAL1
  5
66
 10
4.206882
 20
3.764661
 30
0.0
  0
SEQEND
  8
0
  5
67
  0
POLYLINE
  8
MECHANICAL1
  5
68
 66
     1
 10
0.0
 20
0.0
 30
0.0
 40
0.01
 41
0.01
 75
     8
  0
VERTEX
  8
MECHANICAL1
  5
69
 10
4.483575
 20
3.764661
 30
0.0
  0
VERTEX
  8
MECHANICAL1
  5
6A
 10
4.583575
 20
3.764661
 30
0.0
  0
SEQEND
  8
0
  5
6B
  0
POLYLINE
  8
MECHANICAL1
  5
6C
 66
     1
 10
0.0
 20
0.0
 30
0.0
 40
0.01
 41
0.01
 75
     8
  0
VERTEX
  8
MECHANICAL1
  5
6D
 10
4.106882
 20
3.764661
 30
0.0
  0
VERTEX
  8
MECHANICAL1
  5
6E
 10
4.206882
 20
3.764661
 30
0.0
  0
SEQEND
  8
0
  5
6F
  0
POLYLINE
  8
MECHANICAL1
  5
70
 66
     1
 10
0.0
 20
0.0
 30
0.0
 40
0.01
 41
0.01
 75
     8
  0
VERTEX
  8
MECHANICAL1
  5
71
 10
4.206882
 20
3.426559
 30
0.0
  0
VERTEX
  8
MECHANICAL1
  5
72
 10
4.206882
 20
3.774661
 30
0.0
  0
SEQEND
  8
0
  5
73
  0
POLYLINE
  8
MECHANICAL1
  5
74
 66
     1
 10
0.0
 20
0.0
 30
0.0
 40
0.01
 41
0.01
 75
     8
  0
VERTEX
  8
MECHANICAL1
  5
75
 10
4.483575
 20
3.678661
 30
0.0
  0
VERTEX
  8
MECHANICAL1
  5
76
 10
4.483575
 20
3.774661
 30
0.0
  0
SEQEND
  8
0
  5
77
  0
POLYLINE
  8
MECHANICAL1
  5
78
 66
     1
 10
0.0
 20
0.0
 30
0.0
 40
0.01
 41
0.01
 75
     8
  0
VERTEX
  8
MECHANICAL1
  5
79
 10
4.022575
 20
3.863661
 30
0.0
  0
VERTEX
  8
MECHANICAL1
  5
7A
 10
4.082575
 20
3.883661
 30
0.0
  0
SEQEND
  8
0
  5
7B
  0
POLYLINE
  8
MECHANICAL1
  5
7C
 66
     1
 10
0.0
 20
0.0
 30
0.0
 40
0.01
 41
0.01
 75
     8
  0
VERTEX
  8
MECHANICAL1
  5
7D
 10
4.022575
 20
3.863661
 30
0.0
  0
VERTEX
  8
MECHANICAL1
  5
7E
 10
4.082575
 20
3.843661
 30
0.0
  0
SEQEND
  8
0
  5
7F
  0
POLYLINE
  8
MECHANICAL1
  5
80
 66
     1
 10
0.0
 20
0.0
 30
0.0
 40
0.01
 41
0.01
 75
     8
  0
VERTEX
  8
MECHANICAL1
  5
81
 10
4.423575
 20
3.843661
 30
0.0
  0
VERTEX
  8
MECHANICAL1
  5
82
 10
4.483575
 20
3.863661
 30
0.0
  0
SEQEND
  8
0
  5
83
  0
POLYLINE
  8
MECHANICAL1
  5
84
 66
     1
 10
0.0
 20
0.0
 30
0.0
 40
0.01
 41
0.01
 75
     8
  0
VERTEX
  8
MECHANICAL1
  5
85
 10
4.423575
 20
3.883661
 30
0.0
  0
VERTEX
  8
MECHANICAL1
  5
86
 10
4.483575
 20
3.863661
 30
0.0
  0
SEQEND
  8
0
  5
87
  0
POLYLINE
  8
MECHANICAL1
  5
88
 66
     1
 10
0.0
 20
0.0
 30
0.0
 40
0.01
 41
0.01
 75
     8
  0
VERTEX
  8
MECHANICAL1
  5
89
 10
4.022575
 20
3.863661
 30
0.0
  0
VERTEX
  8
MECHANICAL1
  5
8A
 10
4.114443
 20
3.863661
 30
0.0
  0
SEQEND
  8
0
  5
8B
  0
POLYLINE
  8
MECHANICAL1
  5
8C
 66
     1
 10
0.0
 20
0.0
 30
0.0
 40
0.01
 41
0.01
 75
     8
  0
VERTEX
  8
MECHANICAL1
  5
8D
 10
4.359707
 20
3.863661
 30
0.0
  0
VERTEX
  8
MECHANICAL1
  5
8E
 10
4.483575
 20
3.863661
 30
0.0
  0
SEQEND
  8
0
  5
8F
  0
POLYLINE
  8
MECHANICAL1
  5
90
 66
     1
 10
0.0
 20
0.0
 30
0.0
 40
0.01
 41
0.01
 75
     8
  0
VERTEX
  8
MECHANICAL1
  5
91
 10
4.022575
 20
3.512441
 30
0.0
  0
VERTEX
  8
MECHANICAL1
  5
92
 10
4.022575
 20
3.873661
 30
0.0
  0
SEQEND
  8
0
  5
93
  0
POLYLINE
  8
MECHANICAL1
  5
94
 66
     1
 10
0.0
 20
0.0
 30
0.0
 40
0.01
 41
0.01
 75
     8
  0
VERTEX
  8
MECHANICAL1
  5
95
 10
4.483575
 20
3.678661
 30
0.0
  0
VERTEX
  8
MECHANICAL1
  5
96
 10
4.483575
 20
3.873661
 30
0.0
  0
SEQEND
  8
0
  5
97
  0
POLYLINE
  8
MECHANICAL1
  5
98
 66
     1
 10
0.0
 20
0.0
 30
0.0
 40
0.01
 41
0.01
 75
     8
  0
VERTEX
  8
MECHANICAL1
  5
99
 10
2.608575
 20
3.764661
 30
0.0
  0
VERTEX
  8
MECHANICAL1
  5
9A
 10
2.668575
 20
3.784661
 30
0.0
  0
SEQEND
  8
0
  5
9B
  0
POLYLINE
  8
MECHANICAL1
  5
9C
 66
     1
 10
0.0
 20
0.0
 30
0.0
 40
0.01
 41
0.01
 75
     8
  0
VERTEX
  8
MECHANICAL1
  5
9D
 10
2.608575
 20
3.764661
 30
0.0
  0
VERTEX
  8
MECHANICAL1
  5
9E
 10
2.668575
 20
3.744661
 30
0.0
  0
SEQEND
  8
0
  5
9F
  0
POLYLINE
  8
MECHANICAL1
  5
A0
 66
     1
 10
0.0
 20
0.0
 30
0.0
 40
0.01
 41
0.01
 75
     8
  0
VERTEX
  8
MECHANICAL1
  5
A1
 10
2.423575
 20
3.744661
 30
0.0
  0
VERTEX
  8
MECHANICAL1
  5
A2
 10
2.483575
 20
3.764661
 30
0.0
  0
SEQEND
  8
0
  5
A3
  0
POLYLINE
  8
MECHANICAL1
  5
A4
 66
     1
 10
0.0
 20
0.0
 30
0.0
 40
0.01
 41
0.01
 75
     8
  0
VERTEX
  8
MECHANICAL1
  5
A5
 10
2.423575
 20
3.784661
 30
0.0
  0
VERTEX
  8
MECHANICAL1
  5
A6
 10
2.483575
 20
3.764661
 30
0.0
  0
SEQEND
  8
0
  5
A7
  0
POLYLINE
  8
MECHANICAL1
  5
A8
 66
     1
 10
0.0
 20
0.0
 30
0.0
 40
0.01
 41
0.01
 75
     8
  0
VERTEX
  8
MECHANICAL1
  5
A9
 10
2.608575
 20
3.764661
 30
0.0
  0
VERTEX
  8
MECHANICAL1
  5
AA
 10
2.708575
 20
3.764661
 30
0.0
  0
SEQEND
  8
0
  5
AB
  0
POLYLINE
  8
MECHANICAL1
  5
AC
 66
     1
 10
0.0
 20
0.0
 30
0.0
 40
0.01
 41
0.01
 75
     8
  0
VERTEX
  8
MECHANICAL1
  5
AD
 10
2.383575
 20
3.764661
 30
0.0
  0
VERTEX
  8
MECHANICAL1
  5
AE
 10
2.483575
 20
3.764661
 30
0.0
  0
SEQEND
  8
0
  5
AF
  0
POLYLINE
  8
MECHANICAL1
  5
B0
 66
     1
 10
0.0
 20
0.0
 30
0.0
 40
0.01
 41
0.01
 75
     8
  0
VERTEX
  8
MECHANICAL1
  5
B1
 10
2.483575
 20
3.678661
 30
0.0
  0
VERTEX
  8
MECHANICAL1
  5
B2
 10
2.483575
 20
3.774661
 30
0.0
  0
SEQEND
  8
0
  5
B3
  0
POLYLINE
  8
MECHANICAL1
  5
B4
 66
     1
 10
0.0
 20
0.0
 30
0.0
 40
0.01
 41
0.01
 75
     8
  0
VERTEX
  8
MECHANICAL1
  5
B5
 10
2.608575
 20
3.677661
 30
0.0
  0
VERTEX
  8
MECHANICAL1
  5
B6
 10
2.608575
 20
3.774661
 30
0.0
  0
SEQEND
  8
0
  5
B7
  0
POLYLINE
  8
MECHANICAL1
  5
B8
 66
     1
 10
0.0
 20
0.0
 30
0.0
 40
0.01
 41
0.01
 75
     8
  0
VERTEX
  8
MECHANICAL1
  5
B9
 10
2.383575
 20
3.538661
 30
0.0
  0
VERTEX
  8
MECHANICAL1
  5
BA
 10
2.403575
 20
3.478661
 30
0.0
  0
SEQEND
  8
0
  5
BB
  0
POLYLINE
  8
MECHANICAL1
  5
BC
 66
     1
 10
0.0
 20
0.0
 30
0.0
 40
0.01
 41
0.01
 75
     8
  0
VERTEX
  8
MECHANICAL1
  5
BD
 10
2.363575
 20
3.478661
 30
0.0
  0
VERTEX
  8
MECHANICAL1
  5
BE
 10
2.383575
 20
3.538661
 30
0.0
  0
SEQEND
  8
0
  5
BF
  0
POLYLINE
  8
MECHANICAL1
  5
C0
 66
     1
 10
0.0
 20
0.0
 30
0.0
 40
0.01
 41
0.01
 75
     8
  0
VERTEX
  8
MECHANICAL1
  5
C1
 10
2.363575
 20
3.723661
 30
0.0
  0
VERTEX
  8
MECHANICAL1
  5
C2
 10
2.383575
 20
3.663661
 30
0.0
  0
SEQEND
  8
0
  5
C3
  0
POLYLINE
  8
MECHANICAL1
  5
C4
 66
     1
 10
0.0
 20
0.0
 30
0.0
 40
0.01
 41
0.01
 75
     8
  0
VERTEX
  8
MECHANICAL1
  5
C5
 10
2.383575
 20
3.663661
 30
0.0
  0
VERTEX
  8
MECHANICAL1
  5
C6
 10
2.403575
 20
3.723661
 30
0.0
  0
SEQEND
  8
0
  5
C7
  0
POLYLINE
  8
MECHANICAL1
  5
C8
 66
     1
 10
0.0
 20
0.0
 30
0.0
 40
0.01
 41
0.01
 75
     8
  0
VERTEX
  8
MECHANICAL1
  5
C9
 10
2.383575
 20
3.438661
 30
0.0
  0
VERTEX
  8
MECHANICAL1
  5
CA
 10
2.383575
 20
3.538661
 30
0.0
  0
SEQEND
  8
0
  5
CB
  0
POLYLINE
  8
MECHANICAL1
  5
CC
 66
     1
 10
0.0
 20
0.0
 30
0.0
 40
0.01
 41
0.01
 75
     8
  0
VERTEX
  8
MECHANICAL1
  5
CD
 10
2.383575
 20
3.663661
 30
0.0
  0
VERTEX
  8
MECHANICAL1
  5
CE
 10
2.383575
 20
3.763661
 30
0.0
  0
SEQEND
  8
0
  5
CF
  0
POLYLINE
  8
MECHANICAL1
  5
D0
 66
     1
 10
0.0
 20
0.0
 30
0.0
 40
0.01
 41
0.01
 75
     8
  0
VERTEX
  8
MECHANICAL1
  5
D1
 10
2.373575
 20
3.663661
 30
0.0
  0
VERTEX
  8
MECHANICAL1
  5
D2
 10
2.468575
 20
3.663661
 30
0.0
  0
SEQEND
  8
0
  5
D3
  0
POLYLINE
  8
MECHANICAL1
  5
D4
 66
     1
 10
0.0
 20
0.0
 30
0.0
 40
0.01
 41
0.01
 75
     8
  0
VERTEX
  8
MECHANICAL1
  5
D5
 10
2.373575
 20
3.538661
 30
0.0
  0
VERTEX
  8
MECHANICAL1
  5
D6
 10
2.469575
 20
3.538661
 30
0.0
  0
SEQEND
  8
0
  5
D7
  0
POLYLINE
  8
MECHANICAL1
  5
D8
 66
     1
 10
0.0
 20
0.0
 30
0.0
 40
0.01
 41
0.01
 75
     8
  0
VERTEX
  8
MECHANICAL1
  5
D9
 10
2.082575
 20
3.663661
 30
0.0
  0
VERTEX
  8
MECHANICAL1
  5
DA
 10
2.102575
 20
3.603661
 30
0.0
  0
SEQEND
  8
0
  5
DB
  0
POLYLINE
  8
MECHANICAL1
  5
DC
 66
     1
 10
0.0
 20
0.0
 30
0.0
 40
0.01
 41
0.01
 75
     8
  0
VERTEX
  8
MECHANICAL1
  5
DD
 10
2.062575
 20
3.603661
 30
0.0
  0
VERTEX
  8
MECHANICAL1
  5
DE
 10
2.082575
 20
3.663661
 30
0.0
  0
SEQEND
  8
0
  5
DF
  0
POLYLINE
  8
MECHANICAL1
  5
E0
 66
     1
 10
0.0
 20
0.0
 30
0.0
 40
0.01
 41
0.01
 75
     8
  0
VERTEX
  8
MECHANICAL1
  5
E1
 10
2.062575
 20
3.223661
 30
0.0
  0
VERTEX
  8
MECHANICAL1
  5
E2
 10
2.082575
 20
3.163661
 30
0.0
  0
SEQEND
  8
0
  5
E3
  0
POLYLINE
  8
MECHANICAL1
  5
E4
 66
     1
 10
0.0
 20
0.0
 30
0.0
 40
0.01
 41
0.01
 75
     8
  0
VERTEX
  8
MECHANICAL1
  5
E5
 10
2.082575
 20
3.163661
 30
0.0
  0
VERTEX
  8
MECHANICAL1
  5
E6
 10
2.102575
 20
3.223661
 30
0.0
  0
SEQEND
  8
0
  5
E7
  0
POLYLINE
  8
MECHANICAL1
  5
E8
 66
     1
 10
0.0
 20
0.0
 30
0.0
 40
0.01
 41
0.01
 75
     8
  0
VERTEX
  8
MECHANICAL1
  5
E9
 10
2.082575
 20
3.523626
 30
0.0
  0
VERTEX
  8
MECHANICAL1
  5
EA
 10
2.082575
 20
3.663661
 30
0.0
  0
SEQEND
  8
0
  5
EB
  0
POLYLINE
  8
MECHANICAL1
  5
EC
 66
     1
 10
0.0
 20
0.0
 30
0.0
 40
0.01
 41
0.01
 75
     8
  0
VERTEX
  8
MECHANICAL1
  5
ED
 10
2.082575
 20
3.163661
 30
0.0
  0
VERTEX
  8
MECHANICAL1
  5
EE
 10
2.082575
 20
3.271697
 30
0.0
  0
SEQEND
  8
0
  5
EF
  0
POLYLINE
  8
MECHANICAL1
  5
F0
 66
     1
 10
0.0
 20
0.0
 30
0.0
 40
0.01
 41
0.01
 75
     8
  0
VERTEX
  8
MECHANICAL1
  5
F1
 10
2.072575
 20
3.663661
 30
0.0
  0
VERTEX
  8
MECHANICAL1
  5
F2
 10
2.468575
 20
3.663661
 30
0.0
  0
SEQEND
  8
0
  5
F3
  0
POLYLINE
  8
MECHANICAL1
  5
F4
 66
     1
 10
0.0
 20
0.0
 30
0.0
 40
0.01
 41
0.01
 75
     8
  0
VERTEX
  8
MECHANICAL1
  5
F5
 10
2.072575
 20
3.163661
 30
0.0
  0
VERTEX
  8
MECHANICAL1
  5
F6
 10
2.218575
 20
3.163661
 30
0.0
  0
SEQEND
  8
0
  5
F7
  0
POLYLINE
  8
MECHANICAL1
  5
F8
 66
     1
 10
0.0
 20
0.0
 30
0.0
 40
0.01
 41
0.01
 75
     8
  0
VERTEX
  8
MECHANICAL1
  5
F9
 10
2.062575
 20
2.223661
 30
0.0
  0
VERTEX
  8
MECHANICAL1
  5
FA
 10
2.082575
 20
2.163661
 30
0.0
  0
SEQEND
  8
0
  5
FB
  0
POLYLINE
  8
MECHANICAL1
  5
FC
 66
     1
 10
0.0
 20
0.0
 30
0.0
 40
0.01
 41
0.01
 75
     8
  0
VERTEX
  8
MECHANICAL1
  5
FD
 10
2.082575
 20
2.163661
 30
0.0
  0
VERTEX
  8
MECHANICAL1
  5
FE
 10
2.102575
 20
2.223661
 30
0.0
  0
SEQEND
  8
0
  5
FF
  0
POLYLINE
  8
MECHANICAL1
  5
100
 66
     1
 10
0.0
 20
0.0
 30
0.0
 40
0.01
 41
0.01
 75
     8
  0
VERTEX
  8
MECHANICAL1
  5
101
 10
2.082575
 20
2.663661
 30
0.0
  0
VERTEX
  8
MECHANICAL1
  5
102
 10
2.102575
 20
2.603661
 30
0.0
  0
SEQEND
  8
0
  5
103
  0
POLYLINE
  8
MECHANICAL1
  5
104
 66
     1
 10
0.0
 20
0.0
 30
0.0
 40
0.01
 41
0.01
 75
     8
  0
VERTEX
  8
MECHANICAL1
  5
105
 10
2.062575
 20
2.603661
 30
0.0
  0
VERTEX
  8
MECHANICAL1
  5
106
 10
2.082575
 20
2.663661
 30
0.0
  0
SEQEND
  8
0
  5
107
  0
POLYLINE
  8
MECHANICAL1
  5
108
 66
     1
 10
0.0
 20
0.0
 30
0.0
 40
0.01
 41
0.01
 75
     8
  0
VERTEX
  8
MECHANICAL1
  5
109
 10
2.082575
 20
2.163661
 30
0.0
  0
VERTEX
  8
MECHANICAL1
  5
10A
 10
2.082575
 20
2.271697
 30
0.0
  0
SEQEND
  8
0
  5
10B
  0
POLYLINE
  8
MECHANICAL1
  5
10C
 66
     1
 10
0.0
 20
0.0
 30
0.0
 40
0.01
 41
0.01
 75
     8
  0
VERTEX
  8
MECHANICAL1
  5
10D
 10
2.082575
 20
2.523626
 30
0.0
  0
VERTEX
  8
MECHANICAL1
  5
10E
 10
2.082575
 20
2.663661
 30
0.0
  0
SEQEND
  8
0
  5
10F
  0
POLYLINE
  8
MECHANICAL1
  5
110
 66
     1
 10
0.0
 20
0.0
 30
0.0
 40
0.01
 41
0.01
 75
     8
  0
VERTEX
  8
MECHANICAL1
  5
111
 10
2.072575
 20
2.163661
 30
0.0
  0
VERTEX
  8
MECHANICAL1
  5
112
 10
2.468575
 20
2.163661
 30
0.0
  0
SEQEND
  8
0
  5
113
  0
POLYLINE
  8
MECHANICAL1
  5
114
 66
     1
 10
0.0
 20
0.0
 30
0.0
 40
0.01
 41
0.01
 75
     8
  0
VERTEX
  8
MECHANICAL1
  5
115
 10
2.072575
 20
2.663661
 30
0.0
  0
VERTEX
  8
MECHANICAL1
  5
116
 10
2.214575
 20
2.663661
 30
0.0
  0
SEQEND
  8
0
  5
117
  0
POLYLINE
  8
MECHANICAL1
  5
118
 66
     1
 10
0.0
 20
0.0
 30
0.0
 40
0.01
 41
0.01
 75
     8
  0
VERTEX
  8
MECHANICAL1
  5
119
 10
4.783575
 20
3.663661
 30
0.0
  0
VERTEX
  8
MECHANICAL1
  5
11A
 10
4.803575
 20
3.603661
 30
0.0
  0
SEQEND
  8
0
  5
11B
  0
POLYLINE
  8
MECHANICAL1
  5
11C
 66
     1
 10
0.0
 20
0.0
 30
0.0
 40
0.01
 41
0.01
 75
     8
  0
VERTEX
  8
MECHANICAL1
  5
11D
 10
4.763575
 20
3.603661
 30
0.0
  0
VERTEX
  8
MECHANICAL1
  5
11E
 10
4.783575
 20
3.663661
 30
0.0
  0
SEQEND
  8
0
  5
11F
  0
POLYLINE
  8
MECHANICAL1
  5
120
 66
     1
 10
0.0
 20
0.0
 30
0.0
 40
0.01
 41
0.01
 75
     8
  0
VERTEX
  8
MECHANICAL1
  5
121
 10
4.763575
 20
2.418425
 30
0.0
  0
VERTEX
  8
MECHANICAL1
  5
122
 10
4.783575
 20
2.358425
 30
0.0
  0
SEQEND
  8
0
  5
123
  0
POLYLINE
  8
MECHANICAL1
  5
124
 66
     1
 10
0.0
 20
0.0
 30
0.0
 40
0.01
 41
0.01
 75
     8
  0
VERTEX
  8
MECHANICAL1
  5
125
 10
4.783575
 20
2.358425
 30
0.0
  0
VERTEX
  8
MECHANICAL1
  5
126
 10
4.803575
 20
2.418425
 30
0.0
  0
SEQEND
  8
0
  5
127
  0
POLYLINE
  8
MECHANICAL1
  5
128
 66
     1
 10
0.0
 20
0.0
 30
0.0
 40
0.01
 41
0.01
 75
     8
  0
VERTEX
  8
MECHANICAL1
  5
129
 10
4.783575
 20
3.137669
 30
0.0
  0
VERTEX
  8
MECHANICAL1
  5
12A
 10
4.783575
 20
3.663661
 30
0.0
  0
SEQEND
  8
0
  5
12B
  0
POLYLINE
  8
MECHANICAL1
  5
12C
 66
     1
 10
0.0
 20
0.0
 30
0.0
 40
0.01
 41
0.01
 75
     8
  0
VERTEX
  8
MECHANICAL1
  5
12D
 10
4.783575
 20
2.358425
 30
0.0
  0
VERTEX
  8
MECHANICAL1
  5
12E
 10
4.783575
 20
2.852417
 30
0.0
  0
SEQEND
  8
0
  5
12F
  0
POLYLINE
  8
MECHANICAL1
  5
130
 66
     1
 10
0.0
 20
0.0
 30
0.0
 40
0.01
 41
0.01
 75
     8
  0
VERTEX
  8
MECHANICAL1
  5
131
 10
4.498575
 20
3.663661
 30
0.0
  0
VERTEX
  8
MECHANICAL1
  5
132
 10
4.793575
 20
3.663661
 30
0.0
  0
SEQEND
  8
0
  5
133
  0
POLYLINE
  8
MECHANICAL1
  5
134
 66
     1
 10
0.0
 20
0.0
 30
0.0
 40
0.01
 41
0.01
 75
     8
  0
VERTEX
  8
MECHANICAL1
  5
135
 10
4.074228
 20
2.358425
 30
0.0
  0
VERTEX
  8
MECHANICAL1
  5
136
 10
4.793575
 20
2.358425
 30
0.0
  0
SEQEND
  8
0
  5
137
  0
POLYLINE
  8
MECHANICAL1
  5
138
 66
     1
 10
0.0
 20
0.0
 30
0.0
 40
0.01
 41
0.01
 75
     8
  0
VERTEX
  8
MECHANICAL1
  5
139
 10
4.883575
 20
3.663661
 30
0.0
  0
VERTEX
  8
MECHANICAL1
  5
13A
 10
4.903575
 20
3.603661
 30
0.0
  0
SEQEND
  8
0
  5
13B
  0
POLYLINE
  8
MECHANICAL1
  5
13C
 66
     1
 10
0.0
 20
0.0
 30
0.0
 40
0.01
 41
0.01
 75
     8
  0
VERTEX
  8
MECHANICAL1
  5
13D
 10
4.863575
 20
3.603661
 30
0.0
  0
VERTEX
  8
MECHANICAL1
  5
13E
 10
4.883575
 20
3.663661
 30
0.0
  0
SEQEND
  8
0
  5
13F
  0
POLYLINE
  8
MECHANICAL1
  5
140
 66
     1
 10
0.0
 20
0.0
 30
0.0
 40
0.01
 41
0.01
 75
     8
  0
VERTEX
  8
MECHANICAL1
  5
141
 10
4.863575
 20
2.223661
 30
0.0
  0
VERTEX
  8
MECHANICAL1
  5
142
 10
4.883575
 20
2.163661
 30
0.0
  0
SEQEND
  8
0
  5
143
  0
POLYLINE
  8
MECHANICAL1
  5
144
 66
     1
 10
0.0
 20
0.0
 30
0.0
 40
0.01
 41
0.01
 75
     8
  0
VERTEX
  8
MECHANICAL1
  5
145
 10
4.883575
 20
2.163661
 30
0.0
  0
VERTEX
  8
MECHANICAL1
  5
146
 10
4.903575
 20
2.223661
 30
0.0
  0
SEQEND
  8
0
  5
147
  0
POLYLINE
  8
MECHANICAL1
  5
148
 66
     1
 10
0.0
 20
0.0
 30
0.0
 40
0.01
 41
0.01
 75
     8
  0
VERTEX
  8
MECHANICAL1
  5
149
 10
4.883575
 20
3.040287
 30
0.0
  0
VERTEX
  8
MECHANICAL1
  5
14A
 10
4.883575
 20
3.663661
 30
0.0
  0
SEQEND
  8
0
  5
14B
  0
POLYLINE
  8
MECHANICAL1
  5
14C
 66
     1
 10
0.0
 20
0.0
 30
0.0
 40
0.01
 41
0.01
 75
     8
  0
VERTEX
  8
MECHANICAL1
  5
14D
 10
4.883575
 20
2.163661
 30
0.0
  0
VERTEX
  8
MECHANICAL1
  5
14E
 10
4.883575
 20
2.755035
 30
0.0
  0
SEQEND
  8
0
  5
14F
  0
POLYLINE
  8
MECHANICAL1
  5
150
 66
     1
 10
0.0
 20
0.0
 30
0.0
 40
0.01
 41
0.01
 75
     8
  0
VERTEX
  8
MECHANICAL1
  5
151
 10
4.498575
 20
3.663661
 30
0.0
  0
VERTEX
  8
MECHANICAL1
  5
152
 10
4.893575
 20
3.663661
 30
0.0
  0
SEQEND
  8
0
  5
153
  0
POLYLINE
  8
MECHANICAL1
  5
154
 66
     1
 10
0.0
 20
0.0
 30
0.0
 40
0.01
 41
0.01
 75
     8
  0
VERTEX
  8
MECHANICAL1
  5
155
 10
4.498575
 20
2.163661
 30
0.0
  0
VERTEX
  8
MECHANICAL1
  5
156
 10
4.893575
 20
2.163661
 30
0.0
  0
SEQEND
  8
0
  5
157
  0
POLYLINE
  8
MECHANICAL1
  5
158
 66
     1
 10
0.0
 20
0.0
 30
0.0
 40
0.01
 41
0.01
 75
     8
  0
VERTEX
  8
MECHANICAL1
  5
159
 10
4.582575
 20
3.468661
 30
0.0
  0
VERTEX
  8
MECHANICAL1
  5
15A
 10
4.602575
 20
3.408661
 30
0.0
  0
SEQEND
  8
0
  5
15B
  0
POLYLINE
  8
MECHANICAL1
  5
15C
 66
     1
 10
0.0
 20
0.0
 30
0.0
 40
0.01
 41
0.01
 75
     8
  0
VERTEX
  8
MECHANICAL1
  5
15D
 10
4.562575
 20
3.408661
 30
0.0
  0
VERTEX
  8
MECHANICAL1
  5
15E
 10
4.582575
 20
3.468661
 30
0.0
  0
SEQEND
  8
0
  5
15F
  0
POLYLINE
  8
MECHANICAL1
  5
160
 66
     1
 10
0.0
 20
0.0
 30
0.0
 40
0.01
 41
0.01
 75
     8
  0
VERTEX
  8
MECHANICAL1
  5
161
 10
4.562575
 20
3.723661
 30
0.0
  0
VERTEX
  8
MECHANICAL1
  5
162
 10
4.582575
 20
3.663661
 30
0.0
  0
SEQEND
  8
0
  5
163
  0
POLYLINE
  8
MECHANICAL1
  5
164
 66
     1
 10
0.0
 20
0.0
 30
0.0
 40
0.01
 41
0.01
 75
     8
  0
VERTEX
  8
MECHANICAL1
  5
165
 10
4.582575
 20
3.663661
 30
0.0
  0
VERTEX
  8
MECHANICAL1
  5
166
 10
4.602575
 20
3.723661
 30
0.0
  0
SEQEND
  8
0
  5
167
  0
POLYLINE
  8
MECHANICAL1
  5
168
 66
     1
 10
0.0
 20
0.0
 30
0.0
 40
0.01
 41
0.01
 75
     8
  0
VERTEX
  8
MECHANICAL1
  5
169
 10
4.582575
 20
3.368661
 30
0.0
  0
VERTEX
  8
MECHANICAL1
  5
16A
 10
4.582575
 20
3.468661
 30
0.0
  0
SEQEND
  8
0
  5
16B
  0
POLYLINE
  8
MECHANICAL1
  5
16C
 66
     1
 10
0.0
 20
0.0
 30
0.0
 40
0.01
 41
0.01
 75
     8
  0
VERTEX
  8
MECHANICAL1
  5
16D
 10
4.582575
 20
3.663661
 30
0.0
  0
VERTEX
  8
MECHANICAL1
  5
16E
 10
4.582575
 20
3.763661
 30
0.0
  0
SEQEND
  8
0
  5
16F
  0
POLYLINE
  8
MECHANICAL1
  5
170
 66
     1
 10
0.0
 20
0.0
 30
0.0
 40
0.01
 41
0.01
 75
     8
  0
VERTEX
  8
MECHANICAL1
  5
171
 10
4.498575
 20
3.663661
 30
0.0
  0
VERTEX
  8
MECHANICAL1
  5
172
 10
4.592575
 20
3.663661
 30
0.0
  0
SEQEND
  8
0
  5
173
  0
POLYLINE
  8
MECHANICAL1
  5
174
 66
     1
 10
0.0
 20
0.0
 30
0.0
 40
0.01
 41
0.01
 75
     8
  0
VERTEX
  8
MECHANICAL1
  5
175
 10
4.066354
 20
3.468661
 30
0.0
  0
VERTEX
  8
MECHANICAL1
  5
176
 10
4.592575
 20
3.468661
 30
0.0
  0
SEQEND
  8
0
  5
177
  0
POLYLINE
  8
MECHANICAL1
  5
178
 66
     1
 10
0.0
 20
0.0
 30
0.0
 40
0.01
 41
0.01
 75
     8
  0
VERTEX
  8
MECHANICAL1
  5
179
 10
4.683575
 20
3.374173
 30
0.0
  0
VERTEX
  8
MECHANICAL1
  5
17A
 10
4.703575
 20
3.314173
 30
0.0
  0
SEQEND
  8
0
  5
17B
  0
POLYLINE
  8
MECHANICAL1
  5
17C
 66
     1
 10
0.0
 20
0.0
 30
0.0
 40
0.01
 41
0.01
 75
     8
  0
VERTEX
  8
MECHANICAL1
  5
17D
 10
4.663575
 20
3.314173
 30
0.0
  0
VERTEX
  8
MECHANICAL1
  5
17E
 10
4.683575
 20
3.374173
 30
0.0
  0
SEQEND
  8
0
  5
17F
  0
POLYLINE
  8
MECHANICAL1
  5
180
 66
     1
 10
0.0
 20
0.0
 30
0.0
 40
0.01
 41
0.01
 75
     8
  0
VERTEX
  8
MECHANICAL1
  5
181
 10
4.663575
 20
3.723661
 30
0.0
  0
VERTEX
  8
MECHANICAL1
  5
182
 10
4.683575
 20
3.663661
 30
0.0
  0
SEQEND
  8
0
  5
183
  0
POLYLINE
  8
MECHANICAL1
  5
184
 66
     1
 10
0.0
 20
0.0
 30
0.0
 40
0.01
 41
0.01
 75
     8
  0
VERTEX
  8
MECHANICAL1
  5
185
 10
4.683575
 20
3.663661
 30
0.0
  0
VERTEX
  8
MECHANICAL1
  5
186
 10
4.703575
 20
3.723661
 30
0.0
  0
SEQEND
  8
0
  5
187
  0
POLYLINE
  8
MECHANICAL1
  5
188
 66
     1
 10
0.0
 20
0.0
 30
0.0
 40
0.01
 41
0.01
 75
     8
  0
VERTEX
  8
MECHANICAL1
  5
189
 10
4.683575
 20
3.274173
 30
0.0
  0
VERTEX
  8
MECHANICAL1
  5
18A
 10
4.683575
 20
3.374173
 30
0.0
  0
SEQEND
  8
0
  5
18B
  0
POLYLINE
  8
MECHANICAL1
  5
18C
 66
     1
 10
0.0
 20
0.0
 30
0.0
 40
0.01
 41
0.01
 75
     8
  0
VERTEX
  8
MECHANICAL1
  5
18D
 10
4.683575
 20
3.663661
 30
0.0
  0
VERTEX
  8
MECHANICAL1
  5
18E
 10
4.683575
 20
3.763661
 30
0.0
  0
SEQEND
  8
0
  5
18F
  0
POLYLINE
  8
MECHANICAL1
  5
190
 66
     1
 10
0.0
 20
0.0
 30
0.0
 40
0.01
 41
0.01
 75
     8
  0
VERTEX
  8
MECHANICAL1
  5
191
 10
4.498575
 20
3.663661
 30
0.0
  0
VERTEX
  8
MECHANICAL1
  5
192
 10
4.693575
 20
3.663661
 30
0.0
  0
SEQEND
  8
0
  5
193
  0
POLYLINE
  8
MECHANICAL1
  5
194
 66
     1
 10
0.0
 20
0.0
 30
0.0
 40
0.01
 41
0.01
 75
     8
  0
VERTEX
  8
MECHANICAL1
  5
195
 10
4.259268
 20
3.374173
 30
0.0
  0
VERTEX
  8
MECHANICAL1
  5
196
 10
4.693575
 20
3.374173
 30
0.0
  0
SEQEND
  8
0
  5
197
  0
POLYLINE
  8
MECHANICAL1
  5
198
 66
     1
 10
0.0
 20
0.0
 30
0.0
 40
0.01
 41
0.01
 75
     8
  0
VERTEX
  8
MECHANICAL1
  5
199
 10
3.978979
 20
2.286545
 30
0.0
  0
VERTEX
  8
MECHANICAL1
  5
19A
 10
4.007263
 20
2.343114
 30
0.0
  0
SEQEND
  8
0
  5
19B
  0
POLYLINE
  8
MECHANICAL1
  5
19C
 66
     1
 10
0.0
 20
0.0
 30
0.0
 40
0.01
 41
0.01
 75
     8
  0
VERTEX
  8
MECHANICAL1
  5
19D
 10
3.950695
 20
2.31483
 30
0.0
  0
VERTEX
  8
MECHANICAL1
  5
19E
 10
4.007263
 20
2.343114
 30
0.0
  0
SEQEND
  8
0
  5
19F
  0
POLYLINE
  8
MECHANICAL1
  5
1A0
 66
     1
 10
0.0
 20
0.0
 30
0.0
 40
0.01
 41
0.01
 75
     8
  0
VERTEX
  8
MECHANICAL1
  5
1A1
 10
3.721583
 20
2.057434
 30
0.0
  0
VERTEX
  8
MECHANICAL1
  5
1A2
 10
4.007263
 20
2.343114
 30
0.0
  0
SEQEND
  8
0
  5
1A3
  0
POLYLINE
  8
MECHANICAL1
  5
1A4
 66
     1
 10
0.0
 20
0.0
 30
0.0
 40
0.01
 41
0.01
 75
     8
  0
VERTEX
  8
MECHANICAL1
  5
1A5
 10
3.604912
 20
2.057434
 30
0.0
  0
VERTEX
  8
MECHANICAL1
  5
1A6
 10
3.721583
 20
2.057434
 30
0.0
  0
SEQEND
  8
0
  5
1A7
  0
POLYLINE
  8
MECHANICAL1
  5
1A8
 66
     1
 10
0.0
 20
0.0
 30
0.0
 40
0.01
 41
0.01
 75
     8
  0
VERTEX
  8
MECHANICAL1
  5
1A9
 10
4.037886
 20
2.373737
 30
0.0
  0
VERTEX
  8
MECHANICAL1
  5
1AA
 10
4.06617
 20
2.430305
 30
0.0
  0
SEQEND
  8
0
  5
1AB
  0
POLYLINE
  8
MECHANICAL1
  5
1AC
 66
     1
 10
0.0
 20
0.0
 30
0.0
 40
0.01
 41
0.01
 75
     8
  0
VERTEX
  8
MECHANICAL1
  5
1AD
 10
4.037886
 20
2.373737
 30
0.0
  0
VERTEX
  8
MECHANICAL1
  5
1AE
 10
4.094455
 20
2.402021
 30
0.0
  0
SEQEND
  8
0
  5
1AF
  0
POLYLINE
  8
MECHANICAL1
  5
1B0
 66
     1
 10
0.0
 20
0.0
 30
0.0
 40
0.01
 41
0.01
 75
     8
  0
VERTEX
  8
MECHANICAL1
  5
1B1
 10
4.037886
 20
2.373737
 30
0.0
  0
VERTEX
  8
MECHANICAL1
  5
1B2
 10
4.108597
 20
2.444447
 30
0.0
  0
SEQEND
  8
0
  5
1B3
  0
POLYLINE
  8
MECHANICAL1
  5
1B4
 66
     1
 10
0.0
 20
0.0
 30
0.0
 40
0.01
 41
0.01
 75
     8
  0
VERTEX
  8
MECHANICAL1
  5
1B5
 10
3.984547
 20
3.402349
 30
0.0
  0
VERTEX
  8
MECHANICAL1
  5
1B6
 10
4.012831
 20
3.458918
 30
0.0
  0
SEQEND
  8
0
  5
1B7
  0
POLYLINE
  8
MECHANICAL1
  5
1B8
 66
     1
 10
0.0
 20
0.0
 30
0.0
 40
0.01
 41
0.01
 75
     8
  0
VERTEX
  8
MECHANICAL1
  5
1B9
 10
3.956263
 20
3.430633
 30
0.0
  0
VERTEX
  8
MECHANICAL1
  5
1BA
 10
4.012831
 20
3.458918
 30
0.0
  0
SEQEND
  8
0
  5
1BB
  0
POLYLINE
  8
MECHANICAL1
  5
1BC
 66
     1
 10
0.0
 20
0.0
 30
0.0
 40
0.01
 41
0.01
 75
     8
  0
VERTEX
  8
MECHANICAL1
  5
1BD
 10
3.817941
 20
3.264027
 30
0.0
  0
VERTEX
  8
MECHANICAL1
  5
1BE
 10
4.012831
 20
3.458918
 30
0.0
  0
SEQEND
  8
0
  5
1BF
  0
POLYLINE
  8
MECHANICAL1
  5
1C0
 66
     1
 10
0.0
 20
0.0
 30
0.0
 40
0.01
 41
0.01
 75
     8
  0
VERTEX
  8
MECHANICAL1
  5
1C1
 10
3.70644
 20
3.264027
 30
0.0
  0
VERTEX
  8
MECHANICAL1
  5
1C2
 10
3.817941
 20
3.264027
 30
0.0
  0
SEQEND
  8
0
  5
1C3
  0
POLYLINE
  8
MECHANICAL1
  5
1C4
 66
     1
 10
0.0
 20
0.0
 30
0.0
 40
0.01
 41
0.01
 75
     8
  0
VERTEX
  8
MECHANICAL1
  5
1C5
 10
4.032318
 20
3.478405
 30
0.0
  0
VERTEX
  8
MECHANICAL1
  5
1C6
 10
4.060603
 20
3.534973
 30
0.0
  0
SEQEND
  8
0
  5
1C7
  0
POLYLINE
  8
MECHANICAL1
  5
1C8
 66
     1
 10
0.0
 20
0.0
 30
0.0
 40
0.01
 41
0.01
 75
     8
  0
VERTEX
  8
MECHANICAL1
  5
1C9
 10
4.032318
 20
3.478405
 30
0.0
  0
VERTEX
  8
MECHANICAL1
  5
1CA
 10
4.088887
 20
3.506689
 30
0.0
  0
SEQEND
  8
0
  5
1CB
  0
POLYLINE
  8
MECHANICAL1
  5
1CC
 66
     1
 10
0.0
 20
0.0
 30
0.0
 40
0.01
 41
0.01
 75
     8
  0
VERTEX
  8
MECHANICAL1
  5
1CD
 10
4.032318
 20
3.478405
 30
0.0
  0
VERTEX
  8
MECHANICAL1
  5
1CE
 10
4.103029
 20
3.549116
 30
0.0
  0
SEQEND
  8
0
  5
1CF
  0
POLYLINE
  8
MECHANICAL1
  5
1D0
 66
     1
 10
0.0
 20
0.0
 30
0.0
 40
0.01
 41
0.01
 75
     8
  0
VERTEX
  8
MECHANICAL1
  5
1D1
 10
2.664083
 20
3.594169
 30
0.0
  0
VERTEX
  8
MECHANICAL1
  5
1D2
 10
2.692367
 20
3.650738
 30
0.0
  0
SEQEND
  8
0
  5
1D3
  0
POLYLINE
  8
MECHANICAL1
  5
1D4
 66
     1
 10
0.0
 20
0.0
 30
0.0
 40
0.01
 41
0.01
 75
     8
  0
VERTEX
  8
MECHANICAL1
  5
1D5
 10
2.664083
 20
3.594169
 30
0.0
  0
VERTEX
  8
MECHANICAL1
  5
1D6
 10
2.720651
 20
3.622454
 30
0.0
  0
SEQEND
  8
0
  5
1D7
  0
POLYLINE
  8
MECHANICAL1
  5
1D8
 66
     1
 10
0.0
 20
0.0
 30
0.0
 40
0.01
 41
0.01
 75
     8
  0
VERTEX
  8
MECHANICAL1
  5
1D9
 10
2.664083
 20
3.594169
 30
0.0
  0
VERTEX
  8
MECHANICAL1
  5
1DA
 10
2.83761
 20
3.767696
 30
0.0
  0
SEQEND
  8
0
  5
1DB
  0
POLYLINE
  8
MECHANICAL1
  5
1DC
 66
     1
 10
0.0
 20
0.0
 30
0.0
 40
0.01
 41
0.01
 75
     8
  0
VERTEX
  8
MECHANICAL1
  5
1DD
 10
2.83761
 20
3.767696
 30
0.0
  0
VERTEX
  8
MECHANICAL1
  5
1DE
 10
2.916678
 20
3.767696
 30
0.0
  0
SEQEND
  8
0
  5
1DF
  0
POLYLINE
  8
MECHANICAL1
  5
1E0
 66
     1
 10
0.0
 20
0.0
 30
0.0
 40
0.01
 41
0.01
 75
     8
  0
VERTEX
  8
MECHANICAL1
  5
1E1
 10
2.524783
 20
3.426585
 30
0.0
  0
VERTEX
  8
MECHANICAL1
  5
1E2
 10
2.553067
 20
3.483153
 30
0.0
  0
SEQEND
  8
0
  5
1E3
  0
POLYLINE
  8
MECHANICAL1
  5
1E4
 66
     1
 10
0.0
 20
0.0
 30
0.0
 40
0.01
 41
0.01
 75
     8
  0
VERTEX
  8
MECHANICAL1
  5
1E5
 10
2.496498
 20
3.454869
 30
0.0
  0
VERTEX
  8
MECHANICAL1
  5
1E6
 10
2.553067
 20
3.483153
 30
0.0
  0
SEQEND
  8
0
  5
1E7
  0
POLYLINE
  8
MECHANICAL1
  5
1E8
 66
     1
 10
0.0
 20
0.0
 30
0.0
 40
0.01
 41
0.01
 75
     8
  0
VERTEX
  8
MECHANICAL1
  5
1E9
 10
2.482356
 20
3.412443
 30
0.0
  0
VERTEX
  8
MECHANICAL1
  5
1EA
 10
2.553067
 20
3.483153
 30
0.0
  0
SEQEND
  8
0
  5
1EB
  0
POLYLINE
  8
MECHANICAL1
  5
1EC
 66
     1
 10
0.0
 20
0.0
 30
0.0
 40
0.01
 41
0.01
 75
     8
  0
VERTEX
  8
MECHANICAL1
  5
1ED
 10
2.696963
 20
3.450273
 30
0.0
  0
VERTEX
  8
MECHANICAL1
  5
1EE
 10
2.753532
 20
3.421989
 30
0.0
  0
SEQEND
  8
0
  5
1EF
  0
POLYLINE
  8
MECHANICAL1
  5
1F0
 66
     1
 10
0.0
 20
0.0
 30
0.0
 40
0.01
 41
0.01
 75
     8
  0
VERTEX
  8
MECHANICAL1
  5
1F1
 10
2.696963
 20
3.450273
 30
0.0
  0
VERTEX
  8
MECHANICAL1
  5
1F2
 10
2.725247
 20
3.393705
 30
0.0
  0
SEQEND
  8
0
  5
1F3
  0
POLYLINE
  8
MECHANICAL1
  5
1F4
 66
     1
 10
0.0
 20
0.0
 30
0.0
 40
0.01
 41
0.01
 75
     8
  0
VERTEX
  8
MECHANICAL1
  5
1F5
 10
2.696963
 20
3.450273
 30
0.0
  0
VERTEX
  8
MECHANICAL1
  5
1F6
 10
2.78433
 20
3.362906
 30
0.0
  0
SEQEND
  8
0
  5
1F7
  0
POLYLINE
  8
MECHANICAL1
  5
1F8
 66
     1
 10
0.0
 20
0.0
 30
0.0
 40
0.01
 41
0.01
 75
     8
  0
VERTEX
  8
MECHANICAL1
  5
1F9
 10
2.78433
 20
3.362906
 30
0.0
  0
VERTEX
  8
MECHANICAL1
  5
1FA
 10
2.799853
 20
3.362906
 30
0.0
  0
SEQEND
  8
0
  5
1FB
  0
POLYLINE
  8
MECHANICAL1
  5
1FC
 66
     1
 10
0.0
 20
0.0
 30
0.0
 40
0.01
 41
0.01
 75
     8
  0
VERTEX
  8
MECHANICAL1
  5
1FD
 10
2.463618
 20
3.655334
 30
0.0
  0
VERTEX
  8
MECHANICAL1
  5
1FE
 10
2.520186
 20
3.62705
 30
0.0
  0
SEQEND
  8
0
  5
1FF
  0
POLYLINE
  8
MECHANICAL1
  5
200
 66
     1
 10
0.0
 20
0.0
 30
0.0
 40
0.01
 41
0.01
 75
     8
  0
VERTEX
  8
MECHANICAL1
  5
201
 10
2.491902
 20
3.683618
 30
0.0
  0
VERTEX
  8
MECHANICAL1
  5
202
 10
2.520186
 20
3.62705
 30
0.0
  0
SEQEND
  8
0
  5
203
  0
POLYLINE
  8
MECHANICAL1
  5
204
 66
     1
 10
0.0
 20
0.0
 30
0.0
 40
0.01
 41
0.01
 75
     8
  0
VERTEX
  8
MECHANICAL1
  5
205
 10
2.449476
 20
3.69776
 30
0.0
  0
VERTEX
  8
MECHANICAL1
  5
206
 10
2.520186
 20
3.62705
 30
0.0
  0
SEQEND
  8
0
  5
207
  0
POLYLINE
  8
TOPOVERLAY
  5
208
 66
     1
 10
0.0
 20
0.0
 30
0.0
 40
0.01
 41
0.01
 75
     8
  0
VERTEX
  8
TOPOVERLAY
  5
209
 10
2.483575
 20
2.163661
 30
0.0
  0
VERTEX
  8
TOPOVERLAY
  5
20A
 10
4.483575
 20
2.163661
 30
0.0
  0
SEQEND
  8
0
  5
20B
  0
POLYLINE
  8
TOPOVERLAY
  5
20C
 66
     1
 10
0.0
 20
0.0
 30
0.0
 40
0.01
 41
0.01
 75
     8
  0
VERTEX
  8
TOPOVERLAY
  5
20D
 10
4.483575
 20
2.163661
 30
0.0
  0
VERTEX
  8
TOPOVERLAY
  5
20E
 10
4.483575
 20
3.663661
 30
0.0
  0
SEQEND
  8
0
  5
20F
  0
POLYLINE
  8
TOPOVERLAY
  5
210
 66
     1
 10
0.0
 20
0.0
 30
0.0
 40
0.01
 41
0.01
 75
     8
  0
VERTEX
  8
TOPOVERLAY
  5
211
 10
2.483575
 20
3.663661
 30
0.0
  0
VERTEX
  8
TOPOVERLAY
  5
212
 10
4.483575
 20
3.663661
 30
0.0
  0
SEQEND
  8
0
  5
213
  0
POLYLINE
  8
TOPOVERLAY
  5
214
 66
     1
 10
0.0
 20
0.0
 30
0.0
 40
0.01
 41
0.01
 75
     8
  0
VERTEX
  8
TOPOVERLAY
  5
215
 10
2.483575
 20
2.163661
 30
0.0
  0
VERTEX
  8
TOPOVERLAY
  5
216
 10
2.483575
 20
3.663661
 30
0.0
  0
SEQEND
  8
0
  5
217
  0
POLYLINE
  8
TOPOVERLAY
  5
218
 66
     1
 10
0.0
 20
0.0
 30
0.0
 40
0.01
 41
0.01
 75
     8
  0
VERTEX
  8
TOPOVERLAY
  5
219
 10
3.954661
 20
2.388543
 30
0.0
  0
VERTEX
  8
TOPOVERLAY
  5
21A
 10
3.98222
 20
2.360984
 30
0.0
  0
SEQEND
  8
0
  5
21B
  0
POLYLINE
  8
TOPOVERLAY
  5
21C
 66
     1
 10
0.0
 20
0.0
 30
0.0
 40
0.01
 41
0.01
 75
     8
  0
VERTEX
  8
TOPOVERLAY
  5
21D
 10
3.954661
 20
2.388543
 30
0.0
  0
VERTEX
  8
TOPOVERLAY
  5
21E
 10
3.98222
 20
2.416102
 30
0.0
  0
SEQEND
  8
0
  5
21F
  0
POLYLINE
  8
TOPOVERLAY
  5
220
 66
     1
 10
0.0
 20
0.0
 30
0.0
 40
0.01
 41
0.01
 75
     8
  0
VERTEX
  8
TOPOVERLAY
  5
221
 10
4.195803
 20
2.311181
 30
0.0
  0
VERTEX
  8
TOPOVERLAY
  5
222
 10
4.195803
 20
2.429291
 30
0.0
  0
SEQEND
  8
0
  5
223
  0
POLYLINE
  8
TOPOVERLAY
  5
224
 66
     1
 10
0.0
 20
0.0
 30
0.0
 40
0.01
 41
0.01
 75
     8
  0
VERTEX
  8
TOPOVERLAY
  5
225
 10
3.991079
 20
2.311181
 30
0.0
  0
VERTEX
  8
TOPOVERLAY
  5
226
 10
4.195803
 20
2.311181
 30
0.0
  0
SEQEND
  8
0
  5
227
  0
POLYLINE
  8
TOPOVERLAY
  5
228
 66
     1
 10
0.0
 20
0.0
 30
0.0
 40
0.01
 41
0.01
 75
     8
  0
VERTEX
  8
TOPOVERLAY
  5
229
 10
3.991079
 20
2.311181
 30
0.0
  0
VERTEX
  8
TOPOVERLAY
  5
22A
 10
3.991079
 20
2.429291
 30
0.0
  0
SEQEND
  8
0
  5
22B
  0
POLYLINE
  8
TOPOVERLAY
  5
22C
 66
     1
 10
0.0
 20
0.0
 30
0.0
 40
0.01
 41
0.01
 75
     8
  0
VERTEX
  8
TOPOVERLAY
  5
22D
 10
4.195803
 20
3.401732
 30
0.0
  0
VERTEX
  8
TOPOVERLAY
  5
22E
 10
4.195803
 20
3.515906
 30
0.0
  0
SEQEND
  8
0
  5
22F
  0
POLYLINE
  8
TOPOVERLAY
  5
230
 66
     1
 10
0.0
 20
0.0
 30
0.0
 40
0.01
 41
0.01
 75
     8
  0
VERTEX
  8
TOPOVERLAY
  5
231
 10
3.991079
 20
3.515906
 30
0.0
  0
VERTEX
  8
TOPOVERLAY
  5
232
 10
4.195803
 20
3.515906
 30
0.0
  0
SEQEND
  8
0
  5
233
  0
POLYLINE
  8
TOPOVERLAY
  5
234
 66
     1
 10
0.0
 20
0.0
 30
0.0
 40
0.01
 41
0.01
 75
     8
  0
VERTEX
  8
TOPOVERLAY
  5
235
 10
3.991079
 20
3.397795
 30
0.0
  0
VERTEX
  8
TOPOVERLAY
  5
236
 10
3.991079
 20
3.515906
 30
0.0
  0
SEQEND
  8
0
  5
237
  0
POLYLINE
  8
MECHANICAL1
  5
238
 66
     1
 10
0.0
 20
0.0
 30
0.0
 70
     1
 40
0.003937
 41
0.003937
 75
     8
  0
VERTEX
  8
MECHANICAL1
  5
239
 10
4.036354
 20
3.468661
 30
0.0
 42
1.0
  0
VERTEX
  8
MECHANICAL1
  5
23A
 10
4.008795
 20
3.468661
 30
0.0
 42
1.0
  0
SEQEND
  8
0
  5
23B
  0
POLYLINE
  8
MECHANICAL1
  5
23C
 66
     1
 10
0.0
 20
0.0
 30
0.0
 70
     1
 40
0.001969
 41
0.001969
 75
     8
  0
VERTEX
  8
MECHANICAL1
  5
23D
 10
4.03537
 20
3.468661
 30
0.0
 42
1.0
  0
VERTEX
  8
MECHANICAL1
  5
23E
 10
4.037338
 20
3.468661
 30
0.0
 42
1.0
  0
SEQEND
  8
0
  5
23F
  0
POLYLINE
  8
MECHANICAL1
  5
240
 66
     1
 10
0.0
 20
0.0
 30
0.0
 70
     1
 40
0.001969
 41
0.001969
 75
     8
  0
VERTEX
  8
MECHANICAL1
  5
241
 10
4.007811
 20
3.468661
 30
0.0
 42
1.0
  0
VERTEX
  8
MECHANICAL1
  5
242
 10
4.009779
 20
3.468661
 30
0.0
 42
1.0
  0
SEQEND
  8
0
  5
243
  0
POLYLINE
  8
MECHANICAL1
  5
244
 66
     1
 10
0.0
 20
0.0
 30
0.0
 70
     1
 40
0.003937
 41
0.003937
 75
     8
  0
VERTEX
  8
MECHANICAL1
  5
245
 10
4.044228
 20
2.358425
 30
0.0
 42
1.0
  0
VERTEX
  8
MECHANICAL1
  5
246
 10
4.000921
 20
2.358425
 30
0.0
 42
1.0
  0
SEQEND
  8
0
  5
247
  0
POLYLINE
  8
MECHANICAL1
  5
248
 66
     1
 10
0.0
 20
0.0
 30
0.0
 70
     1
 40
0.001969
 41
0.001969
 75
     8
  0
VERTEX
  8
MECHANICAL1
  5
249
 10
4.043244
 20
2.358425
 30
0.0
 42
1.0
  0
VERTEX
  8
MECHANICAL1
  5
24A
 10
4.045212
 20
2.358425
 30
0.0
 42
1.0
  0
SEQEND
  8
0
  5
24B
  0
POLYLINE
  8
MECHANICAL1
  5
24C
 66
     1
 10
0.0
 20
0.0
 30
0.0
 70
     1
 40
0.001969
 41
0.001969
 75
     8
  0
VERTEX
  8
MECHANICAL1
  5
24D
 10
3.999937
 20
2.358425
 30
0.0
 42
1.0
  0
VERTEX
  8
MECHANICAL1
  5
24E
 10
4.001906
 20
2.358425
 30
0.0
 42
1.0
  0
SEQEND
  8
0
  5
24F
  0
POLYLINE
  8
MECHANICAL1
  5
250
 66
     1
 10
0.0
 20
0.0
 30
0.0
 70
     1
 40
0.01
 41
0.01
 75
     8
  0
VERTEX
  8
MECHANICAL1
  5
251
 10
2.687075
 20
3.538661
 30
0.0
 42
1.0
  0
VERTEX
  8
MECHANICAL1
  5
252
 10
2.530075
 20
3.538661
 30
0.0
 42
1.0
  0
SEQEND
  8
0
  5
253
  0
POLYLINE
  8
MECHANICAL1
  5
254
 66
     1
 10
0.0
 20
0.0
 30
0.0
 70
     1
 40
0.005
 41
0.005
 75
     8
  0
VERTEX
  8
MECHANICAL1
  5
255
 10
2.684575
 20
3.538661
 30
0.0
 42
1.0
  0
VERTEX
  8
MECHANICAL1
  5
256
 10
2.689575
 20
3.538661
 30
0.0
 42
1.0
  0
SEQEND
  8
0
  5
257
  0
POLYLINE
  8
MECHANICAL1
  5
258
 66
     1
 10
0.0
 20
0.0
 30
0.0
 70
     1
 40
0.005
 41
0.005
 75
     8
  0
VERTEX
  8
MECHANICAL1
  5
259
 10
2.527575
 20
3.538661
 30
0.0
 42
1.0
  0
VERTEX
  8
MECHANICAL1
  5
25A
 10
2.532575
 20
3.538661
 30
0.0
 42
1.0
  0
SEQEND
  8
0
  5
25B
  0
POLYLINE
  8
MECHANICAL1
  5
25C
 66
     1
 10
0.0
 20
0.0
 30
0.0
 70
     1
 40
0.01
 41
0.01
 75
     8
  0
VERTEX
  8
MECHANICAL1
  5
25D
 10
2.733575
 20
3.538661
 30
0.0
 42
1.0
  0
VERTEX
  8
MECHANICAL1
  5
25E
 10
2.483575
 20
3.538661
 30
0.0
 42
1.0
  0
SEQEND
  8
0
  5
25F
  0
POLYLINE
  8
MECHANICAL1
  5
260
 66
     1
 10
0.0
 20
0.0
 30
0.0
 70
     1
 40
0.005
 41
0.005
 75
     8
  0
VERTEX
  8
MECHANICAL1
  5
261
 10
2.731075
 20
3.538661
 30
0.0
 42
1.0
  0
VERTEX
  8
MECHANICAL1
  5
262
 10
2.736075
 20
3.538661
 30
0.0
 42
1.0
  0
SEQEND
  8
0
  5
263
  0
POLYLINE
  8
MECHANICAL1
  5
264
 66
     1
 10
0.0
 20
0.0
 30
0.0
 70
     1
 40
0.005
 41
0.005
 75
     8
  0
VERTEX
  8
MECHANICAL1
  5
265
 10
2.481075
 20
3.538661
 30
0.0
 42
1.0
  0
VERTEX
  8
MECHANICAL1
  5
266
 10
2.486075
 20
3.538661
 30
0.0
 42
1.0
  0
SEQEND
  8
0
  5
267
  0
POLYLINE
  8
TOPSOLDER
  5
268
 66
     1
 10
0.0
 20
0.0
 30
0.0
 70
     1
 40
0.129
 41
0.129
 75
     8
  0
VERTEX
  8
TOPSOLDER
  5
269
 10
4.294075
 20
3.538661
 30
0.0
 42
1.0
  0
VERTEX
  8
TOPSOLDER
  5
26A
 10
4.423075
 20
3.538661
 30
0.0
 42
1.0
  0
SEQEND
  8
0
  5
26B
  0
POLYLINE
  8
BOTTOMSOLDER
  5
26C
 66
     1
 10
0.0
 20
0.0
 30
0.0
 70
     1
 40
0.129
 41
0.129
 75
     8
  0
VERTEX
  8
BOTTOMSOLDER
  5
26D
 10
4.294075
 20
3.538661
 30
0.0
 42
1.0
  0
VERTEX
  8
BOTTOMSOLDER
  5
26E
 10
4.423075
 20
3.538661
 30
0.0
 42
1.0
  0
SEQEND
  8
0
  5
26F
  0
POLYLINE
  8
MULTILAYER
  5
270
 66
     1
 10
0.0
 20
0.0
 30
0.0
 70
     1
 40
0.125
 41
0.125
 75
     8
  0
VERTEX
  8
MULTILAYER
  5
271
 10
4.296075
 20
3.538661
 30
0.0
 42
1.0
  0
VERTEX
  8
MULTILAYER
  5
272
 10
4.421075
 20
3.538661
 30
0.0
 42
1.0
  0
SEQEND
  8
0
  5
273
  0
POLYLINE
  8
PADHOLE
  5
274
 66
     1
 10
0.0
 20
0.0
 30
0.0
 70
     1
 40
0.0785
 41
0.0785
 75
     8
  0
VERTEX
  8
PADHOLE
  5
275
 10
4.319325
 20
3.538661
 30
0.0
 42
1.0
  0
VERTEX
  8
PADHOLE
  5
276
 10
4.397825
 20
3.538661
 30
0.0
 42
1.0
  0
SEQEND
  8
0
  5
277
  0
POLYLINE
  8
TOPSOLDER
  5
278
 66
     1
 10
0.0
 20
0.0
 30
0.0
 70
     1
 40
0.129
 41
0.129
 75
     8
  0
VERTEX
  8
TOPSOLDER
  5
279
 10
4.294075
 20
2.288661
 30
0.0
 42
1.0
  0
VERTEX
  8
TOPSOLDER
  5
27A
 10
4.423075
 20
2.288661
 30
0.0
 42
1.0
  0
SEQEND
  8
0
  5
27B
  0
POLYLINE
  8
BOTTOMSOLDER
  5
27C
 66
     1
 10
0.0
 20
0.0
 30
0.0
 70
     1
 40
0.129
 41
0.129
 75
     8
  0
VERTEX
  8
BOTTOMSOLDER
  5
27D
 10
4.294075
 20
2.288661
 30
0.0
 42
1.0
  0
VERTEX
  8
BOTTOMSOLDER
  5
27E
 10
4.423075
 20
2.288661
 30
0.0
 42
1.0
  0
SEQEND
  8
0
  5
27F
  0
POLYLINE
  8
MULTILAYER
  5
280
 66
     1
 10
0.0
 20
0.0
 30
0.0
 70
     1
 40
0.125
 41
0.125
 75
     8
  0
VERTEX
  8
MULTILAYER
  5
281
 10
4.296075
 20
2.288661
 30
0.0
 42
1.0
  0
VERTEX
  8
MULTILAYER
  5
282
 10
4.421075
 20
2.288661
 30
0.0
 42
1.0
  0
SEQEND
  8
0
  5
283
  0
POLYLINE
  8
PADHOLE
  5
284
 66
     1
 10
0.0
 20
0.0
 30
0.0
 70
     1
 40
0.0785
 41
0.0785
 75
     8
  0
VERTEX
  8
PADHOLE
  5
285
 10
4.319325
 20
2.288661
 30
0.0
 42
1.0
  0
VERTEX
  8
PADHOLE
  5
286
 10
4.397825
 20
2.288661
 30
0.0
 42
1.0
  0
SEQEND
  8
0
  5
287
  0
POLYLINE
  8
TOPSOLDER
  5
288
 66
     1
 10
0.0
 20
0.0
 30
0.0
 70
     1
 40
0.129
 41
0.129
 75
     8
  0
VERTEX
  8
TOPSOLDER
  5
289
 10
2.544075
 20
2.288661
 30
0.0
 42
1.0
  0
VERTEX
  8
TOPSOLDER
  5
28A
 10
2.673075
 20
2.288661
 30
0.0
 42
1.0
  0
SEQEND
  8
0
  5
28B
  0
POLYLINE
  8
BOTTOMSOLDER
  5
28C
 66
     1
 10
0.0
 20
0.0
 30
0.0
 70
     1
 40
0.129
 41
0.129
 75
     8
  0
VERTEX
  8
BOTTOMSOLDER
  5
28D
 10
2.544075
 20
2.288661
 30
0.0
 42
1.0
  0
VERTEX
  8
BOTTOMSOLDER
  5
28E
 10
2.673075
 20
2.288661
 30
0.0
 42
1.0
  0
SEQEND
  8
0
  5
28F
  0
POLYLINE
  8
MULTILAYER
  5
290
 66
     1
 10
0.0
 20
0.0
 30
0.0
 70
     1
 40
0.125
 41
0.125
 75
     8
  0
VERTEX
  8
MULTILAYER
  5
291
 10
2.546075
 20
2.288661
 30
0.0
 42
1.0
  0
VERTEX
  8
MULTILAYER
  5
292
 10
2.671075
 20
2.288661
 30
0.0
 42
1.0
  0
SEQEND
  8
0
  5
293
  0
POLYLINE
  8
PADHOLE
  5
294
 66
     1
 10
0.0
 20
0.0
 30
0.0
 70
     1
 40
0.0785
 41
0.0785
 75
     8
  0
VERTEX
  8
PADHOLE
  5
295
 10
2.569325
 20
2.288661
 30
0.0
 42
1.0
  0
VERTEX
  8
PADHOLE
  5
296
 10
2.647825
 20
2.288661
 30
0.0
 42
1.0
  0
SEQEND
  8
0
  5
297
  0
POLYLINE
  8
TOPSOLDER
  5
298
 66
     1
 10
0.0
 20
0.0
 30
0.0
 70
     1
 40
0.129
 41
0.129
 75
     8
  0
VERTEX
  8
TOPSOLDER
  5
299
 10
2.544075
 20
3.538661
 30
0.0
 42
1.0
  0
VERTEX
  8
TOPSOLDER
  5
29A
 10
2.673075
 20
3.538661
 30
0.0
 42
1.0
  0
SEQEND
  8
0
  5
29B
  0
POLYLINE
  8
BOTTOMSOLDER
  5
29C
 66
     1
 10
0.0
 20
0.0
 30
0.0
 70
     1
 40
0.129
 41
0.129
 75
     8
  0
VERTEX
  8
BOTTOMSOLDER
  5
29D
 10
2.544075
 20
3.538661
 30
0.0
 42
1.0
  0
VERTEX
  8
BOTTOMSOLDER
  5
29E
 10
2.673075
 20
3.538661
 30
0.0
 42
1.0
  0
SEQEND
  8
0
  5
29F
  0
POLYLINE
  8
MULTILAYER
  5
2A0
 66
     1
 10
0.0
 20
0.0
 30
0.0
 70
     1
 40
0.125
 41
0.125
 75
     8
  0
VERTEX
  8
MULTILAYER
  5
2A1
 10
2.546075
 20
3.538661
 30
0.0
 42
1.0
  0
VERTEX
  8
MULTILAYER
  5
2A2
 10
2.671075
 20
3.538661
 30
0.0
 42
1.0
  0
SEQEND
  8
0
  5
2A3
  0
POLYLINE
  8
PADHOLE
  5
2A4
 66
     1
 10
0.0
 20
0.0
 30
0.0
 70
     1
 40
0.0785
 41
0.0785
 75
     8
  0
VERTEX
  8
PADHOLE
  5
2A5
 10
2.569325
 20
3.538661
 30
0.0
 42
1.0
  0
VERTEX
  8
PADHOLE
  5
2A6
 10
2.647825
 20
3.538661
 30
0.0
 42
1.0
  0
SEQEND
  8
0
  5
2A7
  0
POLYLINE
  8
TOPSOLDER
  5
2A8
 66
     1
 10
0.0
 20
0.0
 30
0.0
 70
     1
 40
0.013843
 41
0.013843
 75
     8
  0
VERTEX
  8
TOPSOLDER
  5
2A9
 10
4.015654
 20
2.358425
 30
0.0
 42
1.0
  0
VERTEX
  8
TOPSOLDER
  5
2AA
 10
4.029496
 20
2.358425
 30
0.0
 42
1.0
  0
SEQEND
  8
0
  5
2AB
  0
POLYLINE
  8
BOTTOMSOLDER
  5
2AC
 66
     1
 10
0.0
 20
0.0
 30
0.0
 70
     1
 40
0.013843
 41
0.013843
 75
     8
  0
VERTEX
  8
BOTTOMSOLDER
  5
2AD
 10
4.015654
 20
2.358425
 30
0.0
 42
1.0
  0
VERTEX
  8
BOTTOMSOLDER
  5
2AE
 10
4.029496
 20
2.358425
 30
0.0
 42
1.0
  0
SEQEND
  8
0
  5
2AF
  0
POLYLINE
  8
MULTILAYER
  5
2B0
 66
     1
 10
0.0
 20
0.0
 30
0.0
 70
     1
 40
0.009843
 41
0.009843
 75
     8
  0
VERTEX
  8
MULTILAYER
  5
2B1
 10
4.017654
 20
2.358425
 30
0.0
 42
1.0
  0
VERTEX
  8
MULTILAYER
  5
2B2
 10
4.027496
 20
2.358425
 30
0.0
 42
1.0
  0
SEQEND
  8
0
  5
2B3
  0
POLYLINE
  8
PADHOLE
  5
2B4
 66
     1
 10
0.0
 20
0.0
 30
0.0
 70
     1
 40
0.021653
 41
0.021653
 75
     8
  0
VERTEX
  8
PADHOLE
  5
2B5
 10
4.011748
 20
2.358425
 30
0.0
 42
1.0
  0
VERTEX
  8
PADHOLE
  5
2B6
 10
4.033402
 20
2.358425
 30
0.0
 42
1.0
  0
SEQEND
  8
0
  5
2B7
  0
POLYLINE
  8
TOPSOLDER
  5
2B8
 66
     1
 10
0.0
 20
0.0
 30
0.0
 70
     1
 40
0.01089
 41
0.01089
 75
     8
  0
VERTEX
  8
TOPSOLDER
  5
2B9
 10
4.01713
 20
3.468661
 30
0.0
 42
1.0
  0
VERTEX
  8
TOPSOLDER
  5
2BA
 10
4.02802
 20
3.468661
 30
0.0
 42
1.0
  0
SEQEND
  8
0
  5
2BB
  0
POLYLINE
  8
BOTTOMSOLDER
  5
2BC
 66
     1
 10
0.0
 20
0.0
 30
0.0
 70
     1
 40
0.01089
 41
0.01089
 75
     8
  0
VERTEX
  8
BOTTOMSOLDER
  5
2BD
 10
4.01713
 20
3.468661
 30
0.0
 42
1.0
  0
VERTEX
  8
BOTTOMSOLDER
  5
2BE
 10
4.02802
 20
3.468661
 30
0.0
 42
1.0
  0
SEQEND
  8
0
  5
2BF
  0
POLYLINE
  8
MULTILAYER
  5
2C0
 66
     1
 10
0.0
 20
0.0
 30
0.0
 70
     1
 40
0.00689
 41
0.00689
 75
     8
  0
VERTEX
  8
MULTILAYER
  5
2C1
 10
4.01913
 20
3.468661
 30
0.0
 42
1.0
  0
VERTEX
  8
MULTILAYER
  5
2C2
 10
4.02602
 20
3.468661
 30
0.0
 42
1.0
  0
SEQEND
  8
0
  5
2C3
  0
POLYLINE
  8
PADHOLE
  5
2C4
 66
     1
 10
0.0
 20
0.0
 30
0.0
 70
     1
 40
0.01378
 41
0.01378
 75
     8
  0
VERTEX
  8
PADHOLE
  5
2C5
 10
4.015685
 20
3.468661
 30
0.0
 42
1.0
  0
VERTEX
  8
PADHOLE
  5
2C6
 10
4.029464
 20
3.468661
 30
0.0
 42
1.0
  0
SEQEND
  8
0
  5
2C7
  0
SOLID
  8
TOPSOLDER
  5
2C8
 10
4.164496
 20
3.363284
 30
0.0
 11
4.249268
 21
3.363284
 31
0.0
 12
4.164496
 22
3.385063
 32
0.0
 13
4.249268
 23
3.385063
 33
0.0
  0
SOLID
  8
TOPPASTE
  5
2C9
 10
4.168496
 20
3.367284
 30
0.0
 11
4.245268
 21
3.367284
 31
0.0
 12
4.168496
 22
3.381063
 32
0.0
 13
4.245268
 23
3.381063
 33
0.0
  0
SOLID
  8
TOPLAYER
  5
2CA
 10
4.168496
 20
3.367284
 30
0.0
 11
4.245268
 21
3.367284
 31
0.0
 12
4.168496
 22
3.381063
 32
0.0
 13
4.245268
 23
3.381063
 33
0.0
  0
SOLID
  8
TOPSOLDER
  5
2CB
 10
3.937614
 20
3.363284
 30
0.0
 11
4.022386
 21
3.363284
 31
0.0
 12
3.937614
 22
3.385063
 32
0.0
 13
4.022386
 23
3.385063
 33
0.0
  0
SOLID
  8
TOPPASTE
  5
2CC
 10
3.941614
 20
3.367284
 30
0.0
 11
4.018386
 21
3.367284
 31
0.0
 12
3.941614
 22
3.381063
 32
0.0
 13
4.018386
 23
3.381063
 33
0.0
  0
SOLID
  8
TOPLAYER
  5
2CD
 10
3.941614
 20
3.367284
 30
0.0
 11
4.018386
 21
3.367284
 31
0.0
 12
3.941614
 22
3.381063
 32
0.0
 13
4.018386
 23
3.381063
 33
0.0
  0
SOLID
  8
TOPSOLDER
  5
2CE
 10
4.164496
 20
3.339662
 30
0.0
 11
4.249268
 21
3.339662
 31
0.0
 12
4.164496
 22
3.361441
 32
0.0
 13
4.249268
 23
3.361441
 33
0.0
  0
SOLID
  8
TOPPASTE
  5
2CF
 10
4.168496
 20
3.343662
 30
0.0
 11
4.245268
 21
3.343662
 31
0.0
 12
4.168496
 22
3.357441
 32
0.0
 13
4.245268
 23
3.357441
 33
0.0
  0
SOLID
  8
TOPLAYER
  5
2D0
 10
4.168496
 20
3.343662
 30
0.0
 11
4.245268
 21
3.343662
 31
0.0
 12
4.168496
 22
3.357441
 32
0.0
 13
4.245268
 23
3.357441
 33
0.0
  0
SOLID
  8
TOPSOLDER
  5
2D1
 10
3.937614
 20
3.339662
 30
0.0
 11
4.022386
 21
3.339662
 31
0.0
 12
3.937614
 22
3.361441
 32
0.0
 13
4.022386
 23
3.361441
 33
0.0
  0
SOLID
  8
TOPPASTE
  5
2D2
 10
3.941614
 20
3.343662
 30
0.0
 11
4.018386
 21
3.343662
 31
0.0
 12
3.941614
 22
3.357441
 32
0.0
 13
4.018386
 23
3.357441
 33
0.0
  0
SOLID
  8
TOPLAYER
  5
2D3
 10
3.941614
 20
3.343662
 30
0.0
 11
4.018386
 21
3.343662
 31
0.0
 12
3.941614
 22
3.357441
 32
0.0
 13
4.018386
 23
3.357441
 33
0.0
  0
SOLID
  8
TOPSOLDER
  5
2D4
 10
4.164496
 20
3.316039
 30
0.0
 11
4.249268
 21
3.316039
 31
0.0
 12
4.164496
 22
3.337819
 32
0.0
 13
4.249268
 23
3.337819
 33
0.0
  0
SOLID
  8
TOPPASTE
  5
2D5
 10
4.168496
 20
3.320039
 30
0.0
 11
4.245268
 21
3.320039
 31
0.0
 12
4.168496
 22
3.333819
 32
0.0
 13
4.245268
 23
3.333819
 33
0.0
  0
SOLID
  8
TOPLAYER
  5
2D6
 10
4.168496
 20
3.320039
 30
0.0
 11
4.245268
 21
3.320039
 31
0.0
 12
4.168496
 22
3.333819
 32
0.0
 13
4.245268
 23
3.333819
 33
0.0
  0
SOLID
  8
TOPSOLDER
  5
2D7
 10
3.937614
 20
3.316039
 30
0.0
 11
4.022386
 21
3.316039
 31
0.0
 12
3.937614
 22
3.337819
 32
0.0
 13
4.022386
 23
3.337819
 33
0.0
  0
SOLID
  8
TOPPASTE
  5
2D8
 10
3.941614
 20
3.320039
 30
0.0
 11
4.018386
 21
3.320039
 31
0.0
 12
3.941614
 22
3.333819
 32
0.0
 13
4.018386
 23
3.333819
 33
0.0
  0
SOLID
  8
TOPLAYER
  5
2D9
 10
3.941614
 20
3.320039
 30
0.0
 11
4.018386
 21
3.320039
 31
0.0
 12
3.941614
 22
3.333819
 32
0.0
 13
4.018386
 23
3.333819
 33
0.0
  0
SOLID
  8
TOPSOLDER
  5
2DA
 10
4.164496
 20
3.292417
 30
0.0
 11
4.249268
 21
3.292417
 31
0.0
 12
4.164496
 22
3.314197
 32
0.0
 13
4.249268
 23
3.314197
 33
0.0
  0
SOLID
  8
TOPPASTE
  5
2DB
 10
4.168496
 20
3.296417
 30
0.0
 11
4.245268
 21
3.296417
 31
0.0
 12
4.168496
 22
3.310197
 32
0.0
 13
4.245268
 23
3.310197
 33
0.0
  0
SOLID
  8
TOPLAYER
  5
2DC
 10
4.168496
 20
3.296417
 30
0.0
 11
4.245268
 21
3.296417
 31
0.0
 12
4.168496
 22
3.310197
 32
0.0
 13
4.245268
 23
3.310197
 33
0.0
  0
SOLID
  8
TOPSOLDER
  5
2DD
 10
3.937614
 20
3.292417
 30
0.0
 11
4.022386
 21
3.292417
 31
0.0
 12
3.937614
 22
3.314197
 32
0.0
 13
4.022386
 23
3.314197
 33
0.0
  0
SOLID
  8
TOPPASTE
  5
2DE
 10
3.941614
 20
3.296417
 30
0.0
 11
4.018386
 21
3.296417
 31
0.0
 12
3.941614
 22
3.310197
 32
0.0
 13
4.018386
 23
3.310197
 33
0.0
  0
SOLID
  8
TOPLAYER
  5
2DF
 10
3.941614
 20
3.296417
 30
0.0
 11
4.018386
 21
3.296417
 31
0.0
 12
3.941614
 22
3.310197
 32
0.0
 13
4.018386
 23
3.310197
 33
0.0
  0
SOLID
  8
TOPSOLDER
  5
2E0
 10
4.164496
 20
3.268795
 30
0.0
 11
4.249268
 21
3.268795
 31
0.0
 12
4.164496
 22
3.290575
 32
0.0
 13
4.249268
 23
3.290575
 33
0.0
  0
SOLID
  8
TOPPASTE
  5
2E1
 10
4.168496
 20
3.272795
 30
0.0
 11
4.245268
 21
3.272795
 31
0.0
 12
4.168496
 22
3.286575
 32
0.0
 13
4.245268
 23
3.286575
 33
0.0
  0
SOLID
  8
TOPLAYER
  5
2E2
 10
4.168496
 20
3.272795
 30
0.0
 11
4.245268
 21
3.272795
 31
0.0
 12
4.168496
 22
3.286575
 32
0.0
 13
4.245268
 23
3.286575
 33
0.0
  0
SOLID
  8
TOPSOLDER
  5
2E3
 10
3.937614
 20
3.268795
 30
0.0
 11
4.022386
 21
3.268795
 31
0.0
 12
3.937614
 22
3.290575
 32
0.0
 13
4.022386
 23
3.290575
 33
0.0
  0
SOLID
  8
TOPPASTE
  5
2E4
 10
3.941614
 20
3.272795
 30
0.0
 11
4.018386
 21
3.272795
 31
0.0
 12
3.941614
 22
3.286575
 32
0.0
 13
4.018386
 23
3.286575
 33
0.0
  0
SOLID
  8
TOPLAYER
  5
2E5
 10
3.941614
 20
3.272795
 30
0.0
 11
4.018386
 21
3.272795
 31
0.0
 12
3.941614
 22
3.286575
 32
0.0
 13
4.018386
 23
3.286575
 33
0.0
  0
SOLID
  8
TOPSOLDER
  5
2E6
 10
4.164496
 20
3.245173
 30
0.0
 11
4.249268
 21
3.245173
 31
0.0
 12
4.164496
 22
3.266953
 32
0.0
 13
4.249268
 23
3.266953
 33
0.0
  0
SOLID
  8
TOPPASTE
  5
2E7
 10
4.168496
 20
3.249173
 30
0.0
 11
4.245268
 21
3.249173
 31
0.0
 12
4.168496
 22
3.262953
 32
0.0
 13
4.245268
 23
3.262953
 33
0.0
  0
SOLID
  8
TOPLAYER
  5
2E8
 10
4.168496
 20
3.249173
 30
0.0
 11
4.245268
 21
3.249173
 31
0.0
 12
4.168496
 22
3.262953
 32
0.0
 13
4.245268
 23
3.262953
 33
0.0
  0
SOLID
  8
TOPSOLDER
  5
2E9
 10
3.937614
 20
3.245173
 30
0.0
 11
4.022386
 21
3.245173
 31
0.0
 12
3.937614
 22
3.266953
 32
0.0
 13
4.022386
 23
3.266953
 33
0.0
  0
SOLID
  8
TOPPASTE
  5
2EA
 10
3.941614
 20
3.249173
 30
0.0
 11
4.018386
 21
3.249173
 31
0.0
 12
3.941614
 22
3.262953
 32
0.0
 13
4.018386
 23
3.262953
 33
0.0
  0
SOLID
  8
TOPLAYER
  5
2EB
 10
3.941614
 20
3.249173
 30
0.0
 11
4.018386
 21
3.249173
 31
0.0
 12
3.941614
 22
3.262953
 32
0.0
 13
4.018386
 23
3.262953
 33
0.0
  0
SOLID
  8
TOPSOLDER
  5
2EC
 10
4.164496
 20
3.221551
 30
0.0
 11
4.249268
 21
3.221551
 31
0.0
 12
4.164496
 22
3.243331
 32
0.0
 13
4.249268
 23
3.243331
 33
0.0
  0
SOLID
  8
TOPPASTE
  5
2ED
 10
4.168496
 20
3.225551
 30
0.0
 11
4.245268
 21
3.225551
 31
0.0
 12
4.168496
 22
3.239331
 32
0.0
 13
4.245268
 23
3.239331
 33
0.0
  0
SOLID
  8
TOPLAYER
  5
2EE
 10
4.168496
 20
3.225551
 30
0.0
 11
4.245268
 21
3.225551
 31
0.0
 12
4.168496
 22
3.239331
 32
0.0
 13
4.245268
 23
3.239331
 33
0.0
  0
SOLID
  8
TOPSOLDER
  5
2EF
 10
3.937614
 20
3.221551
 30
0.0
 11
4.022386
 21
3.221551
 31
0.0
 12
3.937614
 22
3.243331
 32
0.0
 13
4.022386
 23
3.243331
 33
0.0
  0
SOLID
  8
TOPPASTE
  5
2F0
 10
3.941614
 20
3.225551
 30
0.0
 11
4.018386
 21
3.225551
 31
0.0
 12
3.941614
 22
3.239331
 32
0.0
 13
4.018386
 23
3.239331
 33
0.0
  0
SOLID
  8
TOPLAYER
  5
2F1
 10
3.941614
 20
3.225551
 30
0.0
 11
4.018386
 21
3.225551
 31
0.0
 12
3.941614
 22
3.239331
 32
0.0
 13
4.018386
 23
3.239331
 33
0.0
  0
SOLID
  8
TOPSOLDER
  5
2F2
 10
4.164496
 20
3.197929
 30
0.0
 11
4.249268
 21
3.197929
 31
0.0
 12
4.164496
 22
3.219709
 32
0.0
 13
4.249268
 23
3.219709
 33
0.0
  0
SOLID
  8
TOPPASTE
  5
2F3
 10
4.168496
 20
3.201929
 30
0.0
 11
4.245268
 21
3.201929
 31
0.0
 12
4.168496
 22
3.215709
 32
0.0
 13
4.245268
 23
3.215709
 33
0.0
  0
SOLID
  8
TOPLAYER
  5
2F4
 10
4.168496
 20
3.201929
 30
0.0
 11
4.245268
 21
3.201929
 31
0.0
 12
4.168496
 22
3.215709
 32
0.0
 13
4.245268
 23
3.215709
 33
0.0
  0
SOLID
  8
TOPSOLDER
  5
2F5
 10
3.937614
 20
3.197929
 30
0.0
 11
4.022386
 21
3.197929
 31
0.0
 12
3.937614
 22
3.219709
 32
0.0
 13
4.022386
 23
3.219709
 33
0.0
  0
SOLID
  8
TOPPASTE
  5
2F6
 10
3.941614
 20
3.201929
 30
0.0
 11
4.018386
 21
3.201929
 31
0.0
 12
3.941614
 22
3.215709
 32
0.0
 13
4.018386
 23
3.215709
 33
0.0
  0
SOLID
  8
TOPLAYER
  5
2F7
 10
3.941614
 20
3.201929
 30
0.0
 11
4.018386
 21
3.201929
 31
0.0
 12
3.941614
 22
3.215709
 32
0.0
 13
4.018386
 23
3.215709
 33
0.0
  0
SOLID
  8
TOPSOLDER
  5
2F8
 10
4.164496
 20
3.174307
 30
0.0
 11
4.249268
 21
3.174307
 31
0.0
 12
4.164496
 22
3.196086
 32
0.0
 13
4.249268
 23
3.196086
 33
0.0
  0
SOLID
  8
TOPPASTE
  5
2F9
 10
4.168496
 20
3.178307
 30
0.0
 11
4.245268
 21
3.178307
 31
0.0
 12
4.168496
 22
3.192086
 32
0.0
 13
4.245268
 23
3.192086
 33
0.0
  0
SOLID
  8
TOPLAYER
  5
2FA
 10
4.168496
 20
3.178307
 30
0.0
 11
4.245268
 21
3.178307
 31
0.0
 12
4.168496
 22
3.192086
 32
0.0
 13
4.245268
 23
3.192086
 33
0.0
  0
SOLID
  8
TOPSOLDER
  5
2FB
 10
3.937614
 20
3.174307
 30
0.0
 11
4.022386
 21
3.174307
 31
0.0
 12
3.937614
 22
3.196086
 32
0.0
 13
4.022386
 23
3.196086
 33
0.0
  0
SOLID
  8
TOPPASTE
  5
2FC
 10
3.941614
 20
3.178307
 30
0.0
 11
4.018386
 21
3.178307
 31
0.0
 12
3.941614
 22
3.192086
 32
0.0
 13
4.018386
 23
3.192086
 33
0.0
  0
SOLID
  8
TOPLAYER
  5
2FD
 10
3.941614
 20
3.178307
 30
0.0
 11
4.018386
 21
3.178307
 31
0.0
 12
3.941614
 22
3.192086
 32
0.0
 13
4.018386
 23
3.192086
 33
0.0
  0
SOLID
  8
TOPSOLDER
  5
2FE
 10
4.164496
 20
3.150685
 30
0.0
 11
4.249268
 21
3.150685
 31
0.0
 12
4.164496
 22
3.172464
 32
0.0
 13
4.249268
 23
3.172464
 33
0.0
  0
SOLID
  8
TOPPASTE
  5
2FF
 10
4.168496
 20
3.154685
 30
0.0
 11
4.245268
 21
3.154685
 31
0.0
 12
4.168496
 22
3.168464
 32
0.0
 13
4.245268
 23
3.168464
 33
0.0
  0
SOLID
  8
TOPLAYER
  5
300
 10
4.168496
 20
3.154685
 30
0.0
 11
4.245268
 21
3.154685
 31
0.0
 12
4.168496
 22
3.168464
 32
0.0
 13
4.245268
 23
3.168464
 33
0.0
  0
SOLID
  8
TOPSOLDER
  5
301
 10
3.937614
 20
3.150685
 30
0.0
 11
4.022386
 21
3.150685
 31
0.0
 12
3.937614
 22
3.172464
 32
0.0
 13
4.022386
 23
3.172464
 33
0.0
  0
SOLID
  8
TOPPASTE
  5
302
 10
3.941614
 20
3.154685
 30
0.0
 11
4.018386
 21
3.154685
 31
0.0
 12
3.941614
 22
3.168464
 32
0.0
 13
4.018386
 23
3.168464
 33
0.0
  0
SOLID
  8
TOPLAYER
  5
303
 10
3.941614
 20
3.154685
 30
0.0
 11
4.018386
 21
3.154685
 31
0.0
 12
3.941614
 22
3.168464
 32
0.0
 13
4.018386
 23
3.168464
 33
0.0
  0
SOLID
  8
TOPSOLDER
  5
304
 10
4.164496
 20
3.127063
 30
0.0
 11
4.249268
 21
3.127063
 31
0.0
 12
4.164496
 22
3.148842
 32
0.0
 13
4.249268
 23
3.148842
 33
0.0
  0
SOLID
  8
TOPPASTE
  5
305
 10
4.168496
 20
3.131063
 30
0.0
 11
4.245268
 21
3.131063
 31
0.0
 12
4.168496
 22
3.144842
 32
0.0
 13
4.245268
 23
3.144842
 33
0.0
  0
SOLID
  8
TOPLAYER
  5
306
 10
4.168496
 20
3.131063
 30
0.0
 11
4.245268
 21
3.131063
 31
0.0
 12
4.168496
 22
3.144842
 32
0.0
 13
4.245268
 23
3.144842
 33
0.0
  0
SOLID
  8
TOPSOLDER
  5
307
 10
3.937614
 20
3.127063
 30
0.0
 11
4.022386
 21
3.127063
 31
0.0
 12
3.937614
 22
3.148842
 32
0.0
 13
4.022386
 23
3.148842
 33
0.0
  0
SOLID
  8
TOPPASTE
  5
308
 10
3.941614
 20
3.131063
 30
0.0
 11
4.018386
 21
3.131063
 31
0.0
 12
3.941614
 22
3.144842
 32
0.0
 13
4.018386
 23
3.144842
 33
0.0
  0
SOLID
  8
TOPLAYER
  5
309
 10
3.941614
 20
3.131063
 30
0.0
 11
4.018386
 21
3.131063
 31
0.0
 12
3.941614
 22
3.144842
 32
0.0
 13
4.018386
 23
3.144842
 33
0.0
  0
SOLID
  8
TOPSOLDER
  5
30A
 10
4.164496
 20
3.103441
 30
0.0
 11
4.249268
 21
3.103441
 31
0.0
 12
4.164496
 22
3.12522
 32
0.0
 13
4.249268
 23
3.12522
 33
0.0
  0
SOLID
  8
TOPPASTE
  5
30B
 10
4.168496
 20
3.107441
 30
0.0
 11
4.245268
 21
3.107441
 31
0.0
 12
4.168496
 22
3.12122
 32
0.0
 13
4.245268
 23
3.12122
 33
0.0
  0
SOLID
  8
TOPLAYER
  5
30C
 10
4.168496
 20
3.107441
 30
0.0
 11
4.245268
 21
3.107441
 31
0.0
 12
4.168496
 22
3.12122
 32
0.0
 13
4.245268
 23
3.12122
 33
0.0
  0
SOLID
  8
TOPSOLDER
  5
30D
 10
3.937614
 20
3.103441
 30
0.0
 11
4.022386
 21
3.103441
 31
0.0
 12
3.937614
 22
3.12522
 32
0.0
 13
4.022386
 23
3.12522
 33
0.0
  0
SOLID
  8
TOPPASTE
  5
30E
 10
3.941614
 20
3.107441
 30
0.0
 11
4.018386
 21
3.107441
 31
0.0
 12
3.941614
 22
3.12122
 32
0.0
 13
4.018386
 23
3.12122
 33
0.0
  0
SOLID
  8
TOPLAYER
  5
30F
 10
3.941614
 20
3.107441
 30
0.0
 11
4.018386
 21
3.107441
 31
0.0
 12
3.941614
 22
3.12122
 32
0.0
 13
4.018386
 23
3.12122
 33
0.0
  0
SOLID
  8
TOPSOLDER
  5
310
 10
4.164496
 20
3.079819
 30
0.0
 11
4.249268
 21
3.079819
 31
0.0
 12
4.164496
 22
3.101598
 32
0.0
 13
4.249268
 23
3.101598
 33
0.0
  0
SOLID
  8
TOPPASTE
  5
311
 10
4.168496
 20
3.083819
 30
0.0
 11
4.245268
 21
3.083819
 31
0.0
 12
4.168496
 22
3.097598
 32
0.0
 13
4.245268
 23
3.097598
 33
0.0
  0
SOLID
  8
TOPLAYER
  5
312
 10
4.168496
 20
3.083819
 30
0.0
 11
4.245268
 21
3.083819
 31
0.0
 12
4.168496
 22
3.097598
 32
0.0
 13
4.245268
 23
3.097598
 33
0.0
  0
SOLID
  8
TOPSOLDER
  5
313
 10
3.937614
 20
3.079819
 30
0.0
 11
4.022386
 21
3.079819
 31
0.0
 12
3.937614
 22
3.101598
 32
0.0
 13
4.022386
 23
3.101598
 33
0.0
  0
SOLID
  8
TOPPASTE
  5
314
 10
3.941614
 20
3.083819
 30
0.0
 11
4.018386
 21
3.083819
 31
0.0
 12
3.941614
 22
3.097598
 32
0.0
 13
4.018386
 23
3.097598
 33
0.0
  0
SOLID
  8
TOPLAYER
  5
315
 10
3.941614
 20
3.083819
 30
0.0
 11
4.018386
 21
3.083819
 31
0.0
 12
3.941614
 22
3.097598
 32
0.0
 13
4.018386
 23
3.097598
 33
0.0
  0
SOLID
  8
TOPSOLDER
  5
316
 10
4.164496
 20
3.056197
 30
0.0
 11
4.249268
 21
3.056197
 31
0.0
 12
4.164496
 22
3.077976
 32
0.0
 13
4.249268
 23
3.077976
 33
0.0
  0
SOLID
  8
TOPPASTE
  5
317
 10
4.168496
 20
3.060197
 30
0.0
 11
4.245268
 21
3.060197
 31
0.0
 12
4.168496
 22
3.073976
 32
0.0
 13
4.245268
 23
3.073976
 33
0.0
  0
SOLID
  8
TOPLAYER
  5
318
 10
4.168496
 20
3.060197
 30
0.0
 11
4.245268
 21
3.060197
 31
0.0
 12
4.168496
 22
3.073976
 32
0.0
 13
4.245268
 23
3.073976
 33
0.0
  0
SOLID
  8
TOPSOLDER
  5
319
 10
3.937614
 20
3.056197
 30
0.0
 11
4.022386
 21
3.056197
 31
0.0
 12
3.937614
 22
3.077976
 32
0.0
 13
4.022386
 23
3.077976
 33
0.0
  0
SOLID
  8
TOPPASTE
  5
31A
 10
3.941614
 20
3.060197
 30
0.0
 11
4.018386
 21
3.060197
 31
0.0
 12
3.941614
 22
3.073976
 32
0.0
 13
4.018386
 23
3.073976
 33
0.0
  0
SOLID
  8
TOPLAYER
  5
31B
 10
3.941614
 20
3.060197
 30
0.0
 11
4.018386
 21
3.060197
 31
0.0
 12
3.941614
 22
3.073976
 32
0.0
 13
4.018386
 23
3.073976
 33
0.0
  0
SOLID
  8
TOPSOLDER
  5
31C
 10
4.164496
 20
3.032575
 30
0.0
 11
4.249268
 21
3.032575
 31
0.0
 12
4.164496
 22
3.054354
 32
0.0
 13
4.249268
 23
3.054354
 33
0.0
  0
SOLID
  8
TOPPASTE
  5
31D
 10
4.168496
 20
3.036575
 30
0.0
 11
4.245268
 21
3.036575
 31
0.0
 12
4.168496
 22
3.050354
 32
0.0
 13
4.245268
 23
3.050354
 33
0.0
  0
SOLID
  8
TOPLAYER
  5
31E
 10
4.168496
 20
3.036575
 30
0.0
 11
4.245268
 21
3.036575
 31
0.0
 12
4.168496
 22
3.050354
 32
0.0
 13
4.245268
 23
3.050354
 33
0.0
  0
SOLID
  8
TOPSOLDER
  5
31F
 10
3.937614
 20
3.032575
 30
0.0
 11
4.022386
 21
3.032575
 31
0.0
 12
3.937614
 22
3.054354
 32
0.0
 13
4.022386
 23
3.054354
 33
0.0
  0
SOLID
  8
TOPPASTE
  5
320
 10
3.941614
 20
3.036575
 30
0.0
 11
4.018386
 21
3.036575
 31
0.0
 12
3.941614
 22
3.050354
 32
0.0
 13
4.018386
 23
3.050354
 33
0.0
  0
SOLID
  8
TOPLAYER
  5
321
 10
3.941614
 20
3.036575
 30
0.0
 11
4.018386
 21
3.036575
 31
0.0
 12
3.941614
 22
3.050354
 32
0.0
 13
4.018386
 23
3.050354
 33
0.0
  0
SOLID
  8
TOPSOLDER
  5
322
 10
4.164496
 20
3.008953
 30
0.0
 11
4.249268
 21
3.008953
 31
0.0
 12
4.164496
 22
3.030732
 32
0.0
 13
4.249268
 23
3.030732
 33
0.0
  0
SOLID
  8
TOPPASTE
  5
323
 10
4.168496
 20
3.012953
 30
0.0
 11
4.245268
 21
3.012953
 31
0.0
 12
4.168496
 22
3.026732
 32
0.0
 13
4.245268
 23
3.026732
 33
0.0
  0
SOLID
  8
TOPLAYER
  5
324
 10
4.168496
 20
3.012953
 30
0.0
 11
4.245268
 21
3.012953
 31
0.0
 12
4.168496
 22
3.026732
 32
0.0
 13
4.245268
 23
3.026732
 33
0.0
  0
SOLID
  8
TOPSOLDER
  5
325
 10
3.937614
 20
3.008953
 30
0.0
 11
4.022386
 21
3.008953
 31
0.0
 12
3.937614
 22
3.030732
 32
0.0
 13
4.022386
 23
3.030732
 33
0.0
  0
SOLID
  8
TOPPASTE
  5
326
 10
3.941614
 20
3.012953
 30
0.0
 11
4.018386
 21
3.012953
 31
0.0
 12
3.941614
 22
3.026732
 32
0.0
 13
4.018386
 23
3.026732
 33
0.0
  0
SOLID
  8
TOPLAYER
  5
327
 10
3.941614
 20
3.012953
 30
0.0
 11
4.018386
 21
3.012953
 31
0.0
 12
3.941614
 22
3.026732
 32
0.0
 13
4.018386
 23
3.026732
 33
0.0
  0
SOLID
  8
TOPSOLDER
  5
328
 10
4.164496
 20
2.985331
 30
0.0
 11
4.249268
 21
2.985331
 31
0.0
 12
4.164496
 22
3.00711
 32
0.0
 13
4.249268
 23
3.00711
 33
0.0
  0
SOLID
  8
TOPPASTE
  5
329
 10
4.168496
 20
2.989331
 30
0.0
 11
4.245268
 21
2.989331
 31
0.0
 12
4.168496
 22
3.00311
 32
0.0
 13
4.245268
 23
3.00311
 33
0.0
  0
SOLID
  8
TOPLAYER
  5
32A
 10
4.168496
 20
2.989331
 30
0.0
 11
4.245268
 21
2.989331
 31
0.0
 12
4.168496
 22
3.00311
 32
0.0
 13
4.245268
 23
3.00311
 33
0.0
  0
SOLID
  8
TOPSOLDER
  5
32B
 10
3.937614
 20
2.985331
 30
0.0
 11
4.022386
 21
2.985331
 31
0.0
 12
3.937614
 22
3.00711
 32
0.0
 13
4.022386
 23
3.00711
 33
0.0
  0
SOLID
  8
TOPPASTE
  5
32C
 10
3.941614
 20
2.989331
 30
0.0
 11
4.018386
 21
2.989331
 31
0.0
 12
3.941614
 22
3.00311
 32
0.0
 13
4.018386
 23
3.00311
 33
0.0
  0
SOLID
  8
TOPLAYER
  5
32D
 10
3.941614
 20
2.989331
 30
0.0
 11
4.018386
 21
2.989331
 31
0.0
 12
3.941614
 22
3.00311
 32
0.0
 13
4.018386
 23
3.00311
 33
0.0
  0
SOLID
  8
TOPSOLDER
  5
32E
 10
4.164496
 20
2.961709
 30
0.0
 11
4.249268
 21
2.961709
 31
0.0
 12
4.164496
 22
2.983488
 32
0.0
 13
4.249268
 23
2.983488
 33
0.0
  0
SOLID
  8
TOPPASTE
  5
32F
 10
4.168496
 20
2.965709
 30
0.0
 11
4.245268
 21
2.965709
 31
0.0
 12
4.168496
 22
2.979488
 32
0.0
 13
4.245268
 23
2.979488
 33
0.0
  0
SOLID
  8
TOPLAYER
  5
330
 10
4.168496
 20
2.965709
 30
0.0
 11
4.245268
 21
2.965709
 31
0.0
 12
4.168496
 22
2.979488
 32
0.0
 13
4.245268
 23
2.979488
 33
0.0
  0
SOLID
  8
TOPSOLDER
  5
331
 10
3.937614
 20
2.961709
 30
0.0
 11
4.022386
 21
2.961709
 31
0.0
 12
3.937614
 22
2.983488
 32
0.0
 13
4.022386
 23
2.983488
 33
0.0
  0
SOLID
  8
TOPPASTE
  5
332
 10
3.941614
 20
2.965709
 30
0.0
 11
4.018386
 21
2.965709
 31
0.0
 12
3.941614
 22
2.979488
 32
0.0
 13
4.018386
 23
2.979488
 33
0.0
  0
SOLID
  8
TOPLAYER
  5
333
 10
3.941614
 20
2.965709
 30
0.0
 11
4.018386
 21
2.965709
 31
0.0
 12
3.941614
 22
2.979488
 32
0.0
 13
4.018386
 23
2.979488
 33
0.0
  0
SOLID
  8
TOPSOLDER
  5
334
 10
4.164496
 20
2.938087
 30
0.0
 11
4.249268
 21
2.938087
 31
0.0
 12
4.164496
 22
2.959866
 32
0.0
 13
4.249268
 23
2.959866
 33
0.0
  0
SOLID
  8
TOPPASTE
  5
335
 10
4.168496
 20
2.942087
 30
0.0
 11
4.245268
 21
2.942087
 31
0.0
 12
4.168496
 22
2.955866
 32
0.0
 13
4.245268
 23
2.955866
 33
0.0
  0
SOLID
  8
TOPLAYER
  5
336
 10
4.168496
 20
2.942087
 30
0.0
 11
4.245268
 21
2.942087
 31
0.0
 12
4.168496
 22
2.955866
 32
0.0
 13
4.245268
 23
2.955866
 33
0.0
  0
SOLID
  8
TOPSOLDER
  5
337
 10
3.937614
 20
2.938087
 30
0.0
 11
4.022386
 21
2.938087
 31
0.0
 12
3.937614
 22
2.959866
 32
0.0
 13
4.022386
 23
2.959866
 33
0.0
  0
SOLID
  8
TOPPASTE
  5
338
 10
3.941614
 20
2.942087
 30
0.0
 11
4.018386
 21
2.942087
 31
0.0
 12
3.941614
 22
2.955866
 32
0.0
 13
4.018386
 23
2.955866
 33
0.0
  0
SOLID
  8
TOPLAYER
  5
339
 10
3.941614
 20
2.942087
 30
0.0
 11
4.018386
 21
2.942087
 31
0.0
 12
3.941614
 22
2.955866
 32
0.0
 13
4.018386
 23
2.955866
 33
0.0
  0
SOLID
  8
TOPSOLDER
  5
33A
 10
4.164496
 20
2.914465
 30
0.0
 11
4.249268
 21
2.914465
 31
0.0
 12
4.164496
 22
2.936244
 32
0.0
 13
4.249268
 23
2.936244
 33
0.0
  0
SOLID
  8
TOPPASTE
  5
33B
 10
4.168496
 20
2.918465
 30
0.0
 11
4.245268
 21
2.918465
 31
0.0
 12
4.168496
 22
2.932244
 32
0.0
 13
4.245268
 23
2.932244
 33
0.0
  0
SOLID
  8
TOPLAYER
  5
33C
 10
4.168496
 20
2.918465
 30
0.0
 11
4.245268
 21
2.918465
 31
0.0
 12
4.168496
 22
2.932244
 32
0.0
 13
4.245268
 23
2.932244
 33
0.0
  0
SOLID
  8
TOPSOLDER
  5
33D
 10
3.937614
 20
2.914465
 30
0.0
 11
4.022386
 21
2.914465
 31
0.0
 12
3.937614
 22
2.936244
 32
0.0
 13
4.022386
 23
2.936244
 33
0.0
  0
SOLID
  8
TOPPASTE
  5
33E
 10
3.941614
 20
2.918465
 30
0.0
 11
4.018386
 21
2.918465
 31
0.0
 12
3.941614
 22
2.932244
 32
0.0
 13
4.018386
 23
2.932244
 33
0.0
  0
SOLID
  8
TOPLAYER
  5
33F
 10
3.941614
 20
2.918465
 30
0.0
 11
4.018386
 21
2.918465
 31
0.0
 12
3.941614
 22
2.932244
 32
0.0
 13
4.018386
 23
2.932244
 33
0.0
  0
SOLID
  8
TOPSOLDER
  5
340
 10
4.164496
 20
2.890843
 30
0.0
 11
4.249268
 21
2.890843
 31
0.0
 12
4.164496
 22
2.912622
 32
0.0
 13
4.249268
 23
2.912622
 33
0.0
  0
SOLID
  8
TOPPASTE
  5
341
 10
4.168496
 20
2.894843
 30
0.0
 11
4.245268
 21
2.894843
 31
0.0
 12
4.168496
 22
2.908622
 32
0.0
 13
4.245268
 23
2.908622
 33
0.0
  0
SOLID
  8
TOPLAYER
  5
342
 10
4.168496
 20
2.894843
 30
0.0
 11
4.245268
 21
2.894843
 31
0.0
 12
4.168496
 22
2.908622
 32
0.0
 13
4.245268
 23
2.908622
 33
0.0
  0
SOLID
  8
TOPSOLDER
  5
343
 10
3.937614
 20
2.890843
 30
0.0
 11
4.022386
 21
2.890843
 31
0.0
 12
3.937614
 22
2.912622
 32
0.0
 13
4.022386
 23
2.912622
 33
0.0
  0
SOLID
  8
TOPPASTE
  5
344
 10
3.941614
 20
2.894843
 30
0.0
 11
4.018386
 21
2.894843
 31
0.0
 12
3.941614
 22
2.908622
 32
0.0
 13
4.018386
 23
2.908622
 33
0.0
  0
SOLID
  8
TOPLAYER
  5
345
 10
3.941614
 20
2.894843
 30
0.0
 11
4.018386
 21
2.894843
 31
0.0
 12
3.941614
 22
2.908622
 32
0.0
 13
4.018386
 23
2.908622
 33
0.0
  0
SOLID
  8
TOPSOLDER
  5
346
 10
4.164496
 20
2.867221
 30
0.0
 11
4.249268
 21
2.867221
 31
0.0
 12
4.164496
 22
2.889
 32
0.0
 13
4.249268
 23
2.889
 33
0.0
  0
SOLID
  8
TOPPASTE
  5
347
 10
4.168496
 20
2.871221
 30
0.0
 11
4.245268
 21
2.871221
 31
0.0
 12
4.168496
 22
2.885
 32
0.0
 13
4.245268
 23
2.885
 33
0.0
  0
SOLID
  8
TOPLAYER
  5
348
 10
4.168496
 20
2.871221
 30
0.0
 11
4.245268
 21
2.871221
 31
0.0
 12
4.168496
 22
2.885
 32
0.0
 13
4.245268
 23
2.885
 33
0.0
  0
SOLID
  8
TOPSOLDER
  5
349
 10
3.937614
 20
2.867221
 30
0.0
 11
4.022386
 21
2.867221
 31
0.0
 12
3.937614
 22
2.889
 32
0.0
 13
4.022386
 23
2.889
 33
0.0
  0
SOLID
  8
TOPPASTE
  5
34A
 10
3.941614
 20
2.871221
 30
0.0
 11
4.018386
 21
2.871221
 31
0.0
 12
3.941614
 22
2.885
 32
0.0
 13
4.018386
 23
2.885
 33
0.0
  0
SOLID
  8
TOPLAYER
  5
34B
 10
3.941614
 20
2.871221
 30
0.0
 11
4.018386
 21
2.871221
 31
0.0
 12
3.941614
 22
2.885
 32
0.0
 13
4.018386
 23
2.885
 33
0.0
  0
SOLID
  8
TOPSOLDER
  5
34C
 10
4.164496
 20
2.843599
 30
0.0
 11
4.249268
 21
2.843599
 31
0.0
 12
4.164496
 22
2.865378
 32
0.0
 13
4.249268
 23
2.865378
 33
0.0
  0
SOLID
  8
TOPPASTE
  5
34D
 10
4.168496
 20
2.847599
 30
0.0
 11
4.245268
 21
2.847599
 31
0.0
 12
4.168496
 22
2.861378
 32
0.0
 13
4.245268
 23
2.861378
 33
0.0
  0
SOLID
  8
TOPLAYER
  5
34E
 10
4.168496
 20
2.847599
 30
0.0
 11
4.245268
 21
2.847599
 31
0.0
 12
4.168496
 22
2.861378
 32
0.0
 13
4.245268
 23
2.861378
 33
0.0
  0
SOLID
  8
TOPSOLDER
  5
34F
 10
3.937614
 20
2.843599
 30
0.0
 11
4.022386
 21
2.843599
 31
0.0
 12
3.937614
 22
2.865378
 32
0.0
 13
4.022386
 23
2.865378
 33
0.0
  0
SOLID
  8
TOPPASTE
  5
350
 10
3.941614
 20
2.847599
 30
0.0
 11
4.018386
 21
2.847599
 31
0.0
 12
3.941614
 22
2.861378
 32
0.0
 13
4.018386
 23
2.861378
 33
0.0
  0
SOLID
  8
TOPLAYER
  5
351
 10
3.941614
 20
2.847599
 30
0.0
 11
4.018386
 21
2.847599
 31
0.0
 12
3.941614
 22
2.861378
 32
0.0
 13
4.018386
 23
2.861378
 33
0.0
  0
SOLID
  8
TOPSOLDER
  5
352
 10
4.164496
 20
2.819976
 30
0.0
 11
4.249268
 21
2.819976
 31
0.0
 12
4.164496
 22
2.841756
 32
0.0
 13
4.249268
 23
2.841756
 33
0.0
  0
SOLID
  8
TOPPASTE
  5
353
 10
4.168496
 20
2.823976
 30
0.0
 11
4.245268
 21
2.823976
 31
0.0
 12
4.168496
 22
2.837756
 32
0.0
 13
4.245268
 23
2.837756
 33
0.0
  0
SOLID
  8
TOPLAYER
  5
354
 10
4.168496
 20
2.823976
 30
0.0
 11
4.245268
 21
2.823976
 31
0.0
 12
4.168496
 22
2.837756
 32
0.0
 13
4.245268
 23
2.837756
 33
0.0
  0
SOLID
  8
TOPSOLDER
  5
355
 10
3.937614
 20
2.819976
 30
0.0
 11
4.022386
 21
2.819976
 31
0.0
 12
3.937614
 22
2.841756
 32
0.0
 13
4.022386
 23
2.841756
 33
0.0
  0
SOLID
  8
TOPPASTE
  5
356
 10
3.941614
 20
2.823976
 30
0.0
 11
4.018386
 21
2.823976
 31
0.0
 12
3.941614
 22
2.837756
 32
0.0
 13
4.018386
 23
2.837756
 33
0.0
  0
SOLID
  8
TOPLAYER
  5
357
 10
3.941614
 20
2.823976
 30
0.0
 11
4.018386
 21
2.823976
 31
0.0
 12
3.941614
 22
2.837756
 32
0.0
 13
4.018386
 23
2.837756
 33
0.0
  0
SOLID
  8
TOPSOLDER
  5
358
 10
4.164496
 20
2.796354
 30
0.0
 11
4.249268
 21
2.796354
 31
0.0
 12
4.164496
 22
2.818134
 32
0.0
 13
4.249268
 23
2.818134
 33
0.0
  0
SOLID
  8
TOPPASTE
  5
359
 10
4.168496
 20
2.800354
 30
0.0
 11
4.245268
 21
2.800354
 31
0.0
 12
4.168496
 22
2.814134
 32
0.0
 13
4.245268
 23
2.814134
 33
0.0
  0
SOLID
  8
TOPLAYER
  5
35A
 10
4.168496
 20
2.800354
 30
0.0
 11
4.245268
 21
2.800354
 31
0.0
 12
4.168496
 22
2.814134
 32
0.0
 13
4.245268
 23
2.814134
 33
0.0
  0
SOLID
  8
TOPSOLDER
  5
35B
 10
3.937614
 20
2.796354
 30
0.0
 11
4.022386
 21
2.796354
 31
0.0
 12
3.937614
 22
2.818134
 32
0.0
 13
4.022386
 23
2.818134
 33
0.0
  0
SOLID
  8
TOPPASTE
  5
35C
 10
3.941614
 20
2.800354
 30
0.0
 11
4.018386
 21
2.800354
 31
0.0
 12
3.941614
 22
2.814134
 32
0.0
 13
4.018386
 23
2.814134
 33
0.0
  0
SOLID
  8
TOPLAYER
  5
35D
 10
3.941614
 20
2.800354
 30
0.0
 11
4.018386
 21
2.800354
 31
0.0
 12
3.941614
 22
2.814134
 32
0.0
 13
4.018386
 23
2.814134
 33
0.0
  0
SOLID
  8
TOPSOLDER
  5
35E
 10
4.164496
 20
2.772732
 30
0.0
 11
4.249268
 21
2.772732
 31
0.0
 12
4.164496
 22
2.794512
 32
0.0
 13
4.249268
 23
2.794512
 33
0.0
  0
SOLID
  8
TOPPASTE
  5
35F
 10
4.168496
 20
2.776732
 30
0.0
 11
4.245268
 21
2.776732
 31
0.0
 12
4.168496
 22
2.790512
 32
0.0
 13
4.245268
 23
2.790512
 33
0.0
  0
SOLID
  8
TOPLAYER
  5
360
 10
4.168496
 20
2.776732
 30
0.0
 11
4.245268
 21
2.776732
 31
0.0
 12
4.168496
 22
2.790512
 32
0.0
 13
4.245268
 23
2.790512
 33
0.0
  0
SOLID
  8
TOPSOLDER
  5
361
 10
3.937614
 20
2.772732
 30
0.0
 11
4.022386
 21
2.772732
 31
0.0
 12
3.937614
 22
2.794512
 32
0.0
 13
4.022386
 23
2.794512
 33
0.0
  0
SOLID
  8
TOPPASTE
  5
362
 10
3.941614
 20
2.776732
 30
0.0
 11
4.018386
 21
2.776732
 31
0.0
 12
3.941614
 22
2.790512
 32
0.0
 13
4.018386
 23
2.790512
 33
0.0
  0
SOLID
  8
TOPLAYER
  5
363
 10
3.941614
 20
2.776732
 30
0.0
 11
4.018386
 21
2.776732
 31
0.0
 12
3.941614
 22
2.790512
 32
0.0
 13
4.018386
 23
2.790512
 33
0.0
  0
SOLID
  8
TOPSOLDER
  5
364
 10
4.164496
 20
2.74911
 30
0.0
 11
4.249268
 21
2.74911
 31
0.0
 12
4.164496
 22
2.77089
 32
0.0
 13
4.249268
 23
2.77089
 33
0.0
  0
SOLID
  8
TOPPASTE
  5
365
 10
4.168496
 20
2.75311
 30
0.0
 11
4.245268
 21
2.75311
 31
0.0
 12
4.168496
 22
2.76689
 32
0.0
 13
4.245268
 23
2.76689
 33
0.0
  0
SOLID
  8
TOPLAYER
  5
366
 10
4.168496
 20
2.75311
 30
0.0
 11
4.245268
 21
2.75311
 31
0.0
 12
4.168496
 22
2.76689
 32
0.0
 13
4.245268
 23
2.76689
 33
0.0
  0
SOLID
  8
TOPSOLDER
  5
367
 10
3.937614
 20
2.74911
 30
0.0
 11
4.022386
 21
2.74911
 31
0.0
 12
3.937614
 22
2.77089
 32
0.0
 13
4.022386
 23
2.77089
 33
0.0
  0
SOLID
  8
TOPPASTE
  5
368
 10
3.941614
 20
2.75311
 30
0.0
 11
4.018386
 21
2.75311
 31
0.0
 12
3.941614
 22
2.76689
 32
0.0
 13
4.018386
 23
2.76689
 33
0.0
  0
SOLID
  8
TOPLAYER
  5
369
 10
3.941614
 20
2.75311
 30
0.0
 11
4.018386
 21
2.75311
 31
0.0
 12
3.941614
 22
2.76689
 32
0.0
 13
4.018386
 23
2.76689
 33
0.0
  0
SOLID
  8
TOPSOLDER
  5
36A
 10
4.164496
 20
2.725488
 30
0.0
 11
4.249268
 21
2.725488
 31
0.0
 12
4.164496
 22
2.747268
 32
0.0
 13
4.249268
 23
2.747268
 33
0.0
  0
SOLID
  8
TOPPASTE
  5
36B
 10
4.168496
 20
2.729488
 30
0.0
 11
4.245268
 21
2.729488
 31
0.0
 12
4.168496
 22
2.743268
 32
0.0
 13
4.245268
 23
2.743268
 33
0.0
  0
SOLID
  8
TOPLAYER
  5
36C
 10
4.168496
 20
2.729488
 30
0.0
 11
4.245268
 21
2.729488
 31
0.0
 12
4.168496
 22
2.743268
 32
0.0
 13
4.245268
 23
2.743268
 33
0.0
  0
SOLID
  8
TOPSOLDER
  5
36D
 10
3.937614
 20
2.725488
 30
0.0
 11
4.022386
 21
2.725488
 31
0.0
 12
3.937614
 22
2.747268
 32
0.0
 13
4.022386
 23
2.747268
 33
0.0
  0
SOLID
  8
TOPPASTE
  5
36E
 10
3.941614
 20
2.729488
 30
0.0
 11
4.018386
 21
2.729488
 31
0.0
 12
3.941614
 22
2.743268
 32
0.0
 13
4.018386
 23
2.743268
 33
0.0
  0
SOLID
  8
TOPLAYER
  5
36F
 10
3.941614
 20
2.729488
 30
0.0
 11
4.018386
 21
2.729488
 31
0.0
 12
3.941614
 22
2.743268
 32
0.0
 13
4.018386
 23
2.743268
 33
0.0
  0
SOLID
  8
TOPSOLDER
  5
370
 10
4.164496
 20
2.701866
 30
0.0
 11
4.249268
 21
2.701866
 31
0.0
 12
4.164496
 22
2.723646
 32
0.0
 13
4.249268
 23
2.723646
 33
0.0
  0
SOLID
  8
TOPPASTE
  5
371
 10
4.168496
 20
2.705866
 30
0.0
 11
4.245268
 21
2.705866
 31
0.0
 12
4.168496
 22
2.719646
 32
0.0
 13
4.245268
 23
2.719646
 33
0.0
  0
SOLID
  8
TOPLAYER
  5
372
 10
4.168496
 20
2.705866
 30
0.0
 11
4.245268
 21
2.705866
 31
0.0
 12
4.168496
 22
2.719646
 32
0.0
 13
4.245268
 23
2.719646
 33
0.0
  0
SOLID
  8
TOPSOLDER
  5
373
 10
3.937614
 20
2.701866
 30
0.0
 11
4.022386
 21
2.701866
 31
0.0
 12
3.937614
 22
2.723646
 32
0.0
 13
4.022386
 23
2.723646
 33
0.0
  0
SOLID
  8
TOPPASTE
  5
374
 10
3.941614
 20
2.705866
 30
0.0
 11
4.018386
 21
2.705866
 31
0.0
 12
3.941614
 22
2.719646
 32
0.0
 13
4.018386
 23
2.719646
 33
0.0
  0
SOLID
  8
TOPLAYER
  5
375
 10
3.941614
 20
2.705866
 30
0.0
 11
4.018386
 21
2.705866
 31
0.0
 12
3.941614
 22
2.719646
 32
0.0
 13
4.018386
 23
2.719646
 33
0.0
  0
SOLID
  8
TOPSOLDER
  5
376
 10
4.164496
 20
2.678244
 30
0.0
 11
4.249268
 21
2.678244
 31
0.0
 12
4.164496
 22
2.700024
 32
0.0
 13
4.249268
 23
2.700024
 33
0.0
  0
SOLID
  8
TOPPASTE
  5
377
 10
4.168496
 20
2.682244
 30
0.0
 11
4.245268
 21
2.682244
 31
0.0
 12
4.168496
 22
2.696024
 32
0.0
 13
4.245268
 23
2.696024
 33
0.0
  0
SOLID
  8
TOPLAYER
  5
378
 10
4.168496
 20
2.682244
 30
0.0
 11
4.245268
 21
2.682244
 31
0.0
 12
4.168496
 22
2.696024
 32
0.0
 13
4.245268
 23
2.696024
 33
0.0
  0
SOLID
  8
TOPSOLDER
  5
379
 10
3.937614
 20
2.678244
 30
0.0
 11
4.022386
 21
2.678244
 31
0.0
 12
3.937614
 22
2.700024
 32
0.0
 13
4.022386
 23
2.700024
 33
0.0
  0
SOLID
  8
TOPPASTE
  5
37A
 10
3.941614
 20
2.682244
 30
0.0
 11
4.018386
 21
2.682244
 31
0.0
 12
3.941614
 22
2.696024
 32
0.0
 13
4.018386
 23
2.696024
 33
0.0
  0
SOLID
  8
TOPLAYER
  5
37B
 10
3.941614
 20
2.682244
 30
0.0
 11
4.018386
 21
2.682244
 31
0.0
 12
3.941614
 22
2.696024
 32
0.0
 13
4.018386
 23
2.696024
 33
0.0
  0
SOLID
  8
TOPSOLDER
  5
37C
 10
4.164496
 20
2.654622
 30
0.0
 11
4.249268
 21
2.654622
 31
0.0
 12
4.164496
 22
2.676401
 32
0.0
 13
4.249268
 23
2.676401
 33
0.0
  0
SOLID
  8
TOPPASTE
  5
37D
 10
4.168496
 20
2.658622
 30
0.0
 11
4.245268
 21
2.658622
 31
0.0
 12
4.168496
 22
2.672401
 32
0.0
 13
4.245268
 23
2.672401
 33
0.0
  0
SOLID
  8
TOPLAYER
  5
37E
 10
4.168496
 20
2.658622
 30
0.0
 11
4.245268
 21
2.658622
 31
0.0
 12
4.168496
 22
2.672401
 32
0.0
 13
4.245268
 23
2.672401
 33
0.0
  0
SOLID
  8
TOPSOLDER
  5
37F
 10
3.937614
 20
2.654622
 30
0.0
 11
4.022386
 21
2.654622
 31
0.0
 12
3.937614
 22
2.676401
 32
0.0
 13
4.022386
 23
2.676401
 33
0.0
  0
SOLID
  8
TOPPASTE
  5
380
 10
3.941614
 20
2.658622
 30
0.0
 11
4.018386
 21
2.658622
 31
0.0
 12
3.941614
 22
2.672401
 32
0.0
 13
4.018386
 23
2.672401
 33
0.0
  0
SOLID
  8
TOPLAYER
  5
381
 10
3.941614
 20
2.658622
 30
0.0
 11
4.018386
 21
2.658622
 31
0.0
 12
3.941614
 22
2.672401
 32
0.0
 13
4.018386
 23
2.672401
 33
0.0
  0
SOLID
  8
TOPSOLDER
  5
382
 10
4.164496
 20
2.631
 30
0.0
 11
4.249268
 21
2.631
 31
0.0
 12
4.164496
 22
2.652779
 32
0.0
 13
4.249268
 23
2.652779
 33
0.0
  0
SOLID
  8
TOPPASTE
  5
383
 10
4.168496
 20
2.635
 30
0.0
 11
4.245268
 21
2.635
 31
0.0
 12
4.168496
 22
2.648779
 32
0.0
 13
4.245268
 23
2.648779
 33
0.0
  0
SOLID
  8
TOPLAYER
  5
384
 10
4.168496
 20
2.635
 30
0.0
 11
4.245268
 21
2.635
 31
0.0
 12
4.168496
 22
2.648779
 32
0.0
 13
4.245268
 23
2.648779
 33
0.0
  0
SOLID
  8
TOPSOLDER
  5
385
 10
3.937614
 20
2.631
 30
0.0
 11
4.022386
 21
2.631
 31
0.0
 12
3.937614
 22
2.652779
 32
0.0
 13
4.022386
 23
2.652779
 33
0.0
  0
SOLID
  8
TOPPASTE
  5
386
 10
3.941614
 20
2.635
 30
0.0
 11
4.018386
 21
2.635
 31
0.0
 12
3.941614
 22
2.648779
 32
0.0
 13
4.018386
 23
2.648779
 33
0.0
  0
SOLID
  8
TOPLAYER
  5
387
 10
3.941614
 20
2.635
 30
0.0
 11
4.018386
 21
2.635
 31
0.0
 12
3.941614
 22
2.648779
 32
0.0
 13
4.018386
 23
2.648779
 33
0.0
  0
SOLID
  8
TOPSOLDER
  5
388
 10
4.164496
 20
2.607378
 30
0.0
 11
4.249268
 21
2.607378
 31
0.0
 12
4.164496
 22
2.629157
 32
0.0
 13
4.249268
 23
2.629157
 33
0.0
  0
SOLID
  8
TOPPASTE
  5
389
 10
4.168496
 20
2.611378
 30
0.0
 11
4.245268
 21
2.611378
 31
0.0
 12
4.168496
 22
2.625157
 32
0.0
 13
4.245268
 23
2.625157
 33
0.0
  0
SOLID
  8
TOPLAYER
  5
38A
 10
4.168496
 20
2.611378
 30
0.0
 11
4.245268
 21
2.611378
 31
0.0
 12
4.168496
 22
2.625157
 32
0.0
 13
4.245268
 23
2.625157
 33
0.0
  0
SOLID
  8
TOPSOLDER
  5
38B
 10
3.937614
 20
2.607378
 30
0.0
 11
4.022386
 21
2.607378
 31
0.0
 12
3.937614
 22
2.629157
 32
0.0
 13
4.022386
 23
2.629157
 33
0.0
  0
SOLID
  8
TOPPASTE
  5
38C
 10
3.941614
 20
2.611378
 30
0.0
 11
4.018386
 21
2.611378
 31
0.0
 12
3.941614
 22
2.625157
 32
0.0
 13
4.018386
 23
2.625157
 33
0.0
  0
SOLID
  8
TOPLAYER
  5
38D
 10
3.941614
 20
2.611378
 30
0.0
 11
4.018386
 21
2.611378
 31
0.0
 12
3.941614
 22
2.625157
 32
0.0
 13
4.018386
 23
2.625157
 33
0.0
  0
SOLID
  8
TOPSOLDER
  5
38E
 10
4.164496
 20
2.583756
 30
0.0
 11
4.249268
 21
2.583756
 31
0.0
 12
4.164496
 22
2.605535
 32
0.0
 13
4.249268
 23
2.605535
 33
0.0
  0
SOLID
  8
TOPPASTE
  5
38F
 10
4.168496
 20
2.587756
 30
0.0
 11
4.245268
 21
2.587756
 31
0.0
 12
4.168496
 22
2.601535
 32
0.0
 13
4.245268
 23
2.601535
 33
0.0
  0
SOLID
  8
TOPLAYER
  5
390
 10
4.168496
 20
2.587756
 30
0.0
 11
4.245268
 21
2.587756
 31
0.0
 12
4.168496
 22
2.601535
 32
0.0
 13
4.245268
 23
2.601535
 33
0.0
  0
SOLID
  8
TOPSOLDER
  5
391
 10
3.937614
 20
2.583756
 30
0.0
 11
4.022386
 21
2.583756
 31
0.0
 12
3.937614
 22
2.605535
 32
0.0
 13
4.022386
 23
2.605535
 33
0.0
  0
SOLID
  8
TOPPASTE
  5
392
 10
3.941614
 20
2.587756
 30
0.0
 11
4.018386
 21
2.587756
 31
0.0
 12
3.941614
 22
2.601535
 32
0.0
 13
4.018386
 23
2.601535
 33
0.0
  0
SOLID
  8
TOPLAYER
  5
393
 10
3.941614
 20
2.587756
 30
0.0
 11
4.018386
 21
2.587756
 31
0.0
 12
3.941614
 22
2.601535
 32
0.0
 13
4.018386
 23
2.601535
 33
0.0
  0
SOLID
  8
TOPSOLDER
  5
394
 10
4.164496
 20
2.560134
 30
0.0
 11
4.249268
 21
2.560134
 31
0.0
 12
4.164496
 22
2.581913
 32
0.0
 13
4.249268
 23
2.581913
 33
0.0
  0
SOLID
  8
TOPPASTE
  5
395
 10
4.168496
 20
2.564134
 30
0.0
 11
4.245268
 21
2.564134
 31
0.0
 12
4.168496
 22
2.577913
 32
0.0
 13
4.245268
 23
2.577913
 33
0.0
  0
SOLID
  8
TOPLAYER
  5
396
 10
4.168496
 20
2.564134
 30
0.0
 11
4.245268
 21
2.564134
 31
0.0
 12
4.168496
 22
2.577913
 32
0.0
 13
4.245268
 23
2.577913
 33
0.0
  0
SOLID
  8
TOPSOLDER
  5
397
 10
3.937614
 20
2.560134
 30
0.0
 11
4.022386
 21
2.560134
 31
0.0
 12
3.937614
 22
2.581913
 32
0.0
 13
4.022386
 23
2.581913
 33
0.0
  0
SOLID
  8
TOPPASTE
  5
398
 10
3.941614
 20
2.564134
 30
0.0
 11
4.018386
 21
2.564134
 31
0.0
 12
3.941614
 22
2.577913
 32
0.0
 13
4.018386
 23
2.577913
 33
0.0
  0
SOLID
  8
TOPLAYER
  5
399
 10
3.941614
 20
2.564134
 30
0.0
 11
4.018386
 21
2.564134
 31
0.0
 12
3.941614
 22
2.577913
 32
0.0
 13
4.018386
 23
2.577913
 33
0.0
  0
SOLID
  8
TOPSOLDER
  5
39A
 10
4.164496
 20
2.536512
 30
0.0
 11
4.249268
 21
2.536512
 31
0.0
 12
4.164496
 22
2.558291
 32
0.0
 13
4.249268
 23
2.558291
 33
0.0
  0
SOLID
  8
TOPPASTE
  5
39B
 10
4.168496
 20
2.540512
 30
0.0
 11
4.245268
 21
2.540512
 31
0.0
 12
4.168496
 22
2.554291
 32
0.0
 13
4.245268
 23
2.554291
 33
0.0
  0
SOLID
  8
TOPLAYER
  5
39C
 10
4.168496
 20
2.540512
 30
0.0
 11
4.245268
 21
2.540512
 31
0.0
 12
4.168496
 22
2.554291
 32
0.0
 13
4.245268
 23
2.554291
 33
0.0
  0
SOLID
  8
TOPSOLDER
  5
39D
 10
3.937614
 20
2.536512
 30
0.0
 11
4.022386
 21
2.536512
 31
0.0
 12
3.937614
 22
2.558291
 32
0.0
 13
4.022386
 23
2.558291
 33
0.0
  0
SOLID
  8
TOPPASTE
  5
39E
 10
3.941614
 20
2.540512
 30
0.0
 11
4.018386
 21
2.540512
 31
0.0
 12
3.941614
 22
2.554291
 32
0.0
 13
4.018386
 23
2.554291
 33
0.0
  0
SOLID
  8
TOPLAYER
  5
39F
 10
3.941614
 20
2.540512
 30
0.0
 11
4.018386
 21
2.540512
 31
0.0
 12
3.941614
 22
2.554291
 32
0.0
 13
4.018386
 23
2.554291
 33
0.0
  0
SOLID
  8
TOPSOLDER
  5
3A0
 10
4.164496
 20
2.51289
 30
0.0
 11
4.249268
 21
2.51289
 31
0.0
 12
4.164496
 22
2.534669
 32
0.0
 13
4.249268
 23
2.534669
 33
0.0
  0
SOLID
  8
TOPPASTE
  5
3A1
 10
4.168496
 20
2.51689
 30
0.0
 11
4.245268
 21
2.51689
 31
0.0
 12
4.168496
 22
2.530669
 32
0.0
 13
4.245268
 23
2.530669
 33
0.0
  0
SOLID
  8
TOPLAYER
  5
3A2
 10
4.168496
 20
2.51689
 30
0.0
 11
4.245268
 21
2.51689
 31
0.0
 12
4.168496
 22
2.530669
 32
0.0
 13
4.245268
 23
2.530669
 33
0.0
  0
SOLID
  8
TOPSOLDER
  5
3A3
 10
3.937614
 20
2.51289
 30
0.0
 11
4.022386
 21
2.51289
 31
0.0
 12
3.937614
 22
2.534669
 32
0.0
 13
4.022386
 23
2.534669
 33
0.0
  0
SOLID
  8
TOPPASTE
  5
3A4
 10
3.941614
 20
2.51689
 30
0.0
 11
4.018386
 21
2.51689
 31
0.0
 12
3.941614
 22
2.530669
 32
0.0
 13
4.018386
 23
2.530669
 33
0.0
  0
SOLID
  8
TOPLAYER
  5
3A5
 10
3.941614
 20
2.51689
 30
0.0
 11
4.018386
 21
2.51689
 31
0.0
 12
3.941614
 22
2.530669
 32
0.0
 13
4.018386
 23
2.530669
 33
0.0
  0
SOLID
  8
TOPSOLDER
  5
3A6
 10
4.164496
 20
2.489268
 30
0.0
 11
4.249268
 21
2.489268
 31
0.0
 12
4.164496
 22
2.511047
 32
0.0
 13
4.249268
 23
2.511047
 33
0.0
  0
SOLID
  8
TOPPASTE
  5
3A7
 10
4.168496
 20
2.493268
 30
0.0
 11
4.245268
 21
2.493268
 31
0.0
 12
4.168496
 22
2.507047
 32
0.0
 13
4.245268
 23
2.507047
 33
0.0
  0
SOLID
  8
TOPLAYER
  5
3A8
 10
4.168496
 20
2.493268
 30
0.0
 11
4.245268
 21
2.493268
 31
0.0
 12
4.168496
 22
2.507047
 32
0.0
 13
4.245268
 23
2.507047
 33
0.0
  0
SOLID
  8
TOPSOLDER
  5
3A9
 10
3.937614
 20
2.489268
 30
0.0
 11
4.022386
 21
2.489268
 31
0.0
 12
3.937614
 22
2.511047
 32
0.0
 13
4.022386
 23
2.511047
 33
0.0
  0
SOLID
  8
TOPPASTE
  5
3AA
 10
3.941614
 20
2.493268
 30
0.0
 11
4.018386
 21
2.493268
 31
0.0
 12
3.941614
 22
2.507047
 32
0.0
 13
4.018386
 23
2.507047
 33
0.0
  0
SOLID
  8
TOPLAYER
  5
3AB
 10
3.941614
 20
2.493268
 30
0.0
 11
4.018386
 21
2.493268
 31
0.0
 12
3.941614
 22
2.507047
 32
0.0
 13
4.018386
 23
2.507047
 33
0.0
  0
SOLID
  8
TOPSOLDER
  5
3AC
 10
4.164496
 20
2.465646
 30
0.0
 11
4.249268
 21
2.465646
 31
0.0
 12
4.164496
 22
2.487425
 32
0.0
 13
4.249268
 23
2.487425
 33
0.0
  0
SOLID
  8
TOPPASTE
  5
3AD
 10
4.168496
 20
2.469646
 30
0.0
 11
4.245268
 21
2.469646
 31
0.0
 12
4.168496
 22
2.483425
 32
0.0
 13
4.245268
 23
2.483425
 33
0.0
  0
SOLID
  8
TOPLAYER
  5
3AE
 10
4.168496
 20
2.469646
 30
0.0
 11
4.245268
 21
2.469646
 31
0.0
 12
4.168496
 22
2.483425
 32
0.0
 13
4.245268
 23
2.483425
 33
0.0
  0
SOLID
  8
TOPSOLDER
  5
3AF
 10
3.937614
 20
2.465646
 30
0.0
 11
4.022386
 21
2.465646
 31
0.0
 12
3.937614
 22
2.487425
 32
0.0
 13
4.022386
 23
2.487425
 33
0.0
  0
SOLID
  8
TOPPASTE
  5
3B0
 10
3.941614
 20
2.469646
 30
0.0
 11
4.018386
 21
2.469646
 31
0.0
 12
3.941614
 22
2.483425
 32
0.0
 13
4.018386
 23
2.483425
 33
0.0
  0
SOLID
  8
TOPLAYER
  5
3B1
 10
3.941614
 20
2.469646
 30
0.0
 11
4.018386
 21
2.469646
 31
0.0
 12
3.941614
 22
2.483425
 32
0.0
 13
4.018386
 23
2.483425
 33
0.0
  0
SOLID
  8
TOPSOLDER
  5
3B2
 10
4.164496
 20
2.442024
 30
0.0
 11
4.249268
 21
2.442024
 31
0.0
 12
4.164496
 22
2.463803
 32
0.0
 13
4.249268
 23
2.463803
 33
0.0
  0
SOLID
  8
TOPPASTE
  5
3B3
 10
4.168496
 20
2.446024
 30
0.0
 11
4.245268
 21
2.446024
 31
0.0
 12
4.168496
 22
2.459803
 32
0.0
 13
4.245268
 23
2.459803
 33
0.0
  0
SOLID
  8
TOPLAYER
  5
3B4
 10
4.168496
 20
2.446024
 30
0.0
 11
4.245268
 21
2.446024
 31
0.0
 12
4.168496
 22
2.459803
 32
0.0
 13
4.245268
 23
2.459803
 33
0.0
  0
SOLID
  8
TOPSOLDER
  5
3B5
 10
3.937614
 20
2.442024
 30
0.0
 11
4.022386
 21
2.442024
 31
0.0
 12
3.937614
 22
2.463803
 32
0.0
 13
4.022386
 23
2.463803
 33
0.0
  0
SOLID
  8
TOPPASTE
  5
3B6
 10
3.941614
 20
2.446024
 30
0.0
 11
4.018386
 21
2.446024
 31
0.0
 12
3.941614
 22
2.459803
 32
0.0
 13
4.018386
 23
2.459803
 33
0.0
  0
SOLID
  8
TOPLAYER
  5
3B7
 10
3.941614
 20
2.446024
 30
0.0
 11
4.018386
 21
2.446024
 31
0.0
 12
3.941614
 22
2.459803
 32
0.0
 13
4.018386
 23
2.459803
 33
0.0
  0
TEXT
  8
MECHANICAL1
  5
3B8
 10
4.105823
 20
3.937668
 30
0.0
 40
0.04
  1
503.57
 50
360.0
  0
TEXT
  8
MECHANICAL1
  5
3B9
 10
4.230575
 20
3.745661
 30
0.0
 40
0.04
  1
276.69
 50
360.0
  0
TEXT
  8
MECHANICAL1
  5
3BA
 10
4.130443
 20
3.837668
 30
0.0
 40
0.04
  1
461.00
 50
360.0
  0
TEXT
  8
MECHANICAL1
  5
3BB
 10
2.423443
 20
3.816648
 30
0.0
 40
0.04
  1
125.00
 50
360.0
  0
TEXT
  8
MECHANICAL1
  5
3BC
 10
2.332575
 20
3.420661
 30
0.0
 40
0.04
  1
125.00
 50
90.0
  0
TEXT
  8
MECHANICAL1
  5
3BD
 10
2.108568
 20
3.287697
 30
0.0
 40
0.04
  1
500.00
 50
90.0
  0
TEXT
  8
MECHANICAL1
  5
3BE
 10
2.108568
 20
2.287697
 30
0.0
 40
0.04
  1
500.00
 50
90.0
  0
TEXT
  8
MECHANICAL1
  5
3BF
 10
4.809568
 20
2.868418
 30
0.0
 40
0.04
  1
1305.24
 50
90.0
  0
TEXT
  8
MECHANICAL1
  5
3C0
 10
4.909568
 20
2.771036
 30
0.0
 40
0.04
  1
1500.00
 50
90.0
  0
TEXT
  8
MECHANICAL1
  5
3C1
 10
4.650575
 20
3.415661
 30
0.0
 40
0.04
  1
195.00
 50
90.0
  0
TEXT
  8
MECHANICAL1
  5
3C2
 10
4.717575
 20
3.413661
 30
0.0
 40
0.04
  1
289.49
 50
90.0
  0
TEXT
  8
MECHANICAL1
  5
3C3
 10
3.129725
 20
2.03144
 30
0.0
 40
0.04
  1
 43.31 NPTH
 50
360.0
  0
TEXT
  8
MECHANICAL1
  5
3C4
 10
3.224588
 20
3.238034
 30
0.0
 40
0.04
  1
 27.56 NPTH
 50
360.0
  0
TEXT
  8
MECHANICAL1
  5
3C5
 10
2.926678
 20
3.741703
 30
0.0
 40
0.04
  1
 157.00 PTH
 50
360.0
  0
TEXT
  8
MECHANICAL1
  5
3C6
 10
2.809853
 20
3.336912
 30
0.0
 40
0.04
  1
 250.00
 50
360.0
  0
TEXT
  8
TOPOVERLAY
  5
3C7
 10
3.8
 20
2.319488
 30
0.0
 40
0.06
  1
J1
 50
360.0
  0
ENDSEC
  0
EOF
