  0
SECTION
  2
HEADER
  9
$ACADVER
  1
AC1015
  9
$ACADMAINTVER
 70
     6
  9
$DWGCODEPAGE
  3
ANSI_1252
  9
$INSBASE
 10
0.0
 20
0.0
 30
0.0
  9
$EXTMIN
 10
1.000000E+20
 20
1.000000E+20
 30
1.000000E+20
  9
$EXTMAX
 10
-1.000000E+20
 20
-1.000000E+20
 30
-1.000000E+20
  9
$LIMMIN
 10
0.0
 20
0.0
  9
$LIMMAX
 10
11.0
 20
8.5
  9
$ORTHOMODE
 70
     0
  9
$REGENMODE
 70
     1
  9
$FILLMODE
 70
     1
  9
$QTEXTMODE
 70
     0
  9
$MIRRTEXT
 70
     1
  9
$LTSCALE
 40
1.0
  9
$ATTMODE
 70
     1
  9
$TEXTSIZE
 40
0.166667
  9
$TRACEWID
 40
1.0
  9
$TEXTSTYLE
  7
STANDARD
  9
$CLAYER
  8
0
  9
$CELTYPE
  6
Continuous
  9
$CECOLOR
 62
     7
  9
$CELTSCALE
 40
1.0
  9
$DISPSILH
 70
     0
  9
$DIMSCALE
 40
1.0
  9
$DIMASZ
 40
0.14
  9
$DIMEXO
 40
0.0625
  9
$DIMDLI
 40
0.375
  9
$DIMRND
 40
0.01
  9
$DIMDLE
 40
0.0
  9
$DIMEXE
 40
0.125
  9
$DIMTP
 40
0.0
  9
$DIMTM
 40
0.0
  9
$DIMTXT
 40
0.088735
  9
$DIMCEN
 40
0.09
  9
$DIMTSZ
 40
0.0
  9
$DIMTOL
 70
     0
  9
$DIMLIM
 70
     0
  9
$DIMTIH
 70
     0
  9
$DIMTOH
 70
     0
  9
$DIMSE1
 70
     0
  9
$DIMSE2
 70
     0
  9
$DIMTAD
 70
     0
  9
$DIMZIN
 70
     8
  9
$DIMBLK
  1
_OPEN30
  9
$DIMASO
 70
     0
  9
$DIMSHO
 70
     1
  9
$DIMPOST
  1

  9
$DIMAPOST
  1

  9
$DIMALT
 70
     0
  9
$DIMALTD
 70
     2
  9
$DIMALTF
 40
1.0
  9
$DIMLFAC
 40
1.0
  9
$DIMTOFL
 70
     1
  9
$DIMTVP
 40
0.0
  9
$DIMTIX
 70
     0
  9
$DIMSOXD
 70
     0
  9
$DIMSAH
 70
     0
  9
$DIMBLK1
  1

  9
$DIMBLK2
  1

  9
$DIMSTYLE
  2
STANDARD
  9
$DIMCLRD
 70
     7
  9
$DIMCLRE
 70
     7
  9
$DIMCLRT
 70
     7
  9
$DIMTFAC
 40
1.0
  9
$DIMGAP
 40
0.0625
  9
$DIMJUST
 70
     0
  9
$DIMSD1
 70
     0
  9
$DIMSD2
 70
     0
  9
$DIMTOLJ
 70
     1
  9
$DIMTZIN
 70
     0
  9
$DIMALTZ
 70
     0
  9
$DIMALTTZ
 70
     0
  9
$DIMUPT
 70
     0
  9
$DIMDEC
 70
     2
  9
$DIMTDEC
 70
     2
  9
$DIMALTU
 70
     2
  9
$DIMALTTD
 70
     2
  9
$DIMTXSTY
  7
STANDARD
  9
$DIMAUNIT
 70
     0
  9
$DIMADEC
 70
     0
  9
$DIMALTRND
 40
0.0
  9
$DIMAZIN
 70
     0
  9
$DIMDSEP
 70
     0
  9
$DIMATFIT
 70
     0
  9
$DIMFRAC
 70
     0
  9
$DIMLDRBLK
  1

  9
$DIMLUNIT
 70
     2
  9
$DIMLWD
 70
     0
  9
$DIMLWE
 70
     0
  9
$DIMTMOVE
 70
     0
  9
$LUNITS
 70
     2
  9
$LUPREC
 70
     2
  9
$SKETCHINC
 40
1.0
  9
$FILLETRAD
 40
1.0
  9
$AUNITS
 70
     0
  9
$AUPREC
 70
     2
  9
$MENU
  1
acad
  9
$ELEVATION
 40
0.0
  9
$PELEVATION
 40
0.0
  9
$THICKNESS
 40
0.0
  9
$LIMCHECK
 70
     0
  9
$CHAMFERA
 40
0.0
  9
$CHAMFERB
 40
0.0
  9
$CHAMFERC
 40
0.0
  9
$CHAMFERD
 40
0.0
  9
$SKPOLY
 70
     0
  9
$TDCREATE
 40
0.000000000
  9
$TDUCREATE
 40
0.000000000
  9
$TDUPDATE
 40
2449702.667959363
  9
$TDUUPDATE
 40
0.000000000
  9
$TDINDWG
 40
0.0000000000
  9
$TDUSRTIMER
 40
0.0000000000
  9
$USRTIMER
 70
     1
  9
$ANGBASE
 50
0.0
  9
$ANGDIR
 70
     0
  9
$PDMODE
 70
     0
  9
$PDSIZE
 40
0.0
  9
$PLINEWID
 40
0.0
  9
$SPLFRAME
 70
     0
  9
$SPLINETYPE
 70
     5
  9
$SPLINESEGS
 70
    20
  9
$HANDSEED
  5
4B3
  9
$SURFTAB1
 70
     6
  9
$SURFTAB2
 70
     6
  9
$SURFTYPE
 70
     6
  9
$SURFU
 70
     6
  9
$SURFV
 70
     6
  9
$UCSBASE
  2

  9
$UCSNAME
  2

  9
$UCSORG
 10
0.0
 20
0.0
 30
0.0
  9
$UCSXDIR
 10
1.0
 20
0.0
 30
0.0
  9
$UCSYDIR
 10
0.0
 20
1.0
 30
0.0
  9
$UCSORTHOREF
  2

  9
$UCSORTHOVIEW
 70
     0
  9
$UCSORGTOP
 10
0.0
 20
0.0
 30
0.0
  9
$UCSORGBOTTOM
 10
0.0
 20
0.0
 30
0.0
  9
$UCSORGLEFT
 10
0.0
 20
0.0
 30
0.0
  9
$UCSORGRIGHT
 10
0.0
 20
0.0
 30
0.0
  9
$UCSORGFRONT
 10
0.0
 20
0.0
 30
0.0
  9
$UCSORGBACK
 10
0.0
 20
0.0
 30
0.0
  9
$PUCSBASE
  2

  9
$PUCSNAME
  2

  9
$PUCSORG
 10
0.0
 20
0.0
 30
0.0
  9
$PUCSXDIR
 10
1.0
 20
0.0
 30
0.0
  9
$PUCSYDIR
 10
0.0
 20
1.0
 30
0.0
  9
$PUCSORTHOREF
  2

  9
$PUCSORTHOVIEW
 70
     0
  9
$PUCSORGTOP
 10
0.0
 20
0.0
 30
0.0
  9
$PUCSORGBOTTOM
 10
0.0
 20
0.0
 30
0.0
  9
$PUCSORGLEFT
 10
0.0
 20
0.0
 30
0.0
  9
$PUCSORGRIGHT
 10
0.0
 20
0.0
 30
0.0
  9
$PUCSORGFRONT
 10
0.0
 20
0.0
 30
0.0
  9
$PUCSORGBACK
 10
0.0
 20
0.0
 30
0.0
  9
$USERI1
 70
     0
  9
$USERI2
 70
     0
  9
$USERI3
 70
     0
  9
$USERI4
 70
     0
  9
$USERI5
 70
     0
  9
$USERR1
 40
0.0
  9
$USERR2
 40
0.0
  9
$USERR3
 40
0.0
  9
$USERR4
 40
0.0
  9
$USERR5
 40
0.0
  9
$WORLDVIEW
 70
     1
  9
$SHADEDGE
 70
     3
  9
$SHADEDIF
 70
    70
  9
$TILEMODE
 70
     0
  9
$MAXACTVP
 70
    16
  9
$PINSBASE
 10
0.0
 20
0.0
 30
0.0
  9
$PLIMCHECK
 70
     0
  9
$PEXTMIN
 10
-0.26
 20
-0.2
 30
0.0
  9
$PEXTMAX
 10
10.74
 20
8.3
 30
0.0
  9
$PLIMMIN
 10
-0.26
 20
-0.2
  9
$PLIMMAX
 10
10.74
 20
8.3
  9
$UNITMODE
 70
     0
  9
$VISRETAIN
 70
     0
  9
$PLINEGEN
 70
     1
  9
$PSLTSCALE
 70
     1
  9
$TREEDEPTH
 70
  3020
  9
$CMLSTYLE
  2
STANDARD
  9
$CMLJUST
 70
     0
  9
$CMLSCALE
 40
1.0
  9
$PROXYGRAPHICS
 70
     0
  9
$MEASUREMENT
 70
     0
  9
$CELWEIGHT
370
     0
  9
$ENDCAPS
280
     0
  9
$JOINSTYLE
280
     0
  9
$LWDISPLAY
290
     0
  9
$INSUNITS
 70
     0
  9
$HYPERLINKBASE
  1

  9
$XEDIT
290
     1
  9
$CEPSNTYPE
380
     0
  9
$PSTYLEMODE
290
     1
  9
$FINGERPRINTGUID
  2

  9
$VERSIONGUID
  2

  9
$EXTNAMES
290
     1
  9
$PSVPSCALE
 40
0.0
  0
ENDSEC
  0
SECTION
  2
CLASSES
  0
CLASS
  1
LWPOLYLINE
  2
AcDbPolyline
  3
AutoCAD 2000
 90
    32768
280
     0
281
     1
  0
CLASS
  1
IMAGE
  2
AcDbRasterImage
  3
ISM
 90
    32895
280
     0
281
     1
  0
CLASS
  1
OLE2FRAME
  2
AcDbOle2Frame
  3
AutoCAD 2000
 90
    32768
280
     0
281
     1
  0
CLASS
  1
HATCH
  2
AcDbHatch
  3
AutoCAD 2000
 90
    32768
280
     0
281
     1
  0
CLASS
  1
DICTIONARYVAR
  2
AcDbDictionaryVar
  3
AutoCAD 2000
 90
    32768
280
     0
281
     0
  0
CLASS
  1
RASTERVARIABLES
  2
AcDbRasterVariables
  3
ISM
 90
    32768
280
     0
281
     0
  0
CLASS
  1
IMAGEDEF
  2
AcDbRasterImageDef
  3
ISM
 90
    32768
280
     0
281
     0
  0
CLASS
  1
IMAGEDEF_REACTOR
  2
AcDbRasterImageDefReactor
  3
ISM
 90
    32769
280
     0
281
     0
  0
CLASS
  1
IDBUFFER
  2
AcDbIdBuffer
  3
AutoCAD 2000
 90
    32768
280
     0
281
     0
  0
CLASS
  1
SPATIAL_FILTER
  2
AcDbSpatialFilter
  3
AutoCAD 2000
 90
    32768
280
     0
281
     0
  0
CLASS
  1
XRECORD
  2
AcDbXrecord
  3
AutoCAD 2000
 90
    32768
280
     0
281
     0
  0
CLASS
  1
SORTENTSTABLE
  2
AcDbSortentsTable
  3
AutoCAD 2000
 90
    32768
280
     0
281
     0
  0
CLASS
  1
LAYER_INDEX
  2
AcDbLayerIndex
  3
AutoCAD 2000
 90
    32768
280
     0
281
     0
  0
CLASS
  1
SPATIAL_INDEX
  2
AcDbSpatialIndex
  3
AutoCAD 2000
 90
    32768
280
     0
281
     0
  0
CLASS
  1
OBJECT_PTR
  2
CAseDLPNTableRecord
  3
"ASE-LPNTableRecord"
 90
    32769
280
     0
281
     0
  0
CLASS
  1
LAYOUT
  2
AcDbLayout
  3
AutoCAD 2000
 90
        0
280
     0
281
     0
  0
CLASS
  1
PLOTSETTINGS
  2
AcDbPlotSettings
  3
AutoCAD 2000
 90
    32768
280
     0
281
     0
  0
CLASS
  1
ACDBDICTIONARYWDFLT
  2
AcDbDictionaryWithDefault
  3
AutoCAD 2000
 90
        0
280
     0
281
     0
  0
CLASS
  1
ACDBPLACEHOLDER
  2
AcDbPlaceHolder
  3
AutoCAD 2000
 90
        0
280
     0
281
     0
  0
ENDSEC
  0
SECTION
  2
TABLES
  0
TABLE
  2
VPORT
  5
7
100
AcDbSymbolTable
 70
     1
  0
VPORT
  5
15
100
AcDbSymbolTableRecord
100
AcDbViewportTableRecord
  2
*ACTIVE
 70
     0
 10
0.0
 20
0.0
 11
1.0
 21
1.0
 12
5.24
 22
4.05
 13
0.0
 23
0.0
 14
0.25
 24
0.25
 15
0.25
 25
0.25
 16
0.0
 26
0.0
 36
1.0
 17
0.0
 27
0.0
 37
0.0
 40
8.67
 41
1.659004
 42
50.0
 43
0.0
 44
0.0
 50
0.0
 51
0.0
 71
     0
 72
   100
 73
     1
 74
     1
 75
     0
 76
     1
 77
     0
 78
     0
281
     0
 65
     0
110
0.0
120
0.0
130
0.0
111
1.0
121
0.0
131
0.0
112
0.0
122
1.0
132
0.0
345
0
346
0
 79
     0
146
0.0
  0
ENDTAB
  0
TABLE
  2
LTYPE
  5
4
100
AcDbSymbolTable
 70
    15
  0
LTYPE
  5
11
100
AcDbSymbolTableRecord
100
AcDbLinetypeTableRecord
  2
ByBlock
 70
    64
  3

 72
    65
 73
     0
 40
0.0
  0
LTYPE
  5
12
100
AcDbSymbolTableRecord
100
AcDbLinetypeTableRecord
  2
ByLayer
 70
    64
  3

 72
    65
 73
     0
 40
0.0
  0
LTYPE
  5
13
100
AcDbSymbolTableRecord
100
AcDbLinetypeTableRecord
  2
Continuous
 70
    64
  3
Solid line
 72
    65
 73
     0
 40
0.0
  0
LTYPE
  5
24
100
AcDbSymbolTableRecord
100
AcDbLinetypeTableRecord
  2
BORDER
 70
     0
  3
BORDER
 72
    65
 73
     6
 40
1.75
 49
0.5
 74
     0
 49
-0.25
 74
     0
 49
0.5
 74
     0
 49
-0.25
 74
     0
 49
0.0
 74
     0
 49
-0.25
 74
     0
  0
LTYPE
  5
25
100
AcDbSymbolTableRecord
100
AcDbLinetypeTableRecord
  2
CENTER
 70
     0
  3
CENTER
 72
    65
 73
     4
 40
2.0
 49
1.25
 74
     0
 49
-0.25
 74
     0
 49
0.25
 74
     0
 49
-0.25
 74
     0
  0
LTYPE
  5
26
100
AcDbSymbolTableRecord
100
AcDbLinetypeTableRecord
  2
DASHDOT
 70
     0
  3
DASHDOT
 72
    65
 73
     4
 40
1.0
 49
0.5
 74
     0
 49
-0.25
 74
     0
 49
0.0
 74
     0
 49
-0.25
 74
     0
  0
LTYPE
  5
27
100
AcDbSymbolTableRecord
100
AcDbLinetypeTableRecord
  2
DASHED
 70
     0
  3
DASHED
 72
    65
 73
     2
 40
0.75
 49
0.5
 74
     0
 49
-0.25
 74
     0
  0
LTYPE
  5
28
100
AcDbSymbolTableRecord
100
AcDbLinetypeTableRecord
  2
DIVIDE
 70
     0
  3
DIVIDE
 72
    65
 73
     6
 40
1.25
 49
0.5
 74
     0
 49
-0.25
 74
     0
 49
0.0
 74
     0
 49
-0.25
 74
     0
 49
0.0
 74
     0
 49
-0.25
 74
     0
  0
LTYPE
  5
29
100
AcDbSymbolTableRecord
100
AcDbLinetypeTableRecord
  2
DOT
 70
     0
  3
DOT
 72
    65
 73
     2
 40
0.25
 49
0.0
 74
     0
 49
-0.25
 74
     0
  0
LTYPE
  5
2A
100
AcDbSymbolTableRecord
100
AcDbLinetypeTableRecord
  2
HIDDEN
 70
     0
  3
HIDDEN
 72
    65
 73
     2
 40
0.375
 49
0.25
 74
     0
 49
-0.125
 74
     0
  0
LTYPE
  5
2B
100
AcDbSymbolTableRecord
100
AcDbLinetypeTableRecord
  2
PHANTOM
 70
     0
  3
PHANTOM
 72
    65
 73
     6
 40
2.5
 49
1.25
 74
     0
 49
-0.25
 74
     0
 49
0.25
 74
     0
 49
-0.25
 74
     0
 49
0.25
 74
     0
 49
-0.25
 74
     0
  0
LTYPE
  5
2C
100
AcDbSymbolTableRecord
100
AcDbLinetypeTableRecord
  2
$INVISIBLE
 70
     0
  3
$INVISIBLE
 72
    65
 73
     2
 40
200.0
 49
-100.0
 74
     0
 49
-100.0
 74
     0
  0
LTYPE
  5
2D
100
AcDbSymbolTableRecord
100
AcDbLinetypeTableRecord
  2
$AUXILIARY
 70
     0
  3
$AUXILIARY
 72
    65
 73
     2
 40
0.1
 49
0.05
 74
     0
 49
-0.05
 74
     0
  0
LTYPE
  5
2E
100
AcDbSymbolTableRecord
100
AcDbLinetypeTableRecord
  2
$CONSTRUCTION
 70
     0
  3
$CONSTRUCTION
 72
    65
 73
     4
 40
0.3
 49
0.2
 74
     0
 49
-0.05
 74
     0
 49
0.0
 74
     0
 49
-0.05
 74
     0
  0
LTYPE
  5
2F
100
AcDbSymbolTableRecord
100
AcDbLinetypeTableRecord
  2
$SNAPEXT
 70
     0
  3
$SNAPEXT
 72
    65
 73
     2
 40
0.04
 49
0.02
 74
     0
 49
-0.02
 74
     0
  0
ENDTAB
  0
TABLE
  2
LAYER
  5
2
100
AcDbSymbolTable
 70
     8
  0
LAYER
  5
14
100
AcDbSymbolTableRecord
100
AcDbLayerTableRecord
  2
0
 70
     0
 62
     7
  6
Continuous
290
     1
370
    -3
390
0
1001
TCAD
1000
TCW_LAYER_ORDER
1002
{
1071
        0
1002
}
  0
LAYER
  5
30
100
AcDbSymbolTableRecord
100
AcDbLayerTableRecord
  2
BOARD_OUTLINE_00
 70
     0
 62
     2
  6
Continuous
290
     1
370
    -3
390
0
1001
TCAD
1000
TCW_LAYER_ORDER
1002
{
1071
        0
1002
}
  0
LAYER
  5
31
100
AcDbSymbolTableRecord
100
AcDbLayerTableRecord
  2
2D_LINE_24
 70
     0
 62
     4
  6
Continuous
290
     1
370
    -3
390
0
1001
TCAD
1000
TCW_LAYER_ORDER
1002
{
1071
        0
1002
}
  0
LAYER
  5
32
100
AcDbSymbolTableRecord
100
AcDbLayerTableRecord
  2
TEXT_24
 70
     0
 62
     4
  6
Continuous
290
     1
370
    -3
390
0
1001
TCAD
1000
TCW_LAYER_ORDER
1002
{
1071
        0
1002
}
  0
LAYER
  5
33
100
AcDbSymbolTableRecord
100
AcDbLayerTableRecord
  2
PADS_BOT
 70
     0
 62
     3
  6
Continuous
290
     1
370
    -3
390
0
1001
TCAD
1000
TCW_LAYER_ORDER
1002
{
1071
        0
1002
}
  0
LAYER
  5
34
100
AcDbSymbolTableRecord
100
AcDbLayerTableRecord
  2
PART_BOT_2DLINE_26
 70
     0
 62
     1
  6
Continuous
290
     1
370
    -3
390
0
1001
TCAD
1000
TCW_LAYER_ORDER
1002
{
1071
        0
1002
}
  0
LAYER
  5
35
100
AcDbSymbolTableRecord
100
AcDbLayerTableRecord
  2
$CONSTRUCTION
 70
     0
 62
     9
  6
$CONSTRUCTION
290
     1
370
    -3
390
0
1001
TCAD
1000
TCW_LAYER_ORDER
1002
{
1071
        0
1002
}
  0
LAYER
  5
3E
100
AcDbSymbolTableRecord
100
AcDbLayerTableRecord
  2
ASHADE
 70
     0
 62
     7
  6
Continuous
290
     1
370
    -3
390
0
  0
ENDTAB
  0
TABLE
  2
STYLE
  5
3
100
AcDbSymbolTable
 70
     2
  0
STYLE
  5
17
100
AcDbSymbolTableRecord
100
AcDbTextStyleTableRecord
  2
STANDARD
 70
     0
 40
0.0
 41
1.0
 50
0.0
 71
     0
 42
0.106481
  3
ARIAL.TTF
  4

1001
ACAD
1000
Arial
1071
       34
  0
STYLE
  5
3D
100
AcDbSymbolTableRecord
100
AcDbTextStyleTableRecord
  2
ASHADE
 70
     0
 40
0.2
 41
1.0
 50
0.0
 71
     0
 42
2.5
  3
simplex.shx
  4

  0
ENDTAB
  0
TABLE
  2
VIEW
  5
5
100
AcDbSymbolTable
 70
     1
  0
VIEW
  5
36
100
AcDbSymbolTableRecord
100
AcDbViewTableRecord
  2
View_0
 70
     0
 40
8.5
 10
5.5
 20
4.25
 41
11.0
 11
0.0
 21
0.0
 31
1.0
 12
0.0
 22
0.0
 32
0.0
 42
50.0
 43
0.0
 44
0.0
 50
0.0
 71
     0
281
     0
 72
     0
110
0.0
120
0.0
130
0.0
111
1.0
121
0.0
131
0.0
112
0.0
122
1.0
132
0.0
  0
ENDTAB
  0
TABLE
  2
UCS
  5
6
100
AcDbSymbolTable
 70
     0
  0
ENDTAB
  0
TABLE
  2
APPID
  5
8
100
AcDbSymbolTable
 70
     3
  0
APPID
  5
16
100
AcDbSymbolTableRecord
100
AcDbRegAppTableRecord
  2
ACAD
 70
     0
  0
APPID
  5
23
100
AcDbSymbolTableRecord
100
AcDbRegAppTableRecord
  2
TCAD
 70
     0
  0
APPID
  5
5C
100
AcDbSymbolTableRecord
100
AcDbRegAppTableRecord
  2
AVE_RENDER
 70
     0
  0
ENDTAB
  0
TABLE
  2
DIMSTYLE
  5
9
100
AcDbSymbolTable
 70
     1
100
AcDbDimStyleTable
 71
     0
  0
DIMSTYLE
105
18
100
AcDbSymbolTableRecord
100
AcDbDimStyleTableRecord
  2
STANDARD
 70
     0
  3

  4

 40
1.0
 41
0.14
 42
0.0625
 43
0.375
 44
0.125
 45
0.01
 46
0.0
 47
0.0
 48
0.0
 71
     0
 72
     0
 73
     0
 74
     0
 75
     0
 76
     0
 77
     0
 78
     8
 79
     0
140
0.088735
141
0.09
142
0.0
143
1.0
144
1.0
145
0.0
146
1.0
147
0.0625
148
0.01
170
     0
171
     2
172
     1
173
     0
174
     0
175
     0
176
     7
177
     7
178
     7
179
     0
271
     2
272
     2
273
     2
274
     2
275
     0
276
     0
277
     2
278
    46
279
     0
280
     0
281
     0
282
     0
283
     1
284
     0
285
     0
286
     0
288
     0
340
17
341
0
342
37
343
0
344
0
371
    -2
372
    -2
  0
ENDTAB
  0
TABLE
  2
BLOCK_RECORD
  5
1
100
AcDbSymbolTable
 70
     4
  0
BLOCK_RECORD
  5
A
100
AcDbSymbolTableRecord
100
AcDbBlockTableRecord
  2
*MODEL_SPACE
340
FD
  0
BLOCK_RECORD
  5
B
100
AcDbSymbolTableRecord
100
AcDbBlockTableRecord
  2
*PAPER_SPACE
340
4B2
  0
BLOCK_RECORD
  5
37
100
AcDbSymbolTableRecord
100
AcDbBlockTableRecord
  2
_OPEN30
340
0
  0
BLOCK_RECORD
  5
3F
100
AcDbSymbolTableRecord
100
AcDbBlockTableRecord
  2
OVERHEAD
340
0
102
{BLKREFS
331
5D
331
69
331
75
331
81
331
AD
331
B9
102
}
  0
BLOCK_RECORD
  5
8D
100
AcDbSymbolTableRecord
100
AcDbBlockTableRecord
  2
DIRECT
340
0
102
{BLKREFS
331
A1
102
}
  0
BLOCK_RECORD
  5
C5
100
AcDbSymbolTableRecord
100
AcDbBlockTableRecord
  2
SH_SPOT
340
0
102
{BLKREFS
331
ED
102
}
  0
ENDTAB
  0
ENDSEC
  0
SECTION
  2
BLOCKS
  0
BLOCK
  5
D
100
AcDbEntity
  8
0
100
AcDbBlockBegin
  2
*MODEL_SPACE
 70
     0
 10
0.0
 20
0.0
 30
0.0
  3
*MODEL_SPACE
  1

  0
ENDBLK
  5
E
100
AcDbEntity
  8
0
100
AcDbBlockEnd
  0
BLOCK
  5
F
100
AcDbEntity
 67
     1
  8
0
100
AcDbBlockBegin
  2
*PAPER_SPACE
 70
     0
 10
0.0
 20
0.0
 30
0.0
  3
*PAPER_SPACE
  1

  0
ENDBLK
  5
10
100
AcDbEntity
 67
     1
  8
0
100
AcDbBlockEnd
  0
BLOCK
  5
38
100
AcDbEntity
  8
0
100
AcDbBlockBegin
  2
_OPEN30
 70
     0
 10
0.0
 20
0.0
 30
0.0
  3
_OPEN30
  1

  0
LINE
  5
39
100
AcDbEntity
  8
0
  6
ByBlock
 62
     0
100
AcDbLine
 10
-1.0
 20
0.267949
 30
0.0
 11
0.0
 21
0.0
 31
0.0
  0
LINE
  5
3A
100
AcDbEntity
  8
0
  6
ByBlock
 62
     0
100
AcDbLine
 10
0.0
 20
0.0
 30
0.0
 11
-1.0
 21
-0.267949
 31
0.0
  0
LINE
  5
3B
100
AcDbEntity
  8
0
  6
ByBlock
 62
     0
100
AcDbLine
 10
0.0
 20
0.0
 30
0.0
 11
-1.0
 21
0.0
 31
0.0
  0
ENDBLK
  5
3C
100
AcDbEntity
  8
0
100
AcDbBlockEnd
  0
BLOCK
  5
40
100
AcDbEntity
  8
0
100
AcDbBlockBegin
  2
OVERHEAD
 70
     2
 10
0.0
 20
0.0
 30
0.0
  3
OVERHEAD
  1

  0
ATTDEF
  5
41
100
AcDbEntity
  8
ASHADE
  6
Continuous
 62
     1
100
AcDbText
 10
0.0
 20
-0.1
 30
0.0
 40
0.2
  1

  7
ASHADE
 72
     1
 11
0.0
 21
-0.1
 31
0.0
100
AcDbAttributeDefinition
  3
Light Name
  2
SNAME
 70
     0
  0
ATTDEF
  5
42
100
AcDbEntity
  8
ASHADE
  6
Continuous
 62
     7
100
AcDbText
 10
0.0
 20
0.28
 30
0.0
 40
0.01
  1

100
AcDbAttributeDefinition
  3

  2
GNAME
 70
     1
  0
ATTDEF
  5
43
100
AcDbEntity
  8
ASHADE
  6
Continuous
 62
     7
100
AcDbText
 10
0.0
 20
0.265
 30
0.0
 40
0.01
  1

100
AcDbAttributeDefinition
  3
Look-at X
  2
LAX
 70
     1
  0
ATTDEF
  5
44
100
AcDbEntity
  8
ASHADE
  6
Continuous
 62
     7
100
AcDbText
 10
0.0
 20
0.25
 30
0.0
 40
0.01
  1

100
AcDbAttributeDefinition
  3
Look-at Y
  2
LAY
 70
     1
  0
ATTDEF
  5
45
100
AcDbEntity
  8
ASHADE
  6
Continuous
 62
     7
100
AcDbText
 10
0.0
 20
0.235
 30
0.0
 40
0.01
  1

100
AcDbAttributeDefinition
  3
Look-at Z
  2
LAZ
 70
     1
  0
ATTDEF
  5
46
100
AcDbEntity
  8
ASHADE
  6
Continuous
 62
     7
100
AcDbText
 10
0.0
 20
0.22
 30
0.0
 40
0.01
  1
1
100
AcDbAttributeDefinition
  3
Light Intensity
  2
INTENSITY
 70
     1
  0
ATTDEF
  5
47
100
AcDbEntity
  8
ASHADE
  6
Continuous
 62
     7
100
AcDbText
 10
0.0
 20
0.205
 30
0.0
 40
0.01
  1
1,1,1
100
AcDbAttributeDefinition
  3
Light Color (RGB)
  2
COLOR
 70
     1
  0
ATTDEF
  5
48
100
AcDbEntity
  8
ASHADE
  6
Continuous
 62
     7
100
AcDbText
 10
0.0
 20
0.19
 30
0.0
 40
0.01
  1
0
100
AcDbAttributeDefinition
  3
Depth Map Size
  2
CONEA
 70
     1
  0
ATTDEF
  5
49
100
AcDbEntity
  8
ASHADE
  6
Continuous
 62
     7
100
AcDbText
 10
0.0
 20
0.175
 30
0.0
 40
0.01
  1
-1
100
AcDbAttributeDefinition
  3
*not used*
  2
CONED
 70
     1
  0
ATTDEF
  5
4A
100
AcDbEntity
  8
ASHADE
  6
Continuous
 62
     7
100
AcDbText
 10
0.0
 20
0.16
 30
0.0
 40
0.01
  1
-1
100
AcDbAttributeDefinition
  3
*not used*
  2
BEAMD
 70
     1
  0
ARC
  5
4B
100
AcDbEntity
  8
ASHADE
  6
Continuous
 62
     7
100
AcDbCircle
 10
0.0
 20
0.0
 30
0.0
 40
0.3
100
AcDbArc
 50
205.679289
 51
334.320711
  0
ARC
  5
4C
100
AcDbEntity
  8
ASHADE
  6
Continuous
 62
     7
100
AcDbCircle
 10
0.0
 20
0.0
 30
0.0
 40
0.3
100
AcDbArc
 50
25.679289
 51
154.320711
  0
LINE
  5
4D
100
AcDbEntity
  8
ASHADE
  6
Continuous
 62
     7
100
AcDbLine
 10
-0.27037
 20
-0.13
 30
0.0
 11
-0.315432
 21
-0.151667
 31
0.0
  0
LINE
  5
4E
100
AcDbEntity
  8
ASHADE
  6
Continuous
 62
     7
100
AcDbLine
 10
-0.204141
 20
-0.219832
 30
0.0
 11
-0.272188
 21
-0.29311
 31
0.0
  0
LINE
  5
4F
100
AcDbEntity
  8
ASHADE
  6
Continuous
 62
     7
100
AcDbLine
 10
-0.109659
 20
-0.27924
 30
0.0
 11
-0.127936
 21
-0.32578
 31
0.0
  0
LINE
  5
50
100
AcDbEntity
  8
ASHADE
  6
Continuous
 62
     7
100
AcDbLine
 10
0.0
 20
-0.3
 30
0.0
 11
0.0
 21
-0.4
 31
0.0
  0
LINE
  5
51
100
AcDbEntity
  8
ASHADE
  6
Continuous
 62
     7
100
AcDbLine
 10
0.109659
 20
-0.27924
 30
0.0
 11
0.127936
 21
-0.32578
 31
0.0
  0
LINE
  5
52
100
AcDbEntity
  8
ASHADE
  6
Continuous
 62
     7
100
AcDbLine
 10
0.204141
 20
-0.219832
 30
0.0
 11
0.272188
 21
-0.29311
 31
0.0
  0
LINE
  5
53
100
AcDbEntity
  8
ASHADE
  6
Continuous
 62
     7
100
AcDbLine
 10
0.27037
 20
-0.13
 30
0.0
 11
0.315432
 21
-0.151667
 31
0.0
  0
LINE
  5
54
100
AcDbEntity
  8
ASHADE
  6
Continuous
 62
     7
100
AcDbLine
 10
-0.109659
 20
0.27924
 30
0.0
 11
-0.127936
 21
0.32578
 31
0.0
  0
LINE
  5
55
100
AcDbEntity
  8
ASHADE
  6
Continuous
 62
     7
100
AcDbLine
 10
-0.204141
 20
0.219832
 30
0.0
 11
-0.272188
 21
0.29311
 31
0.0
  0
LINE
  5
56
100
AcDbEntity
  8
ASHADE
  6
Continuous
 62
     7
100
AcDbLine
 10
-0.27037
 20
0.13
 30
0.0
 11
-0.315432
 21
0.151667
 31
0.0
  0
LINE
  5
57
100
AcDbEntity
  8
ASHADE
  6
Continuous
 62
     7
100
AcDbLine
 10
0.27037
 20
0.13
 30
0.0
 11
0.315432
 21
0.151667
 31
0.0
  0
LINE
  5
58
100
AcDbEntity
  8
ASHADE
  6
Continuous
 62
     7
100
AcDbLine
 10
0.204141
 20
0.219832
 30
0.0
 11
0.272188
 21
0.29311
 31
0.0
  0
LINE
  5
59
100
AcDbEntity
  8
ASHADE
  6
Continuous
 62
     7
100
AcDbLine
 10
0.109659
 20
0.27924
 30
0.0
 11
0.127936
 21
0.32578
 31
0.0
  0
LINE
  5
5A
100
AcDbEntity
  8
ASHADE
  6
Continuous
 62
     7
100
AcDbLine
 10
0.0
 20
0.3
 30
0.0
 11
0.0
 21
0.4
 31
0.0
  0
ENDBLK
  5
5B
100
AcDbEntity
  8
0
100
AcDbBlockEnd
  0
BLOCK
  5
8E
100
AcDbEntity
  8
0
100
AcDbBlockBegin
  2
DIRECT
 70
     2
 10
0.0
 20
0.0
 30
0.0
  3
DIRECT
  1

  0
ATTDEF
  5
8F
100
AcDbEntity
  8
ASHADE
  6
Continuous
 62
     1
100
AcDbText
 10
0.0
 20
-0.1
 30
0.0
 40
0.2
  1

  7
ASHADE
 72
     1
 11
0.0
 21
-0.1
 31
0.0
100
AcDbAttributeDefinition
  3
Light Name
  2
SNAME
 70
     0
  0
ATTDEF
  5
90
100
AcDbEntity
  8
ASHADE
  6
Continuous
 62
     7
100
AcDbText
 10
0.0
 20
0.28
 30
0.0
 40
0.01
  1

100
AcDbAttributeDefinition
  3

  2
GNAME
 70
     1
  0
ATTDEF
  5
91
100
AcDbEntity
  8
ASHADE
  6
Continuous
 62
     7
100
AcDbText
 10
0.0
 20
0.265
 30
0.0
 40
0.01
  1

100
AcDbAttributeDefinition
  3
Look-at X
  2
LAX
 70
     1
  0
ATTDEF
  5
92
100
AcDbEntity
  8
ASHADE
  6
Continuous
 62
     7
100
AcDbText
 10
0.0
 20
0.25
 30
0.0
 40
0.01
  1

100
AcDbAttributeDefinition
  3
Look-at Y
  2
LAY
 70
     1
  0
ATTDEF
  5
93
100
AcDbEntity
  8
ASHADE
  6
Continuous
 62
     7
100
AcDbText
 10
0.0
 20
0.235
 30
0.0
 40
0.01
  1

100
AcDbAttributeDefinition
  3
Look-at Z
  2
LAZ
 70
     1
  0
ATTDEF
  5
94
100
AcDbEntity
  8
ASHADE
  6
Continuous
 62
     7
100
AcDbText
 10
0.0
 20
0.22
 30
0.0
 40
0.01
  1
1
100
AcDbAttributeDefinition
  3
Light Intensity
  2
INTENSITY
 70
     1
  0
ATTDEF
  5
95
100
AcDbEntity
  8
ASHADE
  6
Continuous
 62
     7
100
AcDbText
 10
0.0
 20
0.205
 30
0.0
 40
0.01
  1
1,1,1
100
AcDbAttributeDefinition
  3
Light Color (RGB)
  2
COLOR
 70
     1
  0
ATTDEF
  5
96
100
AcDbEntity
  8
ASHADE
  6
Continuous
 62
     7
100
AcDbText
 10
0.0
 20
0.19
 30
0.0
 40
0.01
  1
0
100
AcDbAttributeDefinition
  3
Depth Map Size
  2
CONEA
 70
     1
  0
ATTDEF
  5
97
100
AcDbEntity
  8
ASHADE
  6
Continuous
 62
     7
100
AcDbText
 10
0.0
 20
0.175
 30
0.0
 40
0.01
  1
-1
100
AcDbAttributeDefinition
  3
*not used*
  2
CONED
 70
     1
  0
ATTDEF
  5
98
100
AcDbEntity
  8
ASHADE
  6
Continuous
 62
     7
100
AcDbText
 10
0.0
 20
0.16
 30
0.0
 40
0.01
  1
-1
100
AcDbAttributeDefinition
  3
*not used*
  2
BEAMD
 70
     1
  0
ARC
  5
99
100
AcDbEntity
  8
ASHADE
  6
Continuous
 62
     7
100
AcDbCircle
 10
0.0
 20
0.0
 30
0.0
 40
0.3
100
AcDbArc
 50
205.679289
 51
334.320711
  0
ARC
  5
9A
100
AcDbEntity
  8
ASHADE
  6
Continuous
 62
     7
100
AcDbCircle
 10
0.0
 20
0.0
 30
0.0
 40
0.3
100
AcDbArc
 50
25.679289
 51
154.320711
  0
LINE
  5
9B
100
AcDbEntity
  8
ASHADE
  6
Continuous
 62
     7
100
AcDbLine
 10
0.21
 20
0.214243
 30
0.0
 11
0.21
 21
0.5
 31
0.0
  0
LINE
  5
9C
100
AcDbEntity
  8
ASHADE
  6
Continuous
 62
     7
100
AcDbLine
 10
0.11
 20
0.279106
 30
0.0
 11
0.11
 21
0.5
 31
0.0
  0
LINE
  5
9D
100
AcDbEntity
  8
ASHADE
  6
Continuous
 62
     7
100
AcDbLine
 10
0.0
 20
0.3
 30
0.0
 11
0.0
 21
0.5
 31
0.0
  0
LINE
  5
9E
100
AcDbEntity
  8
ASHADE
  6
Continuous
 62
     7
100
AcDbLine
 10
-0.11
 20
0.279106
 30
0.0
 11
-0.11
 21
0.5
 31
0.0
  0
LINE
  5
9F
100
AcDbEntity
  8
ASHADE
  6
Continuous
 62
     7
100
AcDbLine
 10
-0.21
 20
0.214243
 30
0.0
 11
-0.21
 21
0.5
 31
0.0
  0
ENDBLK
  5
A0
100
AcDbEntity
  8
0
100
AcDbBlockEnd
  0
BLOCK
  5
C6
100
AcDbEntity
  8
0
100
AcDbBlockBegin
  2
SH_SPOT
 70
     2
 10
0.0
 20
0.0
 30
0.0
  3
SH_SPOT
  1

  0
ATTDEF
  5
C7
100
AcDbEntity
  8
ASHADE
  6
Continuous
 62
     1
100
AcDbText
 10
0.0
 20
-0.1
 30
0.0
 40
0.2
  1

  7
ASHADE
 72
     1
 11
0.0
 21
-0.1
 31
0.0
100
AcDbAttributeDefinition
  3
Light Name
  2
SNAME
 70
     0
  0
ATTDEF
  5
C8
100
AcDbEntity
  8
ASHADE
  6
Continuous
 62
     7
100
AcDbText
 10
0.0
 20
-0.15
 30
0.0
 40
0.01
  1

100
AcDbAttributeDefinition
  3

  2
GNAME
 70
     1
  0
ATTDEF
  5
C9
100
AcDbEntity
  8
ASHADE
  6
Continuous
 62
     7
100
AcDbText
 10
0.0
 20
-0.165
 30
0.0
 40
0.01
  1

100
AcDbAttributeDefinition
  3
Look-at X
  2
LAX
 70
     1
  0
ATTDEF
  5
CA
100
AcDbEntity
  8
ASHADE
  6
Continuous
 62
     7
100
AcDbText
 10
0.0
 20
-0.18
 30
0.0
 40
0.01
  1

100
AcDbAttributeDefinition
  3
Look-at Y
  2
LAY
 70
     1
  0
ATTDEF
  5
CB
100
AcDbEntity
  8
ASHADE
  6
Continuous
 62
     7
100
AcDbText
 10
0.0
 20
-0.195
 30
0.0
 40
0.01
  1

100
AcDbAttributeDefinition
  3
Look-at Z
  2
LAZ
 70
     1
  0
ATTDEF
  5
CC
100
AcDbEntity
  8
ASHADE
  6
Continuous
 62
     7
100
AcDbText
 10
0.0
 20
-0.21
 30
0.0
 40
0.01
  1
1
100
AcDbAttributeDefinition
  3
Light Intensity
  2
INTENSITY
 70
     1
  0
ATTDEF
  5
CD
100
AcDbEntity
  8
ASHADE
  6
Continuous
 62
     7
100
AcDbText
 10
0.0
 20
-0.225
 30
0.0
 40
0.01
  1
1,1,1
100
AcDbAttributeDefinition
  3
Light Color (RGB)
  2
COLOR
 70
     1
  0
ATTDEF
  5
CE
100
AcDbEntity
  8
ASHADE
  6
Continuous
 62
     7
100
AcDbText
 10
0.0
 20
-0.24
 30
0.0
 40
0.01
  1
0
100
AcDbAttributeDefinition
  3
Depth Map Size
  2
ZSIZE
 70
     1
  0
ATTDEF
  5
CF
100
AcDbEntity
  8
ASHADE
  6
Continuous
 62
     7
100
AcDbText
 10
0.0
 20
-0.255
 30
0.0
 40
0.01
  1
-1
100
AcDbAttributeDefinition
  3
*not used*
  2
BIASMIN
 70
     1
  0
ATTDEF
  5
D0
100
AcDbEntity
  8
ASHADE
  6
Continuous
 62
     7
100
AcDbText
 10
0.0
 20
-0.27
 30
0.0
 40
0.01
  1
-1
100
AcDbAttributeDefinition
  3
*not used*
  2
BIASMAX
 70
     1
  0
ATTDEF
  5
D1
100
AcDbEntity
  8
ASHADE
  6
Continuous
 62
     7
100
AcDbText
 10
0.0
 20
-0.285
 30
0.0
 40
0.01
  1
10.0
100
AcDbAttributeDefinition
  3
Cone Angle
  2
CONEAN
 70
     1
  0
ATTDEF
  5
D2
100
AcDbEntity
  8
ASHADE
  6
Continuous
 62
     7
100
AcDbText
 10
0.0
 20
-0.3
 30
0.0
 40
0.01
  1
0.0
100
AcDbAttributeDefinition
  3
Cone Delta
  2
CONEDE
 70
     1
  0
ATTDEF
  5
D3
100
AcDbEntity
  8
ASHADE
  6
Continuous
 62
     7
100
AcDbText
 10
0.0
 20
-0.315
 30
0.0
 40
0.01
  1
0.0
100
AcDbAttributeDefinition
  3
Beam Distribution
  2
BIAMDI
 70
     1
  0
LINE
  5
D4
100
AcDbEntity
  8
ASHADE
  6
Continuous
 62
     7
100
AcDbLine
 10
-0.25
 20
-0.13
 30
0.0
 11
-0.25
 21
-0.34
 31
0.0
  0
LINE
  5
D5
100
AcDbEntity
  8
ASHADE
  6
Continuous
 62
     7
100
AcDbLine
 10
-0.25
 20
-0.34
 30
0.0
 11
0.25
 21
-0.34
 31
0.0
  0
LINE
  5
D6
100
AcDbEntity
  8
ASHADE
  6
Continuous
 62
     7
100
AcDbLine
 10
0.25
 20
-0.34
 30
0.0
 11
0.25
 21
-0.13
 31
0.0
  0
LINE
  5
D7
100
AcDbEntity
  8
ASHADE
  6
Continuous
 62
     7
100
AcDbLine
 10
0.25
 20
0.13
 30
0.0
 11
0.25
 21
0.26
 31
0.0
  0
LINE
  5
D8
100
AcDbEntity
  8
ASHADE
  6
Continuous
 62
     7
100
AcDbLine
 10
0.25
 20
0.26
 30
0.0
 11
-0.25
 21
0.26
 31
0.0
  0
LINE
  5
D9
100
AcDbEntity
  8
ASHADE
  6
Continuous
 62
     7
100
AcDbLine
 10
-0.25
 20
0.26
 30
0.0
 11
-0.25
 21
0.13
 31
0.0
  0
LINE
  5
DA
100
AcDbEntity
  8
ASHADE
  6
Continuous
 62
     7
100
AcDbLine
 10
-0.21
 20
0.26
 30
0.0
 11
-0.301304
 21
0.46
 31
0.0
  0
LINE
  5
DB
100
AcDbEntity
  8
ASHADE
  6
Continuous
 62
     7
100
AcDbLine
 10
-0.104545
 20
0.26
 30
0.0
 11
-0.15
 21
0.46
 31
0.0
  0
LINE
  5
DC
100
AcDbEntity
  8
ASHADE
  6
Continuous
 62
     7
100
AcDbLine
 10
0.0
 20
0.26
 30
0.0
 11
0.0
 21
0.46
 31
0.0
  0
LINE
  5
DD
100
AcDbEntity
  8
ASHADE
  6
Continuous
 62
     7
100
AcDbLine
 10
0.104545
 20
0.26
 30
0.0
 11
0.15
 21
0.46
 31
0.0
  0
LINE
  5
DE
100
AcDbEntity
  8
ASHADE
  6
Continuous
 62
     7
100
AcDbLine
 10
0.21
 20
0.26
 30
0.0
 11
0.301304
 21
0.46
 31
0.0
  0
LINE
  5
DF
100
AcDbEntity
  8
ASHADE
  6
Continuous
 62
     7
100
AcDbLine
 10
-0.29
 20
-0.18
 30
0.0
 11
-0.29
 21
-0.22
 31
0.0
  0
LINE
  5
E0
100
AcDbEntity
  8
ASHADE
  6
Continuous
 62
     7
100
AcDbLine
 10
0.29
 20
-0.18
 30
0.0
 11
0.29
 21
-0.22
 31
0.0
  0
LINE
  5
E1
100
AcDbEntity
  8
ASHADE
  6
Continuous
 62
     7
100
AcDbLine
 10
0.29
 20
0.22
 30
0.0
 11
0.29
 21
0.18
 31
0.0
  0
LINE
  5
E2
100
AcDbEntity
  8
ASHADE
  6
Continuous
 62
     7
100
AcDbLine
 10
-0.29
 20
0.22
 30
0.0
 11
-0.29
 21
0.18
 31
0.0
  0
LINE
  5
E3
100
AcDbEntity
  8
ASHADE
  6
Continuous
 62
     7
100
AcDbLine
 10
-0.29
 20
-0.22
 30
0.0
 11
-0.25
 21
-0.22
 31
0.0
  0
LINE
  5
E4
100
AcDbEntity
  8
ASHADE
  6
Continuous
 62
     7
100
AcDbLine
 10
-0.25
 20
-0.18
 30
0.0
 11
-0.29
 21
-0.18
 31
0.0
  0
LINE
  5
E5
100
AcDbEntity
  8
ASHADE
  6
Continuous
 62
     7
100
AcDbLine
 10
0.29
 20
-0.22
 30
0.0
 11
0.25
 21
-0.22
 31
0.0
  0
LINE
  5
E6
100
AcDbEntity
  8
ASHADE
  6
Continuous
 62
     7
100
AcDbLine
 10
0.25
 20
-0.18
 30
0.0
 11
0.29
 21
-0.18
 31
0.0
  0
LINE
  5
E7
100
AcDbEntity
  8
ASHADE
  6
Continuous
 62
     7
100
AcDbLine
 10
0.29
 20
0.18
 30
0.0
 11
0.25
 21
0.18
 31
0.0
  0
LINE
  5
E8
100
AcDbEntity
  8
ASHADE
  6
Continuous
 62
     7
100
AcDbLine
 10
0.25
 20
0.22
 30
0.0
 11
0.29
 21
0.22
 31
0.0
  0
LINE
  5
E9
100
AcDbEntity
  8
ASHADE
  6
Continuous
 62
     7
100
AcDbLine
 10
-0.29
 20
0.18
 30
0.0
 11
-0.25
 21
0.18
 31
0.0
  0
LINE
  5
EA
100
AcDbEntity
  8
ASHADE
  6
Continuous
 62
     7
100
AcDbLine
 10
-0.25
 20
0.22
 30
0.0
 11
-0.29
 21
0.22
 31
0.0
  0
ATTDEF
  5
EB
100
AcDbEntity
  8
ASHADE
  6
Continuous
 62
     7
100
AcDbText
 10
0.0
 20
-0.33
 30
0.0
 40
0.01
  1
0,0,0
100
AcDbAttributeDefinition
  3
Look-from XYZ
  2
LFXYZ
 70
     1
  0
ENDBLK
  5
EC
100
AcDbEntity
  8
0
100
AcDbBlockEnd
  0
ENDSEC
  0
SECTION
  2
ENTITIES
  0
VIEWPORT
  5
FE
100
AcDbEntity
 67
     1
  8
0
100
AcDbViewport
 10
5.326903
 20
5.361819
 30
0.0
 40
8.225652
 41
4.958187
 68
     1
 69
     1
 12
5.326903
 22
5.361819
 13
0.0
 23
0.0
 14
0.5
 24
0.5
 15
0.5
 25
0.5
 16
0.0
 26
0.0
 36
1.0
 17
0.0
 27
0.0
 37
0.0
 42
50.0
 43
0.0
 44
0.0
 45
4.958187
 50
0.0
 51
0.0
 72
   100
 90
    32800
340
0
  1

281
     0
 71
     0
 74
     1
110
0.0
120
0.0
130
0.0
111
1.0
121
0.0
131
0.0
112
0.0
122
1.0
132
0.0
345
0
346
0
 79
     0
146
0.0
  0
POLYLINE
  5
FF
102
{ACAD_REACTORS
330
13C
102
}
100
AcDbEntity
 67
     1
  8
0
370
     0
  6
Continuous
 62
     7
100
AcDb2dPolyline
 66
     1
 10
0.0
 20
0.0
 30
0.0
 70
     1
  0
VERTEX
  5
100
100
AcDbEntity
 67
     1
  8
0
  6
Continuous
 62
     7
100
AcDbVertex
100
AcDb2dVertex
 10
0.238461
 20
0.237178
 30
0.0
  0
VERTEX
  5
101
100
AcDbEntity
 67
     1
  8
0
  6
Continuous
 62
     7
100
AcDbVertex
100
AcDb2dVertex
 10
10.253871
 20
0.237178
 30
0.0
  0
VERTEX
  5
102
100
AcDbEntity
 67
     1
  8
0
  6
Continuous
 62
     7
100
AcDbVertex
100
AcDb2dVertex
 10
10.253871
 20
7.755655
 30
0.0
  0
VERTEX
  5
103
100
AcDbEntity
 67
     1
  8
0
  6
Continuous
 62
     7
100
AcDbVertex
100
AcDb2dVertex
 10
0.238461
 20
7.755655
 30
0.0
  0
SEQEND
  5
104
100
AcDbEntity
 67
     1
  8
0
  6
Continuous
 62
     7
  0
LINE
  5
105
102
{ACAD_REACTORS
330
13C
102
}
100
AcDbEntity
 67
     1
  8
0
370
     0
  6
Continuous
 62
     7
100
AcDbLine
 10
10.253871
 20
2.179937
 30
0.0
 11
4.292319
 21
2.179937
 31
0.0
  0
LINE
  5
106
102
{ACAD_REACTORS
330
13C
102
}
100
AcDbEntity
 67
     1
  8
0
370
     0
  6
Continuous
 62
     7
100
AcDbLine
 10
4.292319
 20
2.179937
 30
0.0
 11
4.292319
 21
0.237178
 31
0.0
  0
LINE
  5
107
102
{ACAD_REACTORS
330
13C
102
}
100
AcDbEntity
 67
     1
  8
0
370
     0
  6
Continuous
 62
     7
100
AcDbLine
 10
6.200016
 20
0.237178
 30
0.0
 11
6.200016
 21
2.179937
 31
0.0
  0
LINE
  5
108
102
{ACAD_REACTORS
330
13C
102
}
100
AcDbEntity
 67
     1
  8
0
370
     0
  6
Continuous
 62
     7
100
AcDbLine
 10
6.200016
 20
1.577682
 30
0.0
 11
10.253871
 21
1.577682
 31
0.0
  0
LINE
  5
109
102
{ACAD_REACTORS
330
13C
102
}
100
AcDbEntity
 67
     1
  8
0
370
     0
  6
Continuous
 62
     7
100
AcDbLine
 10
6.200016
 20
0.839433
 30
0.0
 11
10.253871
 21
0.839433
 31
0.0
  0
LINE
  5
10A
102
{ACAD_REACTORS
330
13C
102
}
100
AcDbEntity
 67
     1
  8
0
370
     0
  6
Continuous
 62
     7
100
AcDbLine
 10
6.200016
 20
0.480023
 30
0.0
 11
10.253871
 21
0.480023
 31
0.0
  0
LINE
  5
10B
102
{ACAD_REACTORS
330
13C
102
}
100
AcDbEntity
 67
     1
  8
0
370
     0
  6
Continuous
 62
     7
100
AcDbLine
 10
8.584637
 20
0.237178
 30
0.0
 11
8.584637
 21
0.480023
 31
0.0
  0
LINE
  5
10C
102
{ACAD_REACTORS
330
13C
102
}
100
AcDbEntity
 67
     1
  8
0
370
     0
  6
Continuous
 62
     7
100
AcDbLine
 10
7.153864
 20
0.237178
 30
0.0
 11
7.153864
 21
0.480023
 31
0.0
  0
LINE
  5
10D
102
{ACAD_REACTORS
330
13C
102
}
100
AcDbEntity
 67
     1
  8
0
370
     0
  6
DASHED
 62
     7
 48
0.125
100
AcDbLine
 10
9.89141
 20
0.480023
 30
0.0
 11
9.89141
 21
0.839433
 31
0.0
  0
LINE
  5
10E
102
{ACAD_REACTORS
330
13C
102
}
100
AcDbEntity
 67
     1
  8
0
370
     0
  6
Continuous
 62
     7
100
AcDbLine
 10
7.268326
 20
0.480023
 30
0.0
 11
7.268326
 21
0.839433
 31
0.0
  0
LINE
  5
10F
102
{ACAD_REACTORS
330
13C
102
}
100
AcDbEntity
 67
     1
  8
0
370
     0
  6
Continuous
 62
     7
100
AcDbLine
 10
6.562478
 20
0.480023
 30
0.0
 11
6.562478
 21
0.839433
 31
0.0
  0
LINE
  5
110
102
{ACAD_REACTORS
330
13C
102
}
100
AcDbEntity
 67
     1
  8
0
370
     0
  6
Continuous
 62
     7
100
AcDbLine
 10
4.292319
 20
0.237178
 30
0.0
 11
10.253871
 21
0.237178
 31
0.0
  0
LINE
  5
111
102
{ACAD_REACTORS
330
13C
102
}
100
AcDbEntity
 67
     1
  8
0
370
     0
  6
Continuous
 62
     7
100
AcDbLine
 10
10.253871
 20
2.179937
 30
0.0
 11
10.253871
 21
0.237178
 31
0.0
  0
LINE
  5
112
102
{ACAD_REACTORS
330
13C
102
}
100
AcDbEntity
 67
     1
  8
0
370
     0
  6
DASHED
 62
     7
 48
0.125
100
AcDbLine
 10
6.200016
 20
0.480023
 30
0.0
 11
4.292319
 21
0.480023
 31
0.0
  0
LINE
  5
113
102
{ACAD_REACTORS
330
13C
102
}
100
AcDbEntity
 67
     1
  8
0
370
     0
  6
DASHED
 62
     7
 48
0.125
100
AcDbLine
 10
6.200016
 20
0.722868
 30
0.0
 11
4.292319
 21
0.722868
 31
0.0
  0
TEXT
  5
114
102
{ACAD_REACTORS
330
13C
102
}
100
AcDbEntity
 67
     1
  8
0
  6
Continuous
 62
     7
100
AcDbText
 10
6.200017
 20
1.479869
 30
0.0
 40
0.077575
  1
 TITLE
 72
     5
 11
6.520241
 21
1.479869
 31
0.0
100
AcDbText
1001
TCAD
1000
TCW40_TEXT
1002
{
1000
Arial
1070
     0
1070
  2050
1002
}
  0
TEXT
  5
115
102
{ACAD_REACTORS
330
13C
102
}
100
AcDbEntity
 67
     1
  8
0
  6
Continuous
 62
     7
100
AcDbText
 10
7.268326
 20
0.741621
 30
0.0
 40
0.077575
  1
 DWG NO
 72
     5
 11
7.748532
 21
0.741621
 31
0.0
100
AcDbText
1001
TCAD
1000
TCW40_TEXT
1002
{
1000
Arial
1070
     0
1070
  2050
1002
}
  0
TEXT
  5
116
102
{ACAD_REACTORS
330
13C
102
}
100
AcDbEntity
 67
     1
  8
0
  6
Continuous
 62
     7
100
AcDbText
 10
6.200016
 20
0.741621
 30
0.0
 40
0.077575
  1
 SIZE
 72
     5
 11
6.466879
 21
0.741621
 31
0.0
100
AcDbText
1001
TCAD
1000
TCW40_TEXT
1002
{
1000
Arial
1070
     0
1070
  2050
1002
}
  0
TEXT
  5
117
102
{ACAD_REACTORS
330
13C
102
}
100
AcDbEntity
 67
     1
  8
0
  6
Continuous
 62
     7
100
AcDbText
 10
9.89141
 20
0.741621
 30
0.0
 40
0.077575
  1
 REV
 72
     5
 11
10.140502
 21
0.741621
 31
0.0
100
AcDbText
1001
TCAD
1000
TCW40_TEXT
1002
{
1000
Arial
1070
     0
1070
  2050
1002
}
  0
TEXT
  5
118
102
{ACAD_REACTORS
330
13C
102
}
100
AcDbEntity
 67
     1
  8
0
  6
Continuous
 62
     7
100
AcDbText
 10
8.584637
 20
0.382211
 30
0.0
 40
0.077575
  1
 SHEET
 72
     5
 11
8.970106
 21
0.382211
 31
0.0
100
AcDbText
1001
TCAD
1000
TCW40_TEXT
1002
{
1000
Arial
1070
     0
1070
  2050
1002
}
  0
TEXT
  5
119
102
{ACAD_REACTORS
330
13C
102
}
100
AcDbEntity
 67
     1
  8
0
  6
Continuous
 62
     7
100
AcDbText
 10
6.200016
 20
0.382211
 30
0.0
 40
0.077575
  1
 SCALE
 72
     5
 11
6.579648
 21
0.382211
 31
0.0
100
AcDbText
1001
TCAD
1000
TCW40_TEXT
1002
{
1000
Arial
1070
     0
1070
  2050
1002
}
  0
TEXT
  5
11A
102
{ACAD_REACTORS
330
13C
102
}
100
AcDbEntity
 67
     1
  8
0
  6
Continuous
 62
     7
100
AcDbText
 10
6.562478
 20
0.741621
 30
0.0
 40
0.077575
  1
 CAGE CODE
 72
     5
 11
7.23258
 21
0.741621
 31
0.0
100
AcDbText
1001
TCAD
1000
TCW40_TEXT
1002
{
1000
Arial
1070
     0
1070
  2050
1002
}
  0
TEXT
  5
11B
102
{ACAD_REACTORS
330
13C
102
}
100
AcDbEntity
 67
     1
  8
0
  6
Continuous
 62
     7
100
AcDbText
 10
6.296389
 20
0.527243
 30
0.0
 40
0.155151
  1
A  
 72
     2
 11
6.562479
 21
0.480023
 31
0.0
100
AcDbText
 73
     1
1001
TCAD
1000
TCW40_TEXT
1002
{
1000
Arial
1070
     0
1070
  2052
1002
}
  0
LINE
  5
11C
102
{ACAD_REACTORS
330
13C
102
}
100
AcDbEntity
 67
     1
  8
0
370
     0
  6
Continuous
 62
     7
100
AcDbLine
 10
5.246166
 20
7.9985
 30
0.0
 11
5.246166
 21
7.901361
 31
0.0
  0
POLYLINE
  5
11D
102
{ACAD_REACTORS
330
13C
102
}
100
AcDbEntity
 67
     1
  8
0
370
     0
  6
Continuous
 62
     7
100
AcDb2dPolyline
 66
     1
 10
0.0
 20
0.0
 30
0.0
  0
VERTEX
  5
11E
100
AcDbEntity
 67
     1
  8
0
  6
Continuous
 62
     7
100
AcDbVertex
100
AcDb2dVertex
 10
5.246166
 20
7.901361
 30
0.0
  0
VERTEX
  5
11F
100
AcDbEntity
 67
     1
  8
0
  6
Continuous
 62
     7
100
AcDbVertex
100
AcDb2dVertex
 10
5.246166
 20
7.755655
 30
0.0
  0
VERTEX
  5
120
100
AcDbEntity
 67
     1
  8
0
  6
Continuous
 62
     7
100
AcDbVertex
100
AcDb2dVertex
 10
5.328772
 20
7.901361
 30
0.0
  0
SEQEND
  5
121
100
AcDbEntity
 67
     1
  8
0
  6
Continuous
 62
     7
  0
LINE
  5
122
102
{ACAD_REACTORS
330
13C
102
}
100
AcDbEntity
 67
     1
  8
0
370
     0
  6
Continuous
 62
     7
100
AcDbLine
 10
5.163561
 20
7.901361
 30
0.0
 11
5.246166
 21
7.755655
 31
0.0
  0
LINE
  5
123
102
{ACAD_REACTORS
330
13C
102
}
100
AcDbEntity
 67
     1
  8
0
370
     0
  6
Continuous
 62
     7
100
AcDbLine
 10
5.328772
 20
7.901361
 30
0.0
 11
5.163561
 21
7.901361
 31
0.0
  0
LINE
  5
124
102
{ACAD_REACTORS
330
13C
102
}
100
AcDbEntity
 67
     1
  8
0
370
     0
  6
Continuous
 62
     7
100
AcDbLine
 10
5.246166
 20
-0.005667
 30
0.0
 11
5.246166
 21
0.091471
 31
0.0
  0
POLYLINE
  5
125
102
{ACAD_REACTORS
330
13C
102
}
100
AcDbEntity
 67
     1
  8
0
370
     0
  6
Continuous
 62
     7
100
AcDb2dPolyline
 66
     1
 10
0.0
 20
0.0
 30
0.0
  0
VERTEX
  5
126
100
AcDbEntity
 67
     1
  8
0
  6
Continuous
 62
     7
100
AcDbVertex
100
AcDb2dVertex
 10
5.246166
 20
0.091471
 30
0.0
  0
VERTEX
  5
127
100
AcDbEntity
 67
     1
  8
0
  6
Continuous
 62
     7
100
AcDbVertex
100
AcDb2dVertex
 10
5.246166
 20
0.237178
 30
0.0
  0
VERTEX
  5
128
100
AcDbEntity
 67
     1
  8
0
  6
Continuous
 62
     7
100
AcDbVertex
100
AcDb2dVertex
 10
5.163561
 20
0.091471
 30
0.0
  0
SEQEND
  5
129
100
AcDbEntity
 67
     1
  8
0
  6
Continuous
 62
     7
  0
LINE
  5
12A
102
{ACAD_REACTORS
330
13C
102
}
100
AcDbEntity
 67
     1
  8
0
370
     0
  6
Continuous
 62
     7
100
AcDbLine
 10
5.328772
 20
0.091471
 30
0.0
 11
5.246166
 21
0.237178
 31
0.0
  0
LINE
  5
12B
102
{ACAD_REACTORS
330
13C
102
}
100
AcDbEntity
 67
     1
  8
0
370
     0
  6
Continuous
 62
     7
100
AcDbLine
 10
5.163561
 20
0.091471
 30
0.0
 11
5.328772
 21
0.091471
 31
0.0
  0
LINE
  5
12C
102
{ACAD_REACTORS
330
13C
102
}
100
AcDbEntity
 67
     1
  8
0
370
     0
  6
Continuous
 62
     7
100
AcDbLine
 10
10.492333
 20
3.996417
 30
0.0
 11
10.396948
 21
3.996417
 31
0.0
  0
POLYLINE
  5
12D
102
{ACAD_REACTORS
330
13C
102
}
100
AcDbEntity
 67
     1
  8
0
370
     0
  6
Continuous
 62
     7
100
AcDb2dPolyline
 66
     1
 10
0.0
 20
0.0
 30
0.0
  0
VERTEX
  5
12E
100
AcDbEntity
 67
     1
  8
0
  6
Continuous
 62
     7
100
AcDbVertex
100
AcDb2dVertex
 10
10.396948
 20
3.996417
 30
0.0
  0
VERTEX
  5
12F
100
AcDbEntity
 67
     1
  8
0
  6
Continuous
 62
     7
100
AcDbVertex
100
AcDb2dVertex
 10
10.253871
 20
3.996417
 30
0.0
  0
VERTEX
  5
130
100
AcDbEntity
 67
     1
  8
0
  6
Continuous
 62
     7
100
AcDbVertex
100
AcDb2dVertex
 10
10.396948
 20
3.912292
 30
0.0
  0
SEQEND
  5
131
100
AcDbEntity
 67
     1
  8
0
  6
Continuous
 62
     7
  0
LINE
  5
132
102
{ACAD_REACTORS
330
13C
102
}
100
AcDbEntity
 67
     1
  8
0
370
     0
  6
Continuous
 62
     7
100
AcDbLine
 10
10.396948
 20
4.08054
 30
0.0
 11
10.253871
 21
3.996417
 31
0.0
  0
LINE
  5
133
102
{ACAD_REACTORS
330
13C
102
}
100
AcDbEntity
 67
     1
  8
0
370
     0
  6
Continuous
 62
     7
100
AcDbLine
 10
10.396948
 20
3.912292
 30
0.0
 11
10.396948
 21
4.08054
 31
0.0
  0
LINE
  5
134
102
{ACAD_REACTORS
330
13C
102
}
100
AcDbEntity
 67
     1
  8
0
370
     0
  6
Continuous
 62
     7
100
AcDbLine
 10
-0.000001
 20
3.996417
 30
0.0
 11
0.095384
 21
3.996417
 31
0.0
  0
POLYLINE
  5
135
102
{ACAD_REACTORS
330
13C
102
}
100
AcDbEntity
 67
     1
  8
0
370
     0
  6
Continuous
 62
     7
100
AcDb2dPolyline
 66
     1
 10
0.0
 20
0.0
 30
0.0
  0
VERTEX
  5
136
100
AcDbEntity
 67
     1
  8
0
  6
Continuous
 62
     7
100
AcDbVertex
100
AcDb2dVertex
 10
0.095384
 20
3.996417
 30
0.0
  0
VERTEX
  5
137
100
AcDbEntity
 67
     1
  8
0
  6
Continuous
 62
     7
100
AcDbVertex
100
AcDb2dVertex
 10
0.238461
 20
3.996417
 30
0.0
  0
VERTEX
  5
138
100
AcDbEntity
 67
     1
  8
0
  6
Continuous
 62
     7
100
AcDbVertex
100
AcDb2dVertex
 10
0.095384
 20
4.08054
 30
0.0
  0
SEQEND
  5
139
100
AcDbEntity
 67
     1
  8
0
  6
Continuous
 62
     7
  0
LINE
  5
13A
102
{ACAD_REACTORS
330
13C
102
}
100
AcDbEntity
 67
     1
  8
0
370
     0
  6
Continuous
 62
     7
100
AcDbLine
 10
0.095384
 20
3.912292
 30
0.0
 11
0.238461
 21
3.996417
 31
0.0
  0
LINE
  5
13B
102
{ACAD_REACTORS
330
13C
102
}
100
AcDbEntity
 67
     1
  8
0
370
     0
  6
Continuous
 62
     7
100
AcDbLine
 10
0.095384
 20
4.08054
 30
0.0
 11
0.095384
 21
3.912292
 31
0.0
  0
TEXT
  5
13D
100
AcDbEntity
 67
     1
  8
0
  6
Continuous
 62
     7
100
AcDbText
 10
7.03254
 20
1.182991
 30
0.0
 40
0.106481
  1
QuickUSB™  Socket Layout Drawing
 72
     5
 11
9.486794
 21
1.182991
 31
0.0
100
AcDbText
1001
TCAD
1000
TCW40_TEXT
1002
{
1000
Arial
1070
     0
1070
   257
1002
}
  0
TEXT
  5
13E
100
AcDbEntity
 67
     1
  8
0
  6
Continuous
 62
     7
100
AcDbText
 10
9.161041
 20
0.310324
 30
0.0
 40
0.106481
  1
1 of 1
 72
     5
 11
9.534292
 21
0.310324
 31
0.0
100
AcDbText
1001
TCAD
1000
TCW40_TEXT
1002
{
1000
Arial
1070
     0
1070
   257
1002
}
  0
TEXT
  5
13F
100
AcDbEntity
 67
     1
  8
0
  6
Continuous
 62
     7
100
AcDbText
 10
6.675781
 20
0.559658
 30
0.0
 40
0.106481
  1
1JUP8
 72
     5
 11
7.123552
 21
0.559658
 31
0.0
100
AcDbText
1001
TCAD
1000
TCW40_TEXT
1002
{
1000
Arial
1070
     0
1070
   257
1002
}
  0
TEXT
  5
140
100
AcDbEntity
 67
     1
  8
0
  6
Continuous
 62
     7
100
AcDbText
 10
6.659974
 20
0.310324
 30
0.0
 40
0.106481
  1
1:1
 72
     5
 11
6.86736
 21
0.310324
 31
0.0
100
AcDbText
1001
TCAD
1000
TCW40_TEXT
1002
{
1000
Arial
1070
     0
1070
   257
1002
}
  0
TEXT
  5
141
100
AcDbEntity
 67
     1
  8
0
  6
Continuous
 62
     7
100
AcDbText
 10
7.895721
 20
0.593658
 30
0.0
 40
0.106481
  1
QUSB2SKT
 72
     5
 11
8.691612
 21
0.593658
 31
0.0
100
AcDbText
1001
TCAD
1000
TCW40_TEXT
1002
{
1000
Arial
1070
     0
1070
   257
1002
}
  0
POLYLINE
  5
142
100
AcDbEntity
 67
     1
  8
BOARD_OUTLINE_00
 62
     7
 48
0.001
100
AcDb2dPolyline
 66
     1
 10
0.0
 20
0.0
 30
0.0
 70
     1
 40
0.012
 41
0.012
  0
VERTEX
  5
143
100
AcDbEntity
 67
     1
  8
BOARD_OUTLINE_00
 62
     7
 48
0.001
100
AcDbVertex
100
AcDb2dVertex
 10
4.005764
 20
5.994394
 30
0.0
  0
VERTEX
  5
144
100
AcDbEntity
 67
     1
  8
BOARD_OUTLINE_00
 62
     7
 48
0.001
100
AcDbVertex
100
AcDb2dVertex
 10
5.993835
 20
5.994394
 30
0.0
  0
VERTEX
  5
145
100
AcDbEntity
 67
     1
  8
BOARD_OUTLINE_00
 62
     7
 48
0.001
100
AcDbVertex
100
AcDb2dVertex
 10
5.993835
 20
4.506298
 30
0.0
  0
VERTEX
  5
146
100
AcDbEntity
 67
     1
  8
BOARD_OUTLINE_00
 62
     7
 48
0.001
100
AcDbVertex
100
AcDb2dVertex
 10
4.005764
 20
4.506298
 30
0.0
  0
SEQEND
  5
147
100
AcDbEntity
 67
     1
  8
BOARD_OUTLINE_00
 62
     7
 48
0.001
  0
POLYLINE
  5
148
100
AcDbEntity
 67
     1
  8
BOARD_OUTLINE_00
 62
     7
 48
0.001
100
AcDb2dPolyline
 66
     1
 10
0.0
 20
0.0
 30
0.0
 70
     1
 40
0.006
 41
0.006
  0
VERTEX
  5
149
100
AcDbEntity
 67
     1
  8
BOARD_OUTLINE_00
 62
     7
 48
0.001
100
AcDbVertex
100
AcDb2dVertex
 10
3.996799
 20
6.000346
 30
0.0
 42
1.0
  0
VERTEX
  5
14A
100
AcDbEntity
 67
     1
  8
BOARD_OUTLINE_00
 62
     7
 48
0.001
100
AcDbVertex
100
AcDb2dVertex
 10
4.002799
 20
6.000346
 30
0.0
 42
1.0
  0
SEQEND
  5
14B
100
AcDbEntity
 67
     1
  8
BOARD_OUTLINE_00
 62
     7
 48
0.001
  0
POLYLINE
  5
14C
100
AcDbEntity
 67
     1
  8
BOARD_OUTLINE_00
 62
     7
 48
0.001
100
AcDb2dPolyline
 66
     1
 10
0.0
 20
0.0
 30
0.0
 70
     1
 40
0.006
 41
0.006
  0
VERTEX
  5
14D
100
AcDbEntity
 67
     1
  8
BOARD_OUTLINE_00
 62
     7
 48
0.001
100
AcDbVertex
100
AcDb2dVertex
 10
5.996799
 20
6.000346
 30
0.0
 42
1.0
  0
VERTEX
  5
14E
100
AcDbEntity
 67
     1
  8
BOARD_OUTLINE_00
 62
     7
 48
0.001
100
AcDbVertex
100
AcDb2dVertex
 10
6.002799
 20
6.000346
 30
0.0
 42
1.0
  0
SEQEND
  5
14F
100
AcDbEntity
 67
     1
  8
BOARD_OUTLINE_00
 62
     7
 48
0.001
  0
POLYLINE
  5
150
100
AcDbEntity
 67
     1
  8
BOARD_OUTLINE_00
 62
     7
 48
0.001
100
AcDb2dPolyline
 66
     1
 10
0.0
 20
0.0
 30
0.0
 70
     1
 40
0.006
 41
0.006
  0
VERTEX
  5
151
100
AcDbEntity
 67
     1
  8
BOARD_OUTLINE_00
 62
     7
 48
0.001
100
AcDbVertex
100
AcDb2dVertex
 10
5.996799
 20
4.500346
 30
0.0
 42
1.0
  0
VERTEX
  5
152
100
AcDbEntity
 67
     1
  8
BOARD_OUTLINE_00
 62
     7
 48
0.001
100
AcDbVertex
100
AcDb2dVertex
 10
6.002799
 20
4.500346
 30
0.0
 42
1.0
  0
SEQEND
  5
153
100
AcDbEntity
 67
     1
  8
BOARD_OUTLINE_00
 62
     7
 48
0.001
  0
POLYLINE
  5
154
100
AcDbEntity
 67
     1
  8
BOARD_OUTLINE_00
 62
     7
 48
0.001
100
AcDb2dPolyline
 66
     1
 10
0.0
 20
0.0
 30
0.0
 70
     1
 40
0.006
 41
0.006
  0
VERTEX
  5
155
100
AcDbEntity
 67
     1
  8
BOARD_OUTLINE_00
 62
     7
 48
0.001
100
AcDbVertex
100
AcDb2dVertex
 10
3.996799
 20
4.500346
 30
0.0
 42
1.0
  0
VERTEX
  5
156
100
AcDbEntity
 67
     1
  8
BOARD_OUTLINE_00
 62
     7
 48
0.001
100
AcDbVertex
100
AcDb2dVertex
 10
4.002799
 20
4.500346
 30
0.0
 42
1.0
  0
SEQEND
  5
157
100
AcDbEntity
 67
     1
  8
BOARD_OUTLINE_00
 62
     7
 48
0.001
  0
POLYLINE
  5
158
100
AcDbEntity
 67
     1
  8
2D_LINE_24
 62
     7
 48
0.001
100
AcDb2dPolyline
 66
     1
 10
0.0
 20
0.0
 30
0.0
 40
0.001
 41
0.001
  0
VERTEX
  5
159
100
AcDbEntity
 67
     1
  8
2D_LINE_24
 62
     7
 48
0.001
100
AcDbVertex
100
AcDb2dVertex
 10
3.999799
 20
4.500346
 30
0.0
  0
VERTEX
  5
15A
100
AcDbEntity
 67
     1
  8
2D_LINE_24
 62
     7
 48
0.001
100
AcDbVertex
100
AcDb2dVertex
 10
3.999829
 20
4.500346
 30
0.0
  0
SEQEND
  5
15B
100
AcDbEntity
 67
     1
  8
2D_LINE_24
 62
     7
 48
0.001
  0
POLYLINE
  5
15C
100
AcDbEntity
 67
     1
  8
2D_LINE_24
 62
     7
 48
0.001
100
AcDb2dPolyline
 66
     1
 10
0.0
 20
0.0
 30
0.0
 40
0.001
 41
0.001
  0
VERTEX
  5
15D
100
AcDbEntity
 67
     1
  8
2D_LINE_24
 62
     7
 48
0.001
100
AcDbVertex
100
AcDb2dVertex
 10
3.999799
 20
6.000346
 30
0.0
  0
VERTEX
  5
15E
100
AcDbEntity
 67
     1
  8
2D_LINE_24
 62
     7
 48
0.001
100
AcDbVertex
100
AcDb2dVertex
 10
3.999829
 20
6.000346
 30
0.0
  0
SEQEND
  5
15F
100
AcDbEntity
 67
     1
  8
2D_LINE_24
 62
     7
 48
0.001
  0
POLYLINE
  5
160
100
AcDbEntity
 67
     1
  8
2D_LINE_24
 62
     7
 48
0.001
100
AcDb2dPolyline
 66
     1
 10
0.0
 20
0.0
 30
0.0
 40
0.01
 41
0.01
  0
VERTEX
  5
161
100
AcDbEntity
 67
     1
  8
2D_LINE_24
 62
     7
 48
0.001
100
AcDbVertex
100
AcDb2dVertex
 10
2.749799
 20
4.500346
 30
0.0
  0
VERTEX
  5
162
100
AcDbEntity
 67
     1
  8
2D_LINE_24
 62
     7
 48
0.001
100
AcDbVertex
100
AcDb2dVertex
 10
2.749799
 20
5.330346
 30
0.0
  0
SEQEND
  5
163
100
AcDbEntity
 67
     1
  8
2D_LINE_24
 62
     7
 48
0.001
  0
POLYLINE
  5
164
100
AcDbEntity
 67
     1
  8
2D_LINE_24
 62
     7
 48
0.001
100
AcDb2dPolyline
 66
     1
 10
0.0
 20
0.0
 30
0.0
 40
0.01
 41
0.01
  0
VERTEX
  5
165
100
AcDbEntity
 67
     1
  8
2D_LINE_24
 62
     7
 48
0.001
100
AcDbVertex
100
AcDb2dVertex
 10
2.749799
 20
6.000346
 30
0.0
  0
VERTEX
  5
166
100
AcDbEntity
 67
     1
  8
2D_LINE_24
 62
     7
 48
0.001
100
AcDbVertex
100
AcDb2dVertex
 10
2.749799
 20
5.484096
 30
0.0
  0
SEQEND
  5
167
100
AcDbEntity
 67
     1
  8
2D_LINE_24
 62
     7
 48
0.001
  0
POLYLINE
  5
168
100
AcDbEntity
 67
     1
  8
2D_LINE_24
 62
     7
 48
0.001
100
AcDb2dPolyline
 66
     1
 10
0.0
 20
0.0
 30
0.0
 40
0.01
 41
0.01
  0
VERTEX
  5
169
100
AcDbEntity
 67
     1
  8
2D_LINE_24
 62
     7
 48
0.001
100
AcDbVertex
100
AcDb2dVertex
 10
3.949799
 20
4.500346
 30
0.0
  0
VERTEX
  5
16A
100
AcDbEntity
 67
     1
  8
2D_LINE_24
 62
     7
 48
0.001
100
AcDbVertex
100
AcDb2dVertex
 10
2.699799
 20
4.500346
 30
0.0
  0
SEQEND
  5
16B
100
AcDbEntity
 67
     1
  8
2D_LINE_24
 62
     7
 48
0.001
  0
POLYLINE
  5
16C
100
AcDbEntity
 67
     1
  8
2D_LINE_24
 62
     7
 48
0.001
100
AcDb2dPolyline
 66
     1
 10
0.0
 20
0.0
 30
0.0
 40
0.01
 41
0.01
  0
VERTEX
  5
16D
100
AcDbEntity
 67
     1
  8
2D_LINE_24
 62
     7
 48
0.001
100
AcDbVertex
100
AcDb2dVertex
 10
3.949799
 20
6.000346
 30
0.0
  0
VERTEX
  5
16E
100
AcDbEntity
 67
     1
  8
2D_LINE_24
 62
     7
 48
0.001
100
AcDbVertex
100
AcDb2dVertex
 10
2.699799
 20
6.000346
 30
0.0
  0
SEQEND
  5
16F
100
AcDbEntity
 67
     1
  8
2D_LINE_24
 62
     7
 48
0.001
  0
POLYLINE
  5
170
100
AcDbEntity
 67
     1
  8
2D_LINE_24
 62
     7
 48
0.001
100
AcDb2dPolyline
 66
     1
 10
0.0
 20
0.0
 30
0.0
 40
0.001
 41
0.001
  0
VERTEX
  5
171
100
AcDbEntity
 67
     1
  8
2D_LINE_24
 62
     7
 48
0.001
100
AcDbVertex
100
AcDb2dVertex
 10
3.999799
 20
4.500346
 30
0.0
  0
VERTEX
  5
172
100
AcDbEntity
 67
     1
  8
2D_LINE_24
 62
     7
 48
0.001
100
AcDbVertex
100
AcDb2dVertex
 10
3.999829
 20
4.500346
 30
0.0
  0
SEQEND
  5
173
100
AcDbEntity
 67
     1
  8
2D_LINE_24
 62
     7
 48
0.001
  0
POLYLINE
  5
174
100
AcDbEntity
 67
     1
  8
2D_LINE_24
 62
     7
 48
0.001
100
AcDb2dPolyline
 66
     1
 10
0.0
 20
0.0
 30
0.0
 40
0.001
 41
0.001
  0
VERTEX
  5
175
100
AcDbEntity
 67
     1
  8
2D_LINE_24
 62
     7
 48
0.001
100
AcDbVertex
100
AcDb2dVertex
 10
4.124799
 20
4.625346
 30
0.0
  0
VERTEX
  5
176
100
AcDbEntity
 67
     1
  8
2D_LINE_24
 62
     7
 48
0.001
100
AcDbVertex
100
AcDb2dVertex
 10
4.124829
 20
4.625346
 30
0.0
  0
SEQEND
  5
177
100
AcDbEntity
 67
     1
  8
2D_LINE_24
 62
     7
 48
0.001
  0
POLYLINE
  5
178
100
AcDbEntity
 67
     1
  8
2D_LINE_24
 62
     7
 48
0.001
100
AcDb2dPolyline
 66
     1
 10
0.0
 20
0.0
 30
0.0
 40
0.01
 41
0.01
  0
VERTEX
  5
179
100
AcDbEntity
 67
     1
  8
2D_LINE_24
 62
     7
 48
0.001
100
AcDbVertex
100
AcDb2dVertex
 10
3.569799
 20
4.500346
 30
0.0
  0
VERTEX
  5
17A
100
AcDbEntity
 67
     1
  8
2D_LINE_24
 62
     7
 48
0.001
100
AcDbVertex
100
AcDb2dVertex
 10
3.569799
 20
4.350346
 30
0.0
  0
SEQEND
  5
17B
100
AcDbEntity
 67
     1
  8
2D_LINE_24
 62
     7
 48
0.001
  0
POLYLINE
  5
17C
100
AcDbEntity
 67
     1
  8
2D_LINE_24
 62
     7
 48
0.001
100
AcDb2dPolyline
 66
     1
 10
0.0
 20
0.0
 30
0.0
 70
     1
 40
0.01
 41
0.01
  0
VERTEX
  5
17D
100
AcDbEntity
 67
     1
  8
2D_LINE_24
 62
     7
 48
0.001
100
AcDbVertex
100
AcDb2dVertex
 10
3.568386
 20
4.485473
 30
0.0
  0
VERTEX
  5
17E
100
AcDbEntity
 67
     1
  8
2D_LINE_24
 62
     7
 48
0.001
100
AcDbVertex
100
AcDb2dVertex
 10
3.593386
 20
4.385473
 30
0.0
  0
VERTEX
  5
17F
100
AcDbEntity
 67
     1
  8
2D_LINE_24
 62
     7
 48
0.001
100
AcDbVertex
100
AcDb2dVertex
 10
3.543386
 20
4.385473
 30
0.0
  0
SEQEND
  5
180
100
AcDbEntity
 67
     1
  8
2D_LINE_24
 62
     7
 48
0.001
  0
POLYLINE
  5
181
100
AcDbEntity
 67
     1
  8
2D_LINE_24
 62
     7
 48
0.001
100
AcDb2dPolyline
 66
     1
 10
0.0
 20
0.0
 30
0.0
 40
0.01
 41
0.01
  0
VERTEX
  5
182
100
AcDbEntity
 67
     1
  8
2D_LINE_24
 62
     7
 48
0.001
100
AcDbVertex
100
AcDb2dVertex
 10
3.949799
 20
4.500346
 30
0.0
  0
VERTEX
  5
183
100
AcDbEntity
 67
     1
  8
2D_LINE_24
 62
     7
 48
0.001
100
AcDbVertex
100
AcDb2dVertex
 10
3.519799
 20
4.500346
 30
0.0
  0
SEQEND
  5
184
100
AcDbEntity
 67
     1
  8
2D_LINE_24
 62
     7
 48
0.001
  0
POLYLINE
  5
185
100
AcDbEntity
 67
     1
  8
2D_LINE_24
 62
     7
 48
0.001
100
AcDb2dPolyline
 66
     1
 10
0.0
 20
0.0
 30
0.0
 40
0.01
 41
0.01
  0
VERTEX
  5
186
100
AcDbEntity
 67
     1
  8
2D_LINE_24
 62
     7
 48
0.001
100
AcDbVertex
100
AcDb2dVertex
 10
4.074799
 20
4.622241
 30
0.0
  0
VERTEX
  5
187
100
AcDbEntity
 67
     1
  8
2D_LINE_24
 62
     7
 48
0.001
100
AcDbVertex
100
AcDb2dVertex
 10
3.007668
 20
4.622241
 30
0.0
  0
SEQEND
  5
188
100
AcDbEntity
 67
     1
  8
2D_LINE_24
 62
     7
 48
0.001
  0
POLYLINE
  5
189
100
AcDbEntity
 67
     1
  8
2D_LINE_24
 62
     7
 48
0.001
100
AcDb2dPolyline
 66
     1
 10
0.0
 20
0.0
 30
0.0
 40
0.001
 41
0.001
  0
VERTEX
  5
18A
100
AcDbEntity
 67
     1
  8
2D_LINE_24
 62
     7
 48
0.001
100
AcDbVertex
100
AcDb2dVertex
 10
4.124799
 20
4.625346
 30
0.0
  0
VERTEX
  5
18B
100
AcDbEntity
 67
     1
  8
2D_LINE_24
 62
     7
 48
0.001
100
AcDbVertex
100
AcDb2dVertex
 10
4.124829
 20
4.625346
 30
0.0
  0
SEQEND
  5
18C
100
AcDbEntity
 67
     1
  8
2D_LINE_24
 62
     7
 48
0.001
  0
POLYLINE
  5
18D
100
AcDbEntity
 67
     1
  8
2D_LINE_24
 62
     7
 48
0.001
100
AcDb2dPolyline
 66
     1
 10
0.0
 20
0.0
 30
0.0
 40
0.001
 41
0.001
  0
VERTEX
  5
18E
100
AcDbEntity
 67
     1
  8
2D_LINE_24
 62
     7
 48
0.001
100
AcDbVertex
100
AcDb2dVertex
 10
3.999799
 20
4.500346
 30
0.0
  0
VERTEX
  5
18F
100
AcDbEntity
 67
     1
  8
2D_LINE_24
 62
     7
 48
0.001
100
AcDbVertex
100
AcDb2dVertex
 10
3.999829
 20
4.500346
 30
0.0
  0
SEQEND
  5
190
100
AcDbEntity
 67
     1
  8
2D_LINE_24
 62
     7
 48
0.001
  0
POLYLINE
  5
191
100
AcDbEntity
 67
     1
  8
2D_LINE_24
 62
     7
 48
0.001
100
AcDb2dPolyline
 66
     1
 10
0.0
 20
0.0
 30
0.0
 40
0.01
 41
0.01
  0
VERTEX
  5
192
100
AcDbEntity
 67
     1
  8
2D_LINE_24
 62
     7
 48
0.001
100
AcDbVertex
100
AcDb2dVertex
 10
4.124799
 20
4.225346
 30
0.0
  0
VERTEX
  5
193
100
AcDbEntity
 67
     1
  8
2D_LINE_24
 62
     7
 48
0.001
100
AcDbVertex
100
AcDb2dVertex
 10
4.274799
 20
4.225346
 30
0.0
  0
SEQEND
  5
194
100
AcDbEntity
 67
     1
  8
2D_LINE_24
 62
     7
 48
0.001
  0
POLYLINE
  5
195
100
AcDbEntity
 67
     1
  8
2D_LINE_24
 62
     7
 48
0.001
100
AcDb2dPolyline
 66
     1
 10
0.0
 20
0.0
 30
0.0
 40
0.01
 41
0.01
  0
VERTEX
  5
196
100
AcDbEntity
 67
     1
  8
2D_LINE_24
 62
     7
 48
0.001
100
AcDbVertex
100
AcDb2dVertex
 10
3.999799
 20
4.225346
 30
0.0
  0
VERTEX
  5
197
100
AcDbEntity
 67
     1
  8
2D_LINE_24
 62
     7
 48
0.001
100
AcDbVertex
100
AcDb2dVertex
 10
3.849799
 20
4.225346
 30
0.0
  0
SEQEND
  5
198
100
AcDbEntity
 67
     1
  8
2D_LINE_24
 62
     7
 48
0.001
  0
POLYLINE
  5
199
100
AcDbEntity
 67
     1
  8
2D_LINE_24
 62
     7
 48
0.001
100
AcDb2dPolyline
 66
     1
 10
0.0
 20
0.0
 30
0.0
 40
0.01
 41
0.01
  0
VERTEX
  5
19A
100
AcDbEntity
 67
     1
  8
2D_LINE_24
 62
     7
 48
0.001
100
AcDbVertex
100
AcDb2dVertex
 10
4.124799
 20
4.575346
 30
0.0
  0
VERTEX
  5
19B
100
AcDbEntity
 67
     1
  8
2D_LINE_24
 62
     7
 48
0.001
100
AcDbVertex
100
AcDb2dVertex
 10
4.124799
 20
4.175346
 30
0.0
  0
SEQEND
  5
19C
100
AcDbEntity
 67
     1
  8
2D_LINE_24
 62
     7
 48
0.001
  0
POLYLINE
  5
19D
100
AcDbEntity
 67
     1
  8
2D_LINE_24
 62
     7
 48
0.001
100
AcDb2dPolyline
 66
     1
 10
0.0
 20
0.0
 30
0.0
 40
0.01
 41
0.01
  0
VERTEX
  5
19E
100
AcDbEntity
 67
     1
  8
2D_LINE_24
 62
     7
 48
0.001
100
AcDbVertex
100
AcDb2dVertex
 10
3.999799
 20
4.450346
 30
0.0
  0
VERTEX
  5
19F
100
AcDbEntity
 67
     1
  8
2D_LINE_24
 62
     7
 48
0.001
100
AcDbVertex
100
AcDb2dVertex
 10
3.999799
 20
4.175346
 30
0.0
  0
SEQEND
  5
1A0
100
AcDbEntity
 67
     1
  8
2D_LINE_24
 62
     7
 48
0.001
  0
POLYLINE
  5
1A1
100
AcDbEntity
 67
     1
  8
2D_LINE_24
 62
     7
 48
0.001
100
AcDb2dPolyline
 66
     1
 10
0.0
 20
0.0
 30
0.0
 40
0.001
 41
0.001
  0
VERTEX
  5
1A2
100
AcDbEntity
 67
     1
  8
2D_LINE_24
 62
     7
 48
0.001
100
AcDbVertex
100
AcDb2dVertex
 10
5.999799
 20
4.500346
 30
0.0
  0
VERTEX
  5
1A3
100
AcDbEntity
 67
     1
  8
2D_LINE_24
 62
     7
 48
0.001
100
AcDbVertex
100
AcDb2dVertex
 10
5.999825
 20
4.500346
 30
0.0
  0
SEQEND
  5
1A4
100
AcDbEntity
 67
     1
  8
2D_LINE_24
 62
     7
 48
0.001
  0
POLYLINE
  5
1A5
100
AcDbEntity
 67
     1
  8
2D_LINE_24
 62
     7
 48
0.001
100
AcDb2dPolyline
 66
     1
 10
0.0
 20
0.0
 30
0.0
 40
0.001
 41
0.001
  0
VERTEX
  5
1A6
100
AcDbEntity
 67
     1
  8
2D_LINE_24
 62
     7
 48
0.001
100
AcDbVertex
100
AcDb2dVertex
 10
3.999799
 20
4.500346
 30
0.0
  0
VERTEX
  5
1A7
100
AcDbEntity
 67
     1
  8
2D_LINE_24
 62
     7
 48
0.001
100
AcDbVertex
100
AcDb2dVertex
 10
3.999829
 20
4.500346
 30
0.0
  0
SEQEND
  5
1A8
100
AcDbEntity
 67
     1
  8
2D_LINE_24
 62
     7
 48
0.001
  0
POLYLINE
  5
1A9
100
AcDbEntity
 67
     1
  8
2D_LINE_24
 62
     7
 48
0.001
100
AcDb2dPolyline
 66
     1
 10
0.0
 20
0.0
 30
0.0
 40
0.01
 41
0.01
  0
VERTEX
  5
1AA
100
AcDbEntity
 67
     1
  8
2D_LINE_24
 62
     7
 48
0.001
100
AcDbVertex
100
AcDb2dVertex
 10
5.999799
 20
4.063659
 30
0.0
  0
VERTEX
  5
1AB
100
AcDbEntity
 67
     1
  8
2D_LINE_24
 62
     7
 48
0.001
100
AcDbVertex
100
AcDb2dVertex
 10
5.193934
 20
4.063659
 30
0.0
  0
SEQEND
  5
1AC
100
AcDbEntity
 67
     1
  8
2D_LINE_24
 62
     7
 48
0.001
  0
POLYLINE
  5
1AD
100
AcDbEntity
 67
     1
  8
2D_LINE_24
 62
     7
 48
0.001
100
AcDb2dPolyline
 66
     1
 10
0.0
 20
0.0
 30
0.0
 70
     1
 40
0.01
 41
0.01
  0
VERTEX
  5
1AE
100
AcDbEntity
 67
     1
  8
2D_LINE_24
 62
     7
 48
0.001
100
AcDbVertex
100
AcDb2dVertex
 10
5.982542
 20
4.064833
 30
0.0
  0
VERTEX
  5
1AF
100
AcDbEntity
 67
     1
  8
2D_LINE_24
 62
     7
 48
0.001
100
AcDbVertex
100
AcDb2dVertex
 10
5.882542
 20
4.039833
 30
0.0
  0
VERTEX
  5
1B0
100
AcDbEntity
 67
     1
  8
2D_LINE_24
 62
     7
 48
0.001
100
AcDbVertex
100
AcDb2dVertex
 10
5.882542
 20
4.089833
 30
0.0
  0
SEQEND
  5
1B1
100
AcDbEntity
 67
     1
  8
2D_LINE_24
 62
     7
 48
0.001
  0
POLYLINE
  5
1B2
100
AcDbEntity
 67
     1
  8
2D_LINE_24
 62
     7
 48
0.001
100
AcDb2dPolyline
 66
     1
 10
0.0
 20
0.0
 30
0.0
 40
0.01
 41
0.01
  0
VERTEX
  5
1B3
100
AcDbEntity
 67
     1
  8
2D_LINE_24
 62
     7
 48
0.001
100
AcDbVertex
100
AcDb2dVertex
 10
3.999799
 20
4.065346
 30
0.0
  0
VERTEX
  5
1B4
100
AcDbEntity
 67
     1
  8
2D_LINE_24
 62
     7
 48
0.001
100
AcDbVertex
100
AcDb2dVertex
 10
4.537979
 20
4.065346
 30
0.0
  0
SEQEND
  5
1B5
100
AcDbEntity
 67
     1
  8
2D_LINE_24
 62
     7
 48
0.001
  0
POLYLINE
  5
1B6
100
AcDbEntity
 67
     1
  8
2D_LINE_24
 62
     7
 48
0.001
100
AcDb2dPolyline
 66
     1
 10
0.0
 20
0.0
 30
0.0
 40
0.01
 41
0.01
  0
VERTEX
  5
1B7
100
AcDbEntity
 67
     1
  8
2D_LINE_24
 62
     7
 48
0.001
100
AcDbVertex
100
AcDb2dVertex
 10
5.999799
 20
4.450346
 30
0.0
  0
VERTEX
  5
1B8
100
AcDbEntity
 67
     1
  8
2D_LINE_24
 62
     7
 48
0.001
100
AcDbVertex
100
AcDb2dVertex
 10
5.999799
 20
4.015346
 30
0.0
  0
SEQEND
  5
1B9
100
AcDbEntity
 67
     1
  8
2D_LINE_24
 62
     7
 48
0.001
  0
POLYLINE
  5
1BA
100
AcDbEntity
 67
     1
  8
2D_LINE_24
 62
     7
 48
0.001
100
AcDb2dPolyline
 66
     1
 10
0.0
 20
0.0
 30
0.0
 40
0.01
 41
0.01
  0
VERTEX
  5
1BB
100
AcDbEntity
 67
     1
  8
2D_LINE_24
 62
     7
 48
0.001
100
AcDbVertex
100
AcDb2dVertex
 10
3.999799
 20
4.450346
 30
0.0
  0
VERTEX
  5
1BC
100
AcDbEntity
 67
     1
  8
2D_LINE_24
 62
     7
 48
0.001
100
AcDbVertex
100
AcDb2dVertex
 10
3.999799
 20
4.015346
 30
0.0
  0
SEQEND
  5
1BD
100
AcDbEntity
 67
     1
  8
2D_LINE_24
 62
     7
 48
0.001
  0
POLYLINE
  5
1BE
100
AcDbEntity
 67
     1
  8
2D_LINE_24
 62
     7
 48
0.001
100
AcDb2dPolyline
 66
     1
 10
0.0
 20
0.0
 30
0.0
 40
0.001
 41
0.001
  0
VERTEX
  5
1BF
100
AcDbEntity
 67
     1
  8
2D_LINE_24
 62
     7
 48
0.001
100
AcDbVertex
100
AcDb2dVertex
 10
4.124799
 20
4.625346
 30
0.0
  0
VERTEX
  5
1C0
100
AcDbEntity
 67
     1
  8
2D_LINE_24
 62
     7
 48
0.001
100
AcDbVertex
100
AcDb2dVertex
 10
4.124829
 20
4.625346
 30
0.0
  0
SEQEND
  5
1C1
100
AcDbEntity
 67
     1
  8
2D_LINE_24
 62
     7
 48
0.001
  0
POLYLINE
  5
1C2
100
AcDbEntity
 67
     1
  8
2D_LINE_24
 62
     7
 48
0.001
100
AcDb2dPolyline
 66
     1
 10
0.0
 20
0.0
 30
0.0
 40
0.001
 41
0.001
  0
VERTEX
  5
1C3
100
AcDbEntity
 67
     1
  8
2D_LINE_24
 62
     7
 48
0.001
100
AcDbVertex
100
AcDb2dVertex
 10
5.874799
 20
4.625346
 30
0.0
  0
VERTEX
  5
1C4
100
AcDbEntity
 67
     1
  8
2D_LINE_24
 62
     7
 48
0.001
100
AcDbVertex
100
AcDb2dVertex
 10
5.874829
 20
4.625346
 30
0.0
  0
SEQEND
  5
1C5
100
AcDbEntity
 67
     1
  8
2D_LINE_24
 62
     7
 48
0.001
  0
POLYLINE
  5
1C6
100
AcDbEntity
 67
     1
  8
2D_LINE_24
 62
     7
 48
0.001
100
AcDb2dPolyline
 66
     1
 10
0.0
 20
0.0
 30
0.0
 40
0.01
 41
0.01
  0
VERTEX
  5
1C7
100
AcDbEntity
 67
     1
  8
2D_LINE_24
 62
     7
 48
0.001
100
AcDbVertex
100
AcDb2dVertex
 10
4.124799
 20
4.355346
 30
0.0
  0
VERTEX
  5
1C8
100
AcDbEntity
 67
     1
  8
2D_LINE_24
 62
     7
 48
0.001
100
AcDbVertex
100
AcDb2dVertex
 10
4.744799
 20
4.355346
 30
0.0
  0
SEQEND
  5
1C9
100
AcDbEntity
 67
     1
  8
2D_LINE_24
 62
     7
 48
0.001
  0
POLYLINE
  5
1CA
100
AcDbEntity
 67
     1
  8
2D_LINE_24
 62
     7
 48
0.001
100
AcDb2dPolyline
 66
     1
 10
0.0
 20
0.0
 30
0.0
 40
0.01
 41
0.01
  0
VERTEX
  5
1CB
100
AcDbEntity
 67
     1
  8
2D_LINE_24
 62
     7
 48
0.001
100
AcDbVertex
100
AcDb2dVertex
 10
5.874799
 20
4.351109
 30
0.0
  0
VERTEX
  5
1CC
100
AcDbEntity
 67
     1
  8
2D_LINE_24
 62
     7
 48
0.001
100
AcDbVertex
100
AcDb2dVertex
 10
5.338427
 20
4.351109
 30
0.0
  0
SEQEND
  5
1CD
100
AcDbEntity
 67
     1
  8
2D_LINE_24
 62
     7
 48
0.001
  0
POLYLINE
  5
1CE
100
AcDbEntity
 67
     1
  8
2D_LINE_24
 62
     7
 48
0.001
100
AcDb2dPolyline
 66
     1
 10
0.0
 20
0.0
 30
0.0
 40
0.01
 41
0.01
  0
VERTEX
  5
1CF
100
AcDbEntity
 67
     1
  8
2D_LINE_24
 62
     7
 48
0.001
100
AcDbVertex
100
AcDb2dVertex
 10
4.124799
 20
4.575346
 30
0.0
  0
VERTEX
  5
1D0
100
AcDbEntity
 67
     1
  8
2D_LINE_24
 62
     7
 48
0.001
100
AcDbVertex
100
AcDb2dVertex
 10
4.124799
 20
4.305346
 30
0.0
  0
SEQEND
  5
1D1
100
AcDbEntity
 67
     1
  8
2D_LINE_24
 62
     7
 48
0.001
  0
POLYLINE
  5
1D2
100
AcDbEntity
 67
     1
  8
2D_LINE_24
 62
     7
 48
0.001
100
AcDb2dPolyline
 66
     1
 10
0.0
 20
0.0
 30
0.0
 40
0.01
 41
0.01
  0
VERTEX
  5
1D3
100
AcDbEntity
 67
     1
  8
2D_LINE_24
 62
     7
 48
0.001
100
AcDbVertex
100
AcDb2dVertex
 10
5.874799
 20
4.575346
 30
0.0
  0
VERTEX
  5
1D4
100
AcDbEntity
 67
     1
  8
2D_LINE_24
 62
     7
 48
0.001
100
AcDbVertex
100
AcDb2dVertex
 10
5.874799
 20
4.305346
 30
0.0
  0
SEQEND
  5
1D5
100
AcDbEntity
 67
     1
  8
2D_LINE_24
 62
     7
 48
0.001
  0
TEXT
  5
1D6
100
AcDbEntity
 67
     1
  8
TEXT_24
 62
     7
 48
0.001
100
AcDbText
 10
4.774799
 20
4.310346
 30
0.0
 40
0.088735
  1
1750 mils
100
AcDbText
1001
TCAD
1000
TCW40_TEXT
1002
{
1000
Arial
1070
     0
1070
  1025
1002
}
  0
POLYLINE
  5
1D7
100
AcDbEntity
 67
     1
  8
2D_LINE_24
 62
     7
 48
0.001
100
AcDb2dPolyline
 66
     1
 10
0.0
 20
0.0
 30
0.0
 40
0.001
 41
0.001
  0
VERTEX
  5
1D8
100
AcDbEntity
 67
     1
  8
2D_LINE_24
 62
     7
 48
0.001
100
AcDbVertex
100
AcDb2dVertex
 10
4.124799
 20
4.625346
 30
0.0
  0
VERTEX
  5
1D9
100
AcDbEntity
 67
     1
  8
2D_LINE_24
 62
     7
 48
0.001
100
AcDbVertex
100
AcDb2dVertex
 10
4.124829
 20
4.625346
 30
0.0
  0
SEQEND
  5
1DA
100
AcDbEntity
 67
     1
  8
2D_LINE_24
 62
     7
 48
0.001
  0
POLYLINE
  5
1DB
100
AcDbEntity
 67
     1
  8
2D_LINE_24
 62
     7
 48
0.001
100
AcDb2dPolyline
 66
     1
 10
0.0
 20
0.0
 30
0.0
 40
0.001
 41
0.001
  0
VERTEX
  5
1DC
100
AcDbEntity
 67
     1
  8
2D_LINE_24
 62
     7
 48
0.001
100
AcDbVertex
100
AcDb2dVertex
 10
4.124799
 20
5.875346
 30
0.0
  0
VERTEX
  5
1DD
100
AcDbEntity
 67
     1
  8
2D_LINE_24
 62
     7
 48
0.001
100
AcDbVertex
100
AcDb2dVertex
 10
4.124829
 20
5.875346
 30
0.0
  0
SEQEND
  5
1DE
100
AcDbEntity
 67
     1
  8
2D_LINE_24
 62
     7
 48
0.001
  0
POLYLINE
  5
1DF
100
AcDbEntity
 67
     1
  8
2D_LINE_24
 62
     7
 48
0.001
100
AcDb2dPolyline
 66
     1
 10
0.0
 20
0.0
 30
0.0
 40
0.01
 41
0.01
  0
VERTEX
  5
1E0
100
AcDbEntity
 67
     1
  8
2D_LINE_24
 62
     7
 48
0.001
100
AcDbVertex
100
AcDb2dVertex
 10
4.074799
 20
4.625346
 30
0.0
  0
VERTEX
  5
1E1
100
AcDbEntity
 67
     1
  8
2D_LINE_24
 62
     7
 48
0.001
100
AcDbVertex
100
AcDb2dVertex
 10
3.519799
 20
4.625346
 30
0.0
  0
SEQEND
  5
1E2
100
AcDbEntity
 67
     1
  8
2D_LINE_24
 62
     7
 48
0.001
  0
POLYLINE
  5
1E3
100
AcDbEntity
 67
     1
  8
2D_LINE_24
 62
     7
 48
0.001
100
AcDb2dPolyline
 66
     1
 10
0.0
 20
0.0
 30
0.0
 40
0.01
 41
0.01
  0
VERTEX
  5
1E4
100
AcDbEntity
 67
     1
  8
2D_LINE_24
 62
     7
 48
0.001
100
AcDbVertex
100
AcDb2dVertex
 10
4.074799
 20
5.868342
 30
0.0
  0
VERTEX
  5
1E5
100
AcDbEntity
 67
     1
  8
2D_LINE_24
 62
     7
 48
0.001
100
AcDbVertex
100
AcDb2dVertex
 10
3.007668
 20
5.868342
 30
0.0
  0
SEQEND
  5
1E6
100
AcDbEntity
 67
     1
  8
2D_LINE_24
 62
     7
 48
0.001
  0
POLYLINE
  5
1E7
100
AcDbEntity
 67
     1
  8
2D_LINE_24
 62
     7
 48
0.001
100
AcDb2dPolyline
 66
     1
 10
0.0
 20
0.0
 30
0.0
 40
0.01
 41
0.01
  0
VERTEX
  5
1E8
100
AcDbEntity
 67
     1
  8
2D_LINE_24
 62
     7
 48
0.001
100
AcDbVertex
100
AcDb2dVertex
 10
4.037004
 20
5.972314
 30
0.0
  0
VERTEX
  5
1E9
100
AcDbEntity
 67
     1
  8
2D_LINE_24
 62
     7
 48
0.001
100
AcDbVertex
100
AcDb2dVertex
 10
3.709935
 20
6.290235
 30
0.0
  0
SEQEND
  5
1EA
100
AcDbEntity
 67
     1
  8
2D_LINE_24
 62
     7
 48
0.001
  0
POLYLINE
  5
1EB
100
AcDbEntity
 67
     1
  8
2D_LINE_24
 62
     7
 48
0.001
100
AcDb2dPolyline
 66
     1
 10
0.0
 20
0.0
 30
0.0
 40
0.01
 41
0.01
  0
VERTEX
  5
1EC
100
AcDbEntity
 67
     1
  8
2D_LINE_24
 62
     7
 48
0.001
100
AcDbVertex
100
AcDb2dVertex
 10
3.710599
 20
6.289546
 30
0.0
  0
VERTEX
  5
1ED
100
AcDbEntity
 67
     1
  8
2D_LINE_24
 62
     7
 48
0.001
100
AcDbVertex
100
AcDb2dVertex
 10
3.610599
 20
6.289546
 30
0.0
  0
SEQEND
  5
1EE
100
AcDbEntity
 67
     1
  8
2D_LINE_24
 62
     7
 48
0.001
  0
POLYLINE
  5
1EF
100
AcDbEntity
 67
     1
  8
2D_LINE_24
 62
     7
 48
0.001
100
AcDb2dPolyline
 66
     1
 10
0.0
 20
0.0
 30
0.0
 40
0.001
 41
0.001
  0
VERTEX
  5
1F0
100
AcDbEntity
 67
     1
  8
2D_LINE_24
 62
     7
 48
0.001
100
AcDbVertex
100
AcDb2dVertex
 10
5.999799
 20
4.500346
 30
0.0
  0
VERTEX
  5
1F1
100
AcDbEntity
 67
     1
  8
2D_LINE_24
 62
     7
 48
0.001
100
AcDbVertex
100
AcDb2dVertex
 10
5.999825
 20
4.500346
 30
0.0
  0
SEQEND
  5
1F2
100
AcDbEntity
 67
     1
  8
2D_LINE_24
 62
     7
 48
0.001
  0
POLYLINE
  5
1F3
100
AcDbEntity
 67
     1
  8
2D_LINE_24
 62
     7
 48
0.001
100
AcDb2dPolyline
 66
     1
 10
0.0
 20
0.0
 30
0.0
 40
0.001
 41
0.001
  0
VERTEX
  5
1F4
100
AcDbEntity
 67
     1
  8
2D_LINE_24
 62
     7
 48
0.001
100
AcDbVertex
100
AcDb2dVertex
 10
5.512358
 20
4.789716
 30
0.0
  0
VERTEX
  5
1F5
100
AcDbEntity
 67
     1
  8
2D_LINE_24
 62
     7
 48
0.001
100
AcDbVertex
100
AcDb2dVertex
 10
5.512384
 20
4.789716
 30
0.0
  0
SEQEND
  5
1F6
100
AcDbEntity
 67
     1
  8
2D_LINE_24
 62
     7
 48
0.001
  0
POLYLINE
  5
1F7
100
AcDbEntity
 67
     1
  8
2D_LINE_24
 62
     7
 48
0.001
100
AcDb2dPolyline
 66
     1
 10
0.0
 20
0.0
 30
0.0
 40
0.01
 41
0.01
  0
VERTEX
  5
1F8
100
AcDbEntity
 67
     1
  8
2D_LINE_24
 62
     7
 48
0.001
100
AcDbVertex
100
AcDb2dVertex
 10
6.924799
 20
4.500346
 30
0.0
  0
VERTEX
  5
1F9
100
AcDbEntity
 67
     1
  8
2D_LINE_24
 62
     7
 48
0.001
100
AcDbVertex
100
AcDb2dVertex
 10
6.924799
 20
4.350346
 30
0.0
  0
SEQEND
  5
1FA
100
AcDbEntity
 67
     1
  8
2D_LINE_24
 62
     7
 48
0.001
  0
POLYLINE
  5
1FB
100
AcDbEntity
 67
     1
  8
2D_LINE_24
 62
     7
 48
0.001
100
AcDb2dPolyline
 66
     1
 10
0.0
 20
0.0
 30
0.0
 70
     1
 40
0.01
 41
0.01
  0
VERTEX
  5
1FC
100
AcDbEntity
 67
     1
  8
2D_LINE_24
 62
     7
 48
0.001
100
AcDbVertex
100
AcDb2dVertex
 10
6.924664
 20
4.483319
 30
0.0
  0
VERTEX
  5
1FD
100
AcDbEntity
 67
     1
  8
2D_LINE_24
 62
     7
 48
0.001
100
AcDbVertex
100
AcDb2dVertex
 10
6.949664
 20
4.383319
 30
0.0
  0
VERTEX
  5
1FE
100
AcDbEntity
 67
     1
  8
2D_LINE_24
 62
     7
 48
0.001
100
AcDbVertex
100
AcDb2dVertex
 10
6.899664
 20
4.383319
 30
0.0
  0
SEQEND
  5
1FF
100
AcDbEntity
 67
     1
  8
2D_LINE_24
 62
     7
 48
0.001
  0
POLYLINE
  5
200
100
AcDbEntity
 67
     1
  8
2D_LINE_24
 62
     7
 48
0.001
100
AcDb2dPolyline
 66
     1
 10
0.0
 20
0.0
 30
0.0
 40
0.01
 41
0.01
  0
VERTEX
  5
201
100
AcDbEntity
 67
     1
  8
2D_LINE_24
 62
     7
 48
0.001
100
AcDbVertex
100
AcDb2dVertex
 10
6.924799
 20
4.789716
 30
0.0
  0
VERTEX
  5
202
100
AcDbEntity
 67
     1
  8
2D_LINE_24
 62
     7
 48
0.001
100
AcDbVertex
100
AcDb2dVertex
 10
6.924799
 20
4.939716
 30
0.0
  0
SEQEND
  5
203
100
AcDbEntity
 67
     1
  8
2D_LINE_24
 62
     7
 48
0.001
  0
POLYLINE
  5
204
100
AcDbEntity
 67
     1
  8
2D_LINE_24
 62
     7
 48
0.001
100
AcDb2dPolyline
 66
     1
 10
0.0
 20
0.0
 30
0.0
 70
     1
 40
0.01
 41
0.01
  0
VERTEX
  5
205
100
AcDbEntity
 67
     1
  8
2D_LINE_24
 62
     7
 48
0.001
100
AcDbVertex
100
AcDb2dVertex
 10
6.924664
 20
4.805441
 30
0.0
  0
VERTEX
  5
206
100
AcDbEntity
 67
     1
  8
2D_LINE_24
 62
     7
 48
0.001
100
AcDbVertex
100
AcDb2dVertex
 10
6.899664
 20
4.905441
 30
0.0
  0
VERTEX
  5
207
100
AcDbEntity
 67
     1
  8
2D_LINE_24
 62
     7
 48
0.001
100
AcDbVertex
100
AcDb2dVertex
 10
6.949664
 20
4.905441
 30
0.0
  0
SEQEND
  5
208
100
AcDbEntity
 67
     1
  8
2D_LINE_24
 62
     7
 48
0.001
  0
POLYLINE
  5
209
100
AcDbEntity
 67
     1
  8
2D_LINE_24
 62
     7
 48
0.001
100
AcDb2dPolyline
 66
     1
 10
0.0
 20
0.0
 30
0.0
 40
0.01
 41
0.01
  0
VERTEX
  5
20A
100
AcDbEntity
 67
     1
  8
2D_LINE_24
 62
     7
 48
0.001
100
AcDbVertex
100
AcDb2dVertex
 10
6.049799
 20
4.500346
 30
0.0
  0
VERTEX
  5
20B
100
AcDbEntity
 67
     1
  8
2D_LINE_24
 62
     7
 48
0.001
100
AcDbVertex
100
AcDb2dVertex
 10
6.974799
 20
4.500346
 30
0.0
  0
SEQEND
  5
20C
100
AcDbEntity
 67
     1
  8
2D_LINE_24
 62
     7
 48
0.001
  0
POLYLINE
  5
20D
100
AcDbEntity
 67
     1
  8
2D_LINE_24
 62
     7
 48
0.001
100
AcDb2dPolyline
 66
     1
 10
0.0
 20
0.0
 30
0.0
 40
0.01
 41
0.01
  0
VERTEX
  5
20E
100
AcDbEntity
 67
     1
  8
2D_LINE_24
 62
     7
 48
0.001
100
AcDbVertex
100
AcDb2dVertex
 10
5.562358
 20
4.789716
 30
0.0
  0
VERTEX
  5
20F
100
AcDbEntity
 67
     1
  8
2D_LINE_24
 62
     7
 48
0.001
100
AcDbVertex
100
AcDb2dVertex
 10
6.974799
 20
4.789716
 30
0.0
  0
SEQEND
  5
210
100
AcDbEntity
 67
     1
  8
2D_LINE_24
 62
     7
 48
0.001
  0
TEXT
  5
211
100
AcDbEntity
 67
     1
  8
TEXT_24
 62
     7
 48
0.001
100
AcDbText
 10
6.724799
 20
4.600346
 30
0.0
 40
0.088735
  1
289 mils
100
AcDbText
1001
TCAD
1000
TCW40_TEXT
1002
{
1000
Arial
1070
     0
1070
  1025
1002
}
  0
POLYLINE
  5
212
100
AcDbEntity
 67
     1
  8
2D_LINE_24
 62
     7
 48
0.001
100
AcDb2dPolyline
 66
     1
 10
0.0
 20
0.0
 30
0.0
 40
0.001
 41
0.001
  0
VERTEX
  5
213
100
AcDbEntity
 67
     1
  8
2D_LINE_24
 62
     7
 48
0.001
100
AcDbVertex
100
AcDb2dVertex
 10
5.999799
 20
6.000346
 30
0.0
  0
VERTEX
  5
214
100
AcDbEntity
 67
     1
  8
2D_LINE_24
 62
     7
 48
0.001
100
AcDbVertex
100
AcDb2dVertex
 10
5.999825
 20
6.000346
 30
0.0
  0
SEQEND
  5
215
100
AcDbEntity
 67
     1
  8
2D_LINE_24
 62
     7
 48
0.001
  0
POLYLINE
  5
216
100
AcDbEntity
 67
     1
  8
2D_LINE_24
 62
     7
 48
0.001
100
AcDb2dPolyline
 66
     1
 10
0.0
 20
0.0
 30
0.0
 40
0.001
 41
0.001
  0
VERTEX
  5
217
100
AcDbEntity
 67
     1
  8
2D_LINE_24
 62
     7
 48
0.001
100
AcDbVertex
100
AcDb2dVertex
 10
5.512358
 20
4.789716
 30
0.0
  0
VERTEX
  5
218
100
AcDbEntity
 67
     1
  8
2D_LINE_24
 62
     7
 48
0.001
100
AcDbVertex
100
AcDb2dVertex
 10
5.512384
 20
4.789716
 30
0.0
  0
SEQEND
  5
219
100
AcDbEntity
 67
     1
  8
2D_LINE_24
 62
     7
 48
0.001
  0
POLYLINE
  5
21A
100
AcDbEntity
 67
     1
  8
2D_LINE_24
 62
     7
 48
0.001
100
AcDb2dPolyline
 66
     1
 10
0.0
 20
0.0
 30
0.0
 40
0.01
 41
0.01
  0
VERTEX
  5
21B
100
AcDbEntity
 67
     1
  8
2D_LINE_24
 62
     7
 48
0.001
100
AcDbVertex
100
AcDb2dVertex
 10
5.999799
 20
6.220346
 30
0.0
  0
VERTEX
  5
21C
100
AcDbEntity
 67
     1
  8
2D_LINE_24
 62
     7
 48
0.001
100
AcDbVertex
100
AcDb2dVertex
 10
5.512358
 20
6.220346
 30
0.0
  0
SEQEND
  5
21D
100
AcDbEntity
 67
     1
  8
2D_LINE_24
 62
     7
 48
0.001
  0
POLYLINE
  5
21E
100
AcDbEntity
 67
     1
  8
2D_LINE_24
 62
     7
 48
0.001
100
AcDb2dPolyline
 66
     1
 10
0.0
 20
0.0
 30
0.0
 70
     1
 40
0.01
 41
0.01
  0
VERTEX
  5
21F
100
AcDbEntity
 67
     1
  8
2D_LINE_24
 62
     7
 48
0.001
100
AcDbVertex
100
AcDb2dVertex
 10
5.984237
 20
6.218882
 30
0.0
  0
VERTEX
  5
220
100
AcDbEntity
 67
     1
  8
2D_LINE_24
 62
     7
 48
0.001
100
AcDbVertex
100
AcDb2dVertex
 10
5.884237
 20
6.193882
 30
0.0
  0
VERTEX
  5
221
100
AcDbEntity
 67
     1
  8
2D_LINE_24
 62
     7
 48
0.001
100
AcDbVertex
100
AcDb2dVertex
 10
5.884237
 20
6.243882
 30
0.0
  0
SEQEND
  5
222
100
AcDbEntity
 67
     1
  8
2D_LINE_24
 62
     7
 48
0.001
  0
POLYLINE
  5
223
100
AcDbEntity
 67
     1
  8
2D_LINE_24
 62
     7
 48
0.001
100
AcDb2dPolyline
 66
     1
 10
0.0
 20
0.0
 30
0.0
 70
     1
 40
0.01
 41
0.01
  0
VERTEX
  5
224
100
AcDbEntity
 67
     1
  8
2D_LINE_24
 62
     7
 48
0.001
100
AcDbVertex
100
AcDb2dVertex
 10
5.529053
 20
6.221629
 30
0.0
  0
VERTEX
  5
225
100
AcDbEntity
 67
     1
  8
2D_LINE_24
 62
     7
 48
0.001
100
AcDbVertex
100
AcDb2dVertex
 10
5.629053
 20
6.246629
 30
0.0
  0
VERTEX
  5
226
100
AcDbEntity
 67
     1
  8
2D_LINE_24
 62
     7
 48
0.001
100
AcDbVertex
100
AcDb2dVertex
 10
5.629053
 20
6.196629
 30
0.0
  0
SEQEND
  5
227
100
AcDbEntity
 67
     1
  8
2D_LINE_24
 62
     7
 48
0.001
  0
POLYLINE
  5
228
100
AcDbEntity
 67
     1
  8
2D_LINE_24
 62
     7
 48
0.001
100
AcDb2dPolyline
 66
     1
 10
0.0
 20
0.0
 30
0.0
 40
0.01
 41
0.01
  0
VERTEX
  5
229
100
AcDbEntity
 67
     1
  8
2D_LINE_24
 62
     7
 48
0.001
100
AcDbVertex
100
AcDb2dVertex
 10
5.999799
 20
6.050346
 30
0.0
  0
VERTEX
  5
22A
100
AcDbEntity
 67
     1
  8
2D_LINE_24
 62
     7
 48
0.001
100
AcDbVertex
100
AcDb2dVertex
 10
5.999799
 20
6.270346
 30
0.0
  0
SEQEND
  5
22B
100
AcDbEntity
 67
     1
  8
2D_LINE_24
 62
     7
 48
0.001
  0
POLYLINE
  5
22C
100
AcDbEntity
 67
     1
  8
2D_LINE_24
 62
     7
 48
0.001
100
AcDb2dPolyline
 66
     1
 10
0.0
 20
0.0
 30
0.0
 40
0.01
 41
0.01
  0
VERTEX
  5
22D
100
AcDbEntity
 67
     1
  8
2D_LINE_24
 62
     7
 48
0.001
100
AcDbVertex
100
AcDb2dVertex
 10
5.512358
 20
4.839716
 30
0.0
  0
VERTEX
  5
22E
100
AcDbEntity
 67
     1
  8
2D_LINE_24
 62
     7
 48
0.001
100
AcDbVertex
100
AcDb2dVertex
 10
5.512358
 20
6.270346
 30
0.0
  0
SEQEND
  5
22F
100
AcDbEntity
 67
     1
  8
2D_LINE_24
 62
     7
 48
0.001
  0
POLYLINE
  5
230
100
AcDbEntity
 67
     1
  8
2D_LINE_24
 62
     7
 48
0.001
100
AcDb2dPolyline
 66
     1
 10
0.0
 20
0.0
 30
0.0
 40
0.01
 41
0.01
  0
VERTEX
  5
231
100
AcDbEntity
 67
     1
  8
2D_LINE_24
 62
     7
 48
0.001
100
AcDbVertex
100
AcDb2dVertex
 10
5.51038
 20
4.814916
 30
0.0
  0
VERTEX
  5
232
100
AcDbEntity
 67
     1
  8
2D_LINE_24
 62
     7
 48
0.001
100
AcDbVertex
100
AcDb2dVertex
 10
6.087198
 20
4.183965
 30
0.0
  0
SEQEND
  5
233
100
AcDbEntity
 67
     1
  8
2D_LINE_24
 62
     7
 48
0.001
  0
POLYLINE
  5
234
100
AcDbEntity
 67
     1
  8
2D_LINE_24
 62
     7
 48
0.001
100
AcDb2dPolyline
 66
     1
 10
0.0
 20
0.0
 30
0.0
 70
     1
 40
0.01
 41
0.01
  0
VERTEX
  5
235
100
AcDbEntity
 67
     1
  8
2D_LINE_24
 62
     7
 48
0.001
100
AcDbVertex
100
AcDb2dVertex
 10
5.512358
 20
4.813338
 30
0.0
  0
VERTEX
  5
236
100
AcDbEntity
 67
     1
  8
2D_LINE_24
 62
     7
 48
0.001
100
AcDbVertex
100
AcDb2dVertex
 10
5.600747
 20
4.760305
 30
0.0
  0
VERTEX
  5
237
100
AcDbEntity
 67
     1
  8
2D_LINE_24
 62
     7
 48
0.001
100
AcDbVertex
100
AcDb2dVertex
 10
5.565391
 20
4.72495
 30
0.0
  0
SEQEND
  5
238
100
AcDbEntity
 67
     1
  8
2D_LINE_24
 62
     7
 48
0.001
  0
POLYLINE
  5
239
100
AcDbEntity
 67
     1
  8
2D_LINE_24
 62
     7
 48
0.001
100
AcDb2dPolyline
 66
     1
 10
0.0
 20
0.0
 30
0.0
 40
0.01
 41
0.01
  0
VERTEX
  5
23A
100
AcDbEntity
 67
     1
  8
2D_LINE_24
 62
     7
 48
0.001
100
AcDbVertex
100
AcDb2dVertex
 10
6.087005
 20
4.181995
 30
0.0
  0
VERTEX
  5
23B
100
AcDbEntity
 67
     1
  8
2D_LINE_24
 62
     7
 48
0.001
100
AcDbVertex
100
AcDb2dVertex
 10
6.187005
 20
4.181995
 30
0.0
  0
SEQEND
  5
23C
100
AcDbEntity
 67
     1
  8
2D_LINE_24
 62
     7
 48
0.001
  0
TEXT
  5
23D
100
AcDbEntity
 67
     1
  8
TEXT_24
 62
     7
 48
0.001
100
AcDbText
 10
6.239225
 20
4.154225
 30
0.0
 40
0.088735
  1
PAD 1
100
AcDbText
1001
TCAD
1000
TCW40_TEXT
1002
{
1000
Arial
1070
     0
1070
  1025
1002
}
  0
POLYLINE
  5
23E
100
AcDbEntity
 67
     1
  8
2D_LINE_24
 62
     7
 48
0.001
100
AcDb2dPolyline
 66
     1
 10
0.0
 20
0.0
 30
0.0
 40
0.001
 41
0.001
  0
VERTEX
  5
23F
100
AcDbEntity
 67
     1
  8
2D_LINE_24
 62
     7
 48
0.001
100
AcDbVertex
100
AcDb2dVertex
 10
5.609799
 20
5.250346
 30
0.0
  0
VERTEX
  5
240
100
AcDbEntity
 67
     1
  8
2D_LINE_24
 62
     7
 48
0.001
100
AcDbVertex
100
AcDb2dVertex
 10
5.609826
 20
5.250346
 30
0.0
  0
SEQEND
  5
241
100
AcDbEntity
 67
     1
  8
2D_LINE_24
 62
     7
 48
0.001
  0
POLYLINE
  5
242
100
AcDbEntity
 67
     1
  8
2D_LINE_24
 62
     7
 48
0.001
100
AcDb2dPolyline
 66
     1
 10
0.0
 20
0.0
 30
0.0
 40
0.001
 41
0.001
  0
VERTEX
  5
243
100
AcDbEntity
 67
     1
  8
2D_LINE_24
 62
     7
 48
0.001
100
AcDbVertex
100
AcDb2dVertex
 10
5.999799
 20
6.000346
 30
0.0
  0
VERTEX
  5
244
100
AcDbEntity
 67
     1
  8
2D_LINE_24
 62
     7
 48
0.001
100
AcDbVertex
100
AcDb2dVertex
 10
5.999825
 20
6.000346
 30
0.0
  0
SEQEND
  5
245
100
AcDbEntity
 67
     1
  8
2D_LINE_24
 62
     7
 48
0.001
  0
POLYLINE
  5
246
100
AcDbEntity
 67
     1
  8
2D_LINE_24
 62
     7
 48
0.001
100
AcDb2dPolyline
 66
     1
 10
0.0
 20
0.0
 30
0.0
 40
0.01
 41
0.01
  0
VERTEX
  5
247
100
AcDbEntity
 67
     1
  8
2D_LINE_24
 62
     7
 48
0.001
100
AcDbVertex
100
AcDb2dVertex
 10
6.489799
 20
5.250346
 30
0.0
  0
VERTEX
  5
248
100
AcDbEntity
 67
     1
  8
2D_LINE_24
 62
     7
 48
0.001
100
AcDbVertex
100
AcDb2dVertex
 10
6.489799
 20
5.545346
 30
0.0
  0
SEQEND
  5
249
100
AcDbEntity
 67
     1
  8
2D_LINE_24
 62
     7
 48
0.001
  0
POLYLINE
  5
24A
100
AcDbEntity
 67
     1
  8
2D_LINE_24
 62
     7
 48
0.001
100
AcDb2dPolyline
 66
     1
 10
0.0
 20
0.0
 30
0.0
 70
     1
 40
0.01
 41
0.01
  0
VERTEX
  5
24B
100
AcDbEntity
 67
     1
  8
2D_LINE_24
 62
     7
 48
0.001
100
AcDbVertex
100
AcDb2dVertex
 10
6.491378
 20
5.267543
 30
0.0
  0
VERTEX
  5
24C
100
AcDbEntity
 67
     1
  8
2D_LINE_24
 62
     7
 48
0.001
100
AcDbVertex
100
AcDb2dVertex
 10
6.466378
 20
5.367543
 30
0.0
  0
VERTEX
  5
24D
100
AcDbEntity
 67
     1
  8
2D_LINE_24
 62
     7
 48
0.001
100
AcDbVertex
100
AcDb2dVertex
 10
6.516378
 20
5.367543
 30
0.0
  0
SEQEND
  5
24E
100
AcDbEntity
 67
     1
  8
2D_LINE_24
 62
     7
 48
0.001
  0
POLYLINE
  5
24F
100
AcDbEntity
 67
     1
  8
2D_LINE_24
 62
     7
 48
0.001
100
AcDb2dPolyline
 66
     1
 10
0.0
 20
0.0
 30
0.0
 40
0.01
 41
0.01
  0
VERTEX
  5
250
100
AcDbEntity
 67
     1
  8
2D_LINE_24
 62
     7
 48
0.001
100
AcDbVertex
100
AcDb2dVertex
 10
6.489799
 20
6.000346
 30
0.0
  0
VERTEX
  5
251
100
AcDbEntity
 67
     1
  8
2D_LINE_24
 62
     7
 48
0.001
100
AcDbVertex
100
AcDb2dVertex
 10
6.489799
 20
5.699096
 30
0.0
  0
SEQEND
  5
252
100
AcDbEntity
 67
     1
  8
2D_LINE_24
 62
     7
 48
0.001
  0
POLYLINE
  5
253
100
AcDbEntity
 67
     1
  8
2D_LINE_24
 62
     7
 48
0.001
100
AcDb2dPolyline
 66
     1
 10
0.0
 20
0.0
 30
0.0
 70
     1
 40
0.01
 41
0.01
  0
VERTEX
  5
254
100
AcDbEntity
 67
     1
  8
2D_LINE_24
 62
     7
 48
0.001
100
AcDbVertex
100
AcDb2dVertex
 10
6.488632
 20
5.983661
 30
0.0
  0
VERTEX
  5
255
100
AcDbEntity
 67
     1
  8
2D_LINE_24
 62
     7
 48
0.001
100
AcDbVertex
100
AcDb2dVertex
 10
6.513632
 20
5.883661
 30
0.0
  0
VERTEX
  5
256
100
AcDbEntity
 67
     1
  8
2D_LINE_24
 62
     7
 48
0.001
100
AcDbVertex
100
AcDb2dVertex
 10
6.463632
 20
5.883661
 30
0.0
  0
SEQEND
  5
257
100
AcDbEntity
 67
     1
  8
2D_LINE_24
 62
     7
 48
0.001
  0
POLYLINE
  5
258
100
AcDbEntity
 67
     1
  8
2D_LINE_24
 62
     7
 48
0.001
100
AcDb2dPolyline
 66
     1
 10
0.0
 20
0.0
 30
0.0
 40
0.01
 41
0.01
  0
VERTEX
  5
259
100
AcDbEntity
 67
     1
  8
2D_LINE_24
 62
     7
 48
0.001
100
AcDbVertex
100
AcDb2dVertex
 10
5.659799
 20
5.250346
 30
0.0
  0
VERTEX
  5
25A
100
AcDbEntity
 67
     1
  8
2D_LINE_24
 62
     7
 48
0.001
100
AcDbVertex
100
AcDb2dVertex
 10
6.539799
 20
5.250346
 30
0.0
  0
SEQEND
  5
25B
100
AcDbEntity
 67
     1
  8
2D_LINE_24
 62
     7
 48
0.001
  0
POLYLINE
  5
25C
100
AcDbEntity
 67
     1
  8
2D_LINE_24
 62
     7
 48
0.001
100
AcDb2dPolyline
 66
     1
 10
0.0
 20
0.0
 30
0.0
 40
0.01
 41
0.01
  0
VERTEX
  5
25D
100
AcDbEntity
 67
     1
  8
2D_LINE_24
 62
     7
 48
0.001
100
AcDbVertex
100
AcDb2dVertex
 10
6.049799
 20
6.000346
 30
0.0
  0
VERTEX
  5
25E
100
AcDbEntity
 67
     1
  8
2D_LINE_24
 62
     7
 48
0.001
100
AcDbVertex
100
AcDb2dVertex
 10
6.539799
 20
6.000346
 30
0.0
  0
SEQEND
  5
25F
100
AcDbEntity
 67
     1
  8
2D_LINE_24
 62
     7
 48
0.001
  0
TEXT
  5
260
100
AcDbEntity
 67
     1
  8
TEXT_24
 62
     7
 48
0.001
100
AcDbText
 10
6.274799
 20
5.575346
 30
0.0
 40
0.088735
  1
750 mils
100
AcDbText
1001
TCAD
1000
TCW40_TEXT
1002
{
1000
Arial
1070
     0
1070
  1025
1002
}
  0
POLYLINE
  5
261
100
AcDbEntity
 67
     1
  8
2D_LINE_24
 62
     7
 48
0.001
100
AcDb2dPolyline
 66
     1
 10
0.0
 20
0.0
 30
0.0
 40
0.001
 41
0.001
  0
VERTEX
  5
262
100
AcDbEntity
 67
     1
  8
2D_LINE_24
 62
     7
 48
0.001
100
AcDbVertex
100
AcDb2dVertex
 10
5.609799
 20
5.250346
 30
0.0
  0
VERTEX
  5
263
100
AcDbEntity
 67
     1
  8
2D_LINE_24
 62
     7
 48
0.001
100
AcDbVertex
100
AcDb2dVertex
 10
5.609826
 20
5.250346
 30
0.0
  0
SEQEND
  5
264
100
AcDbEntity
 67
     1
  8
2D_LINE_24
 62
     7
 48
0.001
  0
POLYLINE
  5
265
100
AcDbEntity
 67
     1
  8
2D_LINE_24
 62
     7
 48
0.001
100
AcDb2dPolyline
 66
     1
 10
0.0
 20
0.0
 30
0.0
 40
0.001
 41
0.001
  0
VERTEX
  5
266
100
AcDbEntity
 67
     1
  8
2D_LINE_24
 62
     7
 48
0.001
100
AcDbVertex
100
AcDb2dVertex
 10
5.999799
 20
6.000346
 30
0.0
  0
VERTEX
  5
267
100
AcDbEntity
 67
     1
  8
2D_LINE_24
 62
     7
 48
0.001
100
AcDbVertex
100
AcDb2dVertex
 10
5.999825
 20
6.000346
 30
0.0
  0
SEQEND
  5
268
100
AcDbEntity
 67
     1
  8
2D_LINE_24
 62
     7
 48
0.001
  0
POLYLINE
  5
269
100
AcDbEntity
 67
     1
  8
2D_LINE_24
 62
     7
 48
0.001
100
AcDb2dPolyline
 66
     1
 10
0.0
 20
0.0
 30
0.0
 40
0.01
 41
0.01
  0
VERTEX
  5
26A
100
AcDbEntity
 67
     1
  8
2D_LINE_24
 62
     7
 48
0.001
100
AcDbVertex
100
AcDb2dVertex
 10
5.619887
 20
6.440789
 30
0.0
  0
VERTEX
  5
26B
100
AcDbEntity
 67
     1
  8
2D_LINE_24
 62
     7
 48
0.001
100
AcDbVertex
100
AcDb2dVertex
 10
5.999799
 20
6.440789
 30
0.0
  0
SEQEND
  5
26C
100
AcDbEntity
 67
     1
  8
2D_LINE_24
 62
     7
 48
0.001
  0
POLYLINE
  5
26D
100
AcDbEntity
 67
     1
  8
2D_LINE_24
 62
     7
 48
0.001
100
AcDb2dPolyline
 66
     1
 10
0.0
 20
0.0
 30
0.0
 70
     1
 40
0.01
 41
0.01
  0
VERTEX
  5
26E
100
AcDbEntity
 67
     1
  8
2D_LINE_24
 62
     7
 48
0.001
100
AcDbVertex
100
AcDb2dVertex
 10
5.984237
 20
6.441362
 30
0.0
  0
VERTEX
  5
26F
100
AcDbEntity
 67
     1
  8
2D_LINE_24
 62
     7
 48
0.001
100
AcDbVertex
100
AcDb2dVertex
 10
5.884237
 20
6.416362
 30
0.0
  0
VERTEX
  5
270
100
AcDbEntity
 67
     1
  8
2D_LINE_24
 62
     7
 48
0.001
100
AcDbVertex
100
AcDb2dVertex
 10
5.884237
 20
6.466362
 30
0.0
  0
SEQEND
  5
271
100
AcDbEntity
 67
     1
  8
2D_LINE_24
 62
     7
 48
0.001
  0
POLYLINE
  5
272
100
AcDbEntity
 67
     1
  8
2D_LINE_24
 62
     7
 48
0.001
100
AcDb2dPolyline
 66
     1
 10
0.0
 20
0.0
 30
0.0
 40
0.01
 41
0.01
  0
VERTEX
  5
273
100
AcDbEntity
 67
     1
  8
2D_LINE_24
 62
     7
 48
0.001
100
AcDbVertex
100
AcDb2dVertex
 10
5.609799
 20
5.300346
 30
0.0
  0
VERTEX
  5
274
100
AcDbEntity
 67
     1
  8
2D_LINE_24
 62
     7
 48
0.001
100
AcDbVertex
100
AcDb2dVertex
 10
5.609799
 20
6.490346
 30
0.0
  0
SEQEND
  5
275
100
AcDbEntity
 67
     1
  8
2D_LINE_24
 62
     7
 48
0.001
  0
POLYLINE
  5
276
100
AcDbEntity
 67
     1
  8
2D_LINE_24
 62
     7
 48
0.001
100
AcDb2dPolyline
 66
     1
 10
0.0
 20
0.0
 30
0.0
 40
0.01
 41
0.01
  0
VERTEX
  5
277
100
AcDbEntity
 67
     1
  8
2D_LINE_24
 62
     7
 48
0.001
100
AcDbVertex
100
AcDb2dVertex
 10
5.999799
 20
6.050346
 30
0.0
  0
VERTEX
  5
278
100
AcDbEntity
 67
     1
  8
2D_LINE_24
 62
     7
 48
0.001
100
AcDbVertex
100
AcDb2dVertex
 10
5.999799
 20
6.490346
 30
0.0
  0
SEQEND
  5
279
100
AcDbEntity
 67
     1
  8
2D_LINE_24
 62
     7
 48
0.001
  0
POLYLINE
  5
27A
100
AcDbEntity
 67
     1
  8
2D_LINE_24
 62
     7
 48
0.001
100
AcDb2dPolyline
 66
     1
 10
0.0
 20
0.0
 30
0.0
 40
0.01
 41
0.01
  0
VERTEX
  5
27B
100
AcDbEntity
 67
     1
  8
2D_LINE_24
 62
     7
 48
0.001
100
AcDbVertex
100
AcDb2dVertex
 10
5.512358
 20
5.025937
 30
0.0
  0
VERTEX
  5
27C
100
AcDbEntity
 67
     1
  8
2D_LINE_24
 62
     7
 48
0.001
100
AcDbVertex
100
AcDb2dVertex
 10
5.298594
 20
5.2397
 30
0.0
  0
SEQEND
  5
27D
100
AcDbEntity
 67
     1
  8
2D_LINE_24
 62
     7
 48
0.001
  0
POLYLINE
  5
27E
100
AcDbEntity
 67
     1
  8
2D_LINE_24
 62
     7
 48
0.001
100
AcDb2dPolyline
 66
     1
 10
0.0
 20
0.0
 30
0.0
 70
     1
 40
0.01
 41
0.01
  0
VERTEX
  5
27F
100
AcDbEntity
 67
     1
  8
2D_LINE_24
 62
     7
 48
0.001
100
AcDbVertex
100
AcDb2dVertex
 10
5.512358
 20
5.025937
 30
0.0
  0
VERTEX
  5
280
100
AcDbEntity
 67
     1
  8
2D_LINE_24
 62
     7
 48
0.001
100
AcDbVertex
100
AcDb2dVertex
 10
5.42397
 20
5.07897
 30
0.0
  0
VERTEX
  5
281
100
AcDbEntity
 67
     1
  8
2D_LINE_24
 62
     7
 48
0.001
100
AcDbVertex
100
AcDb2dVertex
 10
5.459325
 20
5.114325
 30
0.0
  0
SEQEND
  5
282
100
AcDbEntity
 67
     1
  8
2D_LINE_24
 62
     7
 48
0.001
  0
POLYLINE
  5
283
100
AcDbEntity
 67
     1
  8
2D_LINE_24
 62
     7
 48
0.001
100
AcDb2dPolyline
 66
     1
 10
0.0
 20
0.0
 30
0.0
 40
0.01
 41
0.01
  0
VERTEX
  5
284
100
AcDbEntity
 67
     1
  8
2D_LINE_24
 62
     7
 48
0.001
100
AcDbVertex
100
AcDb2dVertex
 10
5.298594
 20
5.2397
 30
0.0
  0
VERTEX
  5
285
100
AcDbEntity
 67
     1
  8
2D_LINE_24
 62
     7
 48
0.001
100
AcDbVertex
100
AcDb2dVertex
 10
5.198594
 20
5.2397
 30
0.0
  0
SEQEND
  5
286
100
AcDbEntity
 67
     1
  8
2D_LINE_24
 62
     7
 48
0.001
  0
POLYLINE
  5
287
100
AcDbEntity
 67
     1
  8
2D_LINE_24
 62
     7
 48
0.001
100
AcDb2dPolyline
 66
     1
 10
0.0
 20
0.0
 30
0.0
 40
0.01
 41
0.01
  0
VERTEX
  5
288
100
AcDbEntity
 67
     1
  8
2D_LINE_24
 62
     7
 48
0.001
100
AcDbVertex
100
AcDb2dVertex
 10
4.964799
 20
6.020346
 30
0.0
  0
VERTEX
  5
289
100
AcDbEntity
 67
     1
  8
2D_LINE_24
 62
     7
 48
0.001
100
AcDbVertex
100
AcDb2dVertex
 10
4.550599
 20
6.434546
 30
0.0
  0
SEQEND
  5
28A
100
AcDbEntity
 67
     1
  8
2D_LINE_24
 62
     7
 48
0.001
  0
POLYLINE
  5
28B
100
AcDbEntity
 67
     1
  8
2D_LINE_24
 62
     7
 48
0.001
100
AcDb2dPolyline
 66
     1
 10
0.0
 20
0.0
 30
0.0
 70
     1
 40
0.005
 41
0.005
  0
VERTEX
  5
28C
100
AcDbEntity
 67
     1
  8
2D_LINE_24
 62
     7
 48
0.001
100
AcDbVertex
100
AcDb2dVertex
 10
4.962299
 20
6.020346
 30
0.0
 42
1.0
  0
VERTEX
  5
28D
100
AcDbEntity
 67
     1
  8
2D_LINE_24
 62
     7
 48
0.001
100
AcDbVertex
100
AcDb2dVertex
 10
4.967299
 20
6.020346
 30
0.0
 42
1.0
  0
SEQEND
  5
28E
100
AcDbEntity
 67
     1
  8
2D_LINE_24
 62
     7
 48
0.001
  0
POLYLINE
  5
28F
100
AcDbEntity
 67
     1
  8
2D_LINE_24
 62
     7
 48
0.001
100
AcDb2dPolyline
 66
     1
 10
0.0
 20
0.0
 30
0.0
 70
     1
 40
0.005
 41
0.005
  0
VERTEX
  5
290
100
AcDbEntity
 67
     1
  8
2D_LINE_24
 62
     7
 48
0.001
100
AcDbVertex
100
AcDb2dVertex
 10
4.548099
 20
6.434546
 30
0.0
 42
1.0
  0
VERTEX
  5
291
100
AcDbEntity
 67
     1
  8
2D_LINE_24
 62
     7
 48
0.001
100
AcDbVertex
100
AcDb2dVertex
 10
4.553099
 20
6.434546
 30
0.0
 42
1.0
  0
SEQEND
  5
292
100
AcDbEntity
 67
     1
  8
2D_LINE_24
 62
     7
 48
0.001
  0
POLYLINE
  5
293
100
AcDbEntity
 67
     1
  8
2D_LINE_24
 62
     7
 48
0.001
100
AcDb2dPolyline
 66
     1
 10
0.0
 20
0.0
 30
0.0
 70
     1
 40
0.01
 41
0.01
  0
VERTEX
  5
294
100
AcDbEntity
 67
     1
  8
2D_LINE_24
 62
     7
 48
0.001
100
AcDbVertex
100
AcDb2dVertex
 10
4.964799
 20
6.020346
 30
0.0
  0
VERTEX
  5
295
100
AcDbEntity
 67
     1
  8
2D_LINE_24
 62
     7
 48
0.001
100
AcDbVertex
100
AcDb2dVertex
 10
4.876411
 20
6.073379
 30
0.0
  0
VERTEX
  5
296
100
AcDbEntity
 67
     1
  8
2D_LINE_24
 62
     7
 48
0.001
100
AcDbVertex
100
AcDb2dVertex
 10
4.911766
 20
6.108734
 30
0.0
  0
SEQEND
  5
297
100
AcDbEntity
 67
     1
  8
2D_LINE_24
 62
     7
 48
0.001
  0
POLYLINE
  5
298
100
AcDbEntity
 67
     1
  8
2D_LINE_24
 62
     7
 48
0.001
100
AcDb2dPolyline
 66
     1
 10
0.0
 20
0.0
 30
0.0
 70
     1
 40
0.005
 41
0.005
  0
VERTEX
  5
299
100
AcDbEntity
 67
     1
  8
2D_LINE_24
 62
     7
 48
0.001
100
AcDbVertex
100
AcDb2dVertex
 10
4.962299
 20
6.020346
 30
0.0
 42
1.0
  0
VERTEX
  5
29A
100
AcDbEntity
 67
     1
  8
2D_LINE_24
 62
     7
 48
0.001
100
AcDbVertex
100
AcDb2dVertex
 10
4.967299
 20
6.020346
 30
0.0
 42
1.0
  0
SEQEND
  5
29B
100
AcDbEntity
 67
     1
  8
2D_LINE_24
 62
     7
 48
0.001
  0
POLYLINE
  5
29C
100
AcDbEntity
 67
     1
  8
2D_LINE_24
 62
     7
 48
0.001
100
AcDb2dPolyline
 66
     1
 10
0.0
 20
0.0
 30
0.0
 70
     1
 40
0.005
 41
0.005
  0
VERTEX
  5
29D
100
AcDbEntity
 67
     1
  8
2D_LINE_24
 62
     7
 48
0.001
100
AcDbVertex
100
AcDb2dVertex
 10
4.873911
 20
6.073379
 30
0.0
 42
1.0
  0
VERTEX
  5
29E
100
AcDbEntity
 67
     1
  8
2D_LINE_24
 62
     7
 48
0.001
100
AcDbVertex
100
AcDb2dVertex
 10
4.878911
 20
6.073379
 30
0.0
 42
1.0
  0
SEQEND
  5
29F
100
AcDbEntity
 67
     1
  8
2D_LINE_24
 62
     7
 48
0.001
  0
POLYLINE
  5
2A0
100
AcDbEntity
 67
     1
  8
2D_LINE_24
 62
     7
 48
0.001
100
AcDb2dPolyline
 66
     1
 10
0.0
 20
0.0
 30
0.0
 70
     1
 40
0.005
 41
0.005
  0
VERTEX
  5
2A1
100
AcDbEntity
 67
     1
  8
2D_LINE_24
 62
     7
 48
0.001
100
AcDbVertex
100
AcDb2dVertex
 10
4.909266
 20
6.108734
 30
0.0
 42
1.0
  0
VERTEX
  5
2A2
100
AcDbEntity
 67
     1
  8
2D_LINE_24
 62
     7
 48
0.001
100
AcDbVertex
100
AcDb2dVertex
 10
4.914266
 20
6.108734
 30
0.0
 42
1.0
  0
SEQEND
  5
2A3
100
AcDbEntity
 67
     1
  8
2D_LINE_24
 62
     7
 48
0.001
  0
POLYLINE
  5
2A4
100
AcDbEntity
 67
     1
  8
2D_LINE_24
 62
     7
 48
0.001
100
AcDb2dPolyline
 66
     1
 10
0.0
 20
0.0
 30
0.0
 40
0.01
 41
0.01
  0
VERTEX
  5
2A5
100
AcDbEntity
 67
     1
  8
2D_LINE_24
 62
     7
 48
0.001
100
AcDbVertex
100
AcDb2dVertex
 10
4.550599
 20
6.434546
 30
0.0
  0
VERTEX
  5
2A6
100
AcDbEntity
 67
     1
  8
2D_LINE_24
 62
     7
 48
0.001
100
AcDbVertex
100
AcDb2dVertex
 10
4.450599
 20
6.434546
 30
0.0
  0
SEQEND
  5
2A7
100
AcDbEntity
 67
     1
  8
2D_LINE_24
 62
     7
 48
0.001
  0
POLYLINE
  5
2A8
100
AcDbEntity
 67
     1
  8
2D_LINE_24
 62
     7
 48
0.001
100
AcDb2dPolyline
 66
     1
 10
0.0
 20
0.0
 30
0.0
 70
     1
 40
0.005
 41
0.005
  0
VERTEX
  5
2A9
100
AcDbEntity
 67
     1
  8
2D_LINE_24
 62
     7
 48
0.001
100
AcDbVertex
100
AcDb2dVertex
 10
4.548099
 20
6.434546
 30
0.0
 42
1.0
  0
VERTEX
  5
2AA
100
AcDbEntity
 67
     1
  8
2D_LINE_24
 62
     7
 48
0.001
100
AcDbVertex
100
AcDb2dVertex
 10
4.553099
 20
6.434546
 30
0.0
 42
1.0
  0
SEQEND
  5
2AB
100
AcDbEntity
 67
     1
  8
2D_LINE_24
 62
     7
 48
0.001
  0
POLYLINE
  5
2AC
100
AcDbEntity
 67
     1
  8
2D_LINE_24
 62
     7
 48
0.001
100
AcDb2dPolyline
 66
     1
 10
0.0
 20
0.0
 30
0.0
 70
     1
 40
0.005
 41
0.005
  0
VERTEX
  5
2AD
100
AcDbEntity
 67
     1
  8
2D_LINE_24
 62
     7
 48
0.001
100
AcDbVertex
100
AcDb2dVertex
 10
4.448099
 20
6.434546
 30
0.0
 42
1.0
  0
VERTEX
  5
2AE
100
AcDbEntity
 67
     1
  8
2D_LINE_24
 62
     7
 48
0.001
100
AcDbVertex
100
AcDb2dVertex
 10
4.453099
 20
6.434546
 30
0.0
 42
1.0
  0
SEQEND
  5
2AF
100
AcDbEntity
 67
     1
  8
2D_LINE_24
 62
     7
 48
0.001
  0
POLYLINE
  5
2B0
100
AcDbEntity
 67
     1
  8
PADS_BOT
 62
     7
 48
0.001
100
AcDb2dPolyline
 66
     1
 10
0.0
 20
0.0
 30
0.0
 70
     1
 40
0.125
 41
0.125
  0
VERTEX
  5
2B1
100
AcDbEntity
 67
     1
  8
PADS_BOT
 62
     7
 48
0.001
100
AcDbVertex
100
AcDb2dVertex
 10
4.124799
 20
5.812846
 30
0.0
 42
1.0
  0
VERTEX
  5
2B2
100
AcDbEntity
 67
     1
  8
PADS_BOT
 62
     7
 48
0.001
100
AcDbVertex
100
AcDb2dVertex
 10
4.124799
 20
5.937846
 30
0.0
 42
1.0
  0
SEQEND
  5
2B3
100
AcDbEntity
 67
     1
  8
PADS_BOT
 62
     7
 48
0.001
  0
POLYLINE
  5
2B4
100
AcDbEntity
 67
     1
  8
PADS_BOT
 62
     7
 48
0.001
100
AcDb2dPolyline
 66
     1
 10
0.0
 20
0.0
 30
0.0
 70
     1
 40
0.125
 41
0.125
  0
VERTEX
  5
2B5
100
AcDbEntity
 67
     1
  8
PADS_BOT
 62
     7
 48
0.001
100
AcDbVertex
100
AcDb2dVertex
 10
4.124799
 20
4.562846
 30
0.0
 42
1.0
  0
VERTEX
  5
2B6
100
AcDbEntity
 67
     1
  8
PADS_BOT
 62
     7
 48
0.001
100
AcDbVertex
100
AcDb2dVertex
 10
4.124799
 20
4.687846
 30
0.0
 42
1.0
  0
SEQEND
  5
2B7
100
AcDbEntity
 67
     1
  8
PADS_BOT
 62
     7
 48
0.001
  0
POLYLINE
  5
2B8
100
AcDbEntity
 67
     1
  8
PADS_BOT
 62
     7
 48
0.001
100
AcDb2dPolyline
 66
     1
 10
0.0
 20
0.0
 30
0.0
 70
     1
 40
0.125
 41
0.125
  0
VERTEX
  5
2B9
100
AcDbEntity
 67
     1
  8
PADS_BOT
 62
     7
 48
0.001
100
AcDbVertex
100
AcDb2dVertex
 10
5.874799
 20
4.562846
 30
0.0
 42
1.0
  0
VERTEX
  5
2BA
100
AcDbEntity
 67
     1
  8
PADS_BOT
 62
     7
 48
0.001
100
AcDbVertex
100
AcDb2dVertex
 10
5.874799
 20
4.687846
 30
0.0
 42
1.0
  0
SEQEND
  5
2BB
100
AcDbEntity
 67
     1
  8
PADS_BOT
 62
     7
 48
0.001
  0
POLYLINE
  5
2BC
100
AcDbEntity
 67
     1
  8
PADS_BOT
 62
     7
 48
0.001
100
AcDb2dPolyline
 66
     1
 10
0.0
 20
0.0
 30
0.0
 70
     1
 40
0.125
 41
0.125
  0
VERTEX
  5
2BD
100
AcDbEntity
 67
     1
  8
PADS_BOT
 62
     7
 48
0.001
100
AcDbVertex
100
AcDb2dVertex
 10
5.874799
 20
5.812846
 30
0.0
 42
1.0
  0
VERTEX
  5
2BE
100
AcDbEntity
 67
     1
  8
PADS_BOT
 62
     7
 48
0.001
100
AcDbVertex
100
AcDb2dVertex
 10
5.874799
 20
5.937846
 30
0.0
 42
1.0
  0
SEQEND
  5
2BF
100
AcDbEntity
 67
     1
  8
PADS_BOT
 62
     7
 48
0.001
  0
POLYLINE
  5
2C0
100
AcDbEntity
 67
     1
  8
PART_BOT_2DLINE_26
 62
     7
 48
0.001
100
AcDb2dPolyline
 66
     1
 10
0.0
 20
0.0
 30
0.0
 40
0.01
 41
0.01
  0
VERTEX
  5
2C1
100
AcDbEntity
 67
     1
  8
PART_BOT_2DLINE_26
 62
     7
 48
0.001
100
AcDbVertex
100
AcDb2dVertex
 10
5.507437
 20
4.766094
 30
0.0
  0
VERTEX
  5
2C2
100
AcDbEntity
 67
     1
  8
PART_BOT_2DLINE_26
 62
     7
 48
0.001
100
AcDbVertex
100
AcDb2dVertex
 10
5.507437
 20
4.647984
 30
0.0
  0
VERTEX
  5
2C3
100
AcDbEntity
 67
     1
  8
PART_BOT_2DLINE_26
 62
     7
 48
0.001
100
AcDbVertex
100
AcDb2dVertex
 10
5.712161
 20
4.647984
 30
0.0
  0
VERTEX
  5
2C4
100
AcDbEntity
 67
     1
  8
PART_BOT_2DLINE_26
 62
     7
 48
0.001
100
AcDbVertex
100
AcDb2dVertex
 10
5.712161
 20
4.762157
 30
0.0
  0
SEQEND
  5
2C5
100
AcDbEntity
 67
     1
  8
PART_BOT_2DLINE_26
 62
     7
 48
0.001
  0
POLYLINE
  5
2C6
100
AcDbEntity
 67
     1
  8
PART_BOT_2DLINE_26
 62
     7
 48
0.001
100
AcDb2dPolyline
 66
     1
 10
0.0
 20
0.0
 30
0.0
 70
     1
 40
0.005
 41
0.005
  0
VERTEX
  5
2C7
100
AcDbEntity
 67
     1
  8
PART_BOT_2DLINE_26
 62
     7
 48
0.001
100
AcDbVertex
100
AcDb2dVertex
 10
5.504937
 20
4.766094
 30
0.0
 42
1.0
  0
VERTEX
  5
2C8
100
AcDbEntity
 67
     1
  8
PART_BOT_2DLINE_26
 62
     7
 48
0.001
100
AcDbVertex
100
AcDb2dVertex
 10
5.509937
 20
4.766094
 30
0.0
 42
1.0
  0
SEQEND
  5
2C9
100
AcDbEntity
 67
     1
  8
PART_BOT_2DLINE_26
 62
     7
 48
0.001
  0
POLYLINE
  5
2CA
100
AcDbEntity
 67
     1
  8
PART_BOT_2DLINE_26
 62
     7
 48
0.001
100
AcDb2dPolyline
 66
     1
 10
0.0
 20
0.0
 30
0.0
 70
     1
 40
0.005
 41
0.005
  0
VERTEX
  5
2CB
100
AcDbEntity
 67
     1
  8
PART_BOT_2DLINE_26
 62
     7
 48
0.001
100
AcDbVertex
100
AcDb2dVertex
 10
5.504937
 20
4.647984
 30
0.0
 42
1.0
  0
VERTEX
  5
2CC
100
AcDbEntity
 67
     1
  8
PART_BOT_2DLINE_26
 62
     7
 48
0.001
100
AcDbVertex
100
AcDb2dVertex
 10
5.509937
 20
4.647984
 30
0.0
 42
1.0
  0
SEQEND
  5
2CD
100
AcDbEntity
 67
     1
  8
PART_BOT_2DLINE_26
 62
     7
 48
0.001
  0
POLYLINE
  5
2CE
100
AcDbEntity
 67
     1
  8
PART_BOT_2DLINE_26
 62
     7
 48
0.001
100
AcDb2dPolyline
 66
     1
 10
0.0
 20
0.0
 30
0.0
 70
     1
 40
0.005
 41
0.005
  0
VERTEX
  5
2CF
100
AcDbEntity
 67
     1
  8
PART_BOT_2DLINE_26
 62
     7
 48
0.001
100
AcDbVertex
100
AcDb2dVertex
 10
5.709661
 20
4.647984
 30
0.0
 42
1.0
  0
VERTEX
  5
2D0
100
AcDbEntity
 67
     1
  8
PART_BOT_2DLINE_26
 62
     7
 48
0.001
100
AcDbVertex
100
AcDb2dVertex
 10
5.714661
 20
4.647984
 30
0.0
 42
1.0
  0
SEQEND
  5
2D1
100
AcDbEntity
 67
     1
  8
PART_BOT_2DLINE_26
 62
     7
 48
0.001
  0
POLYLINE
  5
2D2
100
AcDbEntity
 67
     1
  8
PART_BOT_2DLINE_26
 62
     7
 48
0.001
100
AcDb2dPolyline
 66
     1
 10
0.0
 20
0.0
 30
0.0
 70
     1
 40
0.005
 41
0.005
  0
VERTEX
  5
2D3
100
AcDbEntity
 67
     1
  8
PART_BOT_2DLINE_26
 62
     7
 48
0.001
100
AcDbVertex
100
AcDb2dVertex
 10
5.709661
 20
4.762157
 30
0.0
 42
1.0
  0
VERTEX
  5
2D4
100
AcDbEntity
 67
     1
  8
PART_BOT_2DLINE_26
 62
     7
 48
0.001
100
AcDbVertex
100
AcDb2dVertex
 10
5.714661
 20
4.762157
 30
0.0
 42
1.0
  0
SEQEND
  5
2D5
100
AcDbEntity
 67
     1
  8
PART_BOT_2DLINE_26
 62
     7
 48
0.001
  0
POLYLINE
  5
2D6
100
AcDbEntity
 67
     1
  8
PART_BOT_2DLINE_26
 62
     7
 48
0.001
100
AcDb2dPolyline
 66
     1
 10
0.0
 20
0.0
 30
0.0
 40
0.01
 41
0.01
  0
VERTEX
  5
2D7
100
AcDbEntity
 67
     1
  8
PART_BOT_2DLINE_26
 62
     7
 48
0.001
100
AcDbVertex
100
AcDb2dVertex
 10
5.507437
 20
5.734598
 30
0.0
  0
VERTEX
  5
2D8
100
AcDbEntity
 67
     1
  8
PART_BOT_2DLINE_26
 62
     7
 48
0.001
100
AcDbVertex
100
AcDb2dVertex
 10
5.507437
 20
5.852708
 30
0.0
  0
VERTEX
  5
2D9
100
AcDbEntity
 67
     1
  8
PART_BOT_2DLINE_26
 62
     7
 48
0.001
100
AcDbVertex
100
AcDb2dVertex
 10
5.712161
 20
5.852708
 30
0.0
  0
VERTEX
  5
2DA
100
AcDbEntity
 67
     1
  8
PART_BOT_2DLINE_26
 62
     7
 48
0.001
100
AcDbVertex
100
AcDb2dVertex
 10
5.712161
 20
5.734598
 30
0.0
  0
SEQEND
  5
2DB
100
AcDbEntity
 67
     1
  8
PART_BOT_2DLINE_26
 62
     7
 48
0.001
  0
POLYLINE
  5
2DC
100
AcDbEntity
 67
     1
  8
PART_BOT_2DLINE_26
 62
     7
 48
0.001
100
AcDb2dPolyline
 66
     1
 10
0.0
 20
0.0
 30
0.0
 70
     1
 40
0.005
 41
0.005
  0
VERTEX
  5
2DD
100
AcDbEntity
 67
     1
  8
PART_BOT_2DLINE_26
 62
     7
 48
0.001
100
AcDbVertex
100
AcDb2dVertex
 10
5.504937
 20
5.734598
 30
0.0
 42
1.0
  0
VERTEX
  5
2DE
100
AcDbEntity
 67
     1
  8
PART_BOT_2DLINE_26
 62
     7
 48
0.001
100
AcDbVertex
100
AcDb2dVertex
 10
5.509937
 20
5.734598
 30
0.0
 42
1.0
  0
SEQEND
  5
2DF
100
AcDbEntity
 67
     1
  8
PART_BOT_2DLINE_26
 62
     7
 48
0.001
  0
POLYLINE
  5
2E0
100
AcDbEntity
 67
     1
  8
PART_BOT_2DLINE_26
 62
     7
 48
0.001
100
AcDb2dPolyline
 66
     1
 10
0.0
 20
0.0
 30
0.0
 70
     1
 40
0.005
 41
0.005
  0
VERTEX
  5
2E1
100
AcDbEntity
 67
     1
  8
PART_BOT_2DLINE_26
 62
     7
 48
0.001
100
AcDbVertex
100
AcDb2dVertex
 10
5.504937
 20
5.852708
 30
0.0
 42
1.0
  0
VERTEX
  5
2E2
100
AcDbEntity
 67
     1
  8
PART_BOT_2DLINE_26
 62
     7
 48
0.001
100
AcDbVertex
100
AcDb2dVertex
 10
5.509937
 20
5.852708
 30
0.0
 42
1.0
  0
SEQEND
  5
2E3
100
AcDbEntity
 67
     1
  8
PART_BOT_2DLINE_26
 62
     7
 48
0.001
  0
POLYLINE
  5
2E4
100
AcDbEntity
 67
     1
  8
PART_BOT_2DLINE_26
 62
     7
 48
0.001
100
AcDb2dPolyline
 66
     1
 10
0.0
 20
0.0
 30
0.0
 70
     1
 40
0.005
 41
0.005
  0
VERTEX
  5
2E5
100
AcDbEntity
 67
     1
  8
PART_BOT_2DLINE_26
 62
     7
 48
0.001
100
AcDbVertex
100
AcDb2dVertex
 10
5.709661
 20
5.852708
 30
0.0
 42
1.0
  0
VERTEX
  5
2E6
100
AcDbEntity
 67
     1
  8
PART_BOT_2DLINE_26
 62
     7
 48
0.001
100
AcDbVertex
100
AcDb2dVertex
 10
5.714661
 20
5.852708
 30
0.0
 42
1.0
  0
SEQEND
  5
2E7
100
AcDbEntity
 67
     1
  8
PART_BOT_2DLINE_26
 62
     7
 48
0.001
  0
POLYLINE
  5
2E8
100
AcDbEntity
 67
     1
  8
PART_BOT_2DLINE_26
 62
     7
 48
0.001
100
AcDb2dPolyline
 66
     1
 10
0.0
 20
0.0
 30
0.0
 70
     1
 40
0.005
 41
0.005
  0
VERTEX
  5
2E9
100
AcDbEntity
 67
     1
  8
PART_BOT_2DLINE_26
 62
     7
 48
0.001
100
AcDbVertex
100
AcDb2dVertex
 10
5.709661
 20
5.734598
 30
0.0
 42
1.0
  0
VERTEX
  5
2EA
100
AcDbEntity
 67
     1
  8
PART_BOT_2DLINE_26
 62
     7
 48
0.001
100
AcDbVertex
100
AcDb2dVertex
 10
5.714661
 20
5.734598
 30
0.0
 42
1.0
  0
SEQEND
  5
2EB
100
AcDbEntity
 67
     1
  8
PART_BOT_2DLINE_26
 62
     7
 48
0.001
  0
POLYLINE
  5
2EC
100
AcDbEntity
 67
     1
  8
PART_BOT_2DLINE_26
 62
     7
 48
0.001
100
AcDb2dPolyline
 66
     1
 10
0.0
 20
0.0
 30
0.0
 40
0.01
 41
0.01
  0
VERTEX
  5
2ED
100
AcDbEntity
 67
     1
  8
PART_BOT_2DLINE_26
 62
     7
 48
0.001
100
AcDbVertex
100
AcDb2dVertex
 10
5.507437
 20
4.710976
 30
0.0
  0
VERTEX
  5
2EE
100
AcDbEntity
 67
     1
  8
PART_BOT_2DLINE_26
 62
     7
 48
0.001
100
AcDbVertex
100
AcDb2dVertex
 10
5.479878
 20
4.738535
 30
0.0
  0
VERTEX
  5
2EF
100
AcDbEntity
 67
     1
  8
PART_BOT_2DLINE_26
 62
     7
 48
0.001
100
AcDbVertex
100
AcDb2dVertex
 10
5.507437
 20
4.766094
 30
0.0
  0
SEQEND
  5
2F0
100
AcDbEntity
 67
     1
  8
PART_BOT_2DLINE_26
 62
     7
 48
0.001
  0
POLYLINE
  5
2F1
100
AcDbEntity
 67
     1
  8
PART_BOT_2DLINE_26
 62
     7
 48
0.001
100
AcDb2dPolyline
 66
     1
 10
0.0
 20
0.0
 30
0.0
 70
     1
 40
0.005
 41
0.005
  0
VERTEX
  5
2F2
100
AcDbEntity
 67
     1
  8
PART_BOT_2DLINE_26
 62
     7
 48
0.001
100
AcDbVertex
100
AcDb2dVertex
 10
5.504937
 20
4.710976
 30
0.0
 42
1.0
  0
VERTEX
  5
2F3
100
AcDbEntity
 67
     1
  8
PART_BOT_2DLINE_26
 62
     7
 48
0.001
100
AcDbVertex
100
AcDb2dVertex
 10
5.509937
 20
4.710976
 30
0.0
 42
1.0
  0
SEQEND
  5
2F4
100
AcDbEntity
 67
     1
  8
PART_BOT_2DLINE_26
 62
     7
 48
0.001
  0
POLYLINE
  5
2F5
100
AcDbEntity
 67
     1
  8
PART_BOT_2DLINE_26
 62
     7
 48
0.001
100
AcDb2dPolyline
 66
     1
 10
0.0
 20
0.0
 30
0.0
 70
     1
 40
0.005
 41
0.005
  0
VERTEX
  5
2F6
100
AcDbEntity
 67
     1
  8
PART_BOT_2DLINE_26
 62
     7
 48
0.001
100
AcDbVertex
100
AcDb2dVertex
 10
5.477378
 20
4.738535
 30
0.0
 42
1.0
  0
VERTEX
  5
2F7
100
AcDbEntity
 67
     1
  8
PART_BOT_2DLINE_26
 62
     7
 48
0.001
100
AcDbVertex
100
AcDb2dVertex
 10
5.482378
 20
4.738535
 30
0.0
 42
1.0
  0
SEQEND
  5
2F8
100
AcDbEntity
 67
     1
  8
PART_BOT_2DLINE_26
 62
     7
 48
0.001
  0
POLYLINE
  5
2F9
100
AcDbEntity
 67
     1
  8
PART_BOT_2DLINE_26
 62
     7
 48
0.001
100
AcDb2dPolyline
 66
     1
 10
0.0
 20
0.0
 30
0.0
 70
     1
 40
0.005
 41
0.005
  0
VERTEX
  5
2FA
100
AcDbEntity
 67
     1
  8
PART_BOT_2DLINE_26
 62
     7
 48
0.001
100
AcDbVertex
100
AcDb2dVertex
 10
5.504937
 20
4.766094
 30
0.0
 42
1.0
  0
VERTEX
  5
2FB
100
AcDbEntity
 67
     1
  8
PART_BOT_2DLINE_26
 62
     7
 48
0.001
100
AcDbVertex
100
AcDb2dVertex
 10
5.509937
 20
4.766094
 30
0.0
 42
1.0
  0
SEQEND
  5
2FC
100
AcDbEntity
 67
     1
  8
PART_BOT_2DLINE_26
 62
     7
 48
0.001
  0
POLYLINE
  5
2FD
100
AcDbEntity
 67
     1
  8
PADS_BOT
 62
     7
 48
0.001
100
AcDb2dPolyline
 66
     1
 10
0.0
 20
0.0
 30
0.0
  0
VERTEX
  5
2FE
100
AcDbEntity
 67
     1
  8
PADS_BOT
 62
     7
 48
0.001
100
AcDbVertex
100
AcDb2dVertex
 10
5.473972
 20
4.789716
 30
0.0
 40
0.013779
 41
0.01378
  0
VERTEX
  5
2FF
100
AcDbEntity
 67
     1
  8
PADS_BOT
 62
     7
 48
0.001
100
AcDbVertex
100
AcDb2dVertex
 10
5.550744
 20
4.789716
 30
0.0
 40
0.013779
 41
0.01378
  0
SEQEND
  5
300
100
AcDbEntity
 67
     1
  8
PADS_BOT
 62
     7
 48
0.001
  0
POLYLINE
  5
301
100
AcDbEntity
 67
     1
  8
PADS_BOT
 62
     7
 48
0.001
100
AcDb2dPolyline
 66
     1
 10
0.0
 20
0.0
 30
0.0
  0
VERTEX
  5
302
100
AcDbEntity
 67
     1
  8
PADS_BOT
 62
     7
 48
0.001
100
AcDbVertex
100
AcDb2dVertex
 10
5.668854
 20
4.789716
 30
0.0
 40
0.013779
 41
0.01378
  0
VERTEX
  5
303
100
AcDbEntity
 67
     1
  8
PADS_BOT
 62
     7
 48
0.001
100
AcDbVertex
100
AcDb2dVertex
 10
5.745626
 20
4.789716
 30
0.0
 40
0.013779
 41
0.01378
  0
SEQEND
  5
304
100
AcDbEntity
 67
     1
  8
PADS_BOT
 62
     7
 48
0.001
  0
POLYLINE
  5
305
100
AcDbEntity
 67
     1
  8
PADS_BOT
 62
     7
 48
0.001
100
AcDb2dPolyline
 66
     1
 10
0.0
 20
0.0
 30
0.0
  0
VERTEX
  5
306
100
AcDbEntity
 67
     1
  8
PADS_BOT
 62
     7
 48
0.001
100
AcDbVertex
100
AcDb2dVertex
 10
5.473972
 20
4.813338
 30
0.0
 40
0.013779
 41
0.01378
  0
VERTEX
  5
307
100
AcDbEntity
 67
     1
  8
PADS_BOT
 62
     7
 48
0.001
100
AcDbVertex
100
AcDb2dVertex
 10
5.550744
 20
4.813338
 30
0.0
 40
0.013779
 41
0.01378
  0
SEQEND
  5
308
100
AcDbEntity
 67
     1
  8
PADS_BOT
 62
     7
 48
0.001
  0
POLYLINE
  5
309
100
AcDbEntity
 67
     1
  8
PADS_BOT
 62
     7
 48
0.001
100
AcDb2dPolyline
 66
     1
 10
0.0
 20
0.0
 30
0.0
  0
VERTEX
  5
30A
100
AcDbEntity
 67
     1
  8
PADS_BOT
 62
     7
 48
0.001
100
AcDbVertex
100
AcDb2dVertex
 10
5.668854
 20
4.813338
 30
0.0
 40
0.013779
 41
0.01378
  0
VERTEX
  5
30B
100
AcDbEntity
 67
     1
  8
PADS_BOT
 62
     7
 48
0.001
100
AcDbVertex
100
AcDb2dVertex
 10
5.745626
 20
4.813338
 30
0.0
 40
0.013779
 41
0.01378
  0
SEQEND
  5
30C
100
AcDbEntity
 67
     1
  8
PADS_BOT
 62
     7
 48
0.001
  0
POLYLINE
  5
30D
100
AcDbEntity
 67
     1
  8
PADS_BOT
 62
     7
 48
0.001
100
AcDb2dPolyline
 66
     1
 10
0.0
 20
0.0
 30
0.0
  0
VERTEX
  5
30E
100
AcDbEntity
 67
     1
  8
PADS_BOT
 62
     7
 48
0.001
100
AcDbVertex
100
AcDb2dVertex
 10
5.473972
 20
4.83696
 30
0.0
 40
0.013779
 41
0.01378
  0
VERTEX
  5
30F
100
AcDbEntity
 67
     1
  8
PADS_BOT
 62
     7
 48
0.001
100
AcDbVertex
100
AcDb2dVertex
 10
5.550744
 20
4.83696
 30
0.0
 40
0.013779
 41
0.01378
  0
SEQEND
  5
310
100
AcDbEntity
 67
     1
  8
PADS_BOT
 62
     7
 48
0.001
  0
POLYLINE
  5
311
100
AcDbEntity
 67
     1
  8
PADS_BOT
 62
     7
 48
0.001
100
AcDb2dPolyline
 66
     1
 10
0.0
 20
0.0
 30
0.0
  0
VERTEX
  5
312
100
AcDbEntity
 67
     1
  8
PADS_BOT
 62
     7
 48
0.001
100
AcDbVertex
100
AcDb2dVertex
 10
5.668854
 20
4.83696
 30
0.0
 40
0.013779
 41
0.01378
  0
VERTEX
  5
313
100
AcDbEntity
 67
     1
  8
PADS_BOT
 62
     7
 48
0.001
100
AcDbVertex
100
AcDb2dVertex
 10
5.745626
 20
4.83696
 30
0.0
 40
0.013779
 41
0.01378
  0
SEQEND
  5
314
100
AcDbEntity
 67
     1
  8
PADS_BOT
 62
     7
 48
0.001
  0
POLYLINE
  5
315
100
AcDbEntity
 67
     1
  8
PADS_BOT
 62
     7
 48
0.001
100
AcDb2dPolyline
 66
     1
 10
0.0
 20
0.0
 30
0.0
  0
VERTEX
  5
316
100
AcDbEntity
 67
     1
  8
PADS_BOT
 62
     7
 48
0.001
100
AcDbVertex
100
AcDb2dVertex
 10
5.473972
 20
4.860582
 30
0.0
 40
0.01378
 41
0.01378
  0
VERTEX
  5
317
100
AcDbEntity
 67
     1
  8
PADS_BOT
 62
     7
 48
0.001
100
AcDbVertex
100
AcDb2dVertex
 10
5.550744
 20
4.860582
 30
0.0
 40
0.01378
 41
0.01378
  0
SEQEND
  5
318
100
AcDbEntity
 67
     1
  8
PADS_BOT
 62
     7
 48
0.001
  0
POLYLINE
  5
319
100
AcDbEntity
 67
     1
  8
PADS_BOT
 62
     7
 48
0.001
100
AcDb2dPolyline
 66
     1
 10
0.0
 20
0.0
 30
0.0
  0
VERTEX
  5
31A
100
AcDbEntity
 67
     1
  8
PADS_BOT
 62
     7
 48
0.001
100
AcDbVertex
100
AcDb2dVertex
 10
5.668854
 20
4.860582
 30
0.0
 40
0.01378
 41
0.01378
  0
VERTEX
  5
31B
100
AcDbEntity
 67
     1
  8
PADS_BOT
 62
     7
 48
0.001
100
AcDbVertex
100
AcDb2dVertex
 10
5.745626
 20
4.860582
 30
0.0
 40
0.01378
 41
0.01378
  0
SEQEND
  5
31C
100
AcDbEntity
 67
     1
  8
PADS_BOT
 62
     7
 48
0.001
  0
POLYLINE
  5
31D
100
AcDbEntity
 67
     1
  8
PADS_BOT
 62
     7
 48
0.001
100
AcDb2dPolyline
 66
     1
 10
0.0
 20
0.0
 30
0.0
  0
VERTEX
  5
31E
100
AcDbEntity
 67
     1
  8
PADS_BOT
 62
     7
 48
0.001
100
AcDbVertex
100
AcDb2dVertex
 10
5.473972
 20
4.884204
 30
0.0
 40
0.013779
 41
0.01378
  0
VERTEX
  5
31F
100
AcDbEntity
 67
     1
  8
PADS_BOT
 62
     7
 48
0.001
100
AcDbVertex
100
AcDb2dVertex
 10
5.550744
 20
4.884204
 30
0.0
 40
0.013779
 41
0.01378
  0
SEQEND
  5
320
100
AcDbEntity
 67
     1
  8
PADS_BOT
 62
     7
 48
0.001
  0
POLYLINE
  5
321
100
AcDbEntity
 67
     1
  8
PADS_BOT
 62
     7
 48
0.001
100
AcDb2dPolyline
 66
     1
 10
0.0
 20
0.0
 30
0.0
  0
VERTEX
  5
322
100
AcDbEntity
 67
     1
  8
PADS_BOT
 62
     7
 48
0.001
100
AcDbVertex
100
AcDb2dVertex
 10
5.668854
 20
4.884204
 30
0.0
 40
0.013779
 41
0.01378
  0
VERTEX
  5
323
100
AcDbEntity
 67
     1
  8
PADS_BOT
 62
     7
 48
0.001
100
AcDbVertex
100
AcDb2dVertex
 10
5.745626
 20
4.884204
 30
0.0
 40
0.013779
 41
0.01378
  0
SEQEND
  5
324
100
AcDbEntity
 67
     1
  8
PADS_BOT
 62
     7
 48
0.001
  0
POLYLINE
  5
325
100
AcDbEntity
 67
     1
  8
PADS_BOT
 62
     7
 48
0.001
100
AcDb2dPolyline
 66
     1
 10
0.0
 20
0.0
 30
0.0
  0
VERTEX
  5
326
100
AcDbEntity
 67
     1
  8
PADS_BOT
 62
     7
 48
0.001
100
AcDbVertex
100
AcDb2dVertex
 10
5.473972
 20
4.907826
 30
0.0
 40
0.013779
 41
0.01378
  0
VERTEX
  5
327
100
AcDbEntity
 67
     1
  8
PADS_BOT
 62
     7
 48
0.001
100
AcDbVertex
100
AcDb2dVertex
 10
5.550744
 20
4.907826
 30
0.0
 40
0.013779
 41
0.01378
  0
SEQEND
  5
328
100
AcDbEntity
 67
     1
  8
PADS_BOT
 62
     7
 48
0.001
  0
POLYLINE
  5
329
100
AcDbEntity
 67
     1
  8
PADS_BOT
 62
     7
 48
0.001
100
AcDb2dPolyline
 66
     1
 10
0.0
 20
0.0
 30
0.0
  0
VERTEX
  5
32A
100
AcDbEntity
 67
     1
  8
PADS_BOT
 62
     7
 48
0.001
100
AcDbVertex
100
AcDb2dVertex
 10
5.668854
 20
4.907826
 30
0.0
 40
0.013779
 41
0.01378
  0
VERTEX
  5
32B
100
AcDbEntity
 67
     1
  8
PADS_BOT
 62
     7
 48
0.001
100
AcDbVertex
100
AcDb2dVertex
 10
5.745626
 20
4.907826
 30
0.0
 40
0.013779
 41
0.01378
  0
SEQEND
  5
32C
100
AcDbEntity
 67
     1
  8
PADS_BOT
 62
     7
 48
0.001
  0
POLYLINE
  5
32D
100
AcDbEntity
 67
     1
  8
PADS_BOT
 62
     7
 48
0.001
100
AcDb2dPolyline
 66
     1
 10
0.0
 20
0.0
 30
0.0
  0
VERTEX
  5
32E
100
AcDbEntity
 67
     1
  8
PADS_BOT
 62
     7
 48
0.001
100
AcDbVertex
100
AcDb2dVertex
 10
5.473972
 20
4.931448
 30
0.0
 40
0.013779
 41
0.01378
  0
VERTEX
  5
32F
100
AcDbEntity
 67
     1
  8
PADS_BOT
 62
     7
 48
0.001
100
AcDbVertex
100
AcDb2dVertex
 10
5.550744
 20
4.931448
 30
0.0
 40
0.013779
 41
0.01378
  0
SEQEND
  5
330
100
AcDbEntity
 67
     1
  8
PADS_BOT
 62
     7
 48
0.001
  0
POLYLINE
  5
331
100
AcDbEntity
 67
     1
  8
PADS_BOT
 62
     7
 48
0.001
100
AcDb2dPolyline
 66
     1
 10
0.0
 20
0.0
 30
0.0
  0
VERTEX
  5
332
100
AcDbEntity
 67
     1
  8
PADS_BOT
 62
     7
 48
0.001
100
AcDbVertex
100
AcDb2dVertex
 10
5.668854
 20
4.931448
 30
0.0
 40
0.013779
 41
0.01378
  0
VERTEX
  5
333
100
AcDbEntity
 67
     1
  8
PADS_BOT
 62
     7
 48
0.001
100
AcDbVertex
100
AcDb2dVertex
 10
5.745626
 20
4.931448
 30
0.0
 40
0.013779
 41
0.01378
  0
SEQEND
  5
334
100
AcDbEntity
 67
     1
  8
PADS_BOT
 62
     7
 48
0.001
  0
POLYLINE
  5
335
100
AcDbEntity
 67
     1
  8
PADS_BOT
 62
     7
 48
0.001
100
AcDb2dPolyline
 66
     1
 10
0.0
 20
0.0
 30
0.0
  0
VERTEX
  5
336
100
AcDbEntity
 67
     1
  8
PADS_BOT
 62
     7
 48
0.001
100
AcDbVertex
100
AcDb2dVertex
 10
5.473972
 20
4.95507
 30
0.0
 40
0.013779
 41
0.01378
  0
VERTEX
  5
337
100
AcDbEntity
 67
     1
  8
PADS_BOT
 62
     7
 48
0.001
100
AcDbVertex
100
AcDb2dVertex
 10
5.550744
 20
4.95507
 30
0.0
 40
0.013779
 41
0.01378
  0
SEQEND
  5
338
100
AcDbEntity
 67
     1
  8
PADS_BOT
 62
     7
 48
0.001
  0
POLYLINE
  5
339
100
AcDbEntity
 67
     1
  8
PADS_BOT
 62
     7
 48
0.001
100
AcDb2dPolyline
 66
     1
 10
0.0
 20
0.0
 30
0.0
  0
VERTEX
  5
33A
100
AcDbEntity
 67
     1
  8
PADS_BOT
 62
     7
 48
0.001
100
AcDbVertex
100
AcDb2dVertex
 10
5.668854
 20
4.95507
 30
0.0
 40
0.013779
 41
0.01378
  0
VERTEX
  5
33B
100
AcDbEntity
 67
     1
  8
PADS_BOT
 62
     7
 48
0.001
100
AcDbVertex
100
AcDb2dVertex
 10
5.745626
 20
4.95507
 30
0.0
 40
0.013779
 41
0.01378
  0
SEQEND
  5
33C
100
AcDbEntity
 67
     1
  8
PADS_BOT
 62
     7
 48
0.001
  0
POLYLINE
  5
33D
100
AcDbEntity
 67
     1
  8
PADS_BOT
 62
     7
 48
0.001
100
AcDb2dPolyline
 66
     1
 10
0.0
 20
0.0
 30
0.0
  0
VERTEX
  5
33E
100
AcDbEntity
 67
     1
  8
PADS_BOT
 62
     7
 48
0.001
100
AcDbVertex
100
AcDb2dVertex
 10
5.473972
 20
4.978692
 30
0.0
 40
0.013779
 41
0.01378
  0
VERTEX
  5
33F
100
AcDbEntity
 67
     1
  8
PADS_BOT
 62
     7
 48
0.001
100
AcDbVertex
100
AcDb2dVertex
 10
5.550744
 20
4.978692
 30
0.0
 40
0.013779
 41
0.01378
  0
SEQEND
  5
340
100
AcDbEntity
 67
     1
  8
PADS_BOT
 62
     7
 48
0.001
  0
POLYLINE
  5
341
100
AcDbEntity
 67
     1
  8
PADS_BOT
 62
     7
 48
0.001
100
AcDb2dPolyline
 66
     1
 10
0.0
 20
0.0
 30
0.0
  0
VERTEX
  5
342
100
AcDbEntity
 67
     1
  8
PADS_BOT
 62
     7
 48
0.001
100
AcDbVertex
100
AcDb2dVertex
 10
5.668854
 20
4.978692
 30
0.0
 40
0.013779
 41
0.01378
  0
VERTEX
  5
343
100
AcDbEntity
 67
     1
  8
PADS_BOT
 62
     7
 48
0.001
100
AcDbVertex
100
AcDb2dVertex
 10
5.745626
 20
4.978692
 30
0.0
 40
0.013779
 41
0.01378
  0
SEQEND
  5
344
100
AcDbEntity
 67
     1
  8
PADS_BOT
 62
     7
 48
0.001
  0
POLYLINE
  5
345
100
AcDbEntity
 67
     1
  8
PADS_BOT
 62
     7
 48
0.001
100
AcDb2dPolyline
 66
     1
 10
0.0
 20
0.0
 30
0.0
  0
VERTEX
  5
346
100
AcDbEntity
 67
     1
  8
PADS_BOT
 62
     7
 48
0.001
100
AcDbVertex
100
AcDb2dVertex
 10
5.473972
 20
5.002315
 30
0.0
 40
0.013779
 41
0.01378
  0
VERTEX
  5
347
100
AcDbEntity
 67
     1
  8
PADS_BOT
 62
     7
 48
0.001
100
AcDbVertex
100
AcDb2dVertex
 10
5.550744
 20
5.002315
 30
0.0
 40
0.013779
 41
0.01378
  0
SEQEND
  5
348
100
AcDbEntity
 67
     1
  8
PADS_BOT
 62
     7
 48
0.001
  0
POLYLINE
  5
349
100
AcDbEntity
 67
     1
  8
PADS_BOT
 62
     7
 48
0.001
100
AcDb2dPolyline
 66
     1
 10
0.0
 20
0.0
 30
0.0
  0
VERTEX
  5
34A
100
AcDbEntity
 67
     1
  8
PADS_BOT
 62
     7
 48
0.001
100
AcDbVertex
100
AcDb2dVertex
 10
5.668854
 20
5.002315
 30
0.0
 40
0.013779
 41
0.01378
  0
VERTEX
  5
34B
100
AcDbEntity
 67
     1
  8
PADS_BOT
 62
     7
 48
0.001
100
AcDbVertex
100
AcDb2dVertex
 10
5.745626
 20
5.002315
 30
0.0
 40
0.013779
 41
0.01378
  0
SEQEND
  5
34C
100
AcDbEntity
 67
     1
  8
PADS_BOT
 62
     7
 48
0.001
  0
POLYLINE
  5
34D
100
AcDbEntity
 67
     1
  8
PADS_BOT
 62
     7
 48
0.001
100
AcDb2dPolyline
 66
     1
 10
0.0
 20
0.0
 30
0.0
  0
VERTEX
  5
34E
100
AcDbEntity
 67
     1
  8
PADS_BOT
 62
     7
 48
0.001
100
AcDbVertex
100
AcDb2dVertex
 10
5.473972
 20
5.025937
 30
0.0
 40
0.013779
 41
0.01378
  0
VERTEX
  5
34F
100
AcDbEntity
 67
     1
  8
PADS_BOT
 62
     7
 48
0.001
100
AcDbVertex
100
AcDb2dVertex
 10
5.550744
 20
5.025937
 30
0.0
 40
0.013779
 41
0.01378
  0
SEQEND
  5
350
100
AcDbEntity
 67
     1
  8
PADS_BOT
 62
     7
 48
0.001
  0
POLYLINE
  5
351
100
AcDbEntity
 67
     1
  8
PADS_BOT
 62
     7
 48
0.001
100
AcDb2dPolyline
 66
     1
 10
0.0
 20
0.0
 30
0.0
  0
VERTEX
  5
352
100
AcDbEntity
 67
     1
  8
PADS_BOT
 62
     7
 48
0.001
100
AcDbVertex
100
AcDb2dVertex
 10
5.668854
 20
5.025937
 30
0.0
 40
0.013779
 41
0.01378
  0
VERTEX
  5
353
100
AcDbEntity
 67
     1
  8
PADS_BOT
 62
     7
 48
0.001
100
AcDbVertex
100
AcDb2dVertex
 10
5.745626
 20
5.025937
 30
0.0
 40
0.013779
 41
0.01378
  0
SEQEND
  5
354
100
AcDbEntity
 67
     1
  8
PADS_BOT
 62
     7
 48
0.001
  0
POLYLINE
  5
355
100
AcDbEntity
 67
     1
  8
PADS_BOT
 62
     7
 48
0.001
100
AcDb2dPolyline
 66
     1
 10
0.0
 20
0.0
 30
0.0
  0
VERTEX
  5
356
100
AcDbEntity
 67
     1
  8
PADS_BOT
 62
     7
 48
0.001
100
AcDbVertex
100
AcDb2dVertex
 10
5.473972
 20
5.049559
 30
0.0
 40
0.013779
 41
0.01378
  0
VERTEX
  5
357
100
AcDbEntity
 67
     1
  8
PADS_BOT
 62
     7
 48
0.001
100
AcDbVertex
100
AcDb2dVertex
 10
5.550744
 20
5.049559
 30
0.0
 40
0.013779
 41
0.01378
  0
SEQEND
  5
358
100
AcDbEntity
 67
     1
  8
PADS_BOT
 62
     7
 48
0.001
  0
POLYLINE
  5
359
100
AcDbEntity
 67
     1
  8
PADS_BOT
 62
     7
 48
0.001
100
AcDb2dPolyline
 66
     1
 10
0.0
 20
0.0
 30
0.0
  0
VERTEX
  5
35A
100
AcDbEntity
 67
     1
  8
PADS_BOT
 62
     7
 48
0.001
100
AcDbVertex
100
AcDb2dVertex
 10
5.668854
 20
5.049559
 30
0.0
 40
0.013779
 41
0.01378
  0
VERTEX
  5
35B
100
AcDbEntity
 67
     1
  8
PADS_BOT
 62
     7
 48
0.001
100
AcDbVertex
100
AcDb2dVertex
 10
5.745626
 20
5.049559
 30
0.0
 40
0.013779
 41
0.01378
  0
SEQEND
  5
35C
100
AcDbEntity
 67
     1
  8
PADS_BOT
 62
     7
 48
0.001
  0
POLYLINE
  5
35D
100
AcDbEntity
 67
     1
  8
PADS_BOT
 62
     7
 48
0.001
100
AcDb2dPolyline
 66
     1
 10
0.0
 20
0.0
 30
0.0
  0
VERTEX
  5
35E
100
AcDbEntity
 67
     1
  8
PADS_BOT
 62
     7
 48
0.001
100
AcDbVertex
100
AcDb2dVertex
 10
5.473972
 20
5.073181
 30
0.0
 40
0.013779
 41
0.01378
  0
VERTEX
  5
35F
100
AcDbEntity
 67
     1
  8
PADS_BOT
 62
     7
 48
0.001
100
AcDbVertex
100
AcDb2dVertex
 10
5.550744
 20
5.073181
 30
0.0
 40
0.013779
 41
0.01378
  0
SEQEND
  5
360
100
AcDbEntity
 67
     1
  8
PADS_BOT
 62
     7
 48
0.001
  0
POLYLINE
  5
361
100
AcDbEntity
 67
     1
  8
PADS_BOT
 62
     7
 48
0.001
100
AcDb2dPolyline
 66
     1
 10
0.0
 20
0.0
 30
0.0
  0
VERTEX
  5
362
100
AcDbEntity
 67
     1
  8
PADS_BOT
 62
     7
 48
0.001
100
AcDbVertex
100
AcDb2dVertex
 10
5.668854
 20
5.073181
 30
0.0
 40
0.013779
 41
0.01378
  0
VERTEX
  5
363
100
AcDbEntity
 67
     1
  8
PADS_BOT
 62
     7
 48
0.001
100
AcDbVertex
100
AcDb2dVertex
 10
5.745626
 20
5.073181
 30
0.0
 40
0.013779
 41
0.01378
  0
SEQEND
  5
364
100
AcDbEntity
 67
     1
  8
PADS_BOT
 62
     7
 48
0.001
  0
POLYLINE
  5
365
100
AcDbEntity
 67
     1
  8
PADS_BOT
 62
     7
 48
0.001
100
AcDb2dPolyline
 66
     1
 10
0.0
 20
0.0
 30
0.0
  0
VERTEX
  5
366
100
AcDbEntity
 67
     1
  8
PADS_BOT
 62
     7
 48
0.001
100
AcDbVertex
100
AcDb2dVertex
 10
5.473972
 20
5.096803
 30
0.0
 40
0.013779
 41
0.01378
  0
VERTEX
  5
367
100
AcDbEntity
 67
     1
  8
PADS_BOT
 62
     7
 48
0.001
100
AcDbVertex
100
AcDb2dVertex
 10
5.550744
 20
5.096803
 30
0.0
 40
0.013779
 41
0.01378
  0
SEQEND
  5
368
100
AcDbEntity
 67
     1
  8
PADS_BOT
 62
     7
 48
0.001
  0
POLYLINE
  5
369
100
AcDbEntity
 67
     1
  8
PADS_BOT
 62
     7
 48
0.001
100
AcDb2dPolyline
 66
     1
 10
0.0
 20
0.0
 30
0.0
  0
VERTEX
  5
36A
100
AcDbEntity
 67
     1
  8
PADS_BOT
 62
     7
 48
0.001
100
AcDbVertex
100
AcDb2dVertex
 10
5.668854
 20
5.096803
 30
0.0
 40
0.013779
 41
0.01378
  0
VERTEX
  5
36B
100
AcDbEntity
 67
     1
  8
PADS_BOT
 62
     7
 48
0.001
100
AcDbVertex
100
AcDb2dVertex
 10
5.745626
 20
5.096803
 30
0.0
 40
0.013779
 41
0.01378
  0
SEQEND
  5
36C
100
AcDbEntity
 67
     1
  8
PADS_BOT
 62
     7
 48
0.001
  0
POLYLINE
  5
36D
100
AcDbEntity
 67
     1
  8
PADS_BOT
 62
     7
 48
0.001
100
AcDb2dPolyline
 66
     1
 10
0.0
 20
0.0
 30
0.0
  0
VERTEX
  5
36E
100
AcDbEntity
 67
     1
  8
PADS_BOT
 62
     7
 48
0.001
100
AcDbVertex
100
AcDb2dVertex
 10
5.473972
 20
5.120425
 30
0.0
 40
0.013779
 41
0.01378
  0
VERTEX
  5
36F
100
AcDbEntity
 67
     1
  8
PADS_BOT
 62
     7
 48
0.001
100
AcDbVertex
100
AcDb2dVertex
 10
5.550744
 20
5.120425
 30
0.0
 40
0.013779
 41
0.01378
  0
SEQEND
  5
370
100
AcDbEntity
 67
     1
  8
PADS_BOT
 62
     7
 48
0.001
  0
POLYLINE
  5
371
100
AcDbEntity
 67
     1
  8
PADS_BOT
 62
     7
 48
0.001
100
AcDb2dPolyline
 66
     1
 10
0.0
 20
0.0
 30
0.0
  0
VERTEX
  5
372
100
AcDbEntity
 67
     1
  8
PADS_BOT
 62
     7
 48
0.001
100
AcDbVertex
100
AcDb2dVertex
 10
5.668854
 20
5.120425
 30
0.0
 40
0.013779
 41
0.01378
  0
VERTEX
  5
373
100
AcDbEntity
 67
     1
  8
PADS_BOT
 62
     7
 48
0.001
100
AcDbVertex
100
AcDb2dVertex
 10
5.745626
 20
5.120425
 30
0.0
 40
0.013779
 41
0.01378
  0
SEQEND
  5
374
100
AcDbEntity
 67
     1
  8
PADS_BOT
 62
     7
 48
0.001
  0
POLYLINE
  5
375
100
AcDbEntity
 67
     1
  8
PADS_BOT
 62
     7
 48
0.001
100
AcDb2dPolyline
 66
     1
 10
0.0
 20
0.0
 30
0.0
  0
VERTEX
  5
376
100
AcDbEntity
 67
     1
  8
PADS_BOT
 62
     7
 48
0.001
100
AcDbVertex
100
AcDb2dVertex
 10
5.473972
 20
5.144047
 30
0.0
 40
0.013779
 41
0.01378
  0
VERTEX
  5
377
100
AcDbEntity
 67
     1
  8
PADS_BOT
 62
     7
 48
0.001
100
AcDbVertex
100
AcDb2dVertex
 10
5.550744
 20
5.144047
 30
0.0
 40
0.013779
 41
0.01378
  0
SEQEND
  5
378
100
AcDbEntity
 67
     1
  8
PADS_BOT
 62
     7
 48
0.001
  0
POLYLINE
  5
379
100
AcDbEntity
 67
     1
  8
PADS_BOT
 62
     7
 48
0.001
100
AcDb2dPolyline
 66
     1
 10
0.0
 20
0.0
 30
0.0
  0
VERTEX
  5
37A
100
AcDbEntity
 67
     1
  8
PADS_BOT
 62
     7
 48
0.001
100
AcDbVertex
100
AcDb2dVertex
 10
5.668854
 20
5.144047
 30
0.0
 40
0.013779
 41
0.01378
  0
VERTEX
  5
37B
100
AcDbEntity
 67
     1
  8
PADS_BOT
 62
     7
 48
0.001
100
AcDbVertex
100
AcDb2dVertex
 10
5.745626
 20
5.144047
 30
0.0
 40
0.013779
 41
0.01378
  0
SEQEND
  5
37C
100
AcDbEntity
 67
     1
  8
PADS_BOT
 62
     7
 48
0.001
  0
POLYLINE
  5
37D
100
AcDbEntity
 67
     1
  8
PADS_BOT
 62
     7
 48
0.001
100
AcDb2dPolyline
 66
     1
 10
0.0
 20
0.0
 30
0.0
  0
VERTEX
  5
37E
100
AcDbEntity
 67
     1
  8
PADS_BOT
 62
     7
 48
0.001
100
AcDbVertex
100
AcDb2dVertex
 10
5.473972
 20
5.167669
 30
0.0
 40
0.013779
 41
0.01378
  0
VERTEX
  5
37F
100
AcDbEntity
 67
     1
  8
PADS_BOT
 62
     7
 48
0.001
100
AcDbVertex
100
AcDb2dVertex
 10
5.550744
 20
5.167669
 30
0.0
 40
0.013779
 41
0.01378
  0
SEQEND
  5
380
100
AcDbEntity
 67
     1
  8
PADS_BOT
 62
     7
 48
0.001
  0
POLYLINE
  5
381
100
AcDbEntity
 67
     1
  8
PADS_BOT
 62
     7
 48
0.001
100
AcDb2dPolyline
 66
     1
 10
0.0
 20
0.0
 30
0.0
  0
VERTEX
  5
382
100
AcDbEntity
 67
     1
  8
PADS_BOT
 62
     7
 48
0.001
100
AcDbVertex
100
AcDb2dVertex
 10
5.668854
 20
5.167669
 30
0.0
 40
0.013779
 41
0.01378
  0
VERTEX
  5
383
100
AcDbEntity
 67
     1
  8
PADS_BOT
 62
     7
 48
0.001
100
AcDbVertex
100
AcDb2dVertex
 10
5.745626
 20
5.167669
 30
0.0
 40
0.013779
 41
0.01378
  0
SEQEND
  5
384
100
AcDbEntity
 67
     1
  8
PADS_BOT
 62
     7
 48
0.001
  0
POLYLINE
  5
385
100
AcDbEntity
 67
     1
  8
PADS_BOT
 62
     7
 48
0.001
100
AcDb2dPolyline
 66
     1
 10
0.0
 20
0.0
 30
0.0
  0
VERTEX
  5
386
100
AcDbEntity
 67
     1
  8
PADS_BOT
 62
     7
 48
0.001
100
AcDbVertex
100
AcDb2dVertex
 10
5.473972
 20
5.191291
 30
0.0
 40
0.013779
 41
0.01378
  0
VERTEX
  5
387
100
AcDbEntity
 67
     1
  8
PADS_BOT
 62
     7
 48
0.001
100
AcDbVertex
100
AcDb2dVertex
 10
5.550744
 20
5.191291
 30
0.0
 40
0.013779
 41
0.01378
  0
SEQEND
  5
388
100
AcDbEntity
 67
     1
  8
PADS_BOT
 62
     7
 48
0.001
  0
POLYLINE
  5
389
100
AcDbEntity
 67
     1
  8
PADS_BOT
 62
     7
 48
0.001
100
AcDb2dPolyline
 66
     1
 10
0.0
 20
0.0
 30
0.0
  0
VERTEX
  5
38A
100
AcDbEntity
 67
     1
  8
PADS_BOT
 62
     7
 48
0.001
100
AcDbVertex
100
AcDb2dVertex
 10
5.668854
 20
5.191291
 30
0.0
 40
0.013779
 41
0.01378
  0
VERTEX
  5
38B
100
AcDbEntity
 67
     1
  8
PADS_BOT
 62
     7
 48
0.001
100
AcDbVertex
100
AcDb2dVertex
 10
5.745626
 20
5.191291
 30
0.0
 40
0.013779
 41
0.01378
  0
SEQEND
  5
38C
100
AcDbEntity
 67
     1
  8
PADS_BOT
 62
     7
 48
0.001
  0
POLYLINE
  5
38D
100
AcDbEntity
 67
     1
  8
PADS_BOT
 62
     7
 48
0.001
100
AcDb2dPolyline
 66
     1
 10
0.0
 20
0.0
 30
0.0
  0
VERTEX
  5
38E
100
AcDbEntity
 67
     1
  8
PADS_BOT
 62
     7
 48
0.001
100
AcDbVertex
100
AcDb2dVertex
 10
5.473972
 20
5.214913
 30
0.0
 40
0.013779
 41
0.01378
  0
VERTEX
  5
38F
100
AcDbEntity
 67
     1
  8
PADS_BOT
 62
     7
 48
0.001
100
AcDbVertex
100
AcDb2dVertex
 10
5.550744
 20
5.214913
 30
0.0
 40
0.013779
 41
0.01378
  0
SEQEND
  5
390
100
AcDbEntity
 67
     1
  8
PADS_BOT
 62
     7
 48
0.001
  0
POLYLINE
  5
391
100
AcDbEntity
 67
     1
  8
PADS_BOT
 62
     7
 48
0.001
100
AcDb2dPolyline
 66
     1
 10
0.0
 20
0.0
 30
0.0
  0
VERTEX
  5
392
100
AcDbEntity
 67
     1
  8
PADS_BOT
 62
     7
 48
0.001
100
AcDbVertex
100
AcDb2dVertex
 10
5.668854
 20
5.214913
 30
0.0
 40
0.013779
 41
0.01378
  0
VERTEX
  5
393
100
AcDbEntity
 67
     1
  8
PADS_BOT
 62
     7
 48
0.001
100
AcDbVertex
100
AcDb2dVertex
 10
5.745626
 20
5.214913
 30
0.0
 40
0.013779
 41
0.01378
  0
SEQEND
  5
394
100
AcDbEntity
 67
     1
  8
PADS_BOT
 62
     7
 48
0.001
  0
POLYLINE
  5
395
100
AcDbEntity
 67
     1
  8
PADS_BOT
 62
     7
 48
0.001
100
AcDb2dPolyline
 66
     1
 10
0.0
 20
0.0
 30
0.0
  0
VERTEX
  5
396
100
AcDbEntity
 67
     1
  8
PADS_BOT
 62
     7
 48
0.001
100
AcDbVertex
100
AcDb2dVertex
 10
5.473972
 20
5.238535
 30
0.0
 40
0.013779
 41
0.01378
  0
VERTEX
  5
397
100
AcDbEntity
 67
     1
  8
PADS_BOT
 62
     7
 48
0.001
100
AcDbVertex
100
AcDb2dVertex
 10
5.550744
 20
5.238535
 30
0.0
 40
0.013779
 41
0.01378
  0
SEQEND
  5
398
100
AcDbEntity
 67
     1
  8
PADS_BOT
 62
     7
 48
0.001
  0
POLYLINE
  5
399
100
AcDbEntity
 67
     1
  8
PADS_BOT
 62
     7
 48
0.001
100
AcDb2dPolyline
 66
     1
 10
0.0
 20
0.0
 30
0.0
  0
VERTEX
  5
39A
100
AcDbEntity
 67
     1
  8
PADS_BOT
 62
     7
 48
0.001
100
AcDbVertex
100
AcDb2dVertex
 10
5.668854
 20
5.238535
 30
0.0
 40
0.013779
 41
0.01378
  0
VERTEX
  5
39B
100
AcDbEntity
 67
     1
  8
PADS_BOT
 62
     7
 48
0.001
100
AcDbVertex
100
AcDb2dVertex
 10
5.745626
 20
5.238535
 30
0.0
 40
0.013779
 41
0.01378
  0
SEQEND
  5
39C
100
AcDbEntity
 67
     1
  8
PADS_BOT
 62
     7
 48
0.001
  0
POLYLINE
  5
39D
100
AcDbEntity
 67
     1
  8
PADS_BOT
 62
     7
 48
0.001
100
AcDb2dPolyline
 66
     1
 10
0.0
 20
0.0
 30
0.0
  0
VERTEX
  5
39E
100
AcDbEntity
 67
     1
  8
PADS_BOT
 62
     7
 48
0.001
100
AcDbVertex
100
AcDb2dVertex
 10
5.473972
 20
5.262157
 30
0.0
 40
0.013779
 41
0.01378
  0
VERTEX
  5
39F
100
AcDbEntity
 67
     1
  8
PADS_BOT
 62
     7
 48
0.001
100
AcDbVertex
100
AcDb2dVertex
 10
5.550744
 20
5.262157
 30
0.0
 40
0.013779
 41
0.01378
  0
SEQEND
  5
3A0
100
AcDbEntity
 67
     1
  8
PADS_BOT
 62
     7
 48
0.001
  0
POLYLINE
  5
3A1
100
AcDbEntity
 67
     1
  8
PADS_BOT
 62
     7
 48
0.001
100
AcDb2dPolyline
 66
     1
 10
0.0
 20
0.0
 30
0.0
  0
VERTEX
  5
3A2
100
AcDbEntity
 67
     1
  8
PADS_BOT
 62
     7
 48
0.001
100
AcDbVertex
100
AcDb2dVertex
 10
5.668854
 20
5.262157
 30
0.0
 40
0.013779
 41
0.01378
  0
VERTEX
  5
3A3
100
AcDbEntity
 67
     1
  8
PADS_BOT
 62
     7
 48
0.001
100
AcDbVertex
100
AcDb2dVertex
 10
5.745626
 20
5.262157
 30
0.0
 40
0.013779
 41
0.01378
  0
SEQEND
  5
3A4
100
AcDbEntity
 67
     1
  8
PADS_BOT
 62
     7
 48
0.001
  0
POLYLINE
  5
3A5
100
AcDbEntity
 67
     1
  8
PADS_BOT
 62
     7
 48
0.001
100
AcDb2dPolyline
 66
     1
 10
0.0
 20
0.0
 30
0.0
  0
VERTEX
  5
3A6
100
AcDbEntity
 67
     1
  8
PADS_BOT
 62
     7
 48
0.001
100
AcDbVertex
100
AcDb2dVertex
 10
5.473972
 20
5.285779
 30
0.0
 40
0.013779
 41
0.01378
  0
VERTEX
  5
3A7
100
AcDbEntity
 67
     1
  8
PADS_BOT
 62
     7
 48
0.001
100
AcDbVertex
100
AcDb2dVertex
 10
5.550744
 20
5.285779
 30
0.0
 40
0.013779
 41
0.01378
  0
SEQEND
  5
3A8
100
AcDbEntity
 67
     1
  8
PADS_BOT
 62
     7
 48
0.001
  0
POLYLINE
  5
3A9
100
AcDbEntity
 67
     1
  8
PADS_BOT
 62
     7
 48
0.001
100
AcDb2dPolyline
 66
     1
 10
0.0
 20
0.0
 30
0.0
  0
VERTEX
  5
3AA
100
AcDbEntity
 67
     1
  8
PADS_BOT
 62
     7
 48
0.001
100
AcDbVertex
100
AcDb2dVertex
 10
5.668854
 20
5.285779
 30
0.0
 40
0.013779
 41
0.01378
  0
VERTEX
  5
3AB
100
AcDbEntity
 67
     1
  8
PADS_BOT
 62
     7
 48
0.001
100
AcDbVertex
100
AcDb2dVertex
 10
5.745626
 20
5.285779
 30
0.0
 40
0.013779
 41
0.01378
  0
SEQEND
  5
3AC
100
AcDbEntity
 67
     1
  8
PADS_BOT
 62
     7
 48
0.001
  0
POLYLINE
  5
3AD
100
AcDbEntity
 67
     1
  8
PADS_BOT
 62
     7
 48
0.001
100
AcDb2dPolyline
 66
     1
 10
0.0
 20
0.0
 30
0.0
  0
VERTEX
  5
3AE
100
AcDbEntity
 67
     1
  8
PADS_BOT
 62
     7
 48
0.001
100
AcDbVertex
100
AcDb2dVertex
 10
5.473972
 20
5.309401
 30
0.0
 40
0.013779
 41
0.01378
  0
VERTEX
  5
3AF
100
AcDbEntity
 67
     1
  8
PADS_BOT
 62
     7
 48
0.001
100
AcDbVertex
100
AcDb2dVertex
 10
5.550744
 20
5.309401
 30
0.0
 40
0.013779
 41
0.01378
  0
SEQEND
  5
3B0
100
AcDbEntity
 67
     1
  8
PADS_BOT
 62
     7
 48
0.001
  0
POLYLINE
  5
3B1
100
AcDbEntity
 67
     1
  8
PADS_BOT
 62
     7
 48
0.001
100
AcDb2dPolyline
 66
     1
 10
0.0
 20
0.0
 30
0.0
  0
VERTEX
  5
3B2
100
AcDbEntity
 67
     1
  8
PADS_BOT
 62
     7
 48
0.001
100
AcDbVertex
100
AcDb2dVertex
 10
5.668854
 20
5.309401
 30
0.0
 40
0.013779
 41
0.01378
  0
VERTEX
  5
3B3
100
AcDbEntity
 67
     1
  8
PADS_BOT
 62
     7
 48
0.001
100
AcDbVertex
100
AcDb2dVertex
 10
5.745626
 20
5.309401
 30
0.0
 40
0.013779
 41
0.01378
  0
SEQEND
  5
3B4
100
AcDbEntity
 67
     1
  8
PADS_BOT
 62
     7
 48
0.001
  0
POLYLINE
  5
3B5
100
AcDbEntity
 67
     1
  8
PADS_BOT
 62
     7
 48
0.001
100
AcDb2dPolyline
 66
     1
 10
0.0
 20
0.0
 30
0.0
  0
VERTEX
  5
3B6
100
AcDbEntity
 67
     1
  8
PADS_BOT
 62
     7
 48
0.001
100
AcDbVertex
100
AcDb2dVertex
 10
5.473972
 20
5.333023
 30
0.0
 40
0.013779
 41
0.01378
  0
VERTEX
  5
3B7
100
AcDbEntity
 67
     1
  8
PADS_BOT
 62
     7
 48
0.001
100
AcDbVertex
100
AcDb2dVertex
 10
5.550744
 20
5.333023
 30
0.0
 40
0.013779
 41
0.01378
  0
SEQEND
  5
3B8
100
AcDbEntity
 67
     1
  8
PADS_BOT
 62
     7
 48
0.001
  0
POLYLINE
  5
3B9
100
AcDbEntity
 67
     1
  8
PADS_BOT
 62
     7
 48
0.001
100
AcDb2dPolyline
 66
     1
 10
0.0
 20
0.0
 30
0.0
  0
VERTEX
  5
3BA
100
AcDbEntity
 67
     1
  8
PADS_BOT
 62
     7
 48
0.001
100
AcDbVertex
100
AcDb2dVertex
 10
5.668854
 20
5.333023
 30
0.0
 40
0.013779
 41
0.01378
  0
VERTEX
  5
3BB
100
AcDbEntity
 67
     1
  8
PADS_BOT
 62
     7
 48
0.001
100
AcDbVertex
100
AcDb2dVertex
 10
5.745626
 20
5.333023
 30
0.0
 40
0.013779
 41
0.01378
  0
SEQEND
  5
3BC
100
AcDbEntity
 67
     1
  8
PADS_BOT
 62
     7
 48
0.001
  0
POLYLINE
  5
3BD
100
AcDbEntity
 67
     1
  8
PADS_BOT
 62
     7
 48
0.001
100
AcDb2dPolyline
 66
     1
 10
0.0
 20
0.0
 30
0.0
  0
VERTEX
  5
3BE
100
AcDbEntity
 67
     1
  8
PADS_BOT
 62
     7
 48
0.001
100
AcDbVertex
100
AcDb2dVertex
 10
5.473972
 20
5.356645
 30
0.0
 40
0.013779
 41
0.01378
  0
VERTEX
  5
3BF
100
AcDbEntity
 67
     1
  8
PADS_BOT
 62
     7
 48
0.001
100
AcDbVertex
100
AcDb2dVertex
 10
5.550744
 20
5.356645
 30
0.0
 40
0.013779
 41
0.01378
  0
SEQEND
  5
3C0
100
AcDbEntity
 67
     1
  8
PADS_BOT
 62
     7
 48
0.001
  0
POLYLINE
  5
3C1
100
AcDbEntity
 67
     1
  8
PADS_BOT
 62
     7
 48
0.001
100
AcDb2dPolyline
 66
     1
 10
0.0
 20
0.0
 30
0.0
  0
VERTEX
  5
3C2
100
AcDbEntity
 67
     1
  8
PADS_BOT
 62
     7
 48
0.001
100
AcDbVertex
100
AcDb2dVertex
 10
5.668854
 20
5.356645
 30
0.0
 40
0.013779
 41
0.01378
  0
VERTEX
  5
3C3
100
AcDbEntity
 67
     1
  8
PADS_BOT
 62
     7
 48
0.001
100
AcDbVertex
100
AcDb2dVertex
 10
5.745626
 20
5.356645
 30
0.0
 40
0.013779
 41
0.01378
  0
SEQEND
  5
3C4
100
AcDbEntity
 67
     1
  8
PADS_BOT
 62
     7
 48
0.001
  0
POLYLINE
  5
3C5
100
AcDbEntity
 67
     1
  8
PADS_BOT
 62
     7
 48
0.001
100
AcDb2dPolyline
 66
     1
 10
0.0
 20
0.0
 30
0.0
  0
VERTEX
  5
3C6
100
AcDbEntity
 67
     1
  8
PADS_BOT
 62
     7
 48
0.001
100
AcDbVertex
100
AcDb2dVertex
 10
5.473972
 20
5.380267
 30
0.0
 40
0.013779
 41
0.01378
  0
VERTEX
  5
3C7
100
AcDbEntity
 67
     1
  8
PADS_BOT
 62
     7
 48
0.001
100
AcDbVertex
100
AcDb2dVertex
 10
5.550744
 20
5.380267
 30
0.0
 40
0.013779
 41
0.01378
  0
SEQEND
  5
3C8
100
AcDbEntity
 67
     1
  8
PADS_BOT
 62
     7
 48
0.001
  0
POLYLINE
  5
3C9
100
AcDbEntity
 67
     1
  8
PADS_BOT
 62
     7
 48
0.001
100
AcDb2dPolyline
 66
     1
 10
0.0
 20
0.0
 30
0.0
  0
VERTEX
  5
3CA
100
AcDbEntity
 67
     1
  8
PADS_BOT
 62
     7
 48
0.001
100
AcDbVertex
100
AcDb2dVertex
 10
5.668854
 20
5.380267
 30
0.0
 40
0.013779
 41
0.01378
  0
VERTEX
  5
3CB
100
AcDbEntity
 67
     1
  8
PADS_BOT
 62
     7
 48
0.001
100
AcDbVertex
100
AcDb2dVertex
 10
5.745626
 20
5.380267
 30
0.0
 40
0.013779
 41
0.01378
  0
SEQEND
  5
3CC
100
AcDbEntity
 67
     1
  8
PADS_BOT
 62
     7
 48
0.001
  0
POLYLINE
  5
3CD
100
AcDbEntity
 67
     1
  8
PADS_BOT
 62
     7
 48
0.001
100
AcDb2dPolyline
 66
     1
 10
0.0
 20
0.0
 30
0.0
  0
VERTEX
  5
3CE
100
AcDbEntity
 67
     1
  8
PADS_BOT
 62
     7
 48
0.001
100
AcDbVertex
100
AcDb2dVertex
 10
5.473972
 20
5.403889
 30
0.0
 40
0.013779
 41
0.01378
  0
VERTEX
  5
3CF
100
AcDbEntity
 67
     1
  8
PADS_BOT
 62
     7
 48
0.001
100
AcDbVertex
100
AcDb2dVertex
 10
5.550744
 20
5.403889
 30
0.0
 40
0.013779
 41
0.01378
  0
SEQEND
  5
3D0
100
AcDbEntity
 67
     1
  8
PADS_BOT
 62
     7
 48
0.001
  0
POLYLINE
  5
3D1
100
AcDbEntity
 67
     1
  8
PADS_BOT
 62
     7
 48
0.001
100
AcDb2dPolyline
 66
     1
 10
0.0
 20
0.0
 30
0.0
  0
VERTEX
  5
3D2
100
AcDbEntity
 67
     1
  8
PADS_BOT
 62
     7
 48
0.001
100
AcDbVertex
100
AcDb2dVertex
 10
5.668854
 20
5.403889
 30
0.0
 40
0.013779
 41
0.01378
  0
VERTEX
  5
3D3
100
AcDbEntity
 67
     1
  8
PADS_BOT
 62
     7
 48
0.001
100
AcDbVertex
100
AcDb2dVertex
 10
5.745626
 20
5.403889
 30
0.0
 40
0.013779
 41
0.01378
  0
SEQEND
  5
3D4
100
AcDbEntity
 67
     1
  8
PADS_BOT
 62
     7
 48
0.001
  0
POLYLINE
  5
3D5
100
AcDbEntity
 67
     1
  8
PADS_BOT
 62
     7
 48
0.001
100
AcDb2dPolyline
 66
     1
 10
0.0
 20
0.0
 30
0.0
  0
VERTEX
  5
3D6
100
AcDbEntity
 67
     1
  8
PADS_BOT
 62
     7
 48
0.001
100
AcDbVertex
100
AcDb2dVertex
 10
5.473972
 20
5.427511
 30
0.0
 40
0.013779
 41
0.01378
  0
VERTEX
  5
3D7
100
AcDbEntity
 67
     1
  8
PADS_BOT
 62
     7
 48
0.001
100
AcDbVertex
100
AcDb2dVertex
 10
5.550744
 20
5.427511
 30
0.0
 40
0.013779
 41
0.01378
  0
SEQEND
  5
3D8
100
AcDbEntity
 67
     1
  8
PADS_BOT
 62
     7
 48
0.001
  0
POLYLINE
  5
3D9
100
AcDbEntity
 67
     1
  8
PADS_BOT
 62
     7
 48
0.001
100
AcDb2dPolyline
 66
     1
 10
0.0
 20
0.0
 30
0.0
  0
VERTEX
  5
3DA
100
AcDbEntity
 67
     1
  8
PADS_BOT
 62
     7
 48
0.001
100
AcDbVertex
100
AcDb2dVertex
 10
5.668854
 20
5.427511
 30
0.0
 40
0.013779
 41
0.01378
  0
VERTEX
  5
3DB
100
AcDbEntity
 67
     1
  8
PADS_BOT
 62
     7
 48
0.001
100
AcDbVertex
100
AcDb2dVertex
 10
5.745626
 20
5.427511
 30
0.0
 40
0.013779
 41
0.01378
  0
SEQEND
  5
3DC
100
AcDbEntity
 67
     1
  8
PADS_BOT
 62
     7
 48
0.001
  0
POLYLINE
  5
3DD
100
AcDbEntity
 67
     1
  8
PADS_BOT
 62
     7
 48
0.001
100
AcDb2dPolyline
 66
     1
 10
0.0
 20
0.0
 30
0.0
  0
VERTEX
  5
3DE
100
AcDbEntity
 67
     1
  8
PADS_BOT
 62
     7
 48
0.001
100
AcDbVertex
100
AcDb2dVertex
 10
5.473972
 20
5.451133
 30
0.0
 40
0.013779
 41
0.01378
  0
VERTEX
  5
3DF
100
AcDbEntity
 67
     1
  8
PADS_BOT
 62
     7
 48
0.001
100
AcDbVertex
100
AcDb2dVertex
 10
5.550744
 20
5.451133
 30
0.0
 40
0.013779
 41
0.01378
  0
SEQEND
  5
3E0
100
AcDbEntity
 67
     1
  8
PADS_BOT
 62
     7
 48
0.001
  0
POLYLINE
  5
3E1
100
AcDbEntity
 67
     1
  8
PADS_BOT
 62
     7
 48
0.001
100
AcDb2dPolyline
 66
     1
 10
0.0
 20
0.0
 30
0.0
  0
VERTEX
  5
3E2
100
AcDbEntity
 67
     1
  8
PADS_BOT
 62
     7
 48
0.001
100
AcDbVertex
100
AcDb2dVertex
 10
5.668854
 20
5.451133
 30
0.0
 40
0.013779
 41
0.01378
  0
VERTEX
  5
3E3
100
AcDbEntity
 67
     1
  8
PADS_BOT
 62
     7
 48
0.001
100
AcDbVertex
100
AcDb2dVertex
 10
5.745626
 20
5.451133
 30
0.0
 40
0.013779
 41
0.01378
  0
SEQEND
  5
3E4
100
AcDbEntity
 67
     1
  8
PADS_BOT
 62
     7
 48
0.001
  0
POLYLINE
  5
3E5
100
AcDbEntity
 67
     1
  8
PADS_BOT
 62
     7
 48
0.001
100
AcDb2dPolyline
 66
     1
 10
0.0
 20
0.0
 30
0.0
  0
VERTEX
  5
3E6
100
AcDbEntity
 67
     1
  8
PADS_BOT
 62
     7
 48
0.001
100
AcDbVertex
100
AcDb2dVertex
 10
5.473972
 20
5.474755
 30
0.0
 40
0.013779
 41
0.01378
  0
VERTEX
  5
3E7
100
AcDbEntity
 67
     1
  8
PADS_BOT
 62
     7
 48
0.001
100
AcDbVertex
100
AcDb2dVertex
 10
5.550744
 20
5.474755
 30
0.0
 40
0.013779
 41
0.01378
  0
SEQEND
  5
3E8
100
AcDbEntity
 67
     1
  8
PADS_BOT
 62
     7
 48
0.001
  0
POLYLINE
  5
3E9
100
AcDbEntity
 67
     1
  8
PADS_BOT
 62
     7
 48
0.001
100
AcDb2dPolyline
 66
     1
 10
0.0
 20
0.0
 30
0.0
  0
VERTEX
  5
3EA
100
AcDbEntity
 67
     1
  8
PADS_BOT
 62
     7
 48
0.001
100
AcDbVertex
100
AcDb2dVertex
 10
5.668854
 20
5.474755
 30
0.0
 40
0.013779
 41
0.01378
  0
VERTEX
  5
3EB
100
AcDbEntity
 67
     1
  8
PADS_BOT
 62
     7
 48
0.001
100
AcDbVertex
100
AcDb2dVertex
 10
5.745626
 20
5.474755
 30
0.0
 40
0.013779
 41
0.01378
  0
SEQEND
  5
3EC
100
AcDbEntity
 67
     1
  8
PADS_BOT
 62
     7
 48
0.001
  0
POLYLINE
  5
3ED
100
AcDbEntity
 67
     1
  8
PADS_BOT
 62
     7
 48
0.001
100
AcDb2dPolyline
 66
     1
 10
0.0
 20
0.0
 30
0.0
  0
VERTEX
  5
3EE
100
AcDbEntity
 67
     1
  8
PADS_BOT
 62
     7
 48
0.001
100
AcDbVertex
100
AcDb2dVertex
 10
5.473972
 20
5.498377
 30
0.0
 40
0.013779
 41
0.01378
  0
VERTEX
  5
3EF
100
AcDbEntity
 67
     1
  8
PADS_BOT
 62
     7
 48
0.001
100
AcDbVertex
100
AcDb2dVertex
 10
5.550744
 20
5.498377
 30
0.0
 40
0.013779
 41
0.01378
  0
SEQEND
  5
3F0
100
AcDbEntity
 67
     1
  8
PADS_BOT
 62
     7
 48
0.001
  0
POLYLINE
  5
3F1
100
AcDbEntity
 67
     1
  8
PADS_BOT
 62
     7
 48
0.001
100
AcDb2dPolyline
 66
     1
 10
0.0
 20
0.0
 30
0.0
  0
VERTEX
  5
3F2
100
AcDbEntity
 67
     1
  8
PADS_BOT
 62
     7
 48
0.001
100
AcDbVertex
100
AcDb2dVertex
 10
5.668854
 20
5.498377
 30
0.0
 40
0.013779
 41
0.01378
  0
VERTEX
  5
3F3
100
AcDbEntity
 67
     1
  8
PADS_BOT
 62
     7
 48
0.001
100
AcDbVertex
100
AcDb2dVertex
 10
5.745626
 20
5.498377
 30
0.0
 40
0.013779
 41
0.01378
  0
SEQEND
  5
3F4
100
AcDbEntity
 67
     1
  8
PADS_BOT
 62
     7
 48
0.001
  0
POLYLINE
  5
3F5
100
AcDbEntity
 67
     1
  8
PADS_BOT
 62
     7
 48
0.001
100
AcDb2dPolyline
 66
     1
 10
0.0
 20
0.0
 30
0.0
  0
VERTEX
  5
3F6
100
AcDbEntity
 67
     1
  8
PADS_BOT
 62
     7
 48
0.001
100
AcDbVertex
100
AcDb2dVertex
 10
5.473972
 20
5.522
 30
0.0
 40
0.013779
 41
0.01378
  0
VERTEX
  5
3F7
100
AcDbEntity
 67
     1
  8
PADS_BOT
 62
     7
 48
0.001
100
AcDbVertex
100
AcDb2dVertex
 10
5.550744
 20
5.522
 30
0.0
 40
0.013779
 41
0.01378
  0
SEQEND
  5
3F8
100
AcDbEntity
 67
     1
  8
PADS_BOT
 62
     7
 48
0.001
  0
POLYLINE
  5
3F9
100
AcDbEntity
 67
     1
  8
PADS_BOT
 62
     7
 48
0.001
100
AcDb2dPolyline
 66
     1
 10
0.0
 20
0.0
 30
0.0
  0
VERTEX
  5
3FA
100
AcDbEntity
 67
     1
  8
PADS_BOT
 62
     7
 48
0.001
100
AcDbVertex
100
AcDb2dVertex
 10
5.668854
 20
5.522
 30
0.0
 40
0.013779
 41
0.01378
  0
VERTEX
  5
3FB
100
AcDbEntity
 67
     1
  8
PADS_BOT
 62
     7
 48
0.001
100
AcDbVertex
100
AcDb2dVertex
 10
5.745626
 20
5.522
 30
0.0
 40
0.013779
 41
0.01378
  0
SEQEND
  5
3FC
100
AcDbEntity
 67
     1
  8
PADS_BOT
 62
     7
 48
0.001
  0
POLYLINE
  5
3FD
100
AcDbEntity
 67
     1
  8
PADS_BOT
 62
     7
 48
0.001
100
AcDb2dPolyline
 66
     1
 10
0.0
 20
0.0
 30
0.0
  0
VERTEX
  5
3FE
100
AcDbEntity
 67
     1
  8
PADS_BOT
 62
     7
 48
0.001
100
AcDbVertex
100
AcDb2dVertex
 10
5.473972
 20
5.545622
 30
0.0
 40
0.013779
 41
0.01378
  0
VERTEX
  5
3FF
100
AcDbEntity
 67
     1
  8
PADS_BOT
 62
     7
 48
0.001
100
AcDbVertex
100
AcDb2dVertex
 10
5.550744
 20
5.545622
 30
0.0
 40
0.013779
 41
0.01378
  0
SEQEND
  5
400
100
AcDbEntity
 67
     1
  8
PADS_BOT
 62
     7
 48
0.001
  0
POLYLINE
  5
401
100
AcDbEntity
 67
     1
  8
PADS_BOT
 62
     7
 48
0.001
100
AcDb2dPolyline
 66
     1
 10
0.0
 20
0.0
 30
0.0
  0
VERTEX
  5
402
100
AcDbEntity
 67
     1
  8
PADS_BOT
 62
     7
 48
0.001
100
AcDbVertex
100
AcDb2dVertex
 10
5.668854
 20
5.545622
 30
0.0
 40
0.013779
 41
0.01378
  0
VERTEX
  5
403
100
AcDbEntity
 67
     1
  8
PADS_BOT
 62
     7
 48
0.001
100
AcDbVertex
100
AcDb2dVertex
 10
5.745626
 20
5.545622
 30
0.0
 40
0.013779
 41
0.01378
  0
SEQEND
  5
404
100
AcDbEntity
 67
     1
  8
PADS_BOT
 62
     7
 48
0.001
  0
POLYLINE
  5
405
100
AcDbEntity
 67
     1
  8
PADS_BOT
 62
     7
 48
0.001
100
AcDb2dPolyline
 66
     1
 10
0.0
 20
0.0
 30
0.0
  0
VERTEX
  5
406
100
AcDbEntity
 67
     1
  8
PADS_BOT
 62
     7
 48
0.001
100
AcDbVertex
100
AcDb2dVertex
 10
5.473972
 20
5.569244
 30
0.0
 40
0.013779
 41
0.01378
  0
VERTEX
  5
407
100
AcDbEntity
 67
     1
  8
PADS_BOT
 62
     7
 48
0.001
100
AcDbVertex
100
AcDb2dVertex
 10
5.550744
 20
5.569244
 30
0.0
 40
0.013779
 41
0.01378
  0
SEQEND
  5
408
100
AcDbEntity
 67
     1
  8
PADS_BOT
 62
     7
 48
0.001
  0
POLYLINE
  5
409
100
AcDbEntity
 67
     1
  8
PADS_BOT
 62
     7
 48
0.001
100
AcDb2dPolyline
 66
     1
 10
0.0
 20
0.0
 30
0.0
  0
VERTEX
  5
40A
100
AcDbEntity
 67
     1
  8
PADS_BOT
 62
     7
 48
0.001
100
AcDbVertex
100
AcDb2dVertex
 10
5.668854
 20
5.569244
 30
0.0
 40
0.013779
 41
0.01378
  0
VERTEX
  5
40B
100
AcDbEntity
 67
     1
  8
PADS_BOT
 62
     7
 48
0.001
100
AcDbVertex
100
AcDb2dVertex
 10
5.745626
 20
5.569244
 30
0.0
 40
0.013779
 41
0.01378
  0
SEQEND
  5
40C
100
AcDbEntity
 67
     1
  8
PADS_BOT
 62
     7
 48
0.001
  0
POLYLINE
  5
40D
100
AcDbEntity
 67
     1
  8
PADS_BOT
 62
     7
 48
0.001
100
AcDb2dPolyline
 66
     1
 10
0.0
 20
0.0
 30
0.0
  0
VERTEX
  5
40E
100
AcDbEntity
 67
     1
  8
PADS_BOT
 62
     7
 48
0.001
100
AcDbVertex
100
AcDb2dVertex
 10
5.473972
 20
5.592866
 30
0.0
 40
0.013779
 41
0.01378
  0
VERTEX
  5
40F
100
AcDbEntity
 67
     1
  8
PADS_BOT
 62
     7
 48
0.001
100
AcDbVertex
100
AcDb2dVertex
 10
5.550744
 20
5.592866
 30
0.0
 40
0.013779
 41
0.01378
  0
SEQEND
  5
410
100
AcDbEntity
 67
     1
  8
PADS_BOT
 62
     7
 48
0.001
  0
POLYLINE
  5
411
100
AcDbEntity
 67
     1
  8
PADS_BOT
 62
     7
 48
0.001
100
AcDb2dPolyline
 66
     1
 10
0.0
 20
0.0
 30
0.0
  0
VERTEX
  5
412
100
AcDbEntity
 67
     1
  8
PADS_BOT
 62
     7
 48
0.001
100
AcDbVertex
100
AcDb2dVertex
 10
5.668854
 20
5.592866
 30
0.0
 40
0.013779
 41
0.01378
  0
VERTEX
  5
413
100
AcDbEntity
 67
     1
  8
PADS_BOT
 62
     7
 48
0.001
100
AcDbVertex
100
AcDb2dVertex
 10
5.745626
 20
5.592866
 30
0.0
 40
0.013779
 41
0.01378
  0
SEQEND
  5
414
100
AcDbEntity
 67
     1
  8
PADS_BOT
 62
     7
 48
0.001
  0
POLYLINE
  5
415
100
AcDbEntity
 67
     1
  8
PADS_BOT
 62
     7
 48
0.001
100
AcDb2dPolyline
 66
     1
 10
0.0
 20
0.0
 30
0.0
  0
VERTEX
  5
416
100
AcDbEntity
 67
     1
  8
PADS_BOT
 62
     7
 48
0.001
100
AcDbVertex
100
AcDb2dVertex
 10
5.473972
 20
5.616488
 30
0.0
 40
0.013779
 41
0.01378
  0
VERTEX
  5
417
100
AcDbEntity
 67
     1
  8
PADS_BOT
 62
     7
 48
0.001
100
AcDbVertex
100
AcDb2dVertex
 10
5.550744
 20
5.616488
 30
0.0
 40
0.013779
 41
0.01378
  0
SEQEND
  5
418
100
AcDbEntity
 67
     1
  8
PADS_BOT
 62
     7
 48
0.001
  0
POLYLINE
  5
419
100
AcDbEntity
 67
     1
  8
PADS_BOT
 62
     7
 48
0.001
100
AcDb2dPolyline
 66
     1
 10
0.0
 20
0.0
 30
0.0
  0
VERTEX
  5
41A
100
AcDbEntity
 67
     1
  8
PADS_BOT
 62
     7
 48
0.001
100
AcDbVertex
100
AcDb2dVertex
 10
5.668854
 20
5.616488
 30
0.0
 40
0.013779
 41
0.01378
  0
VERTEX
  5
41B
100
AcDbEntity
 67
     1
  8
PADS_BOT
 62
     7
 48
0.001
100
AcDbVertex
100
AcDb2dVertex
 10
5.745626
 20
5.616488
 30
0.0
 40
0.013779
 41
0.01378
  0
SEQEND
  5
41C
100
AcDbEntity
 67
     1
  8
PADS_BOT
 62
     7
 48
0.001
  0
POLYLINE
  5
41D
100
AcDbEntity
 67
     1
  8
PADS_BOT
 62
     7
 48
0.001
100
AcDb2dPolyline
 66
     1
 10
0.0
 20
0.0
 30
0.0
  0
VERTEX
  5
41E
100
AcDbEntity
 67
     1
  8
PADS_BOT
 62
     7
 48
0.001
100
AcDbVertex
100
AcDb2dVertex
 10
5.473972
 20
5.64011
 30
0.0
 40
0.013779
 41
0.01378
  0
VERTEX
  5
41F
100
AcDbEntity
 67
     1
  8
PADS_BOT
 62
     7
 48
0.001
100
AcDbVertex
100
AcDb2dVertex
 10
5.550744
 20
5.64011
 30
0.0
 40
0.013779
 41
0.01378
  0
SEQEND
  5
420
100
AcDbEntity
 67
     1
  8
PADS_BOT
 62
     7
 48
0.001
  0
POLYLINE
  5
421
100
AcDbEntity
 67
     1
  8
PADS_BOT
 62
     7
 48
0.001
100
AcDb2dPolyline
 66
     1
 10
0.0
 20
0.0
 30
0.0
  0
VERTEX
  5
422
100
AcDbEntity
 67
     1
  8
PADS_BOT
 62
     7
 48
0.001
100
AcDbVertex
100
AcDb2dVertex
 10
5.668854
 20
5.64011
 30
0.0
 40
0.013779
 41
0.01378
  0
VERTEX
  5
423
100
AcDbEntity
 67
     1
  8
PADS_BOT
 62
     7
 48
0.001
100
AcDbVertex
100
AcDb2dVertex
 10
5.745626
 20
5.64011
 30
0.0
 40
0.013779
 41
0.01378
  0
SEQEND
  5
424
100
AcDbEntity
 67
     1
  8
PADS_BOT
 62
     7
 48
0.001
  0
POLYLINE
  5
425
100
AcDbEntity
 67
     1
  8
PADS_BOT
 62
     7
 48
0.001
100
AcDb2dPolyline
 66
     1
 10
0.0
 20
0.0
 30
0.0
  0
VERTEX
  5
426
100
AcDbEntity
 67
     1
  8
PADS_BOT
 62
     7
 48
0.001
100
AcDbVertex
100
AcDb2dVertex
 10
5.473972
 20
5.663732
 30
0.0
 40
0.013779
 41
0.01378
  0
VERTEX
  5
427
100
AcDbEntity
 67
     1
  8
PADS_BOT
 62
     7
 48
0.001
100
AcDbVertex
100
AcDb2dVertex
 10
5.550744
 20
5.663732
 30
0.0
 40
0.013779
 41
0.01378
  0
SEQEND
  5
428
100
AcDbEntity
 67
     1
  8
PADS_BOT
 62
     7
 48
0.001
  0
POLYLINE
  5
429
100
AcDbEntity
 67
     1
  8
PADS_BOT
 62
     7
 48
0.001
100
AcDb2dPolyline
 66
     1
 10
0.0
 20
0.0
 30
0.0
  0
VERTEX
  5
42A
100
AcDbEntity
 67
     1
  8
PADS_BOT
 62
     7
 48
0.001
100
AcDbVertex
100
AcDb2dVertex
 10
5.668854
 20
5.663732
 30
0.0
 40
0.013779
 41
0.01378
  0
VERTEX
  5
42B
100
AcDbEntity
 67
     1
  8
PADS_BOT
 62
     7
 48
0.001
100
AcDbVertex
100
AcDb2dVertex
 10
5.745626
 20
5.663732
 30
0.0
 40
0.013779
 41
0.01378
  0
SEQEND
  5
42C
100
AcDbEntity
 67
     1
  8
PADS_BOT
 62
     7
 48
0.001
  0
POLYLINE
  5
42D
100
AcDbEntity
 67
     1
  8
PADS_BOT
 62
     7
 48
0.001
100
AcDb2dPolyline
 66
     1
 10
0.0
 20
0.0
 30
0.0
  0
VERTEX
  5
42E
100
AcDbEntity
 67
     1
  8
PADS_BOT
 62
     7
 48
0.001
100
AcDbVertex
100
AcDb2dVertex
 10
5.473972
 20
5.687354
 30
0.0
 40
0.013779
 41
0.01378
  0
VERTEX
  5
42F
100
AcDbEntity
 67
     1
  8
PADS_BOT
 62
     7
 48
0.001
100
AcDbVertex
100
AcDb2dVertex
 10
5.550744
 20
5.687354
 30
0.0
 40
0.013779
 41
0.01378
  0
SEQEND
  5
430
100
AcDbEntity
 67
     1
  8
PADS_BOT
 62
     7
 48
0.001
  0
POLYLINE
  5
431
100
AcDbEntity
 67
     1
  8
PADS_BOT
 62
     7
 48
0.001
100
AcDb2dPolyline
 66
     1
 10
0.0
 20
0.0
 30
0.0
  0
VERTEX
  5
432
100
AcDbEntity
 67
     1
  8
PADS_BOT
 62
     7
 48
0.001
100
AcDbVertex
100
AcDb2dVertex
 10
5.668854
 20
5.687354
 30
0.0
 40
0.013779
 41
0.01378
  0
VERTEX
  5
433
100
AcDbEntity
 67
     1
  8
PADS_BOT
 62
     7
 48
0.001
100
AcDbVertex
100
AcDb2dVertex
 10
5.745626
 20
5.687354
 30
0.0
 40
0.013779
 41
0.01378
  0
SEQEND
  5
434
100
AcDbEntity
 67
     1
  8
PADS_BOT
 62
     7
 48
0.001
  0
POLYLINE
  5
435
100
AcDbEntity
 67
     1
  8
PADS_BOT
 62
     7
 48
0.001
100
AcDb2dPolyline
 66
     1
 10
0.0
 20
0.0
 30
0.0
  0
VERTEX
  5
436
100
AcDbEntity
 67
     1
  8
PADS_BOT
 62
     7
 48
0.001
100
AcDbVertex
100
AcDb2dVertex
 10
5.473972
 20
5.710976
 30
0.0
 40
0.013779
 41
0.01378
  0
VERTEX
  5
437
100
AcDbEntity
 67
     1
  8
PADS_BOT
 62
     7
 48
0.001
100
AcDbVertex
100
AcDb2dVertex
 10
5.550744
 20
5.710976
 30
0.0
 40
0.013779
 41
0.01378
  0
SEQEND
  5
438
100
AcDbEntity
 67
     1
  8
PADS_BOT
 62
     7
 48
0.001
  0
POLYLINE
  5
439
100
AcDbEntity
 67
     1
  8
PADS_BOT
 62
     7
 48
0.001
100
AcDb2dPolyline
 66
     1
 10
0.0
 20
0.0
 30
0.0
  0
VERTEX
  5
43A
100
AcDbEntity
 67
     1
  8
PADS_BOT
 62
     7
 48
0.001
100
AcDbVertex
100
AcDb2dVertex
 10
5.668854
 20
5.710976
 30
0.0
 40
0.013779
 41
0.01378
  0
VERTEX
  5
43B
100
AcDbEntity
 67
     1
  8
PADS_BOT
 62
     7
 48
0.001
100
AcDbVertex
100
AcDb2dVertex
 10
5.745626
 20
5.710976
 30
0.0
 40
0.013779
 41
0.01378
  0
SEQEND
  5
43C
100
AcDbEntity
 67
     1
  8
PADS_BOT
 62
     7
 48
0.001
  0
POLYLINE
  5
43D
100
AcDbEntity
 67
     1
  8
PADS_BOT
 62
     7
 48
0.001
100
AcDb2dPolyline
 66
     1
 10
0.0
 20
0.0
 30
0.0
 70
     1
  0
VERTEX
  5
43E
100
AcDbEntity
 67
     1
  8
PADS_BOT
 62
     7
 48
0.001
100
AcDbVertex
100
AcDb2dVertex
 10
5.550744
 20
5.808909
 30
0.0
 40
0.00689
 41
0.00689
 42
1.0
  0
VERTEX
  5
43F
100
AcDbEntity
 67
     1
  8
PADS_BOT
 62
     7
 48
0.001
100
AcDbVertex
100
AcDb2dVertex
 10
5.550744
 20
5.802019
 30
0.0
 40
0.00689
 41
0.00689
 42
1.0
  0
SEQEND
  5
440
100
AcDbEntity
 67
     1
  8
PADS_BOT
 62
     7
 48
0.001
  0
POLYLINE
  5
441
100
AcDbEntity
 67
     1
  8
PADS_BOT
 62
     7
 48
0.001
100
AcDb2dPolyline
 66
     1
 10
0.0
 20
0.0
 30
0.0
 70
     1
  0
VERTEX
  5
442
100
AcDbEntity
 67
     1
  8
PADS_BOT
 62
     7
 48
0.001
100
AcDbVertex
100
AcDb2dVertex
 10
5.550744
 20
4.700149
 30
0.0
 40
0.009843
 41
0.009843
 42
1.0
  0
VERTEX
  5
443
100
AcDbEntity
 67
     1
  8
PADS_BOT
 62
     7
 48
0.001
100
AcDbVertex
100
AcDb2dVertex
 10
5.550744
 20
4.690307
 30
0.0
 40
0.009843
 41
0.009843
 42
1.0
  0
SEQEND
  5
444
100
AcDbEntity
 67
     1
  8
PADS_BOT
 62
     7
 48
0.001
  0
POLYLINE
  5
445
100
AcDbEntity
 67
     1
  8
2D_LINE_24
 62
     7
 48
0.001
100
AcDb2dPolyline
 66
     1
 10
0.0
 20
0.0
 30
0.0
 70
     1
 40
0.01
 41
0.01
  0
VERTEX
  5
446
100
AcDbEntity
 67
     1
  8
2D_LINE_24
 62
     7
 48
0.001
100
AcDbVertex
100
AcDb2dVertex
 10
4.020783
 20
5.9911
 30
0.0
  0
VERTEX
  5
447
100
AcDbEntity
 67
     1
  8
2D_LINE_24
 62
     7
 48
0.001
100
AcDbVertex
100
AcDb2dVertex
 10
3.932393
 20
6.044133
 30
0.0
  0
VERTEX
  5
448
100
AcDbEntity
 67
     1
  8
2D_LINE_24
 62
     7
 48
0.001
100
AcDbVertex
100
AcDb2dVertex
 10
3.967753
 20
6.079488
 30
0.0
  0
SEQEND
  5
449
100
AcDbEntity
 67
     1
  8
2D_LINE_24
 62
     7
 48
0.001
  0
POLYLINE
  5
44A
100
AcDbEntity
 67
     1
  8
2D_LINE_24
 62
     7
 48
0.001
100
AcDb2dPolyline
 66
     1
 10
0.0
 20
0.0
 30
0.0
 70
     1
 40
0.01
 41
0.01
  0
VERTEX
  5
44B
100
AcDbEntity
 67
     1
  8
2D_LINE_24
 62
     7
 48
0.001
100
AcDbVertex
100
AcDb2dVertex
 10
5.850953
 20
4.351871
 30
0.0
  0
VERTEX
  5
44C
100
AcDbEntity
 67
     1
  8
2D_LINE_24
 62
     7
 48
0.001
100
AcDbVertex
100
AcDb2dVertex
 10
5.750953
 20
4.326871
 30
0.0
  0
VERTEX
  5
44D
100
AcDbEntity
 67
     1
  8
2D_LINE_24
 62
     7
 48
0.001
100
AcDbVertex
100
AcDb2dVertex
 10
5.750953
 20
4.376871
 30
0.0
  0
SEQEND
  5
44E
100
AcDbEntity
 67
     1
  8
2D_LINE_24
 62
     7
 48
0.001
  0
POLYLINE
  5
44F
100
AcDbEntity
 67
     1
  8
2D_LINE_24
 62
     7
 48
0.001
100
AcDb2dPolyline
 66
     1
 10
0.0
 20
0.0
 30
0.0
 70
     1
 40
0.01
 41
0.01
  0
VERTEX
  5
450
100
AcDbEntity
 67
     1
  8
2D_LINE_24
 62
     7
 48
0.001
100
AcDbVertex
100
AcDb2dVertex
 10
4.144402
 20
4.358118
 30
0.0
  0
VERTEX
  5
451
100
AcDbEntity
 67
     1
  8
2D_LINE_24
 62
     7
 48
0.001
100
AcDbVertex
100
AcDb2dVertex
 10
4.244402
 20
4.383118
 30
0.0
  0
VERTEX
  5
452
100
AcDbEntity
 67
     1
  8
2D_LINE_24
 62
     7
 48
0.001
100
AcDbVertex
100
AcDb2dVertex
 10
4.244402
 20
4.333118
 30
0.0
  0
SEQEND
  5
453
100
AcDbEntity
 67
     1
  8
2D_LINE_24
 62
     7
 48
0.001
  0
POLYLINE
  5
454
100
AcDbEntity
 67
     1
  8
2D_LINE_24
 62
     7
 48
0.001
100
AcDb2dPolyline
 66
     1
 10
0.0
 20
0.0
 30
0.0
 70
     1
 40
0.01
 41
0.01
  0
VERTEX
  5
455
100
AcDbEntity
 67
     1
  8
2D_LINE_24
 62
     7
 48
0.001
100
AcDbVertex
100
AcDb2dVertex
 10
4.141655
 20
4.223532
 30
0.0
  0
VERTEX
  5
456
100
AcDbEntity
 67
     1
  8
2D_LINE_24
 62
     7
 48
0.001
100
AcDbVertex
100
AcDb2dVertex
 10
4.241655
 20
4.248532
 30
0.0
  0
VERTEX
  5
457
100
AcDbEntity
 67
     1
  8
2D_LINE_24
 62
     7
 48
0.001
100
AcDbVertex
100
AcDb2dVertex
 10
4.241655
 20
4.198532
 30
0.0
  0
SEQEND
  5
458
100
AcDbEntity
 67
     1
  8
2D_LINE_24
 62
     7
 48
0.001
  0
TEXT
  5
459
100
AcDbEntity
 67
     1
  8
TEXT_24
 62
     7
 48
0.001
100
AcDbText
 10
3.35018
 20
4.189334
 30
0.0
 40
0.088735
  1
125 mils
100
AcDbText
1001
TCAD
1000
TCW40_TEXT
1002
{
1000
Arial
1070
     0
1070
  1025
1002
}
  0
POLYLINE
  5
45A
100
AcDbEntity
 67
     1
  8
2D_LINE_24
 62
     7
 48
0.001
100
AcDb2dPolyline
 66
     1
 10
0.0
 20
0.0
 30
0.0
 70
     1
 40
0.01
 41
0.01
  0
VERTEX
  5
45B
100
AcDbEntity
 67
     1
  8
2D_LINE_24
 62
     7
 48
0.001
100
AcDbVertex
100
AcDb2dVertex
 10
4.013944
 20
4.064833
 30
0.0
  0
VERTEX
  5
45C
100
AcDbEntity
 67
     1
  8
2D_LINE_24
 62
     7
 48
0.001
100
AcDbVertex
100
AcDb2dVertex
 10
4.113944
 20
4.089833
 30
0.0
  0
VERTEX
  5
45D
100
AcDbEntity
 67
     1
  8
2D_LINE_24
 62
     7
 48
0.001
100
AcDbVertex
100
AcDb2dVertex
 10
4.113944
 20
4.039833
 30
0.0
  0
SEQEND
  5
45E
100
AcDbEntity
 67
     1
  8
2D_LINE_24
 62
     7
 48
0.001
  0
TEXT
  5
45F
100
AcDbEntity
 67
     1
  8
TEXT_24
 62
     7
 48
0.001
100
AcDbText
 10
4.60184
 20
4.024534
 30
0.0
 40
0.088735
  1
2000 mils
100
AcDbText
1001
TCAD
1000
TCW40_TEXT
1002
{
1000
Arial
1070
     0
1070
  1025
1002
}
  0
POLYLINE
  5
460
100
AcDbEntity
 67
     1
  8
2D_LINE_24
 62
     7
 48
0.001
100
AcDb2dPolyline
 66
     1
 10
0.0
 20
0.0
 30
0.0
 70
     1
 40
0.01
 41
0.01
  0
VERTEX
  5
461
100
AcDbEntity
 67
     1
  8
2D_LINE_24
 62
     7
 48
0.001
100
AcDbVertex
100
AcDb2dVertex
 10
2.749401
 20
4.516433
 30
0.0
  0
VERTEX
  5
462
100
AcDbEntity
 67
     1
  8
2D_LINE_24
 62
     7
 48
0.001
100
AcDbVertex
100
AcDb2dVertex
 10
2.724401
 20
4.616433
 30
0.0
  0
VERTEX
  5
463
100
AcDbEntity
 67
     1
  8
2D_LINE_24
 62
     7
 48
0.001
100
AcDbVertex
100
AcDb2dVertex
 10
2.774401
 20
4.616433
 30
0.0
  0
SEQEND
  5
464
100
AcDbEntity
 67
     1
  8
2D_LINE_24
 62
     7
 48
0.001
  0
POLYLINE
  5
465
100
AcDbEntity
 67
     1
  8
2D_LINE_24
 62
     7
 48
0.001
100
AcDb2dPolyline
 66
     1
 10
0.0
 20
0.0
 30
0.0
 70
     1
 40
0.01
 41
0.01
  0
VERTEX
  5
466
100
AcDbEntity
 67
     1
  8
2D_LINE_24
 62
     7
 48
0.001
100
AcDbVertex
100
AcDb2dVertex
 10
2.749745
 20
5.983661
 30
0.0
  0
VERTEX
  5
467
100
AcDbEntity
 67
     1
  8
2D_LINE_24
 62
     7
 48
0.001
100
AcDbVertex
100
AcDb2dVertex
 10
2.774745
 20
5.883661
 30
0.0
  0
VERTEX
  5
468
100
AcDbEntity
 67
     1
  8
2D_LINE_24
 62
     7
 48
0.001
100
AcDbVertex
100
AcDb2dVertex
 10
2.724745
 20
5.883661
 30
0.0
  0
SEQEND
  5
469
100
AcDbEntity
 67
     1
  8
2D_LINE_24
 62
     7
 48
0.001
  0
TEXT
  5
46A
100
AcDbEntity
 67
     1
  8
TEXT_24
 62
     7
 48
0.001
100
AcDbText
 10
5.00469
 20
6.173697
 30
0.0
 40
0.088735
  1
496 mils
100
AcDbText
1001
TCAD
1000
TCW40_TEXT
1002
{
1000
Arial
1070
     0
1070
  1025
1002
}
  0
TEXT
  5
46B
100
AcDbEntity
 67
     1
  8
TEXT_24
 62
     7
 48
0.001
100
AcDbText
 10
5.09533
 20
6.398924
 30
0.0
 40
0.088735
  1
390 mils
100
AcDbText
1001
TCAD
1000
TCW40_TEXT
1002
{
1000
Arial
1070
     0
1070
  1025
1002
}
  0
POLYLINE
  5
46C
100
AcDbEntity
 67
     1
  8
2D_LINE_24
 62
     7
 48
0.001
100
AcDb2dPolyline
 66
     1
 10
0.0
 20
0.0
 30
0.0
 70
     1
 40
0.01
 41
0.01
  0
VERTEX
  5
46D
100
AcDbEntity
 67
     1
  8
2D_LINE_24
 62
     7
 48
0.001
100
AcDbVertex
100
AcDb2dVertex
 10
5.625186
 20
6.441362
 30
0.0
  0
VERTEX
  5
46E
100
AcDbEntity
 67
     1
  8
2D_LINE_24
 62
     7
 48
0.001
100
AcDbVertex
100
AcDb2dVertex
 10
5.725186
 20
6.466362
 30
0.0
  0
VERTEX
  5
46F
100
AcDbEntity
 67
     1
  8
2D_LINE_24
 62
     7
 48
0.001
100
AcDbVertex
100
AcDb2dVertex
 10
5.725186
 20
6.416362
 30
0.0
  0
SEQEND
  5
470
100
AcDbEntity
 67
     1
  8
2D_LINE_24
 62
     7
 48
0.001
  0
POLYLINE
  5
471
100
AcDbEntity
 67
     1
  8
2D_LINE_24
 62
     7
 48
0.001
100
AcDb2dPolyline
 66
     1
 10
0.0
 20
0.0
 30
0.0
 70
     1
 40
0.01
 41
0.01
  0
VERTEX
  5
472
100
AcDbEntity
 67
     1
  8
2D_LINE_24
 62
     7
 48
0.001
100
AcDbVertex
100
AcDb2dVertex
 10
3.984125
 20
4.227418
 30
0.0
  0
VERTEX
  5
473
100
AcDbEntity
 67
     1
  8
2D_LINE_24
 62
     7
 48
0.001
100
AcDbVertex
100
AcDb2dVertex
 10
3.884125
 20
4.202418
 30
0.0
  0
VERTEX
  5
474
100
AcDbEntity
 67
     1
  8
2D_LINE_24
 62
     7
 48
0.001
100
AcDbVertex
100
AcDb2dVertex
 10
3.884125
 20
4.252418
 30
0.0
  0
SEQEND
  5
475
100
AcDbEntity
 67
     1
  8
2D_LINE_24
 62
     7
 48
0.001
  0
TEXT
  5
476
100
AcDbEntity
 67
     1
  8
TEXT_24
 62
     7
 48
0.001
100
AcDbText
 10
3.361645
 20
4.509087
 30
0.0
 40
0.088735
  1
125 mils
100
AcDbText
1001
TCAD
1000
TCW40_TEXT
1002
{
1000
Arial
1070
     0
1070
  1025
1002
}
  0
MTEXT
  5
477
100
AcDbEntity
 67
     1
  8
0
  6
Continuous
 62
     7
100
AcDbMText
 10
0.455014
 20
1.676852
 30
0.0
 40
0.088735
 41
3.461305
 71
     1
 72
     1
  3
{Copyright © 2002 Bitwise Systems\PAll rights reserved.  This document contains confidential information\Pand trade secrets of Bitwise Systems, and is protected by United States\Pand international copyright laws.  Use, disclosure, or reproduction is\
  3
Pprohibited without the prior express written permission of Bitwise Systems,\Pexcept as agreed in the accompanying License Agreement.  Use, \Pduplication or disclosure by the U.S. Government is subject to \Prestrictions as provided in DFARS 227.7202-
  1
1(a) and \P227.7202-3(a) (1998), and FAR 12.212, as applicable.}
 73
     1
 44
1.0
1001
TCAD
1000
TCW40_TEXT
1002
{
1000
Arial
1070
     0
1070
   257
1002
}
  0
TEXT
  5
478
100
AcDbEntity
 67
     1
  8
0
  6
Continuous
 62
     7
100
AcDbText
 10
9.928489
 20
0.604741
 30
0.0
 40
0.106481
  1
1.10
 72
     5
 11
10.218844
 21
0.604741
 31
0.0
100
AcDbText
1001
TCAD
1000
TCW40_TEXT
1002
{
1000
Arial
1070
     0
1070
   257
1002
}
  0
POLYLINE
  5
479
100
AcDbEntity
 67
     1
  8
2D_LINE_24
 62
     7
 48
0.001
100
AcDb2dPolyline
 66
     1
 10
0.0
 20
0.0
 30
0.0
 40
0.01
 41
0.01
  0
VERTEX
  5
47A
100
AcDbEntity
 67
     1
  8
2D_LINE_24
 62
     7
 48
0.001
100
AcDbVertex
100
AcDb2dVertex
 10
3.079734
 20
4.632293
 30
0.0
  0
VERTEX
  5
47B
100
AcDbEntity
 67
     1
  8
2D_LINE_24
 62
     7
 48
0.001
100
AcDbVertex
100
AcDb2dVertex
 10
3.079734
 20
4.782293
 30
0.0
  0
SEQEND
  5
47C
100
AcDbEntity
 67
     1
  8
2D_LINE_24
 62
     7
 48
0.001
  0
POLYLINE
  5
47D
100
AcDbEntity
 67
     1
  8
2D_LINE_24
 62
     7
 48
0.001
100
AcDb2dPolyline
 66
     1
 10
0.0
 20
0.0
 30
0.0
 40
0.01
 41
0.01
  0
VERTEX
  5
47E
100
AcDbEntity
 67
     1
  8
2D_LINE_24
 62
     7
 48
0.001
100
AcDbVertex
100
AcDb2dVertex
 10
3.079734
 20
4.632293
 30
0.0
  0
VERTEX
  5
47F
100
AcDbEntity
 67
     1
  8
2D_LINE_24
 62
     7
 48
0.001
100
AcDbVertex
100
AcDb2dVertex
 10
3.079734
 20
5.102293
 30
0.0
  0
SEQEND
  5
480
100
AcDbEntity
 67
     1
  8
2D_LINE_24
 62
     7
 48
0.001
  0
POLYLINE
  5
481
100
AcDbEntity
 67
     1
  8
2D_LINE_24
 62
     7
 48
0.001
100
AcDb2dPolyline
 66
     1
 10
0.0
 20
0.0
 30
0.0
 40
0.01
 41
0.01
  0
VERTEX
  5
482
100
AcDbEntity
 67
     1
  8
2D_LINE_24
 62
     7
 48
0.001
100
AcDbVertex
100
AcDb2dVertex
 10
3.079734
 20
5.882293
 30
0.0
  0
VERTEX
  5
483
100
AcDbEntity
 67
     1
  8
2D_LINE_24
 62
     7
 48
0.001
100
AcDbVertex
100
AcDb2dVertex
 10
3.079734
 20
5.256043
 30
0.0
  0
SEQEND
  5
484
100
AcDbEntity
 67
     1
  8
2D_LINE_24
 62
     7
 48
0.001
  0
POLYLINE
  5
485
100
AcDbEntity
 67
     1
  8
2D_LINE_24
 62
     7
 48
0.001
100
AcDb2dPolyline
 66
     1
 10
0.0
 20
0.0
 30
0.0
 70
     1
 40
0.01
 41
0.01
  0
VERTEX
  5
486
100
AcDbEntity
 67
     1
  8
2D_LINE_24
 62
     7
 48
0.001
100
AcDbVertex
100
AcDb2dVertex
 10
3.081067
 20
4.646995
 30
0.0
  0
VERTEX
  5
487
100
AcDbEntity
 67
     1
  8
2D_LINE_24
 62
     7
 48
0.001
100
AcDbVertex
100
AcDb2dVertex
 10
3.056067
 20
4.746995
 30
0.0
  0
VERTEX
  5
488
100
AcDbEntity
 67
     1
  8
2D_LINE_24
 62
     7
 48
0.001
100
AcDbVertex
100
AcDb2dVertex
 10
3.106067
 20
4.746995
 30
0.0
  0
SEQEND
  5
489
100
AcDbEntity
 67
     1
  8
2D_LINE_24
 62
     7
 48
0.001
  0
POLYLINE
  5
48A
100
AcDbEntity
 67
     1
  8
2D_LINE_24
 62
     7
 48
0.001
100
AcDb2dPolyline
 66
     1
 10
0.0
 20
0.0
 30
0.0
 70
     1
 40
0.01
 41
0.01
  0
VERTEX
  5
48B
100
AcDbEntity
 67
     1
  8
2D_LINE_24
 62
     7
 48
0.001
100
AcDbVertex
100
AcDb2dVertex
 10
3.073306
 20
5.852468
 30
0.0
  0
VERTEX
  5
48C
100
AcDbEntity
 67
     1
  8
2D_LINE_24
 62
     7
 48
0.001
100
AcDbVertex
100
AcDb2dVertex
 10
3.098306
 20
5.752468
 30
0.0
  0
VERTEX
  5
48D
100
AcDbEntity
 67
     1
  8
2D_LINE_24
 62
     7
 48
0.001
100
AcDbVertex
100
AcDb2dVertex
 10
3.048306
 20
5.752468
 30
0.0
  0
SEQEND
  5
48E
100
AcDbEntity
 67
     1
  8
2D_LINE_24
 62
     7
 48
0.001
  0
POLYLINE
  5
48F
100
AcDbEntity
 67
     1
  8
0
  6
Continuous
 62
     7
100
AcDb2dPolyline
 66
     1
 10
0.0
 20
0.0
 30
0.0
 70
     1
 40
0.01
 41
0.01
  0
VERTEX
  5
490
100
AcDbEntity
 67
     1
  8
0
  6
Continuous
 62
     7
100
AcDbVertex
100
AcDb2dVertex
 10
3.755879
 20
5.495445
 30
0.0
  0
VERTEX
  5
491
100
AcDbEntity
 67
     1
  8
0
  6
Continuous
 62
     7
100
AcDbVertex
100
AcDb2dVertex
 10
4.007317
 20
5.495445
 30
0.0
  0
VERTEX
  5
492
100
AcDbEntity
 67
     1
  8
0
  6
Continuous
 62
     7
100
AcDbVertex
100
AcDb2dVertex
 10
4.007317
 20
4.999187
 30
0.0
  0
VERTEX
  5
493
100
AcDbEntity
 67
     1
  8
0
  6
Continuous
 62
     7
100
AcDbVertex
100
AcDb2dVertex
 10
3.755879
 20
4.999187
 30
0.0
  0
SEQEND
  5
494
100
AcDbEntity
 67
     1
  8
0
  6
Continuous
 62
     7
  0
POLYLINE
  5
495
100
AcDbEntity
 67
     1
  8
2D_LINE_24
 62
     7
 48
0.001
100
AcDb2dPolyline
 66
     1
 10
0.0
 20
0.0
 30
0.0
 40
0.01
 41
0.01
  0
VERTEX
  5
496
100
AcDbEntity
 67
     1
  8
2D_LINE_24
 62
     7
 48
0.001
100
AcDbVertex
100
AcDb2dVertex
 10
3.755525
 20
4.958546
 30
0.0
  0
VERTEX
  5
497
100
AcDbEntity
 67
     1
  8
2D_LINE_24
 62
     7
 48
0.001
100
AcDbVertex
100
AcDb2dVertex
 10
3.755525
 20
4.741005
 30
0.0
  0
SEQEND
  5
498
100
AcDbEntity
 67
     1
  8
2D_LINE_24
 62
     7
 48
0.001
  0
TEXT
  5
499
100
AcDbEntity
 67
     1
  8
TEXT_24
 62
     7
 48
0.001
100
AcDbText
 10
3.145622
 20
4.802312
 30
0.0
 40
0.088735
  1
250 mils
100
AcDbText
1001
TCAD
1000
TCW40_TEXT
1002
{
1000
Arial
1070
     0
1070
  1025
1002
}
  0
POLYLINE
  5
49A
100
AcDbEntity
 67
     1
  8
2D_LINE_24
 62
     7
 48
0.001
100
AcDb2dPolyline
 66
     1
 10
0.0
 20
0.0
 30
0.0
 40
0.01
 41
0.01
  0
VERTEX
  5
49B
100
AcDbEntity
 67
     1
  8
2D_LINE_24
 62
     7
 48
0.001
100
AcDbVertex
100
AcDb2dVertex
 10
3.74675
 20
4.839084
 30
0.0
  0
VERTEX
  5
49C
100
AcDbEntity
 67
     1
  8
2D_LINE_24
 62
     7
 48
0.001
100
AcDbVertex
100
AcDb2dVertex
 10
3.59675
 20
4.839084
 30
0.0
  0
SEQEND
  5
49D
100
AcDbEntity
 67
     1
  8
2D_LINE_24
 62
     7
 48
0.001
  0
POLYLINE
  5
49E
100
AcDbEntity
 67
     1
  8
2D_LINE_24
 62
     7
 48
0.001
100
AcDb2dPolyline
 66
     1
 10
0.0
 20
0.0
 30
0.0
 70
     1
 40
0.01
 41
0.01
  0
VERTEX
  5
49F
100
AcDbEntity
 67
     1
  8
2D_LINE_24
 62
     7
 48
0.001
100
AcDbVertex
100
AcDb2dVertex
 10
3.730942
 20
4.84475
 30
0.0
  0
VERTEX
  5
4A0
100
AcDbEntity
 67
     1
  8
2D_LINE_24
 62
     7
 48
0.001
100
AcDbVertex
100
AcDb2dVertex
 10
3.630942
 20
4.81975
 30
0.0
  0
VERTEX
  5
4A1
100
AcDbEntity
 67
     1
  8
2D_LINE_24
 62
     7
 48
0.001
100
AcDbVertex
100
AcDb2dVertex
 10
3.630942
 20
4.86975
 30
0.0
  0
SEQEND
  5
4A2
100
AcDbEntity
 67
     1
  8
2D_LINE_24
 62
     7
 48
0.001
  0
POLYLINE
  5
4A3
100
AcDbEntity
 67
     1
  8
2D_LINE_24
 62
     7
 48
0.001
100
AcDb2dPolyline
 66
     1
 10
0.0
 20
0.0
 30
0.0
 70
     1
 40
0.01
 41
0.01
  0
VERTEX
  5
4A4
100
AcDbEntity
 67
     1
  8
2D_LINE_24
 62
     7
 48
0.001
100
AcDbVertex
100
AcDb2dVertex
 10
4.026224
 20
4.839083
 30
0.0
  0
VERTEX
  5
4A5
100
AcDbEntity
 67
     1
  8
2D_LINE_24
 62
     7
 48
0.001
100
AcDbVertex
100
AcDb2dVertex
 10
4.126224
 20
4.864083
 30
0.0
  0
VERTEX
  5
4A6
100
AcDbEntity
 67
     1
  8
2D_LINE_24
 62
     7
 48
0.001
100
AcDbVertex
100
AcDb2dVertex
 10
4.126224
 20
4.814083
 30
0.0
  0
SEQEND
  5
4A7
100
AcDbEntity
 67
     1
  8
2D_LINE_24
 62
     7
 48
0.001
  0
POLYLINE
  5
4A8
100
AcDbEntity
 67
     1
  8
2D_LINE_24
 62
     7
 48
0.001
100
AcDb2dPolyline
 66
     1
 10
0.0
 20
0.0
 30
0.0
 40
0.01
 41
0.01
  0
VERTEX
  5
4A9
100
AcDbEntity
 67
     1
  8
2D_LINE_24
 62
     7
 48
0.001
100
AcDbVertex
100
AcDb2dVertex
 10
4.033083
 20
4.839083
 30
0.0
  0
VERTEX
  5
4AA
100
AcDbEntity
 67
     1
  8
2D_LINE_24
 62
     7
 48
0.001
100
AcDbVertex
100
AcDb2dVertex
 10
4.183083
 20
4.839083
 30
0.0
  0
SEQEND
  5
4AB
100
AcDbEntity
 67
     1
  8
2D_LINE_24
 62
     7
 48
0.001
  0
TEXT
  5
4AC
100
AcDbEntity
 67
     1
  8
TEXT_24
 62
     7
 48
0.001
100
AcDbText
 10
2.487718
 20
5.368979
 30
0.0
 40
0.088735
  1
1500 mils
100
AcDbText
1001
TCAD
1000
TCW40_TEXT
1002
{
1000
Arial
1070
     0
1070
  1025
1002
}
  0
TEXT
  5
4AD
100
AcDbEntity
 67
     1
  8
TEXT_24
 62
     7
 48
0.001
100
AcDbText
 10
2.822051
 20
5.130978
 30
0.0
 40
0.088735
  1
1250 mils
100
AcDbText
1001
TCAD
1000
TCW40_TEXT
1002
{
1000
Arial
1070
     0
1070
  1025
1002
}
  0
TEXT
  5
4AE
100
AcDbEntity
 67
     1
  8
TEXT_24
 62
     7
 48
0.001
100
AcDbText
 10
2.105451
 20
6.247727
 30
0.0
 40
0.088735
  1
157 mils thru, 250 mils pad
100
AcDbText
1001
TCAD
1000
TCW40_TEXT
1002
{
1000
Arial
1070
     0
1070
  1025
1002
}
  0
MTEXT
  5
4AF
100
AcDbEntity
 67
     1
  8
TEXT_24
 62
     7
 48
0.001
100
AcDbMText
 10
6.624908
 20
5.043757
 30
0.0
 40
0.088735
 41
0.801161
 71
     7
 72
     1
  1
{CENTERLINE\PINTERFACE\PCONNECTOR}
 73
     1
 44
1.0
1001
TCAD
1000
TCW40_TEXT
1002
{
1000
Arial
1070
     0
1070
  1025
1002
}
  0
TEXT
  5
4B0
100
AcDbEntity
 67
     1
  8
TEXT_24
 62
     7
 48
0.001
100
AcDbText
 10
4.073094
 20
5.197287
 30
0.0
 40
0.079861
  1
HIROSE FX8-80P-SV
 11
4.073094
 21
5.172981
 31
0.0
100
AcDbText
 73
     1
1001
TCAD
1000
TCW40_TEXT
1002
{
1000
Arial
1070
     0
1070
  2049
1002
}
  0
TEXT
  5
4B1
100
AcDbEntity
 67
     1
  8
TEXT_24
 62
     7
 48
0.001
100
AcDbText
 10
2.616312
 20
6.39721
 30
0.0
 40
0.088735
  1
Keep out area under Quick USB
100
AcDbText
1001
TCAD
1000
TCW40_TEXT
1002
{
1000
Arial
1070
     0
1070
  1025
1002
}
  0
INSERT
  5
5D
100
AcDbEntity
  8
0
 60
     1
100
AcDbBlockReference
 66
     1
  2
OVERHEAD
 10
-11.0
 20
-8.5
 30
0.0
1001
AVE_RENDER
1002
{
1070
     0
1000
LIGHT_0
1011
-10.0
1021
-8.5
1031
0.0
1041
100.0
1010
0.109804
1020
0.109804
1030
0.109804
1002
{
1070
     0
1070
     0
1040
0.0
1040
0.0
1040
3.0
1002
}
1002
{
1070
     9
1070
    21
1070
    15
1070
     0
1040
37.62
1040
122.37
1002
}
1002
}
1001
TCAD
1000
TCW_LIGTH
1002
{
1070
     0
1002
}
  0
ATTRIB
  5
5E
100
AcDbEntity
  8
ASHADE
  6
Continuous
 62
     1
100
AcDbText
 10
-11.0
 20
-8.5
 30
0.0
 40
0.2
  1
LIGHT_0
  7
ASHADE
 72
     1
 11
-11.0
 21
-8.6
 31
0.0
100
AcDbAttribute
  2
SNAME
 70
     0
  0
ATTRIB
  5
5F
100
AcDbEntity
  8
ASHADE
  6
Continuous
 62
     7
100
AcDbText
 10
-11.0
 20
-8.5
 30
0.0
 40
0.01
  1

100
AcDbAttribute
  2
GNAME
 70
     1
  0
ATTRIB
  5
60
100
AcDbEntity
  8
ASHADE
  6
Continuous
 62
     7
100
AcDbText
 10
-11.0
 20
-8.5
 30
0.0
 40
0.01
  1

100
AcDbAttribute
  2
LAX
 70
     1
  0
ATTRIB
  5
61
100
AcDbEntity
  8
ASHADE
  6
Continuous
 62
     7
100
AcDbText
 10
-11.0
 20
-8.5
 30
0.0
 40
0.01
  1

100
AcDbAttribute
  2
LAY
 70
     1
  0
ATTRIB
  5
62
100
AcDbEntity
  8
ASHADE
  6
Continuous
 62
     7
100
AcDbText
 10
-11.0
 20
-8.5
 30
0.0
 40
0.01
  1

100
AcDbAttribute
  2
LAZ
 70
     1
  0
ATTRIB
  5
63
100
AcDbEntity
  8
ASHADE
  6
Continuous
 62
     7
100
AcDbText
 10
-11.0
 20
-8.5
 30
0.0
 40
0.01
  1
1
100
AcDbAttribute
  2
INTENSITY
 70
     1
  0
ATTRIB
  5
64
100
AcDbEntity
  8
ASHADE
  6
Continuous
 62
     7
100
AcDbText
 10
-11.0
 20
-8.5
 30
0.0
 40
0.01
  1
1,1,1
100
AcDbAttribute
  2
COLOR
 70
     1
  0
ATTRIB
  5
65
100
AcDbEntity
  8
ASHADE
  6
Continuous
 62
     7
100
AcDbText
 10
-11.0
 20
-8.5
 30
0.0
 40
0.01
  1
0
100
AcDbAttribute
  2
CONEA
 70
     1
  0
ATTRIB
  5
66
100
AcDbEntity
  8
ASHADE
  6
Continuous
 62
     7
100
AcDbText
 10
-11.0
 20
-8.5
 30
0.0
 40
0.01
  1
-1
100
AcDbAttribute
  2
CONED
 70
     1
  0
ATTRIB
  5
67
100
AcDbEntity
  8
ASHADE
  6
Continuous
 62
     7
100
AcDbText
 10
-11.0
 20
-8.5
 30
0.0
 40
0.01
  1
-1
100
AcDbAttribute
  2
BEAMD
 70
     1
  0
SEQEND
  5
68
100
AcDbEntity
  8
0
  0
INSERT
  5
69
100
AcDbEntity
  8
0
 60
     1
100
AcDbBlockReference
 66
     1
  2
OVERHEAD
 10
22.0
 20
19.5
 30
0.0
1001
AVE_RENDER
1002
{
1070
     0
1000
LIGHT_1
1011
23.0
1021
19.5
1031
0.0
1041
100.0
1010
0.109804
1020
0.109804
1030
0.109804
1002
{
1070
     0
1070
     0
1040
0.0
1040
0.0
1040
3.0
1002
}
1002
{
1070
     9
1070
    21
1070
    15
1070
     0
1040
37.62
1040
122.37
1002
}
1002
}
1001
TCAD
1000
TCW_LIGTH
1002
{
1070
     0
1002
}
  0
ATTRIB
  5
6A
100
AcDbEntity
  8
ASHADE
  6
Continuous
 62
     1
100
AcDbText
 10
22.0
 20
19.5
 30
0.0
 40
0.2
  1
LIGHT_1
  7
ASHADE
 72
     1
 11
22.0
 21
19.4
 31
0.0
100
AcDbAttribute
  2
SNAME
 70
     0
  0
ATTRIB
  5
6B
100
AcDbEntity
  8
ASHADE
  6
Continuous
 62
     7
100
AcDbText
 10
22.0
 20
19.5
 30
0.0
 40
0.01
  1

100
AcDbAttribute
  2
GNAME
 70
     1
  0
ATTRIB
  5
6C
100
AcDbEntity
  8
ASHADE
  6
Continuous
 62
     7
100
AcDbText
 10
22.0
 20
19.5
 30
0.0
 40
0.01
  1

100
AcDbAttribute
  2
LAX
 70
     1
  0
ATTRIB
  5
6D
100
AcDbEntity
  8
ASHADE
  6
Continuous
 62
     7
100
AcDbText
 10
22.0
 20
19.5
 30
0.0
 40
0.01
  1

100
AcDbAttribute
  2
LAY
 70
     1
  0
ATTRIB
  5
6E
100
AcDbEntity
  8
ASHADE
  6
Continuous
 62
     7
100
AcDbText
 10
22.0
 20
19.5
 30
0.0
 40
0.01
  1

100
AcDbAttribute
  2
LAZ
 70
     1
  0
ATTRIB
  5
6F
100
AcDbEntity
  8
ASHADE
  6
Continuous
 62
     7
100
AcDbText
 10
22.0
 20
19.5
 30
0.0
 40
0.01
  1
1
100
AcDbAttribute
  2
INTENSITY
 70
     1
  0
ATTRIB
  5
70
100
AcDbEntity
  8
ASHADE
  6
Continuous
 62
     7
100
AcDbText
 10
22.0
 20
19.5
 30
0.0
 40
0.01
  1
1,1,1
100
AcDbAttribute
  2
COLOR
 70
     1
  0
ATTRIB
  5
71
100
AcDbEntity
  8
ASHADE
  6
Continuous
 62
     7
100
AcDbText
 10
22.0
 20
19.5
 30
0.0
 40
0.01
  1
0
100
AcDbAttribute
  2
CONEA
 70
     1
  0
ATTRIB
  5
72
100
AcDbEntity
  8
ASHADE
  6
Continuous
 62
     7
100
AcDbText
 10
22.0
 20
19.5
 30
0.0
 40
0.01
  1
-1
100
AcDbAttribute
  2
CONED
 70
     1
  0
ATTRIB
  5
73
100
AcDbEntity
  8
ASHADE
  6
Continuous
 62
     7
100
AcDbText
 10
22.0
 20
19.5
 30
0.0
 40
0.01
  1
-1
100
AcDbAttribute
  2
BEAMD
 70
     1
  0
SEQEND
  5
74
100
AcDbEntity
  8
0
  0
INSERT
  5
75
100
AcDbEntity
  8
0
 60
     1
100
AcDbBlockReference
 66
     1
  2
OVERHEAD
 10
22.0
 20
-8.5
 30
0.0
1001
AVE_RENDER
1002
{
1070
     0
1000
LIGHT_2
1011
23.0
1021
-8.5
1031
0.0
1041
100.0
1010
0.109804
1020
0.109804
1030
0.109804
1002
{
1070
     0
1070
     0
1040
0.0
1040
0.0
1040
3.0
1002
}
1002
{
1070
     9
1070
    21
1070
    15
1070
     0
1040
37.62
1040
122.37
1002
}
1002
}
1001
TCAD
1000
TCW_LIGTH
1002
{
1070
     0
1002
}
  0
ATTRIB
  5
76
100
AcDbEntity
  8
ASHADE
  6
Continuous
 62
     1
100
AcDbText
 10
22.0
 20
-8.5
 30
0.0
 40
0.2
  1
LIGHT_2
  7
ASHADE
 72
     1
 11
22.0
 21
-8.6
 31
0.0
100
AcDbAttribute
  2
SNAME
 70
     0
  0
ATTRIB
  5
77
100
AcDbEntity
  8
ASHADE
  6
Continuous
 62
     7
100
AcDbText
 10
22.0
 20
-8.5
 30
0.0
 40
0.01
  1

100
AcDbAttribute
  2
GNAME
 70
     1
  0
ATTRIB
  5
78
100
AcDbEntity
  8
ASHADE
  6
Continuous
 62
     7
100
AcDbText
 10
22.0
 20
-8.5
 30
0.0
 40
0.01
  1

100
AcDbAttribute
  2
LAX
 70
     1
  0
ATTRIB
  5
79
100
AcDbEntity
  8
ASHADE
  6
Continuous
 62
     7
100
AcDbText
 10
22.0
 20
-8.5
 30
0.0
 40
0.01
  1

100
AcDbAttribute
  2
LAY
 70
     1
  0
ATTRIB
  5
7A
100
AcDbEntity
  8
ASHADE
  6
Continuous
 62
     7
100
AcDbText
 10
22.0
 20
-8.5
 30
0.0
 40
0.01
  1

100
AcDbAttribute
  2
LAZ
 70
     1
  0
ATTRIB
  5
7B
100
AcDbEntity
  8
ASHADE
  6
Continuous
 62
     7
100
AcDbText
 10
22.0
 20
-8.5
 30
0.0
 40
0.01
  1
1
100
AcDbAttribute
  2
INTENSITY
 70
     1
  0
ATTRIB
  5
7C
100
AcDbEntity
  8
ASHADE
  6
Continuous
 62
     7
100
AcDbText
 10
22.0
 20
-8.5
 30
0.0
 40
0.01
  1
1,1,1
100
AcDbAttribute
  2
COLOR
 70
     1
  0
ATTRIB
  5
7D
100
AcDbEntity
  8
ASHADE
  6
Continuous
 62
     7
100
AcDbText
 10
22.0
 20
-8.5
 30
0.0
 40
0.01
  1
0
100
AcDbAttribute
  2
CONEA
 70
     1
  0
ATTRIB
  5
7E
100
AcDbEntity
  8
ASHADE
  6
Continuous
 62
     7
100
AcDbText
 10
22.0
 20
-8.5
 30
0.0
 40
0.01
  1
-1
100
AcDbAttribute
  2
CONED
 70
     1
  0
ATTRIB
  5
7F
100
AcDbEntity
  8
ASHADE
  6
Continuous
 62
     7
100
AcDbText
 10
22.0
 20
-8.5
 30
0.0
 40
0.01
  1
-1
100
AcDbAttribute
  2
BEAMD
 70
     1
  0
SEQEND
  5
80
100
AcDbEntity
  8
0
  0
INSERT
  5
81
100
AcDbEntity
  8
0
 60
     1
100
AcDbBlockReference
 66
     1
  2
OVERHEAD
 10
-11.0
 20
17.0
 30
0.0
1001
AVE_RENDER
1002
{
1070
     0
1000
LIGHT_3
1011
-10.0
1021
17.0
1031
0.0
1041
100.0
1010
0.109804
1020
0.109804
1030
0.109804
1002
{
1070
     0
1070
     0
1040
0.0
1040
0.0
1040
3.0
1002
}
1002
{
1070
     9
1070
    21
1070
    15
1070
     0
1040
37.62
1040
122.37
1002
}
1002
}
1001
TCAD
1000
TCW_LIGTH
1002
{
1070
     0
1002
}
  0
ATTRIB
  5
82
100
AcDbEntity
  8
ASHADE
  6
Continuous
 62
     1
100
AcDbText
 10
-11.0
 20
17.0
 30
0.0
 40
0.2
  1
LIGHT_3
  7
ASHADE
 72
     1
 11
-11.0
 21
16.9
 31
0.0
100
AcDbAttribute
  2
SNAME
 70
     0
  0
ATTRIB
  5
83
100
AcDbEntity
  8
ASHADE
  6
Continuous
 62
     7
100
AcDbText
 10
-11.0
 20
17.0
 30
0.0
 40
0.01
  1

100
AcDbAttribute
  2
GNAME
 70
     1
  0
ATTRIB
  5
84
100
AcDbEntity
  8
ASHADE
  6
Continuous
 62
     7
100
AcDbText
 10
-11.0
 20
17.0
 30
0.0
 40
0.01
  1

100
AcDbAttribute
  2
LAX
 70
     1
  0
ATTRIB
  5
85
100
AcDbEntity
  8
ASHADE
  6
Continuous
 62
     7
100
AcDbText
 10
-11.0
 20
17.0
 30
0.0
 40
0.01
  1

100
AcDbAttribute
  2
LAY
 70
     1
  0
ATTRIB
  5
86
100
AcDbEntity
  8
ASHADE
  6
Continuous
 62
     7
100
AcDbText
 10
-11.0
 20
17.0
 30
0.0
 40
0.01
  1

100
AcDbAttribute
  2
LAZ
 70
     1
  0
ATTRIB
  5
87
100
AcDbEntity
  8
ASHADE
  6
Continuous
 62
     7
100
AcDbText
 10
-11.0
 20
17.0
 30
0.0
 40
0.01
  1
1
100
AcDbAttribute
  2
INTENSITY
 70
     1
  0
ATTRIB
  5
88
100
AcDbEntity
  8
ASHADE
  6
Continuous
 62
     7
100
AcDbText
 10
-11.0
 20
17.0
 30
0.0
 40
0.01
  1
1,1,1
100
AcDbAttribute
  2
COLOR
 70
     1
  0
ATTRIB
  5
89
100
AcDbEntity
  8
ASHADE
  6
Continuous
 62
     7
100
AcDbText
 10
-11.0
 20
17.0
 30
0.0
 40
0.01
  1
0
100
AcDbAttribute
  2
CONEA
 70
     1
  0
ATTRIB
  5
8A
100
AcDbEntity
  8
ASHADE
  6
Continuous
 62
     7
100
AcDbText
 10
-11.0
 20
17.0
 30
0.0
 40
0.01
  1
-1
100
AcDbAttribute
  2
CONED
 70
     1
  0
ATTRIB
  5
8B
100
AcDbEntity
  8
ASHADE
  6
Continuous
 62
     7
100
AcDbText
 10
-11.0
 20
17.0
 30
0.0
 40
0.01
  1
-1
100
AcDbAttribute
  2
BEAMD
 70
     1
  0
SEQEND
  5
8C
100
AcDbEntity
  8
0
  0
INSERT
  5
A1
100
AcDbEntity
  8
0
 60
     1
100
AcDbBlockReference
 66
     1
  2
DIRECT
 10
93.5
 20
38.25
 30
0.0
 41
1.0
 42
1.0
 50
-52.30576
1001
AVE_RENDER
1002
{
1070
     0
1000
LIGHT_4
1011
99.0
1021
42.5
1031
0.0
1041
100.0
1010
0.501961
1020
0.501961
1030
0.501961
1002
{
1070
     0
1070
     0
1040
0.0
1040
0.0
1040
3.0
1002
}
1002
{
1070
     9
1070
    21
1070
    15
1070
     0
1040
37.62
1040
122.37
1002
}
1002
}
1001
TCAD
1000
TCW_LIGTH
1002
{
1070
     0
1002
}
  0
ATTRIB
  5
A2
100
AcDbEntity
  8
ASHADE
  6
Continuous
 62
     1
100
AcDbText
 10
93.5
 20
38.25
 30
0.0
 40
0.2
  1
LIGHT_4
 50
-52.30576
  7
ASHADE
 72
     1
 11
93.420871
 21
38.188855
 31
0.0
100
AcDbAttribute
  2
SNAME
 70
     0
  0
ATTRIB
  5
A3
100
AcDbEntity
  8
ASHADE
  6
Continuous
 62
     7
100
AcDbText
 10
93.5
 20
38.25
 30
0.0
 40
0.01
  1

 50
-52.30576
100
AcDbAttribute
  2
GNAME
 70
     1
  0
ATTRIB
  5
A4
100
AcDbEntity
  8
ASHADE
  6
Continuous
 62
     7
100
AcDbText
 10
93.5
 20
38.25
 30
0.0
 40
0.01
  1

 50
-52.30576
100
AcDbAttribute
  2
LAX
 70
     1
  0
ATTRIB
  5
A5
100
AcDbEntity
  8
ASHADE
  6
Continuous
 62
     7
100
AcDbText
 10
93.5
 20
38.25
 30
0.0
 40
0.01
  1

 50
-52.30576
100
AcDbAttribute
  2
LAY
 70
     1
  0
ATTRIB
  5
A6
100
AcDbEntity
  8
ASHADE
  6
Continuous
 62
     7
100
AcDbText
 10
93.5
 20
38.25
 30
0.0
 40
0.01
  1

 50
-52.30576
100
AcDbAttribute
  2
LAZ
 70
     1
  0
ATTRIB
  5
A7
100
AcDbEntity
  8
ASHADE
  6
Continuous
 62
     7
100
AcDbText
 10
93.5
 20
38.25
 30
0.0
 40
0.01
  1
1
 50
-52.30576
100
AcDbAttribute
  2
INTENSITY
 70
     1
  0
ATTRIB
  5
A8
100
AcDbEntity
  8
ASHADE
  6
Continuous
 62
     7
100
AcDbText
 10
93.5
 20
38.25
 30
0.0
 40
0.01
  1
1,1,1
 50
-52.30576
100
AcDbAttribute
  2
COLOR
 70
     1
  0
ATTRIB
  5
A9
100
AcDbEntity
  8
ASHADE
  6
Continuous
 62
     7
100
AcDbText
 10
93.5
 20
38.25
 30
0.0
 40
0.01
  1
0
 50
-52.30576
100
AcDbAttribute
  2
CONEA
 70
     1
  0
ATTRIB
  5
AA
100
AcDbEntity
  8
ASHADE
  6
Continuous
 62
     7
100
AcDbText
 10
93.5
 20
38.25
 30
0.0
 40
0.01
  1
-1
 50
-52.30576
100
AcDbAttribute
  2
CONED
 70
     1
  0
ATTRIB
  5
AB
100
AcDbEntity
  8
ASHADE
  6
Continuous
 62
     7
100
AcDbText
 10
93.5
 20
38.25
 30
0.0
 40
0.01
  1
-1
 50
-52.30576
100
AcDbAttribute
  2
BEAMD
 70
     1
  0
SEQEND
  5
AC
100
AcDbEntity
  8
0
  0
INSERT
  5
AD
100
AcDbEntity
  8
0
 60
     1
100
AcDbBlockReference
 66
     1
  2
OVERHEAD
 10
0.0
 20
0.0
 30
0.0
1001
AVE_RENDER
1002
{
1070
     0
1000
LIGHT_5
1011
1.0
1021
0.0
1031
0.0
1041
100.0
1010
0.501961
1020
0.501961
1030
0.501961
1002
{
1070
     0
1070
     0
1040
0.0
1040
0.0
1040
3.0
1002
}
1002
{
1070
     9
1070
    21
1070
    15
1070
     0
1040
37.62
1040
122.37
1002
}
1002
}
1001
TCAD
1000
TCW_LIGTH
1002
{
1070
     0
1002
}
  0
ATTRIB
  5
AE
100
AcDbEntity
  8
ASHADE
  6
Continuous
 62
     1
100
AcDbText
 10
0.0
 20
0.0
 30
0.0
 40
0.2
  1
LIGHT_5
  7
ASHADE
 72
     1
 11
0.0
 21
-0.1
 31
0.0
100
AcDbAttribute
  2
SNAME
 70
     0
  0
ATTRIB
  5
AF
100
AcDbEntity
  8
ASHADE
  6
Continuous
 62
     7
100
AcDbText
 10
0.0
 20
0.0
 30
0.0
 40
0.01
  1

100
AcDbAttribute
  2
GNAME
 70
     1
  0
ATTRIB
  5
B0
100
AcDbEntity
  8
ASHADE
  6
Continuous
 62
     7
100
AcDbText
 10
0.0
 20
0.0
 30
0.0
 40
0.01
  1

100
AcDbAttribute
  2
LAX
 70
     1
  0
ATTRIB
  5
B1
100
AcDbEntity
  8
ASHADE
  6
Continuous
 62
     7
100
AcDbText
 10
0.0
 20
0.0
 30
0.0
 40
0.01
  1

100
AcDbAttribute
  2
LAY
 70
     1
  0
ATTRIB
  5
B2
100
AcDbEntity
  8
ASHADE
  6
Continuous
 62
     7
100
AcDbText
 10
0.0
 20
0.0
 30
0.0
 40
0.01
  1

100
AcDbAttribute
  2
LAZ
 70
     1
  0
ATTRIB
  5
B3
100
AcDbEntity
  8
ASHADE
  6
Continuous
 62
     7
100
AcDbText
 10
0.0
 20
0.0
 30
0.0
 40
0.01
  1
1
100
AcDbAttribute
  2
INTENSITY
 70
     1
  0
ATTRIB
  5
B4
100
AcDbEntity
  8
ASHADE
  6
Continuous
 62
     7
100
AcDbText
 10
0.0
 20
0.0
 30
0.0
 40
0.01
  1
1,1,1
100
AcDbAttribute
  2
COLOR
 70
     1
  0
ATTRIB
  5
B5
100
AcDbEntity
  8
ASHADE
  6
Continuous
 62
     7
100
AcDbText
 10
0.0
 20
0.0
 30
0.0
 40
0.01
  1
0
100
AcDbAttribute
  2
CONEA
 70
     1
  0
ATTRIB
  5
B6
100
AcDbEntity
  8
ASHADE
  6
Continuous
 62
     7
100
AcDbText
 10
0.0
 20
0.0
 30
0.0
 40
0.01
  1
-1
100
AcDbAttribute
  2
CONED
 70
     1
  0
ATTRIB
  5
B7
100
AcDbEntity
  8
ASHADE
  6
Continuous
 62
     7
100
AcDbText
 10
0.0
 20
0.0
 30
0.0
 40
0.01
  1
-1
100
AcDbAttribute
  2
BEAMD
 70
     1
  0
SEQEND
  5
B8
100
AcDbEntity
  8
0
  0
INSERT
  5
B9
100
AcDbEntity
  8
0
 60
     1
100
AcDbBlockReference
 66
     1
  2
OVERHEAD
 10
0.0
 20
0.0
 30
0.0
1001
AVE_RENDER
1002
{
1070
     0
1000
LIGHT_6
1011
1.0
1021
0.0
1031
0.0
1041
100.0
1010
1.0
1020
1.0
1030
1.0
1002
{
1070
     0
1070
     0
1040
0.0
1040
0.0
1040
3.0
1002
}
1002
{
1070
     9
1070
    21
1070
    15
1070
     0
1040
37.62
1040
122.37
1002
}
1002
}
1001
TCAD
1000
TCW_LIGTH
1002
{
1070
     1
1002
}
  0
ATTRIB
  5
BA
100
AcDbEntity
  8
ASHADE
  6
Continuous
 62
     1
100
AcDbText
 10
0.0
 20
0.0
 30
0.0
 40
0.2
  1
LIGHT_6
  7
ASHADE
 72
     1
 11
0.0
 21
-0.1
 31
0.0
100
AcDbAttribute
  2
SNAME
 70
     0
  0
ATTRIB
  5
BB
100
AcDbEntity
  8
ASHADE
  6
Continuous
 62
     7
100
AcDbText
 10
0.0
 20
0.0
 30
0.0
 40
0.01
  1

100
AcDbAttribute
  2
GNAME
 70
     1
  0
ATTRIB
  5
BC
100
AcDbEntity
  8
ASHADE
  6
Continuous
 62
     7
100
AcDbText
 10
0.0
 20
0.0
 30
0.0
 40
0.01
  1

100
AcDbAttribute
  2
LAX
 70
     1
  0
ATTRIB
  5
BD
100
AcDbEntity
  8
ASHADE
  6
Continuous
 62
     7
100
AcDbText
 10
0.0
 20
0.0
 30
0.0
 40
0.01
  1

100
AcDbAttribute
  2
LAY
 70
     1
  0
ATTRIB
  5
BE
100
AcDbEntity
  8
ASHADE
  6
Continuous
 62
     7
100
AcDbText
 10
0.0
 20
0.0
 30
0.0
 40
0.01
  1

100
AcDbAttribute
  2
LAZ
 70
     1
  0
ATTRIB
  5
BF
100
AcDbEntity
  8
ASHADE
  6
Continuous
 62
     7
100
AcDbText
 10
0.0
 20
0.0
 30
0.0
 40
0.01
  1
1
100
AcDbAttribute
  2
INTENSITY
 70
     1
  0
ATTRIB
  5
C0
100
AcDbEntity
  8
ASHADE
  6
Continuous
 62
     7
100
AcDbText
 10
0.0
 20
0.0
 30
0.0
 40
0.01
  1
1,1,1
100
AcDbAttribute
  2
COLOR
 70
     1
  0
ATTRIB
  5
C1
100
AcDbEntity
  8
ASHADE
  6
Continuous
 62
     7
100
AcDbText
 10
0.0
 20
0.0
 30
0.0
 40
0.01
  1
0
100
AcDbAttribute
  2
CONEA
 70
     1
  0
ATTRIB
  5
C2
100
AcDbEntity
  8
ASHADE
  6
Continuous
 62
     7
100
AcDbText
 10
0.0
 20
0.0
 30
0.0
 40
0.01
  1
-1
100
AcDbAttribute
  2
CONED
 70
     1
  0
ATTRIB
  5
C3
100
AcDbEntity
  8
ASHADE
  6
Continuous
 62
     7
100
AcDbText
 10
0.0
 20
0.0
 30
0.0
 40
0.01
  1
-1
100
AcDbAttribute
  2
BEAMD
 70
     1
  0
SEQEND
  5
C4
100
AcDbEntity
  8
0
  0
INSERT
  5
ED
100
AcDbEntity
  8
0
 60
     1
100
AcDbBlockReference
 66
     1
  2
SH_SPOT
 10
5.5
 20
4.25
 30
0.0
 50
-90.0
1001
AVE_RENDER
1002
{
1070
     0
1000
LIGHT_7
1011
5.5
1021
4.25
1031
0.0
1041
100.0
1010
0.501961
1020
0.501961
1030
0.501961
1002
{
1070
     1
1070
     0
1040
0.0
1040
0.0
1040
3.0
1002
}
1002
{
1070
     9
1070
    21
1070
    15
1070
     0
1040
37.62
1040
122.37
1002
}
1002
}
1001
TCAD
1000
TCW_LIGTH
1002
{
1070
     0
1002
}
  0
ATTRIB
  5
EE
100
AcDbEntity
  8
ASHADE
  6
Continuous
 62
     1
100
AcDbText
 10
5.5
 20
4.25
 30
0.0
 40
0.2
  1
LIGHT_7
 50
-90.0
  7
ASHADE
 72
     1
 11
5.4
 21
4.25
 31
0.0
100
AcDbAttribute
  2
SNAME
 70
     0
  0
ATTRIB
  5
EF
100
AcDbEntity
  8
ASHADE
  6
Continuous
 62
     7
100
AcDbText
 10
5.5
 20
4.25
 30
0.0
 40
0.01
  1

 50
-90.0
100
AcDbAttribute
  2
GNAME
 70
     1
  0
ATTRIB
  5
F0
100
AcDbEntity
  8
ASHADE
  6
Continuous
 62
     7
100
AcDbText
 10
5.5
 20
4.25
 30
0.0
 40
0.01
  1

 50
-90.0
100
AcDbAttribute
  2
LAX
 70
     1
  0
ATTRIB
  5
F1
100
AcDbEntity
  8
ASHADE
  6
Continuous
 62
     7
100
AcDbText
 10
5.5
 20
4.25
 30
0.0
 40
0.01
  1

 50
-90.0
100
AcDbAttribute
  2
LAY
 70
     1
  0
ATTRIB
  5
F2
100
AcDbEntity
  8
ASHADE
  6
Continuous
 62
     7
100
AcDbText
 10
5.5
 20
4.25
 30
0.0
 40
0.01
  1

 50
-90.0
100
AcDbAttribute
  2
LAZ
 70
     1
  0
ATTRIB
  5
F3
100
AcDbEntity
  8
ASHADE
  6
Continuous
 62
     7
100
AcDbText
 10
5.5
 20
4.25
 30
0.0
 40
0.01
  1
1
 50
-90.0
100
AcDbAttribute
  2
INTENSITY
 70
     1
  0
ATTRIB
  5
F4
100
AcDbEntity
  8
ASHADE
  6
Continuous
 62
     7
100
AcDbText
 10
5.5
 20
4.25
 30
0.0
 40
0.01
  1
1,1,1
 50
-90.0
100
AcDbAttribute
  2
COLOR
 70
     1
  0
ATTRIB
  5
F5
100
AcDbEntity
  8
ASHADE
  6
Continuous
 62
     7
100
AcDbText
 10
5.5
 20
4.25
 30
0.0
 40
0.01
  1
0
 50
-90.0
100
AcDbAttribute
  2
ZSIZE
 70
     1
  0
ATTRIB
  5
F6
100
AcDbEntity
  8
ASHADE
  6
Continuous
 62
     7
100
AcDbText
 10
5.5
 20
4.25
 30
0.0
 40
0.01
  1
-1
 50
-90.0
100
AcDbAttribute
  2
BIASMIN
 70
     1
  0
ATTRIB
  5
F7
100
AcDbEntity
  8
ASHADE
  6
Continuous
 62
     7
100
AcDbText
 10
5.5
 20
4.25
 30
0.0
 40
0.01
  1
-1
 50
-90.0
100
AcDbAttribute
  2
BIASMAX
 70
     1
  0
ATTRIB
  5
F8
100
AcDbEntity
  8
ASHADE
  6
Continuous
 62
     7
100
AcDbText
 10
5.5
 20
4.25
 30
0.0
 40
0.01
  1
10.0
 50
-90.0
100
AcDbAttribute
  2
CONEAN
 70
     1
  0
ATTRIB
  5
F9
100
AcDbEntity
  8
ASHADE
  6
Continuous
 62
     7
100
AcDbText
 10
5.5
 20
4.25
 30
0.0
 40
0.01
  1
0.0
 50
-90.0
100
AcDbAttribute
  2
CONEDE
 70
     1
  0
ATTRIB
  5
FA
100
AcDbEntity
  8
ASHADE
  6
Continuous
 62
     7
100
AcDbText
 10
5.5
 20
4.25
 30
0.0
 40
0.01
  1
0.0
 50
-90.0
100
AcDbAttribute
  2
BEAMDI
 70
     1
  0
ATTRIB
  5
FB
100
AcDbEntity
  8
ASHADE
  6
Continuous
 62
     7
100
AcDbText
 10
5.5
 20
4.25
 30
0.0
 40
0.01
  1
0,0,0
 50
-90.0
100
AcDbAttribute
  2
LFXYZ
 70
     1
  0
SEQEND
  5
FC
100
AcDbEntity
  8
0
  0
ENDSEC
  0
SECTION
  2
OBJECTS
  0
DICTIONARY
  5
19
100
AcDbDictionary
280
     0
281
     1
  3
ACAD_GROUP
350
1A
  3
ACAD_MLINESTYLE
350
1B
  3
ACAD_LAYOUT
350
1E
  3
ACAD_PLOTSETTINGS
350
22
  3
ACAD_PLOTSTYLENAME
350
1F
  0
DICTIONARY
  5
1A
102
{ACAD_REACTORS
330
19
102
}
100
AcDbDictionary
280
     0
281
     1
  3
Note: Format|Explode to edit
350
13C
  0
DICTIONARY
  5
1B
102
{ACAD_REACTORS
330
19
102
}
100
AcDbDictionary
280
     0
281
     1
  3
Standard
350
1C
  0
MLINESTYLE
  5
1C
100
AcDbMlineStyle
  2
STANDARD
 70
     0
  3

 62
   256
 51
90.0
 52
90.0
 71
     3
 49
0.25
 62
     7
  6
BYLAYER
 49
0.0
 62
     7
  6
BYLAYER
 49
-0.25
 62
     7
  6
BYLAYER
  0
ACDBDICTIONARYWDFLT
  5
1F
102
{ACAD_REACTORS
330
19
102
}
100
AcDbDictionary
281
     1
  3
Normal
350
1D
100
AcDbDictionaryWithDefault
340
1D
  0
ACDBPLACEHOLDER
  5
1D
102
{ACAD_REACTORS
330
1F
102
}
  0
LAYOUT
  5
21
102
{ACAD_REACTORS
330
1E
102
}
100
AcDbPlotSettings
  1

  2

  4

  6

 40
0.0
 41
0.0
 42
0.0
 43
0.0
 44
0.0
 45
0.0
 46
0.0
 47
0.0
 48
0.0
 49
0.0
140
0.0
141
0.0
142
1.0
143
1.0
 70
     0
 72
     0
 73
     0
 74
     0
  7

 75
     0
147
1.0
148
0.0
149
0.0
100
AcDbLayout
  1
Layout1
 70
     0
 71
     0
 10
0.0
 20
0.0
 11
0.0
 21
0.0
 12
0.0
 22
0.0
 32
0.0
 14
0.0
 24
0.0
 34
0.0
 15
0.0
 25
0.0
 35
0.0
146
0.0
 13
0.0
 23
0.0
 33
0.0
 16
0.0
 26
0.0
 36
0.0
 17
0.0
 27
0.0
 37
0.0
 76
     0
330
B
331
0
345
0
346
0
  0
DICTIONARY
  5
1E
102
{ACAD_REACTORS
330
19
102
}
100
AcDbDictionary
280
     0
281
     1
  3
Model
350
FD
  3
Paper 1
350
4B2
  0
DICTIONARY
  5
22
102
{ACAD_REACTORS
330
19
102
}
100
AcDbDictionary
280
     0
281
     1
  0
LAYOUT
  5
FD
100
AcDbPlotSettings
  1

  2

  4

  6

 40
0.0
 41
0.0
 42
0.0
 43
0.0
 44
0.0
 45
0.0
 46
0.0
 47
0.0
 48
0.0
 49
0.0
140
0.0
141
0.0
142
1.0
143
1.0
 70
     0
 72
     0
 73
     0
 74
     0
  7

 75
     0
147
1.0
148
0.0
149
0.0
100
AcDbLayout
  1
Model
 70
     0
 71
     0
 10
0.0
 20
0.0
 11
0.0
 21
0.0
 12
0.0
 22
0.0
 32
0.0
 14
0.0
 24
0.0
 34
0.0
 15
0.0
 25
0.0
 35
0.0
146
0.0
 13
0.0
 23
0.0
 33
0.0
 16
0.0
 26
0.0
 36
0.0
 17
0.0
 27
0.0
 37
0.0
 76
     0
330
A
331
0
345
0
346
0
  0
GROUP
  5
13C
102
{ACAD_REACTORS
330
1A
102
}
100
AcDbGroup
300

 70
     0
 71
     1
340
FF
340
105
340
106
340
107
340
108
340
109
340
10A
340
10B
340
10C
340
10D
340
10E
340
10F
340
110
340
111
340
112
340
113
340
114
340
115
340
116
340
117
340
118
340
119
340
11A
340
11B
340
11C
340
11D
340
122
340
123
340
124
340
125
340
12A
340
12B
340
12C
340
12D
340
132
340
133
340
134
340
135
340
13A
340
13B
  0
LAYOUT
  5
4B2
100
AcDbPlotSettings
  1

  2

  4

  6

 40
6.35
 41
5.08
 42
6.35
 43
5.08
 44
279.4
 45
215.9
 46
0.254
 47
0.0
 48
0.0
 49
0.0
140
0.0
141
0.0
142
1.0
143
1.0
 70
     0
 72
     0
 73
     0
 74
     0
  7

 75
     0
147
1.0
148
0.0
149
0.0
100
AcDbLayout
  1
Paper 1
 70
     1
 71
     1
 10
-6.604
 20
-5.08
 11
272.796
 21
210.82
 12
0.0
 22
0.0
 32
0.0
 14
0.0
 24
0.0
 34
0.0
 15
0.0
 25
0.0
 35
0.0
146
0.0
 13
0.0
 23
0.0
 33
0.0
 16
0.0
 26
0.0
 36
0.0
 17
0.0
 27
0.0
 37
0.0
 76
     0
330
B
331
FE
345
0
346
0
  0
ENDSEC
  0
EOF
